<?xml version="1.0" encoding="UTF-8"?>
<svg id="Layer_2" data-name="Layer 2" xmlns="http://www.w3.org/2000/svg" viewBox="0 0 144.5 125.02">
  <defs>
    <style>
      .cls-1 {
        fill: #fff;
      }
    </style>
  </defs>
  <g id="Layer_1-2" data-name="Layer 1">
    <path class="cls-1" d="m131.36,35.1h-.22c-10.87,0-21.12-5.04-27.42-13.48C95.56,10.68,86.1,0,68.25,0s-34.15,16.38-34.15,35.06c0,8.84,3.3,17.29,9.3,23.79l3.39,3.67,7.35-6.78-3.39-3.67c-4.29-4.64-6.65-10.68-6.65-17,0-13.35,11.29-25.06,24.15-25.06,12.11,0,18.75,5.93,27.46,17.6,8.18,10.96,21.42,17.5,35.43,17.5h.21s.01,0,.02,0c1.96,0,2.69,1.36,2.92,1.95.22.59.58,2.09-.9,3.39-10.5,9.25-26.27,8.19-26.93,8.14h-.12c-43.39-2.45-55.05,11.47-65.33,23.75-7.52,8.97-14.01,16.73-33.71,18.03-3.4.23-6.23,2.5-7.06,5.66-.78,2.99.43,6.04,3.17,7.83,11.41,7.36,24.89,11.17,38.38,11.17,7,0,14-1.03,20.72-3.12,18.73-5.83,34.34-19.43,42.83-37.31l2.14-4.52-9.03-4.29-2.14,4.52c-7.29,15.37-20.69,27.05-36.76,32.05-14.26,4.44-30.01,3.29-43.53-2.97,18.05-3.19,25.76-12.4,32.67-20.64,9.63-11.49,18.73-22.35,57.04-20.2,2.1.16,20.9,1.19,34.29-10.6,4.15-3.66,5.58-9.33,3.63-14.45-1.94-5.11-6.75-8.4-12.28-8.4Z"/>
  </g>
</svg>