<?xml version="1.0" encoding="UTF-8"?><svg id="Layer_2" xmlns="http://www.w3.org/2000/svg" viewBox="0 0 1042.4 114.05"><g id="Layer_1-2"><g><path d="M165.3,92.53V20.03h24.23c21.38,0,34.09,13.57,34.14,36.15-.05,22.63-12.77,36.35-34.84,36.35h-23.53Zm22.93-9.61c16.42-.05,24.53-9.61,24.53-26.73s-8.11-26.53-23.93-26.53h-12.52v53.27h11.92Z"/><path d="M265.64,38.16h10.61v54.37h-10.41v-9.41h-.6c-2.5,5.81-8.06,10.11-16.22,10.11-10.51,0-17.92-7.06-17.92-20.53V38.16h10.71v33.24c0,7.41,4.51,12.12,11.01,12.12,5.96,0,12.82-4.36,12.82-13.62v-31.74Z"/><path d="M282.76,65.59c-.05-16.57,9.91-28.14,25.23-28.14,12.42,0,21.38,7.31,22.53,18.32h-10.41c-1.1-5.11-5.16-9.36-11.92-9.41-8.81,.05-14.72,7.36-14.72,18.92s5.76,19.28,14.72,19.22c6.06,.05,10.56-3.35,11.92-9.21h10.41c-1.15,10.56-9.51,18.32-22.33,18.32-15.87,0-25.48-11.67-25.43-28.04Z"/><path d="M336.54,20.03h10.71V61.09h.9l21.53-22.93h12.82l-21.98,23.33,23.48,31.04h-13.12l-18.47-24.43-5.16,5.11v19.33h-10.71V20.03Z"/></g><path d="M408.64,92.53V20.03h24.23c21.38,0,34.09,13.57,34.14,36.15-.05,22.63-12.77,36.35-34.84,36.35h-23.53Zm22.93-9.61c16.42-.05,24.53-9.61,24.53-26.73s-8.11-26.53-23.93-26.53h-12.52v53.27h11.92Z"/><path d="M472.02,65.69c-.05-16.72,9.96-28.24,25.13-28.24,12.37,0,24.13,7.66,24.13,27.33v3.8h-38.65c.3,10.36,6.41,16.22,15.32,16.22,6.06,0,10.01-2.6,11.82-5.91h10.81c-2.4,8.81-10.76,14.72-22.73,14.72-16.02,0-25.88-11.06-25.83-27.94Zm38.75-5.11c0-8.26-5.36-14.37-13.52-14.32-8.56-.05-14.12,6.66-14.57,14.32h28.09Z"/><path d="M548.02,45.87c-6.11,0-10.46,3.15-10.41,7.31-.05,3.2,2.5,5.51,8.51,6.91l8.61,2c10.01,2.25,14.87,7.01,14.92,14.72-.05,9.81-8.36,16.82-22.23,16.82-13.07,0-20.78-5.81-22.13-15.92h10.91c.95,4.91,4.66,7.36,11.11,7.31,6.91,.05,11.36-2.85,11.42-7.41-.05-3.5-2.65-5.76-8.41-7.11l-8.51-1.8c-9.81-2.15-14.92-7.41-14.92-14.92,0-9.66,8.41-16.32,21.03-16.32s19.68,6.16,20.73,15.52h-10.31c-1-4.31-4.41-7.11-10.31-7.11Z"/><path d="M581.37,17.13c3.66,0,6.71,2.8,6.71,6.31s-3.05,6.36-6.71,6.31c-3.7,.05-6.76-2.8-6.81-6.31,.05-3.5,3.1-6.31,6.81-6.31Zm-5.41,21.03h10.71v54.37h-10.71V38.16Z"/><path d="M594.69,97.83h10.91c1.05,5.16,5.86,7.66,12.92,7.61,8.51,.05,13.87-3.66,13.92-12.12v-10.71h-.7c-1.9,3.5-5.81,9.11-15.82,9.11-12.82,0-22.73-9.56-22.73-26.93s9.76-27.33,22.83-27.33c10.11,0,13.82,6.11,15.82,9.51h.7v-8.81h10.41v55.57c.05,13.97-10.51,20.33-24.53,20.33s-22.78-6.06-23.73-16.22Zm23.63-14.92c9.11-.05,14.22-6.71,14.22-17.92s-5.01-18.47-14.22-18.42c-9.46-.05-14.27,8.01-14.22,18.42-.05,10.66,4.86,17.87,14.22,17.92Z"/><path d="M662.58,92.53h-10.71V38.16h10.31v8.91h.6c2.55-5.86,7.91-9.61,16.02-9.61,11.17,0,18.57,7.06,18.52,20.53v34.54h-10.61V59.29c-.05-7.91-4.3-12.62-11.51-12.62s-12.62,4.96-12.62,13.62v32.24Z"/><path d="M752.6,28.55c-8.86,0-14.47,4.56-14.52,10.71,0,6.86,7.46,9.56,13.22,10.91l7.01,1.9c9.26,2.25,20.88,7.31,20.93,20.43-.05,12.27-9.81,21.23-26.93,21.23-16.22,0-26.43-8.11-27.13-21.33h11.01c.65,7.91,7.66,11.67,16.12,11.71,9.26-.05,15.97-4.71,16.02-11.81-.05-6.31-6.06-8.86-13.72-10.91l-8.61-2.3c-11.66-3.2-18.87-9.11-18.92-19.22,.05-12.52,11.16-20.83,25.83-20.83s24.98,8.41,25.33,20.13h-10.71c-.7-6.76-6.61-10.61-14.92-10.61Z"/><path d="M811.48,46.67h-11.11v29.84c.05,6.16,3.05,7.26,6.51,7.31,1.55,0,3.91-.15,5.41-.3v9.31c-1.45,.2-3.75,.4-6.71,.4-8.36,0-15.92-4.61-15.82-14.52V46.67h-8.01v-8.51h8.01v-13.02h10.61v13.02h11.11v8.51Z"/><path d="M852.34,38.16h10.61v54.37h-10.41v-9.41h-.6c-2.5,5.81-8.06,10.11-16.22,10.11-10.51,0-17.92-7.06-17.92-20.53V38.16h10.71v33.24c0,7.41,4.51,12.12,11.01,12.12,5.96,0,12.82-4.36,12.82-13.62v-31.74Z"/><path d="M869.47,65.49c0-17.72,9.76-28.04,22.83-28.04,10.11,0,13.77,6.11,15.72,9.51h.5V20.03h10.71V92.53h-10.41v-8.51h-.8c-2,3.55-5.91,9.56-15.82,9.61-13.12-.05-22.73-10.61-22.73-28.14Zm25.13,19.02c9.11-.05,14.22-7.81,14.22-19.22s-5.01-18.77-14.22-18.72c-9.46-.05-14.27,8.01-14.22,18.72-.05,10.91,4.86,19.17,14.22,19.22Z"/><path d="M934.45,17.13c3.66,0,6.71,2.8,6.71,6.31s-3.05,6.36-6.71,6.31c-3.7,.05-6.76-2.8-6.81-6.31,.05-3.5,3.1-6.31,6.81-6.31Zm-5.41,21.03h10.71v54.37h-10.71V38.16Z"/><path d="M946.27,65.59c-.05-16.92,10.01-28.14,25.43-28.14s25.33,11.21,25.33,28.14-10.01,28.04-25.33,28.04-25.48-11.21-25.43-28.04Zm25.43,19.12c9.81,0,14.52-8.76,14.52-19.12s-4.71-19.27-14.52-19.32c-9.96,.05-14.72,8.91-14.72,19.32s4.76,19.12,14.72,19.12Z"/><path d="M116.83,31.21h-.19c-9.67,0-18.78-4.48-24.38-11.99C84.99,9.5,76.58,0,60.7,0S30.32,14.57,30.32,31.18c0,7.87,2.94,15.38,8.27,21.15l3.02,3.27,6.54-6.03-3.02-3.27c-3.81-4.13-5.91-9.5-5.91-15.12,0-11.87,10.04-22.29,21.48-22.29,10.77,0,16.68,5.27,24.42,15.65,7.27,9.75,19.05,15.56,31.51,15.56h.19s.01,0,.02,0c1.75,0,2.4,1.21,2.59,1.73,.2,.52,.52,1.86-.8,3.02-9.34,8.22-23.36,7.28-23.96,7.24h-.11c-38.59-2.18-48.96,10.2-58.11,21.12-6.69,7.98-12.46,14.88-29.98,16.04-3.02,.2-5.54,2.22-6.28,5.03-.7,2.66,.38,5.37,2.82,6.96,10.15,6.54,22.13,9.94,34.14,9.94,6.22,0,12.45-.91,18.43-2.77,16.66-5.18,30.54-17.28,38.09-33.18l1.91-4.02-8.03-3.81-1.91,4.02c-6.49,13.67-18.4,24.06-32.7,28.51-12.69,3.95-26.69,2.92-38.72-2.64,16.05-2.83,22.91-11.02,29.06-18.35,8.56-10.22,16.66-19.88,50.73-17.96,1.87,.14,18.58,1.05,30.49-9.43,3.69-3.25,4.96-8.3,3.23-12.85-1.73-4.54-6-7.47-10.92-7.47Z"/><path d="M1010.67,77.81c.02-8.73,7.11-15.84,15.84-15.84s15.86,7.11,15.88,15.84c-.02,8.75-7.13,15.84-15.88,15.84s-15.82-7.09-15.84-15.84Zm15.84,12.24c6.75,0,12.26-5.49,12.24-12.24,.02-6.75-5.49-12.24-12.24-12.24s-12.22,5.49-12.24,12.24c.02,6.75,5.53,12.24,12.24,12.24Zm-4.83-19.17h5.55c3.15,0,4.97,1.78,4.95,4.56,.02,1.9-.79,3.29-2.52,3.96l2.87,5.23h-3.17l-2.55-4.75h-2.12v4.87h-3.01v-13.86Zm4.95,6.58c1.64-.02,2.44-.67,2.46-2.02-.02-1.37-.81-2.08-2.46-2.1h-1.94v4.12h1.94Z"/></g></svg>