<svg width="26" height="26" viewBox="0 0 26 26" fill="none" xmlns="http://www.w3.org/2000/svg">
<g clip-path="url(#clip0_332_1832)">
<path d="M13 0C5.83228 0 0 5.83228 0 13C0 20.1677 5.83228 26 13 26C20.1677 26 26 20.1677 26 13C26 5.83228 20.1677 0 13 0ZM13 2.05263C19.0583 2.05263 23.9474 6.94168 23.9474 13C23.9474 19.0583 19.0583 23.9474 13 23.9474C6.94168 23.9474 2.05263 19.0583 2.05263 13C2.05263 6.94168 6.94168 2.05263 13 2.05263ZM13 3.76316C12.4331 3.76316 11.9737 4.22256 11.9737 4.78947V13C11.9737 13.2835 12.0873 13.5413 12.273 13.727L17.597 19.051C17.9978 19.4517 18.6502 19.4517 19.051 19.051C19.4517 18.6502 19.4517 17.9978 19.051 17.597L14.0263 12.5724V4.78947C14.0263 4.22256 13.5669 3.76316 13 3.76316Z" fill="white"/>
</g>
<defs>
<clipPath id="clip0_332_1832">
<rect width="26" height="26" fill="white"/>
</clipPath>
</defs>
</svg>
