<svg width="116" height="38" viewBox="0 0 116 38" fill="none" xmlns="http://www.w3.org/2000/svg">
<g clip-path="url(#clip0_536_59)">
<path d="M103.895 8.43194H103.851C100.715 8.43194 97.8532 9.46759 95.7041 11.3608C95.6824 11.3793 95.6592 11.3964 95.6375 11.415L93.2785 13.5276V9.96334C93.2785 9.10006 92.5689 8.39917 91.6898 8.39633H91.6725C90.1186 8.39633 88.64 8.99606 87.37 10.1371C87.2122 9.43768 86.5779 8.91344 85.819 8.91201L76.5711 8.88495C76.5624 8.88495 76.5537 8.88495 76.5451 8.88495C76.3365 8.88495 76.1309 8.92626 75.9383 9.00461C75.9368 9.00461 75.9354 9.00461 75.9339 9.00604C75.889 9.02455 75.8441 9.0445 75.8007 9.06729C75.7964 9.06872 75.7935 9.07156 75.7891 9.07299C75.7486 9.09436 75.7095 9.11715 75.6704 9.14279C75.6646 9.14707 75.6588 9.14992 75.653 9.15419C75.6168 9.17841 75.582 9.20405 75.5473 9.23112C75.54 9.23681 75.5328 9.24251 75.5256 9.24821C75.5082 9.26245 75.4893 9.2767 75.472 9.29095L74.7942 9.89781C74.5698 9.30234 73.9905 8.8764 73.307 8.87355L63.4827 8.84506H63.4422C61.2902 8.84506 59.2889 9.3579 57.4917 10.3679C56.7343 10.7924 56.0421 11.2853 55.4165 11.8395C55.3991 11.8537 55.3803 11.868 55.3629 11.8836L52.2117 14.7057C51.9728 13.0432 51.3747 11.6258 50.4479 10.546C49.1677 9.05589 47.3459 8.26527 45.1795 8.25814H45.152C43.197 8.25814 41.3491 8.8821 39.8155 9.99468V1.59408C39.8155 0.730797 39.1059 0.0299156 38.2269 0.0270665L28.9602 0H28.9558C28.9051 0 28.8545 0.00284911 28.8038 0.00712277C28.7864 0.00854733 28.769 0.0113964 28.7531 0.0142455C28.7198 0.0185192 28.6879 0.0227929 28.6546 0.0284911C28.6343 0.0327648 28.6155 0.0370384 28.5952 0.0427366C28.5663 0.0498594 28.5373 0.0555576 28.5084 0.064105C28.4881 0.0698032 28.4678 0.076926 28.4475 0.0840487C28.42 0.0925961 28.3925 0.102568 28.365 0.11254C28.3447 0.121087 28.3259 0.129634 28.3056 0.138182C28.2795 0.149578 28.2535 0.160975 28.2274 0.173796C28.2071 0.183768 28.1883 0.195164 28.1695 0.205136C28.1449 0.219381 28.1202 0.232202 28.0971 0.247873C28.0782 0.260694 28.0594 0.273515 28.0391 0.286336C28.016 0.302006 27.9943 0.317676 27.9725 0.33477C27.9537 0.349016 27.9349 0.364686 27.9175 0.380356C27.9059 0.390328 27.8943 0.398875 27.8827 0.408847L23.3862 4.43606L22.0394 5.64266L21.143 6.44469L18.8376 8.71258L15.2882 8.7026H15.2563C12.8886 8.7026 10.8061 9.48326 9.29135 10.7867C9.24791 10.8181 9.20591 10.8508 9.16681 10.8879L2.42711 16.9237C0.8631 18.3269 0 20.2586 0 22.3655C0 24.4724 0.712492 26.3856 2.0419 27.7404L1.0615 28.6179C0.729869 28.9142 0.541609 29.3359 0.541609 29.776V36.0469C0.541609 36.9102 1.2512 37.6111 2.13023 37.6139L13.0218 37.6467H13.0609C15.5995 37.6467 17.7688 36.9059 19.3343 35.5028L20.6246 34.3474V36.1068C20.6246 36.97 21.3342 37.6709 22.2132 37.6738L31.4829 37.7008H31.4872C31.884 37.7008 32.2663 37.5555 32.5603 37.292L33.238 36.6851C33.461 37.282 34.0446 37.708 34.7282 37.7094L43.9978 37.7365H44.0021C44.3989 37.7365 44.7813 37.5912 45.0752 37.3276L48.3321 34.4101C49.0475 35.1039 49.857 35.7093 50.752 36.2165C52.5622 37.2436 54.5766 37.7664 56.7387 37.7735L66.5644 37.802H66.5687C66.9655 37.802 67.3478 37.6567 67.6418 37.3931L68.3166 36.7891C68.5411 37.3846 69.1233 37.8091 69.8053 37.812L79.075 37.839H79.0793C79.4761 37.839 79.8584 37.6937 80.1524 37.4302L86.4664 31.7747C87.008 32.8103 87.7045 33.7591 88.5459 34.5882C90.7688 36.7763 93.8505 37.9872 97.2247 37.9972H97.271C100.544 37.9972 103.544 36.923 105.722 34.9728L112.462 28.937C114.365 27.2289 115.587 24.9112 115.917 22.3584C115.958 22.0493 115.903 21.7387 115.764 21.4638C115.767 21.4609 115.768 21.4566 115.77 21.4524C115.803 21.3982 115.833 21.3413 115.861 21.2843C115.865 21.2743 115.87 21.2658 115.874 21.2558C115.9 21.1974 115.922 21.139 115.939 21.0777C115.942 21.0677 115.945 21.0578 115.948 21.0492C115.965 20.988 115.98 20.9253 115.988 20.8626C115.988 20.8541 115.99 20.8455 115.991 20.837C116 20.7714 116.006 20.7059 116.006 20.6389C116.006 20.6375 116.006 20.6347 116.006 20.6333C116.006 14.7712 112.217 8.45046 103.901 8.42624L103.895 8.43194ZM19.7977 30.0439H19.7644L8.87284 30.0111V23.7402L18.5682 23.7687H18.5726C19.1098 23.7687 19.3024 23.4667 19.3024 23.1633C19.3024 22.8214 19.0707 22.555 18.5682 22.5536L15.3229 22.5436C10.8047 22.5308 8.33268 20.015 8.33268 16.3282C8.33268 12.6415 11.3695 10.2682 15.2577 10.2682C15.2664 10.2682 15.2751 10.2682 15.2853 10.2682L25.8293 10.2995V16.4565L16.9854 16.4308H16.981C16.4061 16.4308 16.2526 16.7328 16.2526 17.0362C16.2526 17.3026 16.4076 17.6445 16.9868 17.646L19.8064 17.6545C24.4419 17.6688 26.9139 20.1461 26.9139 23.7943C26.9139 27.4426 24.2624 30.0439 19.8021 30.0439H19.7977ZM50.739 30.135L41.4693 30.108V19.6945C41.4693 18.401 40.9277 17.7913 39.8097 17.7884H39.8011C39.2623 17.7884 38.6874 17.938 38.2255 18.1645V30.098L28.9558 30.0709V1.56701L38.2255 1.59408V14.3253C39.5737 11.5246 42.2282 9.82373 45.1549 9.82373C45.1621 9.82373 45.1694 9.82373 45.1766 9.82373C48.5769 9.8337 50.739 12.2341 50.739 16.4166V30.135ZM73.3026 30.202L63.4784 30.1735C61.5871 30.1678 59.8551 29.7205 58.2824 28.8273C56.7111 27.9355 55.473 26.736 54.5708 25.2289C53.6671 23.7231 53.2167 22.0678 53.2167 20.2629C53.2167 18.458 53.6671 16.8055 54.5708 15.3054C55.473 13.8039 56.7097 12.6116 58.2824 11.7284C59.8449 10.8494 61.5639 10.4121 63.4422 10.4121C63.4537 10.4121 63.4653 10.4121 63.4784 10.4121L73.3026 10.4406V30.202ZM91.6855 20.1475C91.658 20.1475 91.629 20.1475 91.6015 20.1475C89.9245 20.1475 86.992 20.2885 85.8147 20.3968V30.2404L76.5451 30.2134V10.4505L85.8147 10.4776V15.9123C86.8168 12.2341 89.1281 9.96191 91.6725 9.96191H91.6855V20.1475ZM103.964 23.4353C103.964 23.4353 103.975 23.4353 103.979 23.4353C105.446 23.4353 106.423 22.7715 106.764 22.1419L114.33 22.1646C113.725 26.8415 109.734 30.3971 104.006 30.3971C103.993 30.3971 103.979 30.3971 103.966 30.3971C97.8373 30.3786 93.4479 25.9739 93.4479 20.1304C93.4479 14.2869 97.5549 9.99895 103.851 9.99895C103.864 9.99895 103.878 9.99895 103.891 9.99895C111.493 10.0217 114.407 15.8752 114.407 20.6389L100.825 20.5991C101.052 22.4239 102.263 23.4311 103.966 23.4368L103.964 23.4353Z" fill="black"/>
<path d="M62.2446 18.1313C61.8753 18.3535 61.5755 18.6569 61.3511 19.0401C61.1237 19.4233 61.0107 19.8393 61.0107 20.2838C61.0107 20.7282 61.1223 21.1456 61.3511 21.5303C61.5755 21.9149 61.8753 22.2212 62.2446 22.4434C62.6153 22.6685 63.0266 22.7796 63.4798 22.781C63.9331 22.781 64.3444 22.6728 64.7151 22.4505C65.0858 22.2297 65.3842 21.9263 65.6101 21.5431C65.836 21.1599 65.9489 20.7439 65.9489 20.298C65.9489 19.8521 65.836 19.4376 65.6101 19.053C65.3842 18.6683 65.0858 18.3621 64.7151 18.1384C64.3444 17.9162 63.9331 17.8022 63.4798 17.8008C63.0266 17.8008 62.6153 17.9105 62.2446 18.1313Z" fill="black"/>
<path d="M103.927 16.5508C102.528 16.5465 101.507 17.2503 101.052 18.4412L106.688 18.4583C106.271 17.2275 105.288 16.5551 103.925 16.5508H103.927Z" fill="black"/>
</g>
<defs>
<clipPath id="clip0_536_59">
<rect width="116" height="38" fill="white"/>
</clipPath>
</defs>
</svg>
