<svg width="148" height="38" viewBox="0 0 148 38" fill="none" xmlns="http://www.w3.org/2000/svg">
<g clip-path="url(#clip0_536_47)">
<path d="M138.609 21.4322L140.944 22.6612C141.856 23.1027 142.726 23.623 143.542 24.2158C143.81 24.4235 144.026 24.6875 144.174 24.9882C144.322 25.2888 144.398 25.6182 144.396 25.9515C144.414 26.2783 144.349 26.6044 144.207 26.9008C144.064 27.1972 143.849 27.4548 143.58 27.6508C143.311 27.8872 142.992 28.0646 142.646 28.1707C142.3 28.2768 141.935 28.3092 141.575 28.2657C140.504 28.2288 139.453 27.9752 138.488 27.521C137.523 27.0668 136.666 26.422 135.971 25.6276V27.9409C137.68 29.1099 139.71 29.7523 141.799 29.7848C143.379 29.8474 144.936 29.3888 146.216 28.4831C146.766 28.1178 147.215 27.6271 147.526 27.0538C147.837 26.4805 147.999 25.842 147.998 25.1937C148.006 24.2568 147.648 23.352 146.996 22.663C146.016 21.7584 144.903 21.0028 143.692 20.4216L141.279 19.1562C140.575 18.8304 139.924 18.4039 139.349 17.8909C139.169 17.7229 139.027 17.5207 138.93 17.2967C138.834 17.0728 138.786 16.832 138.789 16.5891C138.772 16.334 138.825 16.0792 138.942 15.8505C139.06 15.6219 139.237 15.4276 139.457 15.2874C139.952 14.9101 140.575 14.7294 141.202 14.7816C143.218 15.1753 145.127 15.9757 146.806 17.1313V13.2261C146.564 13.5157 146.248 13.7383 145.889 13.8716C145.531 14.0049 145.143 14.0443 144.764 13.9857L143.391 13.6218C142.625 13.3797 141.826 13.2464 141.02 13.2261C139.593 13.1547 138.189 13.6061 137.086 14.4914C136.611 14.8727 136.231 15.3536 135.974 15.8982C135.716 16.4427 135.589 17.0369 135.601 17.6362C135.61 18.1375 135.727 18.6313 135.944 19.0858C136.161 19.5402 136.474 19.9451 136.863 20.2742C137.404 20.7425 138.002 21.1431 138.645 21.4668" fill="black"/>
<path d="M50.521 23.2752V13.5508H46.1037C47.8485 13.5508 48.7761 15.4666 48.7761 17.2377V23.2752C48.8435 24.3364 48.666 25.3988 48.2567 26.3844C47.8371 26.9247 47.292 27.3603 46.6661 27.6557C46.0401 27.9511 45.3512 28.0978 44.6558 28.0837C42.7998 28.0837 41.9087 27.5052 41.3519 26.4208C40.9916 25.5743 40.8268 24.6609 40.869 23.7455V13.5508H35.1533C36.8982 13.5508 37.8258 15.4666 37.8258 17.2377V23.5999C37.7666 24.8499 38.035 26.0939 38.6057 27.215C39.608 28.9861 41.5014 29.8175 44.1365 29.8175C46.7715 29.8175 48.7023 28.9497 49.7046 27.1795C50.2911 25.9735 50.5592 24.644 50.4845 23.3116" fill="black"/>
<path d="M72.6444 17.2377V29.4573H75.7269V13.5508H69.9355C71.6804 13.5508 72.608 15.4666 72.608 17.2377" fill="black"/>
<path d="M86.7508 20.4163L84.3381 19.151C83.634 18.8246 82.9836 18.3982 82.4082 17.8856C82.2282 17.7177 82.0855 17.5154 81.9891 17.2915C81.8927 17.0676 81.8446 16.8267 81.8478 16.5839C81.8311 16.3288 81.884 16.0739 82.0014 15.8453C82.1187 15.6166 82.2961 15.4223 82.5156 15.2822C83.0107 14.9049 83.6342 14.7242 84.2605 14.7764C86.2766 15.17 88.1858 15.9704 89.8651 17.1261V13.2227C89.6245 13.516 89.3098 13.7434 88.9519 13.8828C88.594 14.0221 88.2051 14.0686 87.8231 14.0177L86.45 13.6538C85.682 13.4107 84.882 13.2768 84.0746 13.2563C82.647 13.1849 81.2435 13.6363 80.1403 14.5217C79.6653 14.9029 79.285 15.3838 79.0278 15.9284C78.7706 16.473 78.6432 17.0671 78.6551 17.6664C78.6662 18.1673 78.7841 18.6604 79.0014 19.1146C79.2186 19.5687 79.5304 19.9739 79.917 20.3045C80.458 20.7724 81.0567 21.173 81.6993 21.497L84.0345 22.726C84.9466 23.1677 85.8163 23.688 86.6331 24.2806C86.8988 24.49 87.1133 24.7545 87.261 25.0547C87.4087 25.3549 87.4858 25.6834 87.4869 26.0163C87.5049 26.3431 87.4398 26.6691 87.2974 26.9656C87.155 27.262 86.9396 27.5196 86.6705 27.7156C86.4012 27.952 86.0828 28.1293 85.7369 28.2354C85.391 28.3415 85.0258 28.374 84.6659 28.3305C83.5949 28.2936 82.5435 28.04 81.5786 27.5858C80.6137 27.1316 79.7565 26.4868 79.0614 25.6924V28.0057C80.7739 29.1638 82.8044 29.7936 84.8892 29.8133C86.4704 29.877 88.0274 29.4193 89.3083 28.5142C89.8582 28.149 90.3081 27.6583 90.6187 27.085C90.9294 26.5117 91.0913 25.8731 91.0906 25.2249C91.0988 24.2879 90.7405 23.3831 90.0883 22.6942C89.109 21.7895 87.9952 21.0339 86.7844 20.4527" fill="black"/>
<path d="M55.3838 17.2377V29.4573H57.0914V17.708L66.8545 29.4928H67.9679V13.5872H63.588C65.3328 13.5872 66.2604 15.5029 66.2604 17.2741V24.0702L57.6481 13.5508H52.7114C54.4563 13.5508 55.3838 15.4666 55.3838 17.2377Z" fill="black"/>
<path d="M125.837 29.7804C127.885 29.821 129.87 29.0819 131.367 27.72C132.223 26.9198 132.894 25.9516 133.335 24.8796C133.777 23.8076 133.979 22.6564 133.929 21.5024C133.998 20.4236 133.84 19.3423 133.464 18.3254C133.087 17.3084 132.501 16.3773 131.741 15.5894C130.981 14.8015 130.064 14.1736 129.045 13.7444C128.026 13.3152 126.928 13.0938 125.818 13.0938C124.708 13.0938 123.61 13.3152 122.591 13.7444C121.572 14.1736 120.655 14.8015 119.895 15.5894C119.135 16.3773 118.549 17.3084 118.173 18.3254C117.796 19.3423 117.638 20.4236 117.707 21.5024C117.659 22.605 117.841 23.7056 118.242 24.7376C118.644 25.7697 119.256 26.7116 120.043 27.5062C120.792 28.2571 121.694 28.8473 122.692 29.2389C123.689 29.6305 124.759 29.815 125.834 29.7804M122.498 16.3364C122.888 15.8323 123.393 15.4232 123.973 15.141C124.552 14.8588 125.191 14.7112 125.839 14.7099C126.474 14.7135 127.1 14.8549 127.672 15.1239C128.243 15.3928 128.746 15.7825 129.143 16.2645C130.071 17.3125 130.554 19.0117 130.554 21.506C130.554 24.0004 130.071 25.6632 129.143 26.7121C128.745 27.2055 128.236 27.6038 127.655 27.8765C127.075 28.1492 126.438 28.2892 125.793 28.2857C125.149 28.2822 124.514 28.1353 123.936 27.8563C123.359 27.5773 122.855 27.1735 122.462 26.6757C121.571 25.5914 121.089 23.8921 121.089 21.506C121.089 19.12 121.572 17.3852 122.462 16.3364" fill="black"/>
<path d="M22.8292 26.3838V18.9363C22.8292 17.7792 22.8665 11.9591 27.5435 10.3326C28.6943 9.89873 30.7362 9.93512 30.8847 8.16399C30.9585 7.40441 31.2584 4.6572 31.2584 4.6572C31.5554 1.8736 34.5996 0.9703 36.4893 0.5H30.4392C30.4392 0.5 24.0874 0.571864 23.6091 4.69359C23.6091 4.69359 23.3121 7.40441 23.2355 8.20037C23.087 9.97151 21.045 9.93603 19.8942 10.369C15.2911 11.96 15.2173 17.7074 15.2173 18.9363V26.3829C15.2252 26.8744 15.1326 27.3625 14.9449 27.8189C14.7572 28.2752 14.4782 28.6906 14.1241 29.0409C13.77 29.3912 13.3479 29.6694 12.8823 29.8593C12.4167 30.0492 11.917 30.147 11.4122 30.147C10.9075 30.147 10.4078 30.0492 9.94219 29.8593C9.47661 29.6694 9.05448 29.3912 8.70036 29.0409C8.34625 28.6906 8.06724 28.2752 7.87957 27.8189C7.6919 27.3625 7.59932 26.8744 7.60723 26.3829V13.4783H0V26.3838C0 29.332 1.2026 32.1595 3.34325 34.2441C5.4839 36.3288 8.38724 37.5 11.4146 37.5C14.4419 37.5 17.3453 36.3288 19.4859 34.2441C21.6266 32.1595 22.8292 29.332 22.8292 26.3838Z" fill="black"/>
<path d="M94.6195 17.2377V29.4573H97.702V13.5508H91.9106C93.6555 13.5508 94.5831 15.4666 94.5831 17.2377" fill="black"/>
<path d="M113.176 17.2377V24.0702L104.569 13.5508H99.6318C101.377 13.5508 102.304 15.4666 102.304 17.2377V29.4573H104.012V17.708L113.775 29.4928H114.888V13.5872H110.508C112.253 13.5872 113.181 15.5029 113.181 17.2741" fill="black"/>
</g>
<defs>
<clipPath id="clip0_536_47">
<rect width="148" height="37" fill="white" transform="translate(0 0.5)"/>
</clipPath>
</defs>
</svg>
