<svg width="140" height="35" viewBox="0 0 140 35" fill="none" xmlns="http://www.w3.org/2000/svg">
<g clip-path="url(#clip0_536_244)">
<path d="M123.328 14.832V20.501H130.488L123.328 27.8052V31.8389H127.389L134.55 24.5347V31.8389H140V24.3165L130.809 14.832H123.328Z" fill="black"/>
<path d="M133.267 14.832L139.998 21.8095V14.832H133.267Z" fill="black"/>
<path d="M16.2446 28.5663C16.2446 33.0357 12.3973 34.9983 8.22923 34.9983C4.38143 34.9978 1.49612 33.4721 0 30.3106L5.02309 27.3673C5.55727 28.8935 6.62616 29.6566 8.33454 29.6566C9.72372 29.6566 10.3648 29.2208 10.3648 28.4572C10.3648 26.277 0.853377 27.4759 0.853377 20.608C0.853377 16.3562 4.38197 14.176 8.44094 14.176C9.94829 14.1283 11.4401 14.4986 12.7575 15.2473C14.0749 15.996 15.1686 17.0952 15.9221 18.4278L11.0076 21.1535C10.4734 20.1722 9.72535 19.4091 8.44257 19.4091C7.48062 19.4091 6.8395 19.8449 6.8395 20.4995C6.84005 22.7882 16.2446 21.2642 16.2446 28.5663Z" fill="black"/>
<path d="M35.4809 14.832V34.4555H29.7098V32.602C28.6409 34.0191 26.7175 35.0004 24.2595 35.0004C20.4106 35.0004 17.0991 32.1651 17.0991 26.8239V14.832H22.8703V26.0609C22.8703 28.4592 24.3664 29.6604 26.1817 29.6604C28.319 29.6604 29.7103 28.3524 29.7103 25.6267V14.9428H35.4809V14.832Z" fill="black"/>
<path d="M66.5803 22.3531V34.4541H60.8092V22.898C60.8092 20.9355 59.8472 19.6275 58.0308 19.6275C56.1069 19.6275 55.0386 21.0446 55.0386 23.3338V34.4541H49.2669V22.898C49.2669 20.9355 48.3049 19.6275 46.4885 19.6275C44.5646 19.6275 43.4963 21.0446 43.4963 23.3338V34.4541H37.7251V14.8307H43.4963V16.6842C44.3513 15.3762 46.0613 14.2858 48.6263 14.2858C49.6132 14.2462 50.5935 14.4661 51.4731 14.9243C52.3527 15.3825 53.1021 16.0636 53.6494 16.9023C54.7166 15.3762 56.5341 14.2858 59.2061 14.2858C63.6945 14.2858 66.5803 17.4473 66.5803 22.3531Z" fill="black"/>
<path d="M97.4656 22.3531V34.4541H91.6944V22.898C91.6944 20.9355 90.7325 19.6275 88.9161 19.6275C86.9922 19.6275 85.9238 21.0446 85.9238 23.3338V34.4541H80.1521V22.898C80.1521 20.9355 79.1902 19.6275 77.3732 19.6275C75.4493 19.6275 74.381 21.0446 74.381 23.3338V34.4541H68.6104V14.8307H74.3815V16.6842C75.2365 15.3762 76.9465 14.2858 79.5115 14.2858C80.4984 14.2462 81.4787 14.4661 82.3584 14.9243C83.238 15.3825 83.9874 16.0636 84.5346 16.9023C85.6019 15.3762 87.4194 14.2858 90.0914 14.2858C94.5797 14.2858 97.4656 17.4473 97.4656 22.3531Z" fill="black"/>
<path d="M98.9619 9.59814C98.9619 8.90812 99.1625 8.23361 99.5383 7.65988C99.9141 7.08616 100.448 6.639 101.073 6.37494C101.698 6.11089 102.386 6.0418 103.049 6.17641C103.713 6.31103 104.322 6.6433 104.8 7.13121C105.279 7.61912 105.604 8.24076 105.736 8.91751C105.868 9.59427 105.8 10.2957 105.542 10.9332C105.283 11.5707 104.844 12.1156 104.282 12.4989C103.72 12.8823 103.058 13.0869 102.382 13.0869C101.483 13.0621 100.627 12.6866 99.9905 12.0377C99.3543 11.3887 98.9862 10.5156 98.9619 9.59814V9.59814ZM99.603 14.8313H105.374V34.4542H99.603V14.8313Z" fill="black"/>
<path d="M114.992 20.4986V27.4761C114.992 29.1114 116.382 29.3296 118.947 29.1114V34.4531C111.359 35.2162 109.221 32.9269 109.221 27.4756V20.4986H106.122V14.8297H109.221V9.37891H114.992V14.8297H118.947V20.4986H114.992Z" fill="black"/>
<path d="M42.2142 5.67429C42.2142 8.07268 40.5042 10.0352 37.6188 10.0352C36.9623 10.0575 36.3082 9.94384 35.696 9.7011C35.0837 9.45835 34.5261 9.09157 34.0566 8.62288C33.5872 8.1542 33.2157 7.59334 32.9646 6.97416C32.7135 6.35497 32.5881 5.69031 32.5958 5.02029C32.5792 4.34779 32.6986 3.67901 32.9465 3.05567C33.1945 2.43232 33.5657 1.86778 34.037 1.39724C34.5083 0.926708 35.0696 0.560276 35.6858 0.320799C36.3021 0.0813213 36.9601 -0.0260643 37.6188 0.00533883C38.4456 -0.00958383 39.2607 0.205871 39.9763 0.628496C40.692 1.05112 41.281 1.6649 41.68 2.40372L41.0389 2.83954C40.7024 2.21396 40.2076 1.69186 39.6061 1.3276C39.0046 0.963338 38.3184 0.770248 37.6188 0.768436C37.053 0.751593 36.4897 0.852877 35.9635 1.06607C35.4374 1.27927 34.9595 1.59988 34.5592 2.00824C34.1589 2.4166 33.8446 2.90409 33.6356 3.4408C33.4266 3.97751 33.3273 4.55212 33.3438 5.12938C33.3273 5.70664 33.4266 6.28126 33.6356 6.81797C33.8446 7.35468 34.1589 7.84217 34.5592 8.25053C34.9595 8.65888 35.4374 8.9795 35.9635 9.19269C36.4897 9.40589 37.053 9.50718 37.6188 9.49033C39.97 9.49033 41.3592 8.07323 41.4661 6.21976H37.405V5.23848H42.2142V5.67429Z" fill="black"/>
<path d="M46.8096 2.73261V3.38662C45.6338 3.38662 44.5654 4.14972 44.5654 5.89409V9.82089H43.8174V2.84337H44.4585V4.25881C44.6382 3.78086 44.9637 3.37449 45.387 3.09969C45.8104 2.82488 46.3091 2.69619 46.8096 2.73261V2.73261Z" fill="black"/>
<path d="M54.504 2.84275V9.82027H53.7559V8.18277C53.4872 8.72314 53.073 9.17421 52.562 9.48315C52.051 9.79208 51.4643 9.9461 50.8706 9.92715C50.4058 9.93249 49.9446 9.84303 49.5141 9.66403C49.0836 9.48503 48.6926 9.22009 48.3639 8.88478C48.0351 8.54946 47.7754 8.15053 47.5999 7.7114C47.4245 7.27228 47.3368 6.80181 47.342 6.32764C47.3368 5.85346 47.4245 5.38299 47.5999 4.94387C47.7754 4.50474 48.0351 4.10581 48.3639 3.77049C48.6926 3.43518 49.0836 3.17024 49.5141 2.99124C49.9446 2.81224 50.4058 2.72278 50.8706 2.72812C51.4643 2.70917 52.051 2.86319 52.562 3.17212C53.073 3.48106 53.4872 3.93213 53.7559 4.4725V2.84275H54.504ZM53.7559 6.33151C53.7562 5.74924 53.5873 5.17996 53.2703 4.69568C52.9534 4.2114 52.5028 3.8339 51.9755 3.61092C51.4482 3.38794 50.868 3.32952 50.3081 3.44303C49.7483 3.55655 49.234 3.8369 48.8304 4.24863C48.4268 4.66035 48.1519 5.18495 48.0407 5.75605C47.9294 6.32715 47.9867 6.91908 48.2052 7.45697C48.4238 7.99485 48.7939 8.45452 49.2686 8.7778C49.7434 9.10109 50.3014 9.27347 50.8722 9.27314C51.2538 9.28375 51.6334 9.21491 51.988 9.07084C52.3425 8.92676 52.6646 8.71047 52.9345 8.43517C53.2043 8.15987 53.4164 7.83134 53.5576 7.46965C53.6988 7.10796 53.7663 6.7207 53.7559 6.33151V6.33151Z" fill="black"/>
<path d="M66.367 5.34916V9.82086H65.7258V5.34916C65.7258 4.04115 64.9778 3.27805 63.9089 3.27805C62.733 3.27805 61.8786 4.04115 61.8786 5.89462V9.82086H61.2369V5.34916C61.2369 4.04115 60.4889 3.27805 59.5269 3.27805C58.458 3.27805 57.3897 4.04115 57.3897 5.89462V9.82086H56.6416V2.84334H57.2827V4.0406C57.4875 3.6202 57.8103 3.27139 58.2098 3.03849C58.6094 2.8056 59.0679 2.69912 59.5269 2.73259C59.9824 2.7178 60.4314 2.84569 60.8135 3.09904C61.1956 3.35239 61.4925 3.71905 61.6641 4.14969C61.8742 3.72561 62.1949 3.36889 62.591 3.11886C62.9871 2.86882 63.4431 2.73515 63.9089 2.73259C65.2981 2.73259 66.367 3.60478 66.367 5.34916Z" fill="black"/>
<path d="M75.0238 2.84278V9.8203H74.2758V8.1828C74.0071 8.72291 73.5933 9.1738 73.0826 9.48272C72.5719 9.79164 71.9855 9.94581 71.3921 9.92718C70.9273 9.93252 70.4661 9.84306 70.0356 9.66406C69.6051 9.48506 69.214 9.22012 68.8853 8.88481C68.5566 8.54949 68.2969 8.15056 68.1214 7.71143C67.946 7.27231 67.8583 6.80184 67.8635 6.32767C67.8588 5.85381 67.9468 5.38377 68.1225 4.94509C68.2982 4.50642 68.558 4.10794 68.8867 3.77304C69.2154 3.43814 69.6063 3.17355 70.0365 2.99479C70.4667 2.81603 70.9276 2.7267 71.3921 2.73203C71.9858 2.71308 72.5725 2.86709 73.0835 3.17603C73.5945 3.48497 74.0087 3.93604 74.2774 4.47641V2.84278H75.0238ZM74.2758 6.33154C74.2761 5.74927 74.1071 5.17999 73.7902 4.69571C73.4733 4.21143 73.0227 3.83393 72.4954 3.61095C71.9681 3.38797 71.3878 3.32955 70.828 3.44306C70.2681 3.55657 69.7539 3.83693 69.3503 4.24866C68.9466 4.66038 68.6718 5.18498 68.5605 5.75608C68.4492 6.32718 68.5065 6.91911 68.7251 7.457C68.9437 7.99488 69.3138 8.45454 69.7885 8.77783C70.2632 9.10112 70.8213 9.2735 71.3921 9.27317C71.7736 9.28378 72.1532 9.21494 72.5078 9.07087C72.8624 8.92679 73.1844 8.7105 73.4543 8.4352C73.7242 8.1599 73.9362 7.83137 74.0775 7.46968C74.2187 7.10799 74.2862 6.72073 74.2758 6.33154V6.33154Z" fill="black"/>
<path d="M83.7867 0.00390625V9.81562H83.1456V8.18034C82.8768 8.72071 82.4627 9.17178 81.9517 9.48072C81.4407 9.78965 80.854 9.94367 80.2603 9.92472C79.7954 9.93006 79.3342 9.8406 78.9038 9.6616C78.4733 9.4826 78.0822 9.21766 77.7535 8.88235C77.4248 8.54703 77.1651 8.1481 76.9896 7.70897C76.8141 7.26985 76.7264 6.79938 76.7317 6.3252C76.7264 5.85103 76.8141 5.38056 76.9896 4.94144C77.1651 4.50231 77.4248 4.10338 77.7535 3.76806C78.0822 3.43275 78.4733 3.16781 78.9038 2.98881C79.3342 2.80981 79.7954 2.72035 80.2603 2.72569C80.854 2.70674 81.4407 2.86076 81.9517 3.16969C82.4627 3.47863 82.8768 3.9297 83.1456 4.47007V0.11466H83.7867V0.00390625ZM83.1456 6.32687C83.1427 5.64924 82.9098 4.99354 82.4865 4.47134C82.0631 3.94915 81.4755 3.59271 80.8236 3.46269C80.1716 3.33267 79.4957 3.43709 78.9107 3.75818C78.3257 4.07928 77.8679 4.59721 77.6151 5.22386C77.3623 5.85051 77.3301 6.54715 77.5241 7.19525C77.7181 7.84335 78.1262 8.40287 78.679 8.7786C79.2318 9.15433 79.8952 9.32307 80.5562 9.2561C81.2173 9.18912 81.8351 8.89058 82.3047 8.41126C82.5722 8.13722 82.7842 7.81208 82.9285 7.45443C83.0728 7.09677 83.1465 6.71362 83.1456 6.32687Z" fill="black"/>
<path d="M85.4963 6.32884C85.4746 5.59053 85.6695 4.86245 86.056 4.23782C86.4425 3.61318 87.0029 3.12044 87.6655 2.82267C88.3282 2.5249 89.0628 2.43566 89.7755 2.56638C90.4881 2.6971 91.1463 3.04183 91.6658 3.55643C92.1852 4.07103 92.5423 4.73207 92.6912 5.45491C92.8401 6.17775 92.7742 6.92949 92.5018 7.61386C92.2294 8.29824 91.7629 8.8841 91.1622 9.29643C90.5614 9.70876 89.8537 9.92879 89.1296 9.92835C88.657 9.94459 88.1861 9.8634 87.7449 9.68962C87.3038 9.51584 86.9016 9.25305 86.5624 8.91698C86.2231 8.58091 85.9539 8.17848 85.7707 7.73377C85.5875 7.28905 85.4942 6.81121 85.4963 6.32884V6.32884ZM91.9085 6.32884C91.9088 5.74657 91.7399 5.17728 91.4229 4.693C91.106 4.20873 90.6554 3.83122 90.1281 3.60824C89.6008 3.38527 89.0206 3.32684 88.4607 3.44035C87.9009 3.55387 87.3866 3.83422 86.983 4.24595C86.5794 4.65768 86.3046 5.18228 86.1933 5.75337C86.082 6.32447 86.1393 6.91641 86.3579 7.45429C86.5764 7.99218 86.9465 8.45184 87.4212 8.77513C87.896 9.09841 88.454 9.2708 89.0248 9.27047C89.4064 9.28107 89.786 9.21224 90.1406 9.06816C90.4951 8.92408 90.8172 8.70779 91.0871 8.43249C91.3569 8.15719 91.569 7.82867 91.7102 7.46698C91.8514 7.10529 91.9189 6.71802 91.9085 6.32884V6.32884Z" fill="black"/>
</g>
<defs>
<clipPath id="clip0_536_244">
<rect width="140" height="35" fill="white"/>
</clipPath>
</defs>
</svg>
