<svg width="147" height="24" viewBox="0 0 147 24" fill="none" xmlns="http://www.w3.org/2000/svg">
<g clip-path="url(#clip0_537_388)">
<path d="M0.0131292 2.2441C-0.0182045 2.00115 0.00672546 1.75427 0.0860028 1.52243C0.16528 1.29059 0.296794 1.07997 0.470434 0.906765C0.644075 0.733556 0.855218 0.602369 1.08763 0.523289C1.32005 0.444209 1.56755 0.419341 1.81111 0.450597H12.5111C12.7547 0.419341 13.0022 0.444209 13.2346 0.523289C13.467 0.602369 13.6782 0.733556 13.8518 0.906765C14.0255 1.07997 14.157 1.29059 14.2363 1.52243C14.3155 1.75427 14.3405 2.00115 14.3091 2.2441V3.5535C14.3405 3.79646 14.3155 4.04334 14.2363 4.27518C14.157 4.50702 14.0255 4.71763 13.8518 4.89084C13.6782 5.06405 13.467 5.19524 13.2346 5.27432C13.0022 5.3534 12.7547 5.37827 12.5111 5.34701H5.71327V10.2261H11.0367C11.2807 10.1941 11.5289 10.2184 11.762 10.2972C11.9951 10.376 12.2069 10.5071 12.3811 10.6806C12.5554 10.854 12.6873 11.0651 12.7667 11.2975C12.8462 11.5298 12.871 11.7773 12.8393 12.0208V13.3302C12.8708 13.5736 12.8458 13.8209 12.7663 14.0532C12.6868 14.2854 12.5548 14.4963 12.3806 14.6696C12.2064 14.8429 11.9947 14.974 11.7617 15.0527C11.5287 15.1315 11.2806 15.1557 11.0367 15.1237H5.71327V21.9404C5.7446 22.1834 5.71967 22.4303 5.6404 22.6621C5.56112 22.8939 5.42961 23.1046 5.25597 23.2778C5.08233 23.451 4.87118 23.5822 4.63877 23.6612C4.40635 23.7403 4.15885 23.7652 3.91529 23.7339H1.81111C1.56755 23.7652 1.32005 23.7403 1.08763 23.6612C0.855218 23.5822 0.644075 23.451 0.470434 23.2778C0.296794 23.1046 0.16528 22.8939 0.0860028 22.6621C0.00672546 22.4303 -0.0182045 22.1834 0.0131292 21.9404V2.2441Z" fill="black"/>
<path d="M20.7718 13.0491H21.2213V12.7805C21.2213 11.4527 20.142 11.0228 18.9738 11.0228C17.9748 11.0416 16.9922 11.2805 16.0966 11.7224C15.8996 11.8302 15.6827 11.8967 15.4591 11.9179C15.2354 11.9391 15.0098 11.9145 14.796 11.8456C14.5823 11.7768 14.3848 11.6651 14.2158 11.5175C14.0469 11.3699 13.9099 11.1893 13.8133 10.987L13.4354 10.2159C13.3097 10.0269 13.2272 9.81259 13.1938 9.58821C13.1603 9.36383 13.1768 9.13485 13.2419 8.91751C13.3071 8.70018 13.4194 8.4998 13.5708 8.33058C13.7223 8.16136 13.9092 8.02744 14.1183 7.93831C15.7869 7.14213 17.6096 6.71924 19.4591 6.69922C23.8501 6.69922 26.5621 9.13821 26.5621 13.154V21.211C26.5913 21.4393 26.5676 21.6714 26.493 21.8892C26.4184 22.1071 26.2947 22.305 26.1315 22.4678C25.9683 22.6306 25.7699 22.754 25.5515 22.8284C25.3331 22.9028 25.1005 22.9264 24.8715 22.8973H23.3798C23.147 22.9296 22.9099 22.9071 22.6875 22.8314C22.465 22.7557 22.2635 22.6291 22.0991 22.4616C21.9347 22.2941 21.8119 22.0905 21.7408 21.867C21.6696 21.6436 21.6519 21.4067 21.6893 21.1752V21.0853C21.6899 20.9825 21.7019 20.8801 21.7251 20.7799H21.6708C21.1558 21.5526 20.4585 22.1873 19.6401 22.6282C18.8217 23.0692 17.9072 23.3029 16.9771 23.3088C16.3123 23.3628 15.6436 23.2777 15.0137 23.0589C14.3838 22.8402 13.8067 22.4926 13.3193 22.0385C12.8318 21.5844 12.4448 21.0338 12.1831 20.4218C11.9213 19.8099 11.7906 19.1502 11.7992 18.485C11.7807 14.2329 16.8523 13.0491 20.7718 13.0491ZM18.5763 19.3275C19.2969 19.2817 19.9744 18.9695 20.4765 18.452C20.9787 17.9345 21.2694 17.2488 21.2918 16.5289V16.0978H20.8122C19.176 16.0978 17.0718 16.5289 17.0718 17.9813C17.0707 18.172 17.1102 18.3608 17.1877 18.5352C17.2652 18.7096 17.3789 18.8655 17.5214 18.9928C17.6638 19.1201 17.8317 19.2157 18.014 19.2734C18.1962 19.3311 18.3887 19.3496 18.5786 19.3275H18.5763Z" fill="black"/>
<path d="M27.0408 8.84849C27.0116 8.62011 27.0352 8.38809 27.1099 8.17022C27.1845 7.95236 27.3082 7.75444 27.4714 7.59164C27.6346 7.42884 27.833 7.30549 28.0514 7.23104C28.2698 7.1566 28.5024 7.13304 28.7313 7.16217H30.4577C30.6856 7.13425 30.9169 7.1588 31.1338 7.23396C31.3507 7.30912 31.5474 7.43287 31.7089 7.59572C31.8703 7.75856 31.9922 7.95616 32.0652 8.17334C32.1381 8.39051 32.1602 8.62148 32.1297 8.84849V9.11706C32.1258 9.24906 32.1138 9.3807 32.0939 9.51126H32.1482C32.6613 8.63929 33.4027 7.92314 34.293 7.43964C35.1832 6.95615 36.1886 6.72355 37.2012 6.76682C40.402 6.76682 42.9014 8.23759 42.9014 12.7041V21.2959C42.9306 21.5242 42.907 21.7563 42.8324 21.9741C42.7577 22.192 42.6341 22.3899 42.4709 22.5527C42.3076 22.7155 42.1092 22.8389 41.8908 22.9133C41.6724 22.9877 41.4398 23.0113 41.2109 22.9822H39.2893C39.0603 23.0113 38.8277 22.9877 38.6093 22.9133C38.3909 22.8389 38.1925 22.7155 38.0293 22.5527C37.8661 22.3899 37.7424 22.192 37.6678 21.9741C37.5931 21.7563 37.5695 21.5242 37.5987 21.2959V13.7103C37.5987 12.2396 37.0048 11.6114 35.8366 11.6114C33.4632 11.6114 32.3839 13.5847 32.3839 15.8266V21.2982C32.4131 21.5265 32.3895 21.7586 32.3149 21.9764C32.2402 22.1943 32.1166 22.3922 31.9534 22.555C31.7902 22.7178 31.5918 22.8412 31.3734 22.9156C31.155 22.99 30.9223 23.0136 30.6934 22.9845H28.729C28.5001 23.0136 28.2675 22.99 28.0491 22.9156C27.8307 22.8412 27.6323 22.7178 27.469 22.555C27.3058 22.3922 27.1822 22.1943 27.1076 21.9764C27.0329 21.7586 27.0093 21.5265 27.0385 21.2982L27.0408 8.84849Z" fill="black"/>
<path d="M52.0276 13.048H52.4898V12.7794C52.4898 11.4516 51.4105 11.0216 50.2423 11.0216C49.2433 11.0405 48.2608 11.2794 47.3651 11.7213C47.1681 11.829 46.9512 11.8955 46.7276 11.9167C46.5039 11.9379 46.2783 11.9133 46.0645 11.8445C45.8508 11.7756 45.6533 11.664 45.4843 11.5163C45.3154 11.3687 45.1784 11.1882 45.0818 10.9859L44.704 10.2148C44.5782 10.0257 44.4957 9.81144 44.4623 9.58706C44.4288 9.36267 44.4453 9.1337 44.5104 8.91636C44.5756 8.69902 44.6879 8.49865 44.8394 8.32943C44.9908 8.16021 45.1777 8.02628 45.3868 7.93716C47.0555 7.14138 48.8782 6.71888 50.7276 6.69922C55.1186 6.69922 57.8306 9.13821 57.8306 13.154V21.2098C57.8598 21.4382 57.8362 21.6702 57.7615 21.8881C57.6869 22.1059 57.5632 22.3039 57.4 22.4667C57.2368 22.6295 57.0384 22.7528 56.82 22.8273C56.6016 22.9017 56.369 22.9253 56.14 22.8961H54.6656C54.4328 22.9285 54.1957 22.9059 53.9733 22.8303C53.7509 22.7546 53.5494 22.6279 53.3849 22.4604C53.2205 22.2929 53.0978 22.0893 53.0266 21.8659C52.9554 21.6425 52.9378 21.4055 52.9751 21.1741V21.0842C52.9758 20.9813 52.9878 20.8789 53.0109 20.7787H52.9566C52.4417 21.5514 51.7444 22.1861 50.926 22.6271C50.1075 23.068 49.1931 23.3017 48.2629 23.3076C47.598 23.3618 46.929 23.2768 46.2989 23.058C45.6688 22.8393 45.0915 22.4917 44.6039 22.0374C44.1163 21.5832 43.7293 21.0323 43.4675 20.4202C43.2058 19.8081 43.0751 19.1481 43.0839 18.4827C43.0539 14.2317 48.1069 13.048 52.0276 13.048ZM49.8321 19.3264C50.5527 19.2806 51.2302 18.9684 51.7324 18.4509C52.2345 17.9333 52.5252 17.2477 52.5476 16.5278V16.0967H52.0622C50.426 16.0967 48.3219 16.5278 48.3219 17.9801C48.3207 18.1713 48.3602 18.3605 48.438 18.5353C48.5158 18.71 48.63 18.8662 48.7729 18.9936C48.9159 19.1209 49.0843 19.2164 49.2672 19.2738C49.45 19.3312 49.6429 19.3491 49.8332 19.3264H49.8321Z" fill="black"/>
<path d="M59.3398 11.2396H58.8776C58.6501 11.2652 58.4199 11.239 58.204 11.1631C57.9882 11.0871 57.7924 10.9633 57.6315 10.801C57.4705 10.6387 57.3486 10.4421 57.2748 10.2259C57.2011 10.0098 57.1773 9.77984 57.2055 9.55328V8.49516C57.1763 8.26677 57.1999 8.03475 57.2746 7.81689C57.3492 7.59902 57.4728 7.4011 57.636 7.2383C57.7992 7.07551 57.9977 6.95215 58.2161 6.87771C58.4345 6.80327 58.6671 6.77971 58.896 6.80884H59.5073V4.22578C59.4781 3.99739 59.5017 3.76537 59.5763 3.54751C59.651 3.32964 59.7746 3.13172 59.9378 2.96892C60.101 2.80613 60.2995 2.68277 60.5179 2.60833C60.7363 2.53389 60.9689 2.51033 61.1978 2.53946H62.9773C63.2063 2.51033 63.4389 2.53389 63.6573 2.60833C63.8757 2.68277 64.0741 2.80613 64.2373 2.96892C64.4005 3.13172 64.5241 3.32964 64.5988 3.54751C64.6734 3.76537 64.697 3.99739 64.6678 4.22578V6.7904H66.304C66.533 6.76127 66.7656 6.78482 66.984 6.85927C67.2024 6.93371 67.4008 7.05706 67.564 7.21986C67.7272 7.38266 67.8509 7.58058 67.9255 7.79845C68.0001 8.01631 68.0237 8.24833 67.9945 8.47671V9.53484C68.025 9.76185 68.003 9.99281 67.93 10.21C67.857 10.4272 67.7352 10.6248 67.5737 10.7876C67.4122 10.9505 67.2155 11.0742 66.9986 11.1494C66.7817 11.2245 66.5504 11.2491 66.3225 11.2211H64.6505V16.4772C64.6357 16.7302 64.6722 16.9836 64.758 17.2221C64.8438 17.4607 64.9771 17.6795 65.1497 17.8654C65.3224 18.0513 65.5309 18.2005 65.7628 18.3041C65.9948 18.4076 66.2453 18.4633 66.4993 18.4678C67.7403 18.6292 68.1898 18.9876 68.1898 20.1541V21.5373C68.1898 22.7925 67.4168 23.2236 65.9944 23.2236C63.6568 23.2236 59.3051 22.147 59.3051 17.4477L59.3398 11.2396Z" fill="black"/>
<path d="M75.8139 6.72389C80.5249 6.72389 83.1503 10.3478 83.1503 14.5803C83.1364 15.0453 82.9438 15.4871 82.6123 15.8144C82.2808 16.1416 81.8359 16.3291 81.3696 16.3381H73.0072C73.4024 18.2756 75.0028 18.867 76.7118 18.867C77.7207 18.8459 78.7113 18.5943 79.6075 18.1316C80.6324 17.6705 81.3696 17.7858 81.8908 18.777L82.3229 19.5839C82.4549 19.7693 82.5448 19.9811 82.5864 20.2047C82.628 20.4283 82.6203 20.6582 82.5638 20.8785C82.5072 21.0988 82.4033 21.3041 82.2591 21.4803C82.115 21.6564 81.9341 21.7991 81.729 21.8984C80.0601 22.8338 78.1766 23.3219 76.2623 23.315C75.132 23.3796 74.0006 23.2115 72.9383 22.8211C71.876 22.4307 70.9057 21.8264 70.0876 21.0457C69.2696 20.2651 68.6214 19.3249 68.1834 18.2835C67.7454 17.2422 67.5269 16.1221 67.5416 14.9929C67.4865 13.894 67.6626 12.7957 68.0586 11.7687C68.4546 10.7417 69.0616 9.80874 69.8408 9.02987C70.62 8.251 71.554 7.64345 72.5827 7.2463C73.6115 6.84915 74.7121 6.6712 75.8139 6.72389V6.72389ZM77.8823 13.0023C77.9059 12.7004 77.8666 12.3968 77.767 12.1107C77.6673 11.8247 77.5095 11.5622 77.3033 11.3399C77.0971 11.1176 76.8471 10.9402 76.5689 10.8188C76.2908 10.6975 75.9904 10.6348 75.6868 10.6348C75.0519 10.6726 74.4499 10.9294 73.984 11.3614C73.5181 11.7933 73.2173 12.3734 73.1331 13.0023H77.8823Z" fill="black"/>
<path d="M91.1701 6.7237C95.8811 6.7237 98.5064 10.3476 98.5064 14.5801C98.4926 15.0451 98.3 15.4869 97.9685 15.8142C97.637 16.1414 97.192 16.3289 96.7258 16.3379H88.3633C88.7585 18.2755 90.3589 18.8668 92.0679 18.8668C93.0768 18.8457 94.0674 18.5941 94.9636 18.1314C95.9886 17.6703 96.7258 17.7856 97.2469 18.7769L97.6791 19.5837C97.8111 19.7691 97.901 19.9809 97.9426 20.2045C97.9842 20.4281 97.9765 20.658 97.9199 20.8783C97.8634 21.0986 97.7595 21.3039 97.6153 21.4801C97.4711 21.6562 97.2902 21.7989 97.0851 21.8982C95.4162 22.8336 93.5328 23.3217 91.6184 23.3148C90.4889 23.3829 89.3575 23.2179 88.2948 22.8299C87.2322 22.4419 86.2613 21.8394 85.4428 21.06C84.6243 20.2806 83.9758 19.3412 83.5378 18.3004C83.0999 17.2596 82.882 16.1398 82.8978 15.0112C82.8407 13.9109 83.0153 12.8109 83.4103 11.782C83.8054 10.7531 84.4121 9.81819 85.1914 9.03745C85.9707 8.2567 86.9054 7.64745 87.9351 7.24895C88.9648 6.85044 90.0668 6.67152 91.1701 6.7237V6.7237ZM93.2384 13.0021C93.262 12.7002 93.2228 12.3966 93.1231 12.1106C93.0235 11.8245 92.8656 11.562 92.6594 11.3397C92.4533 11.1174 92.2033 10.94 91.9251 10.8186C91.6469 10.6973 91.3466 10.6346 91.043 10.6346C90.408 10.6724 89.806 10.9292 89.3401 11.3612C88.8742 11.7931 88.5734 12.3732 88.4893 13.0021H93.2384Z" fill="black"/>
<path d="M146.533 18.1172L146.64 18.01C146.868 17.7018 146.993 17.3308 146.999 16.9484C147.006 16.5659 146.893 16.1909 146.676 15.8753C144.114 11.8005 140.306 8.65556 135.815 6.90485C131.324 5.15414 126.387 4.89047 121.735 6.15279L120.512 6.47553L121.375 5.56034L121.735 5.20186C122.555 4.39456 123.466 3.68445 124.45 3.08562C124.764 2.90762 125.012 2.63176 125.154 2.30024C125.297 1.96871 125.326 1.59976 125.239 1.24983C125.151 0.899892 124.951 0.588237 124.669 0.362529C124.387 0.13682 124.038 0.0094854 123.677 0L123.623 0C119.32 0.0919293 115.196 1.72899 112.006 4.61056L111.502 5.09467C109.749 6.80138 108.361 8.84561 107.423 11.1034L107.136 11.803L106.776 11.1218C106.398 10.4096 106.056 9.67865 105.751 8.93181V8.89723C105.607 8.55854 105.357 8.27552 105.038 8.09051C104.719 7.9055 104.349 7.82845 103.983 7.87088C103.616 7.91331 103.273 8.07294 103.005 8.32589C102.738 8.57884 102.559 8.91151 102.496 9.27414V9.38134C102.322 10.5882 102.231 11.8056 102.224 13.0248C102.187 16.3653 102.66 19.6918 103.626 22.8903C103.658 23.0015 103.701 23.1095 103.752 23.213V23.2672L103.824 23.3928C104.018 23.706 104.309 23.9473 104.653 24.08C104.997 24.2128 105.375 24.2296 105.73 24.128C106.084 24.0264 106.396 23.8119 106.616 23.5173C106.837 23.2227 106.956 22.864 106.953 22.4961C106.957 22.2878 106.92 22.0809 106.846 21.8863V21.8863C106.472 20.4978 106.207 19.0823 106.054 17.6527L105.983 17.2585L105.766 16.039L106.594 16.9542C106.812 17.1916 107.092 17.3626 107.403 17.4474C107.715 17.5323 108.043 17.5275 108.352 17.4337C108.66 17.3399 108.936 17.1608 109.147 16.9173C109.357 16.6737 109.495 16.3756 109.543 16.0574V16.0217C109.955 12.8253 111.415 9.85468 113.697 7.57285L114.146 7.14291C114.856 6.50113 115.627 5.93052 116.448 5.43931L117.779 4.64975L116.933 5.91765C116.188 7.06945 115.578 8.30327 115.117 9.59458C114.963 9.93492 114.915 10.3134 114.979 10.6812C115.043 11.0489 115.216 11.3891 115.476 11.6578C115.766 11.8971 116.134 12.0204 116.509 12.0037C116.885 11.9871 117.241 11.8318 117.508 11.5679C120.425 9.77864 123.769 8.80019 127.194 8.73392C130.618 8.66764 133.998 9.51597 136.983 11.191L137.504 11.4964L138.978 12.3932L137.269 12.1627C136.269 12.0215 135.259 11.9556 134.249 11.9656H133.457C132.833 11.9564 132.208 11.9803 131.586 12.037C131.354 12.0133 131.119 12.0385 130.896 12.1111C130.674 12.1837 130.469 12.302 130.296 12.4584C130.122 12.6148 129.983 12.8057 129.888 13.019C129.793 13.2322 129.744 13.4629 129.744 13.6962C129.744 13.9296 129.793 14.1603 129.888 14.3735C129.983 14.5868 130.122 14.7777 130.296 14.9341C130.469 15.0905 130.674 15.2088 130.896 15.2814C131.119 15.354 131.354 15.3792 131.586 15.3555H131.605C132.324 15.3739 133.008 15.337 133.454 15.3197H134.172C137.766 15.3165 141.287 16.3236 144.333 18.2255H144.35C144.68 18.4375 145.067 18.541 145.459 18.5216C145.851 18.5021 146.226 18.3607 146.533 18.1172V18.1172Z" fill="black"/>
<path d="M135.899 21.6103V21.4662C135.825 19.8846 135.584 18.3152 135.18 16.7842H135.162C135.021 16.4057 134.752 16.0885 134.401 15.888C134.05 15.6874 133.639 15.6161 133.241 15.6867C132.843 15.7572 132.482 15.9651 132.221 16.2739C131.961 16.5828 131.818 16.9731 131.816 17.3766C131.832 17.5753 131.881 17.7701 131.961 17.9529C132.025 18.1228 132.079 18.2964 132.123 18.4728L132.158 18.6526C132.249 19.0652 132.356 21.1457 132.465 21.88C132.477 22.0352 132.501 22.1892 132.536 22.341V22.3768C132.628 22.7345 132.842 23.0495 133.14 23.2685C133.438 23.4876 133.803 23.5972 134.172 23.579C134.63 23.579 135.069 23.3975 135.393 23.0746C135.717 22.7516 135.899 22.3136 135.899 21.8569C135.905 21.7748 135.905 21.6924 135.899 21.6103V21.6103Z" fill="black"/>
</g>
<defs>
<clipPath id="clip0_537_388">
<rect width="147" height="24" fill="white"/>
</clipPath>
</defs>
</svg>
