<svg width="113" height="53" viewBox="0 0 113 53" fill="none" xmlns="http://www.w3.org/2000/svg">
<g clip-path="url(#clip0_536_182)">
<path d="M27.9901 37.1441C27.9185 37.1864 27.8381 37.2121 27.755 37.219L27.285 37.2939L26.6379 37.3523L25.932 37.3912H25.2849C24.8574 37.3931 24.4308 37.354 24.011 37.2744C23.6596 37.2143 23.3293 37.0669 23.0505 36.846C22.7762 36.6118 22.5839 36.2971 22.5013 35.9472C22.3941 35.4594 22.3941 34.9543 22.5013 34.4665L23.8339 26.9836C23.8496 26.9071 23.8913 26.8383 23.9519 26.7887C24.0125 26.739 24.0884 26.7116 24.1669 26.7109H25.5779C25.6122 26.711 25.6461 26.7184 25.6772 26.7326C25.7084 26.7469 25.7361 26.7677 25.7584 26.7936C25.7807 26.8195 25.7972 26.8499 25.8066 26.8826C25.816 26.9154 25.8182 26.9499 25.813 26.9836L24.4803 34.4665C24.3822 34.789 24.409 35.1364 24.5556 35.4402C24.6657 35.54 24.7966 35.6144 24.9389 35.6582C25.0812 35.702 25.2315 35.7139 25.379 35.6933H28.0036C28.0379 35.6933 28.0718 35.7008 28.103 35.715C28.1341 35.7293 28.1618 35.7501 28.1841 35.776C28.2065 35.8019 28.2229 35.8322 28.2323 35.865C28.2417 35.8978 28.2439 35.9322 28.2387 35.9659L28.082 36.8819C28.0768 36.9628 28.042 37.0391 27.9841 37.0961" fill="black"/>
<path d="M35.7914 37.2416C35.7307 37.291 35.6544 37.3176 35.5759 37.3165H34.2629C34.2284 37.317 34.1943 37.3099 34.1629 37.2958C34.1315 37.2817 34.1035 37.2609 34.0811 37.2349C34.0587 37.2089 34.0423 37.1783 34.0331 37.1453C34.0239 37.1123 34.0221 37.0777 34.0278 37.0439L34.0866 36.7128C33.7227 36.937 33.3349 37.1201 32.9302 37.2588C32.5367 37.3791 32.1268 37.4382 31.7151 37.4341C31.3896 37.4401 31.0654 37.3941 30.7546 37.2978C30.4875 37.2159 30.2495 37.06 30.0683 36.8484C29.8344 36.5476 29.704 36.18 29.6962 35.7998C29.6746 35.284 29.714 34.7674 29.8137 34.2607L30.6371 29.6223C30.6508 29.5398 30.6922 29.4643 30.7546 29.4081C30.8109 29.3489 30.8882 29.314 30.97 29.3108H32.2831C32.3182 29.3115 32.3527 29.3207 32.3834 29.3377C32.4141 29.3547 32.4402 29.3789 32.4594 29.4081C32.4849 29.4371 32.5035 29.4714 32.5136 29.5085C32.5238 29.5456 32.5254 29.5846 32.5182 29.6223L31.6948 34.2802C31.6353 34.5607 31.602 34.846 31.5953 35.1325C31.5903 35.317 31.653 35.4969 31.7716 35.6388C31.8663 35.7279 31.9802 35.7945 32.1046 35.8335C32.2703 35.879 32.4421 35.8987 32.6138 35.892L33.0447 35.8335L33.5148 35.6972L33.9668 35.5025L34.339 35.3078L35.3605 29.6006C35.3742 29.5181 35.4156 29.4426 35.478 29.3864C35.5343 29.3272 35.6116 29.2923 35.6935 29.2891H37.0065C37.0417 29.2898 37.0761 29.299 37.1068 29.316C37.1375 29.3329 37.1636 29.3571 37.1828 29.3864C37.2083 29.4153 37.2269 29.4497 37.2371 29.4868C37.2472 29.5239 37.2488 29.5628 37.2415 29.6006L35.9089 37.0252C35.894 37.1018 35.8524 37.1708 35.7914 37.2199" fill="black"/>
<path d="M42.8283 37.1232C42.7507 37.1884 42.6552 37.2291 42.5541 37.24L41.8091 37.3763C41.4316 37.4175 41.052 37.437 40.6723 37.4347C40.2445 37.4409 39.8192 37.3683 39.418 37.2205C39.0594 37.0902 38.7417 36.8683 38.4967 36.5772C38.2456 36.2591 38.0774 35.8842 38.007 35.4859C37.9166 34.9827 37.9233 34.467 38.0266 33.9663L38.2616 32.6406C38.3498 32.1081 38.5281 31.5942 38.789 31.1209C39.0143 30.7072 39.3132 30.3375 39.6711 30.0297C40.0059 29.7459 40.3916 29.5276 40.8079 29.3863C41.2373 29.2428 41.6875 29.1705 42.1406 29.1721C42.5138 29.1694 42.8869 29.1889 43.2578 29.2305L43.944 29.3669C44.0282 29.3771 44.1053 29.4189 44.1595 29.4837C44.1943 29.5635 44.2012 29.6527 44.1791 29.7369L44.0224 30.6723C44.0175 30.7035 44.0063 30.7334 43.9895 30.7602C43.9726 30.7869 43.9505 30.8101 43.9245 30.8281C43.8664 30.8664 43.7982 30.8867 43.7286 30.8865H43.6894L43.2977 30.8281H41.8663C41.6937 30.826 41.5218 30.8513 41.3571 30.903C41.1753 30.9657 41.0086 31.0651 40.8674 31.1951C40.6975 31.3577 40.5582 31.5492 40.4561 31.7606C40.3139 32.0501 40.2149 32.3586 40.1623 32.6766L39.9273 34.0015C39.8652 34.3028 39.8519 34.612 39.8881 34.9175C39.9129 35.1205 39.9869 35.3145 40.1036 35.4829C40.203 35.6159 40.3391 35.7173 40.4953 35.775C40.6526 35.8293 40.8185 35.8547 40.9849 35.8499H42.4351L42.8464 35.7915H42.8856C42.9494 35.7901 43.0117 35.8107 43.0619 35.8499C43.082 35.8699 43.0963 35.895 43.1032 35.9224C43.1101 35.9499 43.1094 35.9787 43.1011 36.0057L42.9444 36.9412C42.9355 37.0329 42.9016 37.1204 42.8464 37.1943" fill="black"/>
<path d="M50.3352 37.2404C50.2745 37.2898 50.1982 37.3163 50.1197 37.3153H48.9046C48.8703 37.3152 48.8364 37.3078 48.8052 37.2936C48.7741 37.2793 48.7464 37.2585 48.7241 37.2326C48.7018 37.2067 48.6853 37.1763 48.6759 37.1436C48.6665 37.1108 48.6643 37.0763 48.6695 37.0426L48.7087 36.809C48.3655 36.9992 48.0045 37.1558 47.6307 37.2763C47.2942 37.3795 46.944 37.432 46.5918 37.4321C46.3015 37.4325 46.0121 37.3998 45.7293 37.3347C45.4598 37.2746 45.2101 37.1473 45.0038 36.9647C44.7889 36.7706 44.6324 36.5209 44.5518 36.2435C44.452 35.8542 44.4453 35.4472 44.5322 35.0549V34.9965C44.5809 34.6259 44.7072 34.2697 44.903 33.9508C45.0988 33.6319 45.3598 33.3574 45.669 33.145C46.5159 32.6718 47.4834 32.455 48.4526 32.5211H49.3566L49.4741 31.8972C49.5524 31.4294 49.5067 31.1175 49.337 30.9618C49.0678 30.7771 48.741 30.6942 48.4157 30.7281L47.083 30.767L46.0615 30.8397H45.9862L45.8099 30.8007C45.7707 30.7813 45.7511 30.7034 45.7707 30.606L45.9274 29.7072C45.9408 29.628 45.9812 29.5557 46.0418 29.5025C46.1024 29.4493 46.1796 29.4185 46.2604 29.4151L47.3188 29.2594C47.7743 29.2087 48.2323 29.1837 48.6906 29.1845C49.4873 29.1127 50.281 29.3502 50.9054 29.8473C51.1463 30.1239 51.3138 30.456 51.3928 30.8133C51.4717 31.1707 51.4596 31.542 51.3574 31.8935L50.4534 37.0187C50.4386 37.0953 50.397 37.1643 50.3359 37.2134M49.1404 33.7644H48.2364C47.9599 33.757 47.6835 33.7822 47.413 33.8393C47.2236 33.8823 47.0444 33.9616 46.8856 34.073C46.751 34.1675 46.643 34.2949 46.5723 34.443C46.4979 34.6104 46.4453 34.7866 46.4156 34.9672V35.0257C46.3503 35.3752 46.3895 35.6091 46.5331 35.7274C46.7615 35.8683 47.0304 35.93 47.2977 35.9027C47.5633 35.8999 47.8272 35.8606 48.0819 35.7859C48.3387 35.7113 48.5881 35.6135 48.827 35.4938L49.1404 33.7644Z" fill="black"/>
<path d="M58.0775 35.2126C58.0219 35.5229 57.9091 35.8202 57.7446 36.0896C57.5778 36.3639 57.3578 36.6024 57.0974 36.7914C56.8065 37.0007 56.4816 37.1588 56.1369 37.2588C55.7298 37.3782 55.3071 37.4373 54.8826 37.434H54.3553L53.6886 37.3756L52.9827 37.3007L52.3552 37.1644C52.3174 37.1605 52.2809 37.1482 52.2484 37.1284C52.216 37.1086 52.1885 37.0819 52.1678 37.0501C52.1471 37.0184 52.1339 36.9824 52.129 36.9449C52.1242 36.9074 52.1278 36.8693 52.1397 36.8333L52.2964 35.9758C52.3141 35.9109 52.3521 35.8532 52.4049 35.8112C52.4578 35.7692 52.5227 35.745 52.5902 35.7421H52.649L53.2569 35.8005L53.9432 35.8589L54.5903 35.8979H55.0423C55.2198 35.8979 55.3966 35.8783 55.5697 35.8395C55.6886 35.8162 55.8018 35.7699 55.9026 35.7032C55.9784 35.6474 56.039 35.5738 56.0789 35.489C56.1156 35.4016 56.1409 35.31 56.1543 35.2163C56.1666 35.1559 56.1662 35.0936 56.1533 35.0333C56.1403 34.973 56.115 34.916 56.0789 34.8658C55.9552 34.7213 55.8098 34.5965 55.648 34.4958L53.9033 33.3072C53.5913 33.0964 53.341 32.8073 53.1778 32.4691C53.0112 32.1168 52.9631 31.7205 53.0407 31.3389C53.2888 29.9229 54.3212 29.2148 56.1377 29.2148H56.9211L57.5683 29.2733L58.1174 29.3706L58.6448 29.4875C58.6809 29.4939 58.7152 29.5081 58.7453 29.5289C58.7754 29.5498 58.8006 29.5768 58.8192 29.6083C58.8378 29.6397 58.8493 29.6748 58.853 29.7111C58.8567 29.7473 58.8525 29.784 58.8406 29.8185L58.684 30.6566C58.6578 30.8383 58.5664 30.9292 58.4097 30.9292H58.3525L57.9412 30.8708L57.3332 30.8124L56.6665 30.7734H56.0172C55.7486 30.7575 55.4801 30.8042 55.2329 30.9098C55.1465 30.9566 55.0729 31.0236 55.0183 31.105C54.9637 31.1865 54.9298 31.2798 54.9196 31.3771C54.9109 31.43 54.9152 31.4843 54.9323 31.5352C54.9493 31.586 54.9786 31.632 55.0175 31.6692C55.1308 31.7794 55.2555 31.8773 55.3896 31.9613L57.056 33.0915C57.2921 33.2404 57.5038 33.4246 57.6835 33.6375C57.8162 33.802 57.9219 33.9863 57.9969 34.1835C58.0648 34.3575 58.0981 34.5429 58.0948 34.7295C58.0897 34.9127 58.0701 35.0953 58.0361 35.2755" fill="black"/>
<path d="M10.8007 52.7144C10.7444 52.7736 10.6671 52.8086 10.5852 52.8118H9.27516C9.24002 52.8111 9.20558 52.8019 9.17485 52.7849C9.14413 52.7679 9.11804 52.7437 9.09888 52.7144C9.07336 52.6855 9.0548 52.6512 9.04462 52.6141C9.03443 52.577 9.0329 52.538 9.04012 52.5002L10.3532 45.0562C10.3689 44.9798 10.4105 44.911 10.4711 44.8613C10.5317 44.8117 10.6076 44.7843 10.6861 44.7836H11.9992C12.0335 44.7837 12.0674 44.7911 12.0985 44.8053C12.1297 44.8196 12.1574 44.8404 12.1797 44.8663C12.202 44.8922 12.2185 44.9225 12.2279 44.9553C12.2373 44.9881 12.2395 45.0225 12.2342 45.0562L10.9212 52.5002C10.9075 52.5828 10.8661 52.6583 10.8037 52.7144M12.4467 43.6137C12.386 43.6632 12.3097 43.6897 12.2312 43.6886H10.8572C10.821 43.6907 10.7849 43.6851 10.7511 43.6722C10.7173 43.6593 10.6867 43.6393 10.6613 43.6137C10.636 43.5886 10.6174 43.5577 10.6072 43.5237C10.5969 43.4898 10.5953 43.4538 10.6025 43.419L10.818 42.172C10.8379 42.0924 10.8867 42.023 10.9551 41.9772C11.0166 41.9292 11.0924 41.9029 11.1705 41.9023H12.562C12.5962 41.9024 12.6301 41.9098 12.6613 41.924C12.6924 41.9383 12.7201 41.9591 12.7424 41.985C12.7648 42.0109 12.7812 42.0413 12.7906 42.074C12.8 42.1068 12.8022 42.1413 12.797 42.175L12.5815 43.422C12.5667 43.4987 12.5251 43.5676 12.464 43.6167" fill="black"/>
<path d="M23.2077 52.6752C22.7737 52.7582 22.3353 52.8168 21.8947 52.8504C21.398 52.8894 20.7772 52.9089 20.0324 52.9089C19.6183 52.9044 19.2077 52.832 18.8173 52.6947C18.3857 52.5484 17.9958 52.301 17.6805 51.9734C17.325 51.5943 17.0749 51.1297 16.9551 50.6253C16.8021 49.932 16.8021 49.2139 16.9551 48.5206L17.3272 46.4745C17.4424 45.7331 17.695 45.0195 18.0723 44.3699C18.3767 43.8518 18.7755 43.3946 19.2482 43.0217C19.6574 42.7001 20.1223 42.4556 20.62 42.3005C21.0649 42.1653 21.5274 42.0956 21.9926 42.0938H22.9923L23.8548 42.1687L24.5607 42.2435L25.0308 42.3184C25.2005 42.3574 25.2724 42.4548 25.2462 42.6105L25.07 43.5655C25.0617 43.6514 25.0276 43.7328 24.972 43.7991C24.9062 43.8531 24.8221 43.8799 24.737 43.874H24.6978L23.4631 43.7991L21.6792 43.7602C21.4311 43.7614 21.1852 43.8075 20.9538 43.8965C20.6959 43.9969 20.4621 44.15 20.2675 44.3459C20.0303 44.5903 19.8378 44.8739 19.6987 45.184C19.5116 45.5868 19.3799 46.0128 19.307 46.4505L18.9348 48.4967C18.8495 48.9133 18.8297 49.3405 18.8761 49.7632C18.9061 50.0527 18.9997 50.3322 19.1503 50.5818C19.2737 50.7769 19.4506 50.9328 19.6603 51.0312C19.8572 51.1209 20.0712 51.1674 20.2878 51.1675L21.7191 51.1286L22.3663 47.5036C22.3826 47.4275 22.4239 47.359 22.4838 47.3088C22.5436 47.2578 22.6205 47.2311 22.6992 47.2339H24.1306C24.1664 47.2313 24.2024 47.2367 24.2358 47.2498C24.2693 47.2628 24.2993 47.2832 24.3238 47.3094C24.3482 47.3356 24.3665 47.3669 24.3771 47.401C24.3877 47.4351 24.3905 47.4712 24.3852 47.5065L23.5422 52.2999C23.5344 52.3871 23.4972 52.469 23.4368 52.5326C23.3764 52.5962 23.2963 52.6377 23.2092 52.6505" fill="black"/>
<path d="M2.05792 42.347C2.49191 42.2639 2.93031 42.2054 3.37098 42.1717C3.86767 42.1327 4.48842 42.1133 5.23322 42.1133C5.64736 42.1177 6.05792 42.1901 6.44834 42.3275C6.87999 42.4737 7.2699 42.7211 7.58512 43.0487C7.94069 43.4278 8.19073 43.8925 8.31058 44.3969C8.46356 45.0902 8.46356 45.8082 8.31058 46.5015L7.91885 48.5282C7.80364 49.2695 7.55101 49.9831 7.1738 50.6328C6.86938 51.1509 6.4706 51.608 5.99785 51.9809C5.58869 52.3026 5.12375 52.547 4.62603 52.7022C4.18173 52.8398 3.71955 52.912 3.25421 52.9164H2.27488L1.39272 52.819L0.68685 52.7441L0.21677 52.6692C0.0470191 52.6303 -0.0247987 52.5329 0.00131686 52.3771L0.177597 51.4222C0.185866 51.3363 0.219995 51.2549 0.27553 51.1885C0.341334 51.1345 0.425466 51.1077 0.51057 51.1136H0.54899L1.7837 51.1885L3.5676 51.2275C3.81575 51.2263 4.0616 51.1801 4.29306 51.0912C4.55091 50.9907 4.78471 50.8376 4.97934 50.6418C5.21649 50.3974 5.40896 50.1138 5.54811 49.8037C5.73519 49.4009 5.86695 48.9749 5.93984 48.5372L6.31199 46.491C6.39732 46.0744 6.41714 45.6471 6.37075 45.2245C6.34073 44.9349 6.24713 44.6555 6.09654 44.4059C5.97333 44.2109 5.79664 44.055 5.58728 43.9565C5.39039 43.8667 5.17636 43.8202 4.95976 43.8202L3.52842 43.8591L2.88131 47.4841C2.86496 47.5602 2.82361 47.6287 2.76379 47.6789C2.704 47.7299 2.62707 47.7566 2.54834 47.7538H1.117C1.08116 47.7564 1.04519 47.751 1.01174 47.7379C0.978291 47.7249 0.948226 47.7045 0.923773 47.6783C0.89932 47.6521 0.881104 47.6208 0.870477 47.5867C0.859849 47.5525 0.85708 47.5165 0.862377 47.4811L1.70536 42.6877C1.71321 42.6006 1.75033 42.5187 1.81073 42.4551C1.87113 42.3915 1.9513 42.35 2.03833 42.3372" fill="black"/>
<path d="M30.6954 46.1836C30.6347 46.233 30.5584 46.2595 30.48 46.2584C30.1161 46.2554 29.7535 46.3012 29.402 46.3948C29.0581 46.4877 28.7236 46.6116 28.4023 46.7648L27.383 52.4944C27.3693 52.5769 27.3279 52.6524 27.2655 52.7086C27.2092 52.7678 27.1319 52.8027 27.0501 52.8059H25.74C25.7049 52.8052 25.6704 52.796 25.6397 52.779C25.609 52.762 25.5829 52.7379 25.5637 52.7086C25.5382 52.6796 25.5196 52.6453 25.5095 52.6082C25.4993 52.5711 25.4977 52.5322 25.505 52.4944L26.818 45.0504C26.8337 44.9739 26.8754 44.9051 26.936 44.8554C26.9966 44.8058 27.0725 44.7784 27.151 44.7777H28.4249C28.4592 44.7778 28.4931 44.7852 28.5242 44.7994C28.5554 44.8137 28.5831 44.8345 28.6054 44.8604C28.6277 44.8863 28.6441 44.9167 28.6535 44.9494C28.663 44.9822 28.6651 45.0167 28.6599 45.0504L28.6012 45.3425C28.956 45.0901 29.3547 44.905 29.7771 44.7965C30.1039 44.7126 30.4394 44.6669 30.7768 44.6602C30.8111 44.6602 30.845 44.6676 30.8761 44.6819C30.9073 44.6961 30.935 44.7169 30.9573 44.7428C30.9796 44.7687 30.996 44.7991 31.0054 44.8319C31.0149 44.8646 31.017 44.8991 31.0118 44.9328L30.8355 45.9656C30.8207 46.0423 30.7791 46.1112 30.718 46.1603" fill="black"/>
<path d="M36.7522 52.7147C36.6915 52.7641 36.6152 52.7906 36.5367 52.7896H35.3216C35.2873 52.7895 35.2534 52.7821 35.2222 52.7679C35.1911 52.7536 35.1634 52.7328 35.1411 52.7069C35.1188 52.681 35.1023 52.6507 35.0929 52.6179C35.0835 52.5851 35.0813 52.5507 35.0865 52.517L35.1257 52.2833C34.7826 52.4737 34.4215 52.6302 34.0477 52.7506C33.7112 52.8538 33.361 52.9063 33.0088 52.9064C32.7185 52.9068 32.4291 52.8742 32.1463 52.8091C31.8768 52.7489 31.6271 52.6216 31.4208 52.4391C31.2059 52.2449 31.0494 51.9952 30.9688 51.7178C30.869 51.3286 30.8623 50.9215 30.9492 50.5292V50.4708C30.9978 50.1002 31.1241 49.744 31.3199 49.4251C31.5157 49.1061 31.7767 48.8316 32.086 48.6193C32.934 48.1454 33.9029 47.9285 34.8733 47.9954H35.7773L35.8949 47.3715C35.9732 46.9037 35.9275 46.5919 35.7577 46.4361C35.4885 46.2514 35.1617 46.1685 34.8364 46.2024L33.5038 46.2413L32.4845 46.3162H32.4092L32.2329 46.2773C32.1937 46.2578 32.1742 46.1799 32.1937 46.0826L32.3504 45.1838C32.367 45.106 32.4083 45.0356 32.4683 44.983C32.5283 44.9304 32.6037 44.8984 32.6834 44.8917L33.7381 44.7359C34.1936 44.6854 34.6516 44.6604 35.1099 44.661C35.9066 44.5892 36.7003 44.8268 37.3247 45.3239C37.5656 45.6005 37.7331 45.9325 37.812 46.2899C37.891 46.6472 37.8788 47.0185 37.7767 47.37L36.8727 52.4952C36.8578 52.5719 36.8162 52.6409 36.7552 52.69M35.5596 49.2447H34.6556C34.3792 49.2373 34.1028 49.2625 33.8322 49.3196C33.6428 49.3625 33.4637 49.4419 33.3049 49.5533C33.1702 49.6478 33.0623 49.7752 32.9915 49.9233C32.917 50.0907 32.8643 50.2669 32.8348 50.4476V50.506C32.7695 50.8555 32.8087 51.0894 32.9523 51.2078C33.1807 51.3486 33.4496 51.4103 33.717 51.383C33.9825 51.3802 34.2464 51.3409 34.5012 51.2662C34.758 51.1916 35.0074 51.0938 35.2462 50.9741L35.5596 49.2447Z" fill="black"/>
<path d="M44.4745 50.7047C44.4189 51.015 44.306 51.3123 44.1415 51.5818C43.9748 51.856 43.7548 52.0946 43.4944 52.2835C43.2033 52.4925 42.8785 52.6506 42.5339 52.7509C42.1268 52.8704 41.7041 52.9294 41.2796 52.9262H40.7523L40.0856 52.8677L39.3797 52.7928L38.7522 52.6565C38.7143 52.6526 38.6779 52.6403 38.6454 52.6205C38.613 52.6008 38.5854 52.574 38.5648 52.5423C38.5441 52.5105 38.5309 52.4745 38.526 52.437C38.5212 52.3995 38.5248 52.3614 38.5367 52.3255L38.6934 51.4679C38.7111 51.403 38.7491 51.3454 38.8019 51.3034C38.8548 51.2614 38.9196 51.2371 38.9872 51.2342H39.046L39.6539 51.2927L40.3402 51.3511L40.9873 51.39H41.4393C41.6167 51.39 41.7936 51.3705 41.9667 51.3316C42.0857 51.3088 42.199 51.2625 42.2996 51.1953C42.3753 51.1395 42.4359 51.0659 42.4759 50.9811C42.5126 50.8938 42.5379 50.8022 42.5512 50.7085C42.5635 50.648 42.5632 50.5857 42.5502 50.5254C42.5373 50.4651 42.512 50.4081 42.4759 50.3579C42.3522 50.2134 42.2069 50.0886 42.045 49.9879L40.3003 48.7993C39.9935 48.5799 39.75 48.2842 39.5944 47.9418C39.4278 47.5895 39.3797 47.1932 39.4573 46.8116C39.7054 45.3955 40.7377 44.6875 42.5543 44.6875H43.3385L43.9856 44.7459L44.5348 44.8433L45.0621 44.9601C45.0982 44.9666 45.1325 44.9807 45.1626 45.0016C45.1927 45.0224 45.2179 45.0495 45.2365 45.0809C45.2551 45.1124 45.2666 45.1474 45.2704 45.1837C45.2741 45.22 45.2698 45.2567 45.258 45.2912L45.1013 46.1293C45.0752 46.311 44.9838 46.4019 44.8271 46.4019H44.7683L44.357 46.3435L43.749 46.285L43.0823 46.2461H42.4352C42.1667 46.2301 41.8981 46.2768 41.651 46.3824C41.5646 46.4293 41.491 46.4963 41.4364 46.5777C41.3818 46.6591 41.3479 46.7525 41.3376 46.8498C41.3289 46.9027 41.3333 46.9569 41.3504 47.0078C41.3674 47.0587 41.3967 47.1047 41.4356 47.1419C41.5488 47.2521 41.6736 47.35 41.8077 47.434L43.4741 48.5642C43.7102 48.7131 43.9219 48.8972 44.1016 49.1102C44.2343 49.2747 44.34 49.4589 44.415 49.6562C44.4829 49.8301 44.5161 50.0156 44.5129 50.2022C44.5079 50.3854 44.4882 50.568 44.4542 50.7481" fill="black"/>
<path d="M51.4916 50.7048C51.436 51.015 51.3231 51.3124 51.1586 51.5818C50.9919 51.8561 50.7719 52.0947 50.5115 52.2836C50.2204 52.4926 49.8956 52.6506 49.551 52.7509C49.1439 52.8704 48.7212 52.9295 48.2967 52.9262H47.7694L47.1027 52.8678L46.3968 52.7929L45.7693 52.6566C45.7314 52.6527 45.6949 52.6404 45.6625 52.6206C45.6301 52.6008 45.6025 52.5741 45.5819 52.5423C45.5612 52.5106 45.548 52.4746 45.5431 52.4371C45.5382 52.3996 45.5419 52.3615 45.5538 52.3255L45.7105 51.468C45.7282 51.4031 45.7662 51.3454 45.819 51.3034C45.8718 51.2614 45.9367 51.2372 46.0043 51.2343H46.0631L46.671 51.2927L47.3573 51.3511L48.0044 51.3901H48.4564C48.6338 51.3901 48.8107 51.3705 48.9837 51.3317C49.1028 51.3089 49.216 51.2625 49.3167 51.1953C49.3924 51.1396 49.453 51.066 49.493 50.9811C49.5295 50.8938 49.5548 50.8022 49.5683 50.7085C49.5806 50.6481 49.5803 50.5858 49.5673 50.5255C49.5544 50.4652 49.5291 50.4082 49.493 50.358C49.3695 50.2132 49.2241 50.0884 49.0621 49.988L47.3174 48.7994C47.006 48.5879 46.7558 48.2989 46.5919 47.9613C46.4253 47.609 46.3772 47.2127 46.4548 46.8311C46.7029 45.4151 47.7352 44.707 49.5518 44.707H50.3352L50.9823 44.7654L51.5315 44.8628L52.0589 44.9797C52.095 44.9861 52.1292 45.0002 52.1593 45.0211C52.1894 45.0419 52.2147 45.069 52.2333 45.1005C52.2519 45.1319 52.2634 45.167 52.2671 45.2032C52.2708 45.2395 52.2666 45.2762 52.2547 45.3107L52.098 46.1488C52.0719 46.3305 51.9805 46.4214 51.8238 46.4214H51.7666L51.3552 46.363L50.7473 46.3046L50.0806 46.2656H49.4312C49.1627 46.2497 48.8941 46.2963 48.647 46.4019C48.5606 46.4488 48.487 46.5158 48.4324 46.5972C48.3778 46.6786 48.3439 46.772 48.3336 46.8693C48.3249 46.9222 48.3293 46.9765 48.3463 47.0274C48.3634 47.0782 48.3926 47.1242 48.4315 47.1614C48.5449 47.2715 48.6697 47.3694 48.8037 47.4535L50.4701 48.5837C50.7062 48.7326 50.9178 48.9167 51.0976 49.1297C51.2302 49.2942 51.336 49.4784 51.411 49.6757C51.4789 49.8497 51.5121 50.0351 51.5089 50.2217C51.5039 50.4049 51.4842 50.5875 51.4501 50.7677" fill="black"/>
<path d="M54.5497 52.7144C54.4934 52.7736 54.4161 52.8086 54.3342 52.8118H53.0242C52.989 52.8111 52.9546 52.8019 52.9239 52.7849C52.8932 52.7679 52.8671 52.7437 52.8479 52.7144C52.8224 52.6855 52.8038 52.6512 52.7936 52.6141C52.7835 52.577 52.7819 52.538 52.7891 52.5002L54.1022 45.0562C54.1179 44.9798 54.1595 44.911 54.2201 44.8613C54.2808 44.8117 54.3567 44.7843 54.4352 44.7836H55.7482C55.7825 44.7837 55.8164 44.7911 55.8476 44.8053C55.8787 44.8196 55.9064 44.8404 55.9287 44.8663C55.9511 44.8922 55.9675 44.9225 55.9769 44.9553C55.9863 44.9881 55.9885 45.0225 55.9833 45.0562L54.6702 52.5002C54.6565 52.5828 54.6151 52.6583 54.5527 52.7144M56.1995 43.6137C56.1388 43.6631 56.0625 43.6896 55.984 43.6886H54.5926C54.5565 43.6907 54.5203 43.6851 54.4866 43.6722C54.4528 43.6593 54.4222 43.6393 54.3968 43.6137C54.3715 43.5886 54.3529 43.5577 54.3427 43.5237C54.3324 43.4898 54.3308 43.4538 54.338 43.419L54.5535 42.172C54.5734 42.0925 54.6222 42.0231 54.6906 41.9772C54.7521 41.9293 54.8278 41.9029 54.906 41.9023H56.2974C56.3317 41.9024 56.3656 41.9098 56.3968 41.924C56.4279 41.9383 56.4556 41.9591 56.4779 41.985C56.5002 42.0109 56.5167 42.0413 56.5261 42.074C56.5355 42.1068 56.5377 42.1413 56.5324 42.175L56.317 43.422C56.3022 43.4987 56.2605 43.5676 56.1995 43.6167" fill="black"/>
<path d="M109.491 17.5977H106.078C105.563 17.5981 105.064 17.7772 104.667 18.104L91.6894 28.627L63.2134 51.7199C63.2976 51.836 63.406 51.9326 63.5312 52.0032C63.6564 52.0738 63.7954 52.1166 63.9388 52.1288L65.5464 52.3625L67.9375 52.6546C68.8521 52.7455 69.8452 52.8234 70.917 52.8883C71.9887 52.9532 73.1124 52.9857 74.2881 52.9857C75.8532 52.9717 77.4117 52.7821 78.9339 52.4202C80.624 52.0207 82.2124 51.2776 83.5993 50.2377C85.2163 48.987 86.5686 47.4307 87.5784 45.6585C88.8968 43.2878 89.7735 40.6997 90.1662 38.019L90.5579 35.7586C91.0371 35.9944 91.5353 36.1901 92.0472 36.3436C93.144 36.6931 94.2857 36.8836 95.4372 36.9091C97.9855 36.9091 100.102 36.8377 101.788 36.6948C103.281 36.5781 104.767 36.3763 106.237 36.0904C106.529 36.0514 106.8 35.9142 107.003 35.7016C107.206 35.4889 107.33 35.2136 107.354 34.9213L110.236 18.5938V18.3991C110.236 18.1923 110.153 17.994 110.006 17.8477C109.859 17.7015 109.659 17.6194 109.451 17.6194" fill="black"/>
<path d="M66.9179 35.409H69.7406C70.2467 35.4095 70.7378 35.2377 71.132 34.9221L113 1.06878C112.84 0.966755 112.661 0.90032 112.473 0.874046L110.863 0.643364L108.452 0.331793C107.537 0.240419 106.543 0.162276 105.473 0.0973659C104.402 0.0324553 103.278 0 102.102 0C100.536 0.0140823 98.978 0.203774 97.4557 0.565471C95.7657 0.964939 94.1773 1.70804 92.7904 2.74797C91.1734 3.9987 89.8211 5.55494 88.8112 7.32716C87.4942 9.69684 86.6239 12.2859 86.2431 14.9666L85.8521 17.2263C85.3729 16.9906 84.8747 16.7949 84.3628 16.6413C83.266 16.2918 82.1243 16.1013 80.9728 16.0759C78.4245 16.0759 76.3077 16.1473 74.6222 16.2901C73.1287 16.4068 71.6432 16.6086 70.173 16.8945C69.8806 16.9335 69.6104 17.0707 69.4072 17.2833C69.204 17.496 69.08 17.7713 69.0558 18.0636L66.1743 34.3911V34.5859C66.1743 34.7926 66.2569 34.991 66.404 35.1372C66.5511 35.2834 66.7506 35.3655 66.9585 35.3655" fill="black"/>
</g>
<defs>
<clipPath id="clip0_536_182">
<rect width="113" height="53" fill="white"/>
</clipPath>
</defs>
</svg>
