<svg width="134" height="36" viewBox="0 0 134 36" fill="none" xmlns="http://www.w3.org/2000/svg">
<g clip-path="url(#clip0_536_265)">
<path d="M35.618 17.7592C33.7638 18.7417 32.7891 20.3092 31.7777 21.8466C30.7663 23.3841 30.7737 23.3466 32.0196 24.6141C33.0749 25.6866 33.0896 25.7016 32.0196 26.7815C31.4406 27.3515 30.9496 28.4015 30.246 28.3415C29.5424 28.2815 29.088 27.344 28.531 26.7815L21.3268 19.4467C20.2934 18.3892 20.2934 17.5117 21.3268 16.4468C24.1337 13.5818 26.9553 10.7244 29.755 7.83693C30.1361 7.44694 30.3633 7.34194 30.7663 7.83693C31.3403 8.51272 31.9547 9.15143 32.6059 9.74939C33.0236 10.1319 32.965 10.3644 32.6059 10.7394C30.4072 12.9368 28.2672 15.1793 26.0686 17.3617C25.5555 17.8642 25.5702 18.1642 26.0686 18.6067C26.5154 18.9902 26.9297 19.4117 27.3071 19.8667C27.7102 20.3467 28.04 20.3767 28.3771 19.8217C28.9928 18.8842 29.6524 17.9692 30.3046 17.0542C30.8307 16.3157 31.4899 15.687 32.2468 15.2018C32.3129 15.1446 32.3898 15.102 32.4727 15.0765C32.5556 15.0511 32.6428 15.0434 32.7288 15.054C32.8147 15.0645 32.8976 15.0931 32.9723 15.1379C33.047 15.1827 33.1119 15.2427 33.1629 15.3143C33.9178 16.1243 34.7313 16.8892 35.618 17.7592Z" fill="black"/>
<path d="M17.8823 35.9989C16.8123 33.7489 14.5404 32.8415 12.8034 31.319C12.5469 31.094 12.4003 31.259 12.2244 31.439C11.6748 32.0165 11.1031 32.5715 10.5535 33.149C10.3263 33.389 10.1724 33.5465 9.87188 33.2165L7.67323 30.9665C7.37274 30.6665 7.46802 30.5015 7.7172 30.2165L16.5118 21.2167C17.34 20.3842 18.2121 20.4667 19.1209 21.3817C21.7055 24.0316 24.2682 26.6541 26.8089 29.249C28.1867 30.6515 28.194 30.659 26.8089 32.039C26.3325 32.519 25.8634 33.3065 25.3431 33.3515C24.8227 33.3965 24.361 32.534 23.8773 32.0615C22.0304 30.1415 20.1469 28.2216 18.322 26.2491C17.9409 25.8516 17.6991 25.7541 17.318 26.2491C16.9598 26.7219 16.5435 27.1454 16.0794 27.5091C15.3026 28.1016 15.5371 28.4691 16.1967 28.919C17.4804 29.6974 18.673 30.6234 19.7512 31.679C20.8945 32.954 20.9018 32.999 19.7512 34.2064L18.0729 35.8489C18.0135 35.9042 17.9497 35.9543 17.8823 35.9989Z" fill="black"/>
<path d="M0 18.0894C2.27927 16.9494 3.17339 14.6545 4.65382 12.877C4.93232 12.5395 4.65382 12.412 4.49259 12.2395C3.95758 11.6845 3.43723 11.122 2.87291 10.6046C2.52113 10.2821 2.55044 10.0796 2.87291 9.75707C3.6058 9.08959 4.26539 8.3921 4.91766 7.67212C5.21814 7.34212 5.38671 7.40962 5.65055 7.67212C8.58209 10.6721 11.5136 13.612 14.3865 16.5969C14.5845 16.7547 14.7446 16.9566 14.8548 17.1873C14.9649 17.418 15.0222 17.6714 15.0222 17.9282C15.0222 18.1849 14.9649 18.4383 14.8548 18.669C14.7446 18.8997 14.5845 19.1016 14.3865 19.2594C11.499 22.2218 8.58942 25.1618 5.70918 28.1242C5.37938 28.4617 5.18883 28.4542 4.87369 28.1242C4.25073 27.4417 3.59114 26.7592 2.93154 26.1142C2.55777 25.7692 2.59441 25.5667 2.93154 25.2143C5.1302 22.9643 7.32885 20.7143 9.52751 18.5319C9.99655 18.0669 10.0479 17.7819 9.52751 17.3619C9.05666 16.96 8.62694 16.5102 8.24496 16.0194C7.8492 15.532 7.56338 15.517 7.20426 16.0644C6.59597 16.9794 5.95836 17.8719 5.31342 18.7494C4.78077 19.4997 4.1174 20.1429 3.35661 20.6468C3.29096 20.712 3.21208 20.7616 3.12559 20.7921C3.0391 20.8225 2.94711 20.8331 2.85617 20.8231C2.76522 20.8131 2.67755 20.7827 2.59938 20.7341C2.52121 20.6855 2.45445 20.6198 2.40386 20.5418C1.65632 19.7244 0.850147 18.9519 0 18.0894Z" fill="black"/>
<path d="M17.7869 15.1432C17.3213 15.1207 16.8802 14.9231 16.5483 14.5882L7.7537 5.58837C7.45322 5.28087 7.43123 5.10088 7.7537 4.83838C8.40252 4.23817 9.02137 3.60488 9.6079 2.94092C10.033 2.45343 10.2822 2.41593 10.7659 2.94092C12.9059 5.19088 15.1045 7.36583 17.2519 9.60078C17.6916 10.0583 17.9408 10.0808 18.3366 9.60078C18.7517 9.09725 19.2077 8.6306 19.6997 8.20581C20.2274 7.76332 20.1101 7.45583 19.6045 7.15584C18.9815 6.75834 18.3952 6.31585 17.8016 5.88836C16.9807 5.32941 16.2406 4.65535 15.6029 3.8859C14.7894 2.85842 14.7821 2.85842 15.6615 1.95844C16.1656 1.35171 16.7014 0.773371 17.2665 0.225979C17.4718 0.00848367 17.6403 -0.149013 17.8529 0.225979C18.703 1.76345 20.1321 2.67093 21.5173 3.62341C22.023 3.9684 22.5726 4.65839 22.9831 4.59089C23.3935 4.52339 23.9285 3.78091 24.3829 3.31591C25.3429 2.35593 25.3356 2.34844 26.2591 3.31591C26.7574 3.8259 27.2338 4.35089 27.7248 4.81588C28.0473 5.11588 28.0986 5.31087 27.7248 5.65587C24.7933 8.6558 21.8617 11.5957 18.9668 14.5657C18.6499 14.891 18.2333 15.0949 17.7869 15.1432V15.1432Z" fill="black"/>
<path d="M67.213 20.1671C67.1756 20.5712 67.1756 20.978 67.213 21.3821C67.4696 22.6346 66.8393 23.2496 65.7986 23.7446C64.7736 24.2928 63.6469 24.613 62.4924 24.6841C61.3379 24.7551 60.1818 24.5756 59.1 24.1571C58.1418 23.8145 57.2996 23.1979 56.6735 22.3804C56.0474 21.5629 55.6635 20.5787 55.5675 19.5447C55.4576 18.6297 55.1571 18.2997 54.2849 18.5772C54.1698 18.6053 54.0515 18.6179 53.9332 18.6147C53.8342 18.2411 53.8068 17.8514 53.8525 17.4672C53.8525 16.1772 53.8525 16.1472 55.1058 15.9297C55.5455 15.8547 55.5089 15.5547 55.5455 15.2922C56.1025 10.8823 60.3899 8.99238 64.0103 9.92986C65.0393 10.1383 65.9569 10.7282 66.5872 11.5863C67.2174 12.4444 67.516 13.5103 67.4256 14.5798C67.3083 16.5222 65.63 18.1197 63.446 18.4422C61.9629 18.5584 60.4732 18.5584 58.9901 18.4422C58.0373 18.4422 57.9347 18.5772 58.1766 19.5372C58.3719 20.2304 58.7775 20.8423 59.3347 21.2844C59.8919 21.7265 60.5719 21.9761 61.2767 21.9971C62.9488 22.1464 64.6241 21.75 66.0624 20.8646L67.213 20.1671Z" fill="black"/>
<path d="M75.1866 24.7516C73.807 24.779 72.4479 24.4072 71.2657 23.6791C70.5957 23.3068 70.0401 22.7513 69.6609 22.0745C69.2817 21.3978 69.0939 20.6264 69.1183 19.8467C69.1183 19.4867 69.2136 19.2767 69.6167 19.3292C69.8213 19.3517 70.0277 19.3517 70.2323 19.3292C70.9652 19.2842 71.6101 19.2092 71.5808 20.3192C71.6181 20.5714 71.7098 20.812 71.8492 21.0234C71.9887 21.2349 72.1724 21.4119 72.387 21.5417C73.1029 22.0363 73.9328 22.3305 74.7943 22.3949C75.6558 22.4594 76.5187 22.2919 77.2973 21.9092C77.6104 21.7799 77.8768 21.5549 78.0604 21.2651C78.244 20.9752 78.3359 20.6344 78.3234 20.2892C78.2721 19.5392 77.7297 19.2467 77.1434 19.0067C76.04 18.6204 74.9076 18.3269 73.7575 18.1292C73.1012 17.9895 72.4622 17.7757 71.852 17.4918C71.1339 17.2212 70.5208 16.7198 70.1046 16.0627C69.6884 15.4055 69.4915 14.6281 69.5434 13.8468C69.5373 13.0487 69.7738 12.2685 70.2202 11.6141C70.6667 10.9597 71.301 10.4635 72.0352 10.1944C73.0198 9.76059 74.0934 9.5809 75.1617 9.67113C76.2301 9.76137 77.2604 10.1188 78.1621 10.7119C78.8236 11.1015 79.3673 11.6703 79.7332 12.3558C80.0992 13.0412 80.2732 13.8167 80.2362 14.5968C80.2362 14.9718 80.1409 15.1593 79.7452 15.1143C79.5405 15.0918 79.3342 15.0918 79.1295 15.1143C78.4553 15.1743 77.913 15.1893 77.9862 14.1843C77.972 13.8812 77.8859 13.5862 77.7352 13.3249C77.5845 13.0635 77.3738 12.8437 77.1214 12.6844C76.4758 12.2488 75.7293 11.9951 74.9572 11.949C74.1852 11.903 73.4149 12.066 72.7241 12.4219C72.4665 12.5517 72.2473 12.7493 72.0889 12.9945C71.9305 13.2396 71.8386 13.5234 71.8227 13.8168C71.8357 14.1165 71.9362 14.4054 72.1113 14.646C72.2863 14.8867 72.5279 15.0681 72.8047 15.1668C73.7954 15.6085 74.8372 15.9186 75.9048 16.0893C76.8214 16.2649 77.7161 16.5441 78.5725 16.9218C81.6873 18.3692 81.1596 22.1717 79.0343 23.6266C77.8927 24.3919 76.5509 24.7842 75.1866 24.7516V24.7516Z" fill="black"/>
<path d="M127.764 24.7045C126.305 24.6335 124.91 24.069 123.799 23.0996C123.323 22.7 122.944 22.194 122.69 21.6205C122.435 21.047 122.313 20.4215 122.333 19.7921C122.333 19.3946 122.458 19.2521 122.839 19.2896C123.082 19.3228 123.328 19.3228 123.572 19.2896C124.305 19.1771 124.832 19.3571 124.84 20.2796C124.868 20.487 124.937 20.6864 125.043 20.8656C125.149 21.0448 125.289 21.2001 125.455 21.3221C126.213 21.9359 127.136 22.2991 128.101 22.3634C129.066 22.4277 130.027 22.1901 130.857 21.6821C131.941 20.8721 131.853 19.6871 130.644 19.0796C129.479 18.6075 128.264 18.2753 127.024 18.0897C126.31 17.9361 125.616 17.697 124.957 17.3772C124.29 17.0977 123.724 16.6138 123.337 15.9921C122.95 15.3703 122.761 14.6412 122.795 13.9047C122.764 13.1489 122.958 12.4013 123.351 11.7601C123.743 11.119 124.316 10.6143 124.993 10.3123C126.07 9.75329 127.278 9.51456 128.48 9.62327C129.682 9.73199 130.831 10.1838 131.795 10.9273C132.359 11.3334 132.814 11.8794 133.117 12.5142C133.419 13.149 133.559 13.8519 133.524 14.5572C133.524 14.9322 133.422 15.1122 133.033 15.0747C132.829 15.0522 132.622 15.0522 132.418 15.0747C131.685 15.1647 131.223 15.0747 131.26 14.1147C131.258 13.807 131.175 13.5055 131.02 13.2416C130.866 12.9777 130.645 12.7612 130.38 12.6148C129.764 12.1803 129.046 11.922 128.3 11.8667C127.554 11.8113 126.807 11.9608 126.137 12.2998C125.83 12.4077 125.564 12.6096 125.374 12.878C125.184 13.1464 125.079 13.4683 125.074 13.7997C125.101 14.1151 125.221 14.4147 125.417 14.6595C125.613 14.9043 125.877 15.083 126.173 15.1722C127.355 15.6497 128.584 15.9967 129.838 16.2072C130.578 16.3669 131.297 16.6187 131.978 16.9572C134.909 18.4572 134.257 22.0046 132.52 23.3695C131.465 24.262 130.131 24.7045 127.764 24.7045Z" fill="black"/>
<path d="M101.607 22.8297C100.614 23.9298 99.2762 24.6399 97.8254 24.8371C96.3746 25.0343 94.9021 24.7063 93.6627 23.9097C93.0762 23.4633 92.5897 22.8937 92.2358 22.2392C91.8819 21.5848 91.6687 20.8604 91.6106 20.1148C91.2808 18.1048 91.486 16.0724 91.4347 14.0549V11.37C91.4347 10.1325 91.4347 10.1325 92.6147 10.1325C93.9265 10.1325 93.9265 10.1325 93.9265 11.4975C93.9265 13.7474 93.8826 15.9974 93.9265 18.2023C94.0145 20.8498 95.3117 22.2972 97.481 22.3047C98.5569 22.2783 99.5818 21.8301 100.344 21.0527C101.107 20.2754 101.548 19.2282 101.578 18.1273C101.578 17.8273 101.578 17.5273 101.578 17.2348V10.9725C101.578 10.35 101.673 10.095 102.369 10.11C104.084 10.155 104.084 10.11 104.084 11.895V23.6097C104.084 24.1647 103.974 24.4497 103.351 24.3597C103.234 24.3522 103.117 24.3522 103 24.3597C101.636 24.3447 101.636 24.3447 101.607 22.8297Z" fill="black"/>
<path d="M52.1006 18.8111C50.3123 17.8586 48.656 19.4786 46.8531 18.7436V23.461C46.8531 24.106 46.7725 24.391 46.025 24.3685C44.3687 24.3085 44.3687 24.3685 44.3687 22.621V10.5463C44.3687 9.90876 44.4713 9.67627 45.1675 9.68377C47.7692 9.73627 50.3783 9.72877 52.9801 9.68377C53.6103 9.68377 53.8449 9.81127 53.8302 10.5088C53.8302 12.2037 53.8302 12.2037 52.1812 12.2037H47.6153C46.9777 12.2037 46.8092 12.3987 46.8824 13.0137C46.9484 13.7847 46.9484 14.5601 46.8824 15.3312C46.8018 16.1261 47.2196 16.3136 47.8279 16.3961C48.2392 16.4331 48.6535 16.382 49.0445 16.2461C49.323 16.1711 49.5868 16.0361 49.8726 15.9611C51.5729 15.4811 52.1519 15.9161 52.1519 17.6486L52.1006 18.8111Z" fill="black"/>
<path d="M84.0766 16.3942V13.1768C84.0766 12.6818 83.9593 12.4268 83.4463 12.5318H83.2704C81.4455 12.5318 81.4602 12.5318 81.5774 10.6569C81.5774 10.2594 81.724 10.1619 82.0904 10.1544C82.7207 10.1544 83.5562 10.4544 83.9373 10.0344C84.3184 9.61438 84.0326 8.66189 84.0619 7.95691C84.1061 7.483 84.1061 7.00585 84.0619 6.53194C83.9593 5.78195 84.2891 5.66196 84.934 5.67696C86.5317 5.67696 86.5317 5.67696 86.5317 7.29692V7.65692C86.5317 8.4519 86.2826 9.46438 86.6637 9.99687C87.0448 10.5294 88.0781 10.1469 88.8623 10.1544C89.302 10.1544 89.3753 10.3194 89.39 10.7244C89.4559 12.5318 89.4633 12.5318 87.719 12.5318C86.5684 12.5318 86.5684 12.5318 86.5684 13.7093V19.2517C86.527 19.8686 86.7206 20.4779 87.1087 20.9519C87.4967 21.4259 88.049 21.7277 88.6498 21.7941C89.2141 21.8841 89.4926 22.0566 89.3827 22.6716C89.3717 22.7888 89.3717 22.9069 89.3827 23.0241C89.3827 24.7191 89.3827 24.7191 87.719 24.1791C86.6595 23.8701 85.7303 23.2096 85.0776 22.3014C84.4249 21.3932 84.0857 20.2887 84.1132 19.1617C84.0692 18.2392 84.0766 17.3167 84.0766 16.3942Z" fill="black"/>
<path d="M109.573 11.7925C111.039 10.1501 112.996 10.1876 114.931 10.1876H115.099C115.678 10.8176 115.217 11.575 115.356 12.265C115.444 12.7375 115.092 12.6925 114.799 12.685C113.775 12.5831 112.744 12.7509 111.801 13.1725C111.115 13.4764 110.532 13.9839 110.13 14.6296C109.728 15.2753 109.524 16.0295 109.544 16.7949C109.544 19.0899 109.544 21.3873 109.544 23.6873C109.544 24.2198 109.427 24.3848 108.87 24.3923C106.95 24.3923 106.95 24.3923 106.95 22.4423V11.1926C106.95 10.4426 107.089 10.2101 107.851 10.2401C109.376 10.2851 109.376 10.2401 109.573 11.7925Z" fill="black"/>
<path d="M120.032 17.302V23.6544C120.032 24.2019 119.893 24.3594 119.35 24.3594C117.599 24.3594 117.599 24.3594 117.599 22.6194V11.0847C117.599 10.3347 117.731 10.1172 118.493 10.1472C120.032 10.2147 120.039 10.1472 120.039 11.7597L120.032 17.302Z" fill="black"/>
<path d="M89.8149 32.9102C89.5329 33.2689 89.2687 33.6419 89.0234 34.0277C88.7522 34.4927 88.5396 34.4327 88.2905 34.0277C88.1146 33.7352 87.902 33.4652 87.5576 32.9402V34.9202C87.5576 35.4902 87.2571 35.4452 86.8907 35.4527C86.5242 35.4602 86.2164 35.4527 86.2384 34.9052V31.5977C86.2384 31.3277 86.0039 30.8478 86.5096 30.8478C87.0152 30.8478 87.4403 30.6078 87.7628 31.1702C88.012 31.5977 88.3344 31.9877 88.6789 32.4752C88.9502 32.1326 89.1952 31.769 89.4118 31.3877C89.6903 30.8328 90.1447 30.8028 90.6504 30.8103C91.0241 30.8103 91.0828 30.9752 91.0754 31.2977V34.9577C91.0754 35.5127 90.8043 35.4977 90.4305 35.4902C90.0567 35.4827 89.6976 35.5577 89.7562 34.9802C89.8149 34.4027 89.8149 33.7502 89.8149 32.9102Z" fill="black"/>
<path d="M103.982 35.4616C103.662 35.4918 103.339 35.4517 103.035 35.3439C102.732 35.2361 102.454 35.0631 102.221 34.8366C101.988 34.6101 101.804 34.3353 101.683 34.0305C101.562 33.7256 101.507 33.3979 101.519 33.0692C101.525 32.7393 101.593 32.4136 101.722 32.1109C101.85 31.8081 102.035 31.5342 102.267 31.3047C102.499 31.0752 102.772 30.8947 103.072 30.7735C103.372 30.6522 103.692 30.5926 104.015 30.598C104.337 30.6034 104.655 30.6738 104.951 30.805C105.247 30.9363 105.515 31.1259 105.739 31.363C105.963 31.6002 106.14 31.8802 106.258 32.1871C106.377 32.494 106.435 32.8218 106.43 33.1517C106.431 33.4722 106.367 33.7894 106.242 34.0831C106.116 34.3769 105.933 34.6408 105.703 34.8581C105.472 35.0753 105.201 35.2412 104.904 35.3451C104.608 35.449 104.294 35.4887 103.982 35.4616V35.4616Z" fill="black"/>
<path d="M80.72 35.3422C79.4448 35.5222 79.4448 35.5222 78.2135 33.6847C78.0916 33.9805 78.0535 34.3054 78.1036 34.6222C78.1036 35.0572 78.2355 35.4922 77.488 35.4622C76.7404 35.4322 76.7111 35.2222 76.7551 34.6297C76.7991 33.5347 76.7551 32.4248 76.7551 31.3298C76.7551 30.9023 76.8724 30.7298 77.3048 30.7673C78.0412 30.712 78.7817 30.765 79.5034 30.9248C79.7171 30.9787 79.9135 31.0882 80.0735 31.2428C80.2335 31.3974 80.3518 31.5917 80.4167 31.8068C80.4816 32.022 80.491 32.2507 80.444 32.4707C80.397 32.6907 80.2951 32.8945 80.1483 33.0623C79.628 33.5572 79.8185 33.8572 80.1483 34.2847C80.3656 34.6214 80.5567 34.975 80.72 35.3422V35.3422Z" fill="black"/>
<path d="M96.88 33.0828C96.8543 32.9364 96.8543 32.7866 96.88 32.6403C97.1512 32.0328 96.1984 30.8778 97.503 30.7953C100.017 30.6378 101.057 31.3278 101.123 32.9553C101.16 33.2448 101.139 33.5389 101.062 33.82C100.985 34.1011 100.853 34.3633 100.674 34.591C100.496 34.8186 100.274 35.007 100.022 35.1447C99.7709 35.2825 99.4948 35.3669 99.2106 35.3927C97.0999 35.7902 96.8727 35.5952 96.8727 33.4353L96.88 33.0828Z" fill="black"/>
<path d="M76.0441 34.1175C76.0441 35.415 75.0034 35.895 73.435 35.325C72.9686 35.159 72.5703 34.8372 72.3044 34.4113C72.0385 33.9855 71.9205 33.4804 71.9693 32.9775C71.9923 32.4527 72.1834 31.9503 72.5132 31.5477C72.8431 31.1451 73.2932 30.8648 73.7941 30.7501C74.3079 30.6302 74.8414 30.6302 75.3552 30.7501C75.477 30.7879 75.5897 30.8517 75.6857 30.9373C75.7817 31.0229 75.8589 31.1283 75.9122 31.2466C75.9656 31.3649 75.9938 31.4935 75.995 31.6238C75.9963 31.7541 75.9705 31.8832 75.9195 32.0025C75.7583 32.3175 75.5751 32.07 75.4138 32.0025C75.1867 31.8892 74.9389 31.8259 74.6864 31.8169C74.4339 31.8078 74.1823 31.8532 73.9481 31.95C73.6871 32.0503 73.4719 32.2464 73.3445 32.5001C73.2172 32.7539 73.1867 33.0471 73.2591 33.3225C73.2983 33.5928 73.4321 33.8392 73.6358 34.0158C73.8394 34.1925 74.0989 34.2873 74.3658 34.2825C74.527 34.2825 74.7322 34.3425 74.7689 34.0875C74.8055 33.8325 74.6736 33.81 74.5124 33.8025C74.0287 33.8025 74.1752 33.4125 74.1679 33.1425C74.1679 32.7 74.5197 32.8425 74.7469 32.835C76.0441 32.8425 76.0441 32.8425 76.0441 34.1175Z" fill="black"/>
<path d="M85.8796 35.4298C85.1467 35.3623 84.4138 35.7823 84.1793 34.7248C84.1134 34.4323 82.7135 34.4398 82.5083 34.7248C81.8927 35.4748 81.8927 35.4748 80.9033 35.3998C81.4603 33.9898 82.0246 32.6024 82.545 31.1924C82.7209 30.7199 83.0507 30.8024 83.3878 30.8024C83.7249 30.8024 84.0401 30.7424 84.216 31.2149C84.7217 32.5649 85.286 33.9298 85.8796 35.4298Z" fill="black"/>
<path d="M91.4932 35.4136C92.0868 33.9137 92.6511 32.5487 93.1715 31.1687C93.1893 31.0967 93.221 31.0291 93.2648 30.9699C93.3086 30.9108 93.3636 30.8612 93.4265 30.8241C93.4894 30.787 93.5589 30.7632 93.6309 30.7542C93.7029 30.7451 93.7759 30.7509 93.8457 30.7712C94.1609 30.8162 94.5786 30.5912 94.7618 31.0562C95.3335 32.4812 95.8905 33.9062 96.4841 35.4061C95.7512 35.4061 95.0183 35.7586 94.7765 34.7161C94.7105 34.4086 93.2081 34.4161 93.1422 34.7161C92.915 35.7136 92.226 35.3986 91.4932 35.4136Z" fill="black"/>
<path d="M120.193 6.75244C120.19 6.94027 120.149 7.12541 120.072 7.29587C119.995 7.46634 119.883 7.61834 119.745 7.74204C119.607 7.86575 119.445 7.9584 119.27 8.01402C119.094 8.06963 118.91 8.08697 118.727 8.06491C118.553 8.06901 118.38 8.0369 118.218 7.97051C118.056 7.90412 117.909 7.80483 117.786 7.67865C117.662 7.55246 117.565 7.402 117.5 7.23636C117.435 7.07072 117.404 6.89334 117.408 6.71494C117.41 6.52781 117.449 6.343 117.521 6.17105C117.593 5.99911 117.698 5.8434 117.829 5.71282C117.96 5.58224 118.115 5.47935 118.285 5.41001C118.454 5.34067 118.636 5.30625 118.819 5.30872C119.002 5.31118 119.182 5.35048 119.35 5.42436C119.518 5.49825 119.671 5.60528 119.798 5.73934C119.926 5.8734 120.026 6.03187 120.094 6.2057C120.162 6.37952 120.195 6.56531 120.193 6.75244V6.75244Z" fill="black"/>
<path d="M60.6975 15.8631C60.0874 15.822 59.4753 15.822 58.8653 15.8631C57.9858 15.9906 58.0591 15.5781 58.2496 14.9706C58.9386 12.7207 62.3098 11.3707 64.3399 12.5857C64.5845 12.7339 64.7864 12.9457 64.9253 13.1996C65.0641 13.4535 65.1348 13.7404 65.1304 14.0312C65.1259 14.3221 65.0464 14.6066 64.8998 14.8558C64.7533 15.1051 64.545 15.3103 64.296 15.4506C63.7589 15.7551 63.1505 15.9029 62.537 15.8781H60.6975V15.8631Z" fill="white"/>
<path d="M105.132 33.1434C105.118 33.4567 104.988 33.7528 104.769 33.9725C104.551 34.1922 104.259 34.3193 103.952 34.3284C103.647 34.3072 103.362 34.1639 103.159 33.9296C102.956 33.6953 102.852 33.3886 102.868 33.0759C102.866 32.9214 102.894 32.768 102.951 32.6247C103.007 32.4815 103.091 32.3512 103.198 32.2415C103.304 32.1319 103.431 32.0451 103.571 31.9862C103.71 31.9273 103.86 31.8975 104.011 31.8985C104.316 31.9247 104.601 32.0672 104.808 32.2977C105.016 32.5282 105.132 32.83 105.132 33.1434V33.1434Z" fill="black"/>
<path d="M78.5069 32.7397C78.2211 32.7847 78.0598 32.6947 78.0965 32.3722C78.1331 32.0497 78.0012 31.8022 78.4482 31.8397C78.7634 31.8397 79.0712 31.9297 79.0565 32.3047C79.055 32.3728 79.0387 32.4398 79.0087 32.5006C78.9787 32.5614 78.9358 32.6146 78.8831 32.6563C78.8304 32.698 78.7693 32.7271 78.7042 32.7416C78.6391 32.756 78.5717 32.7553 78.5069 32.7397Z" fill="black"/>
<path d="M98.104 33.0816C98.4045 32.7141 97.7229 31.9491 98.639 31.9041C98.8007 31.895 98.9625 31.9214 99.1134 31.9816C99.2644 32.0417 99.401 32.1342 99.5141 32.2528C99.6273 32.3715 99.7143 32.5135 99.7694 32.6693C99.8245 32.8252 99.8464 32.9913 99.8336 33.1566C99.8409 33.3157 99.8144 33.4747 99.7559 33.6224C99.6974 33.7701 99.6083 33.903 99.4948 34.0121C99.3812 34.1211 99.2459 34.2037 99.0982 34.2541C98.9505 34.3045 98.7938 34.3216 98.639 34.304C97.6569 34.274 98.4558 33.4416 98.104 33.0816Z" fill="black"/>
<path d="M83.3513 32.4609C83.4905 32.8059 83.8716 33.0909 83.6004 33.4734C83.5273 33.5141 83.4455 33.5354 83.3622 33.5354C83.279 33.5354 83.1971 33.5141 83.1241 33.4734C82.8162 33.0984 83.2413 32.8059 83.3513 32.4609Z" fill="black"/>
<path d="M93.9632 32.1992C94.1171 32.7767 94.4469 33.0842 94.2417 33.4592C94.1684 33.6092 93.7654 33.6017 93.6921 33.4592C93.5015 33.0692 93.846 32.7767 93.9632 32.1992Z" fill="black"/>
</g>
<defs>
<clipPath id="clip0_536_265">
<rect width="134" height="36" fill="white"/>
</clipPath>
</defs>
</svg>
