<svg width="151" height="34" viewBox="0 0 151 34" fill="none" xmlns="http://www.w3.org/2000/svg">
<g clip-path="url(#clip0_536_91)">
<path fill-rule="evenodd" clip-rule="evenodd" d="M48.1354 31.9834C48.0033 32.048 47.7153 32.1447 47.3455 32.1447C46.5159 32.1394 45.9796 31.5641 45.9849 30.7039C45.9902 29.8463 46.5714 29.2173 47.467 29.2227C47.7655 29.2227 48.0271 29.298 48.1618 29.3732L48.0482 29.7603C47.9267 29.6958 47.7391 29.6259 47.467 29.6259C46.8382 29.6205 46.4948 30.1017 46.4921 30.6824C46.4921 31.3302 46.8964 31.7308 47.4406 31.7334C47.7259 31.7334 47.9108 31.6662 48.0535 31.6017L48.138 31.9834H48.1354Z" fill="black"/>
<path fill-rule="evenodd" clip-rule="evenodd" d="M50.138 31.7747C50.6135 31.7774 50.9728 31.3204 50.9755 30.686C50.9755 30.2129 50.7483 29.6161 50.1591 29.6134C49.5726 29.6107 49.3137 30.1645 49.3137 30.6941C49.3084 31.307 49.6492 31.772 50.1327 31.772H50.138V31.7747ZM50.1195 32.1564C49.3798 32.1537 48.8038 31.5973 48.8091 30.7129C48.8144 29.7774 49.422 29.2317 50.1776 29.2344C50.9649 29.2371 51.4959 29.8258 51.4959 30.6726C51.488 31.7129 50.7773 32.1618 50.1248 32.1564H50.1195V32.1564Z" fill="black"/>
<path fill-rule="evenodd" clip-rule="evenodd" d="M52.4365 30.0618C52.4365 29.7688 52.4338 29.5377 52.418 29.3065H52.8592L52.8856 29.7635H52.8988C53.0335 29.5054 53.3558 29.2473 53.8076 29.25C54.1854 29.25 54.7772 29.4866 54.7719 30.4463L54.7666 32.1156H54.2673L54.2752 30.5027C54.2752 30.0511 54.1114 29.6667 53.6412 29.6667C53.3162 29.6667 53.0626 29.9006 52.9701 30.1855C52.949 30.2473 52.9358 30.3387 52.9331 30.4194L52.9279 32.1075H52.4285L52.4365 30.0672V30.0618Z" fill="black"/>
<path fill-rule="evenodd" clip-rule="evenodd" d="M55.937 32.1183L55.9476 29.7097H55.5698V29.3199H55.9503V29.1909C55.9503 28.7984 56.0401 28.4382 56.2805 28.2124C56.4681 28.0296 56.7164 27.957 56.9436 27.957C57.1259 27.957 57.2738 27.9974 57.3716 28.0377L57.3055 28.4302C57.2263 28.3952 57.1285 28.3656 56.9806 28.3629C56.5605 28.3629 56.4469 28.742 56.4443 29.1694V29.3199H57.1074L57.1048 29.7097H56.4469L56.4364 32.1156H55.937V32.1183Z" fill="black"/>
<path fill-rule="evenodd" clip-rule="evenodd" d="M58.9326 31.8177C59.4081 31.8177 59.7701 31.3634 59.7701 30.7263C59.7754 30.2532 59.5402 29.6564 58.9511 29.6564C58.3646 29.651 58.1083 30.2075 58.1057 30.737C58.1057 31.3472 58.4438 31.8123 58.9247 31.8177H58.93H58.9326ZM58.9141 32.1967C58.1744 32.1967 57.5984 31.6376 57.6011 30.7532C57.6064 29.8177 58.2166 29.2747 58.9696 29.2774C59.7595 29.2774 60.2905 29.8661 60.2852 30.7155C60.2826 31.7558 59.5693 32.2048 58.9167 32.1994H58.9141V32.1967Z" fill="black"/>
<path fill-rule="evenodd" clip-rule="evenodd" d="M61.2392 30.2192C61.2392 29.8885 61.2339 29.609 61.2207 29.3482H61.6566L61.6751 29.8993H61.6936C61.8178 29.5229 62.1269 29.2891 62.465 29.2891C62.5126 29.2891 62.5549 29.2944 62.5998 29.3079V29.781C62.5416 29.7756 62.4915 29.7676 62.4228 29.7676C62.0714 29.7676 61.8204 30.0364 61.7491 30.4127C61.7359 30.4853 61.7306 30.5686 61.7306 30.6547L61.7253 32.1439H61.226L61.2392 30.2192V30.2192Z" fill="black"/>
<path fill-rule="evenodd" clip-rule="evenodd" d="M64.1479 28.6914V29.3608L64.8586 29.3661V29.7532L64.1426 29.7505L64.1347 31.2586C64.1347 31.6054 64.2324 31.8016 64.5098 31.8016C64.6446 31.8016 64.7238 31.7936 64.7978 31.7694L64.8189 32.1591C64.7238 32.1914 64.5706 32.2264 64.3777 32.2237C64.1479 32.2237 63.9577 32.1403 63.8388 32.0113C63.7041 31.8527 63.6486 31.6027 63.6486 31.2747L63.6539 29.7505H63.2285L63.2312 29.3608H63.6565V28.8473L64.1453 28.6941L64.1479 28.6914Z" fill="black"/>
<path fill-rule="evenodd" clip-rule="evenodd" d="M66.824 31.8502C67.3022 31.8529 67.6615 31.3986 67.6641 30.7615C67.6641 30.2883 67.4369 29.6943 66.8451 29.6916C66.2613 29.6916 65.9997 30.24 65.9997 30.7722C65.9944 31.3878 66.3352 31.8502 66.8187 31.8502H66.824V31.8502ZM66.8081 32.2346C66.0711 32.2292 65.4925 31.6728 65.4951 30.7883C65.5004 29.8502 66.108 29.3072 66.8636 29.3125C67.6536 29.3125 68.1819 29.8986 68.1819 30.748C68.1766 31.791 67.466 32.2346 66.8134 32.2346H66.8108H66.8081Z" fill="black"/>
<path fill-rule="evenodd" clip-rule="evenodd" d="M71.0196 30.81C70.6973 30.81 70.4331 30.5439 70.4331 30.2025C70.4305 29.8665 70.7026 29.5977 71.0302 29.5977C71.3578 29.5977 71.6273 29.8692 71.6246 30.2079C71.6246 30.5412 71.3499 30.8127 71.0249 30.81H71.0196V30.81Z" fill="black"/>
<path fill-rule="evenodd" clip-rule="evenodd" d="M73.9966 31.6891C74.1498 31.7832 74.4114 31.888 74.6624 31.888C75.019 31.8907 75.1907 31.7106 75.1907 31.474C75.1907 31.2321 75.0507 31.1004 74.6888 30.9579C74.1895 30.7697 73.957 30.4982 73.957 30.1622C73.9596 29.7106 74.3242 29.345 74.9081 29.3477C75.1881 29.3477 75.4338 29.4229 75.5791 29.5197L75.4602 29.8853C75.3545 29.8208 75.1564 29.7186 74.9001 29.7186C74.6043 29.7186 74.4431 29.8907 74.4431 30.0977C74.4405 30.3342 74.6016 30.4391 74.9583 30.5789C75.4312 30.759 75.6769 31.0036 75.6769 31.4256C75.6742 31.9229 75.2911 32.2643 74.6492 32.2617C74.3506 32.2617 74.0732 32.1783 73.8804 32.0627L73.9993 31.681L73.9966 31.6891Z" fill="black"/>
<path fill-rule="evenodd" clip-rule="evenodd" d="M78.3745 30.549C78.3824 30.2291 78.2503 29.7211 77.6902 29.7184C77.1803 29.7157 76.9637 30.1888 76.9214 30.541L78.3745 30.549ZM76.9161 30.9039C76.9214 31.5893 77.3494 31.877 77.8461 31.8797C78.2054 31.8797 78.4273 31.8152 78.6069 31.7426L78.6968 32.1028C78.5224 32.1807 78.2133 32.2802 77.7774 32.2775C76.9373 32.2721 76.4274 31.6996 76.4327 30.8635C76.4353 30.0141 76.9346 29.3528 77.7351 29.3555C78.6334 29.3609 78.8606 30.1646 78.8579 30.6781C78.8579 30.7829 78.8526 30.8635 78.8394 30.92L76.9161 30.9066V30.9039Z" fill="black"/>
<path fill-rule="evenodd" clip-rule="evenodd" d="M81.6426 30.539C81.6426 30.461 81.6374 30.3831 81.6136 30.3132C81.5264 30.0121 81.2886 29.7702 80.9188 29.7702C80.4406 29.7648 80.0998 30.1761 80.0971 30.8266C80.0945 31.3696 80.3692 31.8347 80.9055 31.8347C81.2146 31.8374 81.4947 31.6411 81.5977 31.3159C81.6268 31.2325 81.6374 31.1358 81.6374 31.0417L81.6426 30.539V30.539ZM82.1367 31.8293C82.1314 32.4745 81.9993 32.8616 81.7377 33.1089C81.463 33.3562 81.0746 33.4395 80.7312 33.4395C80.4009 33.4395 80.039 33.3562 79.8171 33.2057L79.9439 32.8132C80.1262 32.9342 80.4115 33.039 80.7497 33.0417C81.2622 33.0444 81.6373 32.7755 81.64 32.0632V31.7594H81.6321C81.4815 32.0175 81.1803 32.2245 80.7523 32.2218C80.0707 32.2218 79.5846 31.6277 79.5899 30.8481C79.5952 29.9019 80.2054 29.3723 80.8395 29.375C81.3177 29.3777 81.5687 29.6277 81.6928 29.8589H81.7034L81.7219 29.4449H82.1657C82.1472 29.6438 82.1393 29.8669 82.1393 30.2083L82.134 31.832L82.1367 31.8293Z" fill="black"/>
<path fill-rule="evenodd" clip-rule="evenodd" d="M85.5738 31.4922C85.5711 31.7799 85.5738 32.0352 85.5923 32.2557H85.1484L85.1194 31.796H85.1088C84.9846 32.0218 84.6887 32.3148 84.2 32.3148C83.7667 32.3148 83.2542 32.0594 83.2568 31.0836L83.2648 29.4492H83.7641L83.7588 30.9949C83.7588 31.5245 83.9173 31.8901 84.3691 31.8928C84.702 31.8928 84.9344 31.6589 85.0269 31.4277C85.0533 31.3578 85.0692 31.2664 85.0692 31.1696L85.0771 29.46H85.5791L85.5711 31.4949L85.5738 31.4922Z" fill="black"/>
<path fill-rule="evenodd" clip-rule="evenodd" d="M86.7226 30.3376C86.7226 30.007 86.72 29.7247 86.7041 29.4666H87.1427L87.1612 30.015H87.177C87.3038 29.6414 87.6129 29.4075 87.9484 29.4102C87.996 29.4102 88.0409 29.4156 88.0832 29.4236V29.8994C88.025 29.8941 87.9749 29.8887 87.9035 29.8887C87.5548 29.8887 87.3012 30.1548 87.2325 30.5311C87.2193 30.6064 87.214 30.6871 87.214 30.7731L87.2061 32.265H86.7094L86.72 30.3376H86.7226Z" fill="black"/>
<path fill-rule="evenodd" clip-rule="evenodd" d="M90.2975 30.852C89.7559 30.8386 89.1351 30.9327 89.1351 31.4757C89.1324 31.8117 89.3491 31.9596 89.6001 31.9623C89.962 31.9649 90.1971 31.7338 90.2764 31.4972C90.2922 31.4461 90.3001 31.387 90.3001 31.3359V30.8494L90.2975 30.852ZM90.7863 31.6101C90.7836 31.8547 90.7942 32.0913 90.8206 32.2821H90.3715L90.3292 31.9273H90.3107C90.1654 32.1477 89.8616 32.3413 89.4706 32.3386C88.9105 32.3359 88.6331 31.9354 88.6358 31.5321C88.6358 30.8574 89.2302 30.4864 90.2896 30.4999V30.4434C90.2896 30.2123 90.2288 29.7902 89.6687 29.7956C89.4072 29.7929 89.1404 29.8682 88.9475 29.9999L88.8339 29.6585C89.0611 29.516 89.4019 29.4192 89.7454 29.4219C90.5881 29.4219 90.7915 30.008 90.7889 30.5698V31.6128L90.7863 31.6101Z" fill="black"/>
<path fill-rule="evenodd" clip-rule="evenodd" d="M91.9064 30.2481C91.9064 29.9524 91.9011 29.7212 91.8853 29.4928H92.3291L92.3555 29.9497H92.3634C92.5008 29.6917 92.8205 29.4309 93.2749 29.4336C93.658 29.4336 94.2445 29.6702 94.2418 30.6299L94.2339 32.2992H93.7346L93.7425 30.6836C93.7425 30.232 93.5787 29.8503 93.1111 29.8476C92.7888 29.8476 92.5299 30.0815 92.4374 30.3637C92.4163 30.4282 92.4031 30.5196 92.4031 30.6003L92.3978 32.2858H91.8985L91.9064 30.2454V30.2481Z" fill="black"/>
<path fill-rule="evenodd" clip-rule="evenodd" d="M97.3247 32.2073C97.2032 32.2691 96.9337 32.3632 96.5877 32.3659L96.445 32.5944C96.6511 32.6266 96.8439 32.7718 96.8413 32.9949C96.8413 33.3283 96.5612 33.4627 96.2442 33.4627C96.1121 33.4627 95.9536 33.4223 95.8611 33.3551L95.943 33.1132C96.0355 33.167 96.1438 33.1965 96.2495 33.1965C96.3789 33.1965 96.4925 33.1508 96.4925 33.0111C96.4899 32.8605 96.3261 32.7987 96.0513 32.7718L96.2944 32.3444C95.6049 32.2503 95.1663 31.6992 95.169 30.9304C95.1742 30.0729 95.7555 29.4465 96.6458 29.4492C96.9443 29.4492 97.2111 29.5245 97.3459 29.6025L97.2296 29.9869C97.1107 29.9223 96.9232 29.8525 96.6458 29.8498C96.0223 29.8498 95.6762 30.3256 95.6762 30.9089C95.6709 31.5568 96.0804 31.9573 96.6246 31.9573C96.8994 31.9573 97.0975 31.8847 97.2376 31.8283L97.3247 32.2046V32.2073Z" fill="black"/>
<path fill-rule="evenodd" clip-rule="evenodd" d="M99.6654 30.8938C99.1212 30.8803 98.5029 30.9744 98.4977 31.5174C98.4977 31.8535 98.7117 32.004 98.96 32.0067C99.3246 32.0067 99.5597 31.7782 99.6416 31.5416C99.6575 31.4906 99.6627 31.4314 99.6654 31.3803V30.8965V30.8938ZM100.151 31.6519C100.151 31.8965 100.159 32.133 100.186 32.3239H99.7394L99.6944 31.9691H99.6786C99.5306 32.1895 99.2295 32.383 98.8358 32.383C98.2784 32.3777 97.9984 31.9798 98.001 31.5766C98.001 30.8992 98.5954 30.5309 99.6548 30.5416V30.4825C99.6575 30.2513 99.5993 29.8293 99.034 29.832C98.7724 29.832 98.5082 29.9045 98.3127 30.0389L98.2018 29.6976C98.429 29.5551 98.7619 29.4583 99.1106 29.461C99.956 29.4637 100.157 30.047 100.157 30.6062L100.151 31.6519V31.6519Z" fill="black"/>
<path fill-rule="evenodd" clip-rule="evenodd" d="M103.163 30.9585C102.841 30.9585 102.572 30.687 102.574 30.3483C102.569 30.0122 102.841 29.7434 103.174 29.7461C103.502 29.7461 103.768 30.0122 103.768 30.3536C103.763 30.6897 103.499 30.9612 103.169 30.9585H103.163V30.9585Z" fill="black"/>
<path fill-rule="evenodd" clip-rule="evenodd" d="M106.711 31.2152C106.711 31.2851 106.717 31.3603 106.733 31.4248C106.817 31.7797 107.118 32.0216 107.472 32.0243C108.001 32.027 108.31 31.5888 108.31 30.9463C108.315 30.3872 108.032 29.906 107.504 29.9033C107.163 29.9033 106.838 30.1453 106.738 30.5243C106.727 30.5915 106.709 30.6668 106.709 30.7313V31.2152H106.711ZM106.215 30.4678C106.215 30.1103 106.212 29.82 106.196 29.5539H106.643L106.672 30.0351H106.68C106.881 29.691 107.211 29.4947 107.655 29.5001C108.326 29.5001 108.822 30.0781 108.817 30.9248C108.812 31.9329 108.201 32.4248 107.562 32.4222C107.192 32.4195 106.881 32.2582 106.717 31.9786H106.709L106.701 33.4974L106.204 33.492L106.215 30.4678V30.4678Z" fill="black"/>
<path fill-rule="evenodd" clip-rule="evenodd" d="M109.763 30.4443C109.763 30.1163 109.763 29.8341 109.747 29.5733L110.183 29.5787L110.201 30.1271H110.22C110.341 29.7534 110.653 29.5169 110.989 29.5196C111.042 29.5196 111.079 29.5249 111.126 29.5357V30.0115C111.065 30.0034 111.013 29.998 110.946 29.998C110.595 29.9954 110.341 30.2642 110.273 30.6432C110.262 30.7185 110.254 30.7964 110.254 30.8851L110.249 32.3744H109.75L109.76 30.447L109.763 30.4443Z" fill="black"/>
<path fill-rule="evenodd" clip-rule="evenodd" d="M113.34 30.959C112.795 30.9428 112.175 31.0396 112.172 31.5826C112.172 31.9187 112.386 32.0692 112.64 32.0719C113.004 32.0719 113.234 31.8434 113.316 31.6041C113.332 31.5531 113.337 31.4993 113.34 31.4428V30.959V30.959ZM113.826 31.717C113.826 31.959 113.836 32.1955 113.86 32.3891H113.416L113.369 32.0316H113.353C113.208 32.252 112.904 32.4455 112.513 32.4455C111.958 32.4402 111.673 32.0396 111.675 31.6364C111.675 30.9617 112.27 30.5934 113.329 30.6041V30.545C113.329 30.3138 113.271 29.8945 112.711 29.8971C112.452 29.8971 112.183 29.967 111.99 30.1014L111.879 29.7601C112.106 29.6176 112.439 29.5208 112.785 29.5235C113.633 29.5289 113.834 30.1122 113.828 30.6713V31.717H113.826Z" fill="black"/>
<path fill-rule="evenodd" clip-rule="evenodd" d="M115.53 28.9285V29.5978H116.243L116.241 29.9876H115.527L115.522 31.493C115.517 31.8371 115.612 32.036 115.889 32.036C116.027 32.036 116.106 32.0252 116.18 32.0037L116.201 32.3908C116.103 32.4231 115.95 32.4607 115.76 32.458C115.527 32.458 115.34 32.3747 115.221 32.2403C115.086 32.0844 115.031 31.8344 115.031 31.5064L115.039 29.9822H114.613L114.616 29.5924H115.039V29.079L115.527 28.9258L115.53 28.9285Z" fill="black"/>
<path fill-rule="evenodd" clip-rule="evenodd" d="M117.104 32.4026L117.115 29.6069H117.617L117.604 32.4026H117.104ZM117.361 29.0907C117.17 29.0907 117.049 28.9402 117.049 28.7601C117.049 28.58 117.178 28.4375 117.371 28.4375C117.564 28.4375 117.688 28.5853 117.688 28.7628C117.688 28.9402 117.561 29.0907 117.363 29.0907H117.361Z" fill="black"/>
<path fill-rule="evenodd" clip-rule="evenodd" d="M120.705 32.3194C120.576 32.3839 120.285 32.4807 119.916 32.4807C119.089 32.478 118.547 31.9 118.552 31.0425C118.555 30.1823 119.139 29.5533 120.034 29.5586C120.33 29.5613 120.589 29.6366 120.729 29.7145L120.613 30.099C120.494 30.0344 120.307 29.9645 120.032 29.9645C119.403 29.9619 119.06 30.4377 119.06 31.021C119.057 31.6688 119.464 32.0694 120.008 32.0748C120.293 32.0748 120.481 32.0049 120.624 31.943L120.705 32.3248V32.3194Z" fill="black"/>
<path fill-rule="evenodd" clip-rule="evenodd" d="M121.604 32.4233L121.617 29.6276H122.116L122.1 32.426H121.604V32.4233ZM121.855 29.1115C121.667 29.1115 121.543 28.961 121.545 28.7836C121.545 28.6034 121.675 28.4583 121.87 28.461C122.061 28.461 122.187 28.6061 122.187 28.7862C122.185 28.9664 122.061 29.1142 121.86 29.1142H121.855V29.1115Z" fill="black"/>
<path fill-rule="evenodd" clip-rule="evenodd" d="M125.123 30.781C125.123 30.7111 125.118 30.6304 125.102 30.5605C125.03 30.2433 124.756 29.9772 124.383 29.9745C123.868 29.9745 123.561 30.4315 123.556 31.0471C123.556 31.6197 123.831 32.0874 124.365 32.0901C124.697 32.0901 125.004 31.8616 125.096 31.4853C125.115 31.4154 125.12 31.3482 125.12 31.2675V30.781H125.123ZM125.638 28.3401L125.619 31.7191C125.619 31.9664 125.625 32.2487 125.641 32.4396H125.194L125.173 31.953H125.165C125.007 32.2648 124.679 32.4987 124.23 32.496C123.567 32.496 123.052 31.9181 123.054 31.0686C123.052 30.1331 123.63 29.5686 124.291 29.5713C124.716 29.5713 125.001 29.7756 125.118 29.996H125.131L125.136 28.332H125.638V28.3401Z" fill="black"/>
<path fill-rule="evenodd" clip-rule="evenodd" d="M128.214 31.0265C127.667 31.0131 127.051 31.1099 127.043 31.6529C127.043 31.9862 127.257 32.1394 127.511 32.1394C127.875 32.1394 128.105 31.9136 128.187 31.6771C128.203 31.6233 128.211 31.5669 128.211 31.5158V31.0292L128.214 31.0265ZM128.7 31.7873C128.7 32.0292 128.71 32.2685 128.737 32.4593H128.288L128.243 32.1018H128.227C128.076 32.3222 127.778 32.5185 127.387 32.5158C126.832 32.5131 126.549 32.1126 126.552 31.7093C126.552 31.0346 127.146 30.6663 128.206 30.6771V30.6206C128.206 30.3894 128.145 29.9647 127.585 29.9701C127.323 29.9701 127.056 30.0427 126.864 30.1717L126.753 29.8303C126.98 29.6905 127.318 29.5938 127.661 29.5938C128.507 29.5964 128.708 30.1798 128.705 30.7416L128.7 31.7873V31.7873Z" fill="black"/>
<path fill-rule="evenodd" clip-rule="evenodd" d="M131.688 30.8095C131.688 30.7396 131.688 30.6617 131.667 30.5891C131.595 30.2719 131.326 30.0031 130.951 30.0031C130.433 29.9977 130.124 30.4601 130.121 31.073C130.119 31.6428 130.396 32.1106 130.932 32.116C131.262 32.116 131.572 31.8875 131.664 31.5111C131.68 31.4412 131.688 31.3713 131.688 31.2934V30.8041V30.8095ZM132.2 28.3687L132.187 31.7477C132.187 31.995 132.187 32.2773 132.203 32.4681H131.757L131.735 31.9789H131.725C131.572 32.2934 131.241 32.5273 130.79 32.5246C130.126 32.5246 129.611 31.9466 129.619 31.0972C129.617 30.1617 130.195 29.5998 130.858 29.6025C131.284 29.6025 131.566 29.8041 131.683 30.0273H131.696L131.701 28.3633H132.203L132.2 28.3687Z" fill="black"/>
<path fill-rule="evenodd" clip-rule="evenodd" d="M135.075 30.8095C135.077 30.4896 134.945 29.9843 134.388 29.9816C133.878 29.9789 133.658 30.452 133.616 30.8041L135.072 30.8095H135.075ZM133.614 31.1644C133.621 31.8525 134.044 32.1375 134.543 32.1429C134.9 32.1429 135.125 32.0783 135.307 32.0058L135.394 32.3633C135.217 32.4439 134.911 32.5407 134.472 32.538C133.635 32.5326 133.127 31.9601 133.127 31.1214C133.133 30.2719 133.627 29.6106 134.43 29.6133C135.325 29.6187 135.555 30.4224 135.553 30.9359C135.553 31.038 135.545 31.1187 135.534 31.1778L133.611 31.1617L133.614 31.1644Z" fill="black"/>
<path fill-rule="evenodd" clip-rule="evenodd" d="M11.3153 15.2067C15.4234 15.5374 20.2132 18.6019 20.2845 25.5024C20.2951 26.532 21.2515 26.4299 21.9595 25.7094C22.5935 25.239 23.1087 24.6207 23.5393 23.9191C22.4297 26.8358 20.6438 29.3842 18.1737 30.4003C17.1407 31.0293 16.0047 30.8627 16.2847 29.6557C18.1921 21.6046 13.5028 16.61 8.81872 14.9971C8.41979 14.86 7.98916 14.696 7.54004 14.5078C8.92703 14.9057 10.248 15.118 11.3153 15.204" fill="black"/>
<path fill-rule="evenodd" clip-rule="evenodd" d="M16.2663 3.35418C13.8674 7.02085 8.66027 9.71977 2.84811 6.25472C2.20877 5.76278 1.78079 6.59074 1.87589 7.18214C2.11895 8.5074 2.576 9.65525 3.17835 10.6499C1.17051 8.33805 -0.208559 5.3488 0.0265694 1.58805C0.084691 0.875684 0.827063 0.0369747 1.42149 0.805792C6.95625 6.34074 13.4712 5.09343 17.3864 1.8488C16.9558 2.36762 16.5754 2.87837 16.2663 3.35687" fill="black"/>
<path fill-rule="evenodd" clip-rule="evenodd" d="M23.2168 17.3335C21.0584 12.8551 20.2183 7.23677 26.7332 2.96527C27.5496 2.58355 27.3831 1.86312 26.6196 1.58892C25.7848 1.20989 24.9526 0.992149 24.123 0.90344C26.9736 0.467956 29.914 0.903439 32.4371 2.9357C33.2428 3.4814 33.2323 4.36849 32.1729 4.56742C24.2895 7.27172 22.9421 12.9895 23.6263 18.3604C23.5022 17.9895 23.3674 17.64 23.2168 17.3309" fill="black"/>
<path fill-rule="evenodd" clip-rule="evenodd" d="M34.9682 24.2889L34.9999 16.8776C35.0052 15.383 35.2746 14.133 35.8004 13.1196C36.3287 12.1088 37.05 11.297 37.9614 10.6895C38.8306 10.1196 39.8451 9.70289 41.0075 9.43676C42.1673 9.17601 43.3641 9.04698 44.5926 9.05504H44.9334C45.0708 9.05504 47.7285 9.06848 47.8183 9.06848L45.2583 13.1357L43.6838 13.1276C42.3655 13.1196 41.3827 13.3857 40.746 13.9179C40.104 14.4529 39.7817 15.2916 39.7764 16.4421L39.7421 24.3104L34.9629 24.2889H34.9682Z" fill="black"/>
<path fill-rule="evenodd" clip-rule="evenodd" d="M52.0927 14.6573L59.0568 14.6923C58.9722 13.6573 58.6552 13.4046 58.111 12.9073C57.5245 12.367 56.6791 12.0982 55.588 12.0901C54.5867 12.0847 53.633 12.3428 52.9936 12.8778C52.3543 13.41 52.1429 13.6627 52.0927 14.6573ZM60.2641 19.695L63.6774 19.7084C63.1702 21.3159 62.2059 22.5364 60.7925 23.3724C59.3764 24.2487 57.5984 24.6788 55.4611 24.6708C52.8668 24.6573 50.8431 23.9396 49.3954 22.5175C47.9423 21.1304 47.2264 19.1546 47.2369 16.5874C47.2449 14.1358 47.9608 12.2245 49.3769 10.8509C50.8405 9.44227 52.8668 8.74065 55.4664 8.7541C58.1955 8.76485 60.309 9.46646 61.807 10.8509C63.2521 12.2756 63.9733 14.2514 63.9628 16.7783C63.9628 16.9342 63.9601 17.0659 63.9575 17.1788V17.41C63.9575 17.6009 63.9337 17.7353 63.8888 17.8105L52.0769 17.7568C52.1139 18.9423 52.452 19.8267 53.0887 20.4019C53.6779 21.0202 54.5629 21.3294 55.7465 21.3321C56.5205 21.3374 57.181 21.2057 57.7305 20.9396C57.8679 20.9019 57.9921 20.8374 58.1057 20.7407C58.2193 20.6466 58.3487 20.5417 58.4835 20.4261C58.5284 20.3105 58.7001 20.16 58.996 19.9692C59.2919 19.7783 59.7146 19.6842 60.2588 19.6896" fill="black"/>
<path fill-rule="evenodd" clip-rule="evenodd" d="M66.2192 19.3789L70.861 19.4004C70.9007 20.1665 71.2415 20.7418 71.8782 21.1289C72.5598 21.516 73.4686 21.7122 74.6072 21.7149C75.4262 21.7203 76.1316 21.5913 76.7261 21.3224C77.2756 21.059 77.5477 20.6961 77.5503 20.2337C77.5503 19.5456 76.5992 19.0241 74.6865 18.6692C73.8675 18.5509 73.252 18.4327 72.8425 18.3171C70.4331 17.809 68.8215 17.2068 68.0025 16.5133C67.0963 15.8198 66.6472 14.8977 66.6525 13.7499C66.6578 12.2956 67.3209 11.0913 68.6471 10.1396C70.0183 9.2633 71.7963 8.83319 73.9811 8.84395C76.3483 8.85739 78.2372 9.30362 79.6453 10.1907C80.961 11.1558 81.6585 12.4031 81.7456 13.9353L78.8079 13.9219C77.944 13.9165 77.2835 13.5913 76.8344 12.9353C76.6494 12.7821 76.4698 12.6289 76.2901 12.4757C75.7459 12.1262 74.9956 11.9515 74.0392 11.9461C73.1251 11.9407 72.4435 12.0536 71.9865 12.2821C71.577 12.5106 71.3709 12.852 71.3683 13.3144C71.3657 13.9273 72.5466 14.4488 74.9111 14.8816C75.1858 14.9595 75.4236 15.0187 75.6297 15.059C75.8331 15.0966 76.0233 15.1155 76.2082 15.1181C78.5305 15.6262 80.1447 16.2068 81.0508 16.8628C81.9121 17.5563 82.3427 18.4784 82.3401 19.6289C82.3321 21.3144 81.5977 22.6128 80.1341 23.5241C78.7656 24.3601 76.7155 24.7741 73.9811 24.7579C71.3868 24.7472 69.4556 24.2982 68.1822 23.4085C66.8665 22.5241 66.214 21.2391 66.2219 19.5509V19.3816L66.2192 19.3789Z" fill="black"/>
<path fill-rule="evenodd" clip-rule="evenodd" d="M94.8281 24.5675L94.8625 17.1589C94.8678 15.6616 95.1346 14.4116 95.663 13.3982C96.1913 12.3874 96.9099 11.5756 97.8267 10.9654C98.6932 10.3982 99.7077 9.97882 100.87 9.71538C102.033 9.45194 103.227 9.32291 104.458 9.32829C104.55 9.32829 104.661 9.32829 104.799 9.32829C104.936 9.32829 107.594 9.34173 107.681 9.34173L105.121 13.4089L103.552 13.4036C102.231 13.3982 101.251 13.6616 100.614 14.1939C99.9692 14.7261 99.6522 15.5702 99.6469 16.7181L99.61 24.5863L94.8308 24.5622L94.8281 24.5675Z" fill="black"/>
<path fill-rule="evenodd" clip-rule="evenodd" d="M94.5771 4.88176C94.4397 4.88176 94.3235 4.87907 94.2336 4.87907C93.0052 4.87369 91.8084 5.00272 90.6486 5.26348C89.4835 5.52692 88.4743 5.94358 87.6025 6.51348C86.6884 7.12369 85.9672 7.93283 85.4414 8.94627C84.913 9.95702 84.6462 11.2097 84.6409 12.7016L84.5854 24.5135L89.3646 24.5377L89.3937 18.0242L91.5706 18.0323L91.5838 14.8414L89.4043 14.828L89.4148 12.2662C89.4201 11.1183 89.7424 10.2769 90.3844 9.74197C91.0264 9.20971 92.0039 8.94627 93.3222 8.95434L94.8968 8.95971L97.4567 4.89251C97.3669 4.89251 94.7092 4.87907 94.5744 4.87907" fill="black"/>
<path fill-rule="evenodd" clip-rule="evenodd" d="M109.475 9.35156L111.934 9.365C112.571 9.36769 113.118 9.56124 113.569 9.94565C114.021 10.3327 114.251 10.7924 114.248 11.3274L114.19 24.6553L109.411 24.6311L109.477 9.35156H109.475Z" fill="black"/>
<path fill-rule="evenodd" clip-rule="evenodd" d="M109.499 4.89844L111.956 4.90919C112.592 4.91188 113.139 5.10543 113.594 5.49252C114.045 5.87693 114.273 6.3393 114.273 6.87424L114.267 8.08123L109.483 8.05704L109.499 4.89844V4.89844Z" fill="black"/>
<path fill-rule="evenodd" clip-rule="evenodd" d="M148.118 9.5316C147.983 9.5316 147.864 9.5316 147.777 9.5316C146.548 9.52353 145.352 9.65526 144.192 9.9187C143.027 10.1794 142.015 10.5934 141.146 11.166C140.232 11.7735 139.51 12.5827 138.985 13.5961C138.459 14.6096 138.19 15.8622 138.182 17.3542L138.15 24.7655L142.929 24.787L142.963 16.9187C142.969 15.7682 143.291 14.9321 143.933 14.3945C144.572 13.8622 145.552 13.5961 146.873 13.6015L148.445 13.6096L151.005 9.54235C150.916 9.54235 148.26 9.5316 148.123 9.5316" fill="black"/>
<path fill-rule="evenodd" clip-rule="evenodd" d="M130.372 20.9947C129.643 21.6023 128.639 21.9033 127.363 21.898C126.589 21.8953 126 21.7394 125.591 21.4302C125.184 21.0834 124.98 20.6238 124.986 20.0485C124.986 19.6238 125.147 19.2071 125.466 18.7851C125.831 18.4813 126.425 18.234 127.247 18.0485L128.819 17.7662C129.958 17.5431 130.845 17.2985 131.485 17.0324L131.479 18.4652C131.474 19.5377 131.104 20.3791 130.372 20.9894M133.971 10.2044C132.703 9.47054 130.787 9.09689 128.24 9.08613C125.963 9.07538 124.211 9.50818 122.978 10.3818C121.881 11.1399 121.239 12.1157 121.052 13.3039L125.628 13.3254C125.855 12.9033 126.222 12.6184 126.727 12.4679C127.226 12.3173 127.794 12.2447 128.433 12.2474C129.022 12.2501 129.672 12.3388 130.378 12.5162C131.083 12.691 131.432 13.0673 131.429 13.6399C131.426 14.406 130.423 14.9006 128.417 15.1211C128.01 15.1587 127.643 15.2017 127.326 15.2609C127.009 15.3146 126.732 15.3415 126.505 15.3415C124.777 15.5619 123.35 16.0162 122.235 16.7017C121.115 17.3872 120.552 18.5297 120.545 20.1399C120.537 21.863 121.144 23.0996 122.37 23.855C123.596 24.6076 125.028 24.9867 126.668 24.9947C127.487 24.9974 127.361 24.9329 128.431 24.8576C129.471 24.7851 130.359 24.5189 131.107 24.2313V24.7259L135.886 24.7474L135.912 18.6587V18.191L135.936 13.4329C135.941 12.0539 135.286 10.9786 133.968 10.2071" fill="black"/>
</g>
<defs>
<clipPath id="clip0_536_91">
<rect width="151" height="33" fill="white" transform="translate(0 0.5)"/>
</clipPath>
</defs>
</svg>
