<svg width="165" height="30" viewBox="0 0 165 30" fill="none" xmlns="http://www.w3.org/2000/svg">
<g clip-path="url(#clip0_536_68)">
<path d="M38.3989 29.9984C46.7551 29.9984 53.5292 23.3889 53.5292 15.2355C53.5292 7.08222 46.7551 0.472656 38.3989 0.472656C30.0426 0.472656 23.2686 7.08222 23.2686 15.2355C23.2686 23.3889 30.0426 29.9984 38.3989 29.9984Z" fill="black"/>
<path d="M0 0.472656V10.3105H3.09087C8.66191 10.3105 13.1736 5.90841 13.1736 0.472656V10.3105V20.1484H10.0827H9.92069H0C0 25.5842 4.51167 29.9863 10.0827 29.9863H13.1736C18.7446 29.9863 23.2563 25.5842 23.2563 20.1484C23.2563 14.7126 18.7446 10.3105 13.1736 10.3105C18.7446 10.3105 23.2563 5.90841 23.2563 0.472656H13.1736H0Z" fill="black"/>
<path d="M57.2676 17.5859H65.3437V19.2033H59.1371V22.7298H64.1473V24.3472H59.1371V28.2629H65.5307V29.8802H57.2676V17.5859Z" fill="black"/>
<path d="M66.6025 21.0131H68.3474V22.5696C68.8334 21.463 69.9053 20.8672 71.2638 20.8672C73.3077 20.8672 74.6413 22.3021 74.6413 24.4059V29.8416H72.8964V24.7342C72.8964 23.3357 72.0489 22.3872 70.7777 22.3872C69.3569 22.3872 68.3474 23.506 68.3474 25.0504V29.8416H66.6025V21.0131Z" fill="black"/>
<path d="M78.8667 18.2422V21.0148H81.5463V22.4862H78.8667V26.9005C78.8667 27.849 79.3902 28.3719 80.2626 28.3719H81.5339V29.8433H80.113C78.281 29.8433 77.1094 28.761 77.1094 26.9491V22.474H75.2773V21.0026H77.1344V18.2422H78.8667Z" fill="black"/>
<path d="M90.4818 26.9835C90.1578 28.8076 88.5251 29.9993 86.2942 29.9993C83.49 29.9993 81.7451 27.8469 81.7451 25.3905C81.7451 22.9219 83.3279 20.8789 86.1072 20.8789C88.9114 20.8789 90.407 22.8246 90.407 25.0743C90.407 25.3054 90.3946 25.5851 90.3696 25.7431H83.4526C83.6021 27.4091 84.7114 28.5522 86.2942 28.5522C87.6277 28.5522 88.4877 27.9928 88.737 26.9957H90.4818V26.9835ZM83.5024 24.4906H88.6373C88.5251 23.1408 87.5903 22.2409 86.1072 22.2409C84.6864 22.2409 83.7766 23.0192 83.5024 24.4906Z" fill="black"/>
<path d="M95.7294 22.4862C94.0718 22.4862 93.5359 23.9211 93.5359 25.8547V29.8555H91.791V21.0148H93.5359V22.7173C93.9471 21.5377 94.67 21.0148 95.9413 21.0148H96.8635V22.4862H95.7294ZM99.406 18.2422V21.0148H102.086V22.4862H99.406V26.9005C99.406 27.849 99.9295 28.3719 100.802 28.3719H102.073V29.8433H100.652C98.8202 29.8433 97.6487 28.761 97.6487 26.9491V18.2422H99.406Z" fill="black"/>
<path d="M110.548 24.1619V29.8651H108.803V28.4302C108.367 29.3787 107.22 30.0111 105.849 30.0111C103.992 30.0111 102.771 28.9288 102.771 27.3479C102.771 25.6454 104.154 24.5996 106.298 24.5996H108.18C108.591 24.5996 108.791 24.3929 108.791 24.0767C108.791 23.0066 108.006 22.2648 106.597 22.2648C105.338 22.2648 104.416 23.0309 104.366 23.9308H102.746C102.896 22.1919 104.503 20.8907 106.647 20.8907C109.003 20.8785 110.548 22.1919 110.548 24.1619ZM108.803 25.9738V25.767H106.473C105.289 25.767 104.516 26.3629 104.516 27.2871C104.516 28.0897 105.201 28.6369 106.211 28.6369C107.856 28.6491 108.803 27.6154 108.803 25.9738Z" fill="black"/>
<path d="M113.976 17.3164V19.4566H112.031V17.3164H113.976ZM112.143 21.0132H113.888V29.8539H112.143V21.0132Z" fill="black"/>
<path d="M115.607 21.0131H117.352V22.5696C117.838 21.463 118.91 20.8672 120.269 20.8672C122.313 20.8672 123.646 22.3021 123.646 24.4059V29.8416H121.901V24.7342C121.901 23.3357 121.054 22.3872 119.783 22.3872C118.362 22.3872 117.352 23.506 117.352 25.0504V29.8416H115.607V21.0131Z" fill="black"/>
<path d="M125.366 21.0127H127.111V22.5936C127.485 21.5964 128.457 20.8789 129.791 20.8789C131.261 20.8789 132.358 21.5234 132.719 22.6909C133.081 21.6937 134.265 20.8789 135.673 20.8789C137.63 20.8789 138.851 22.1923 138.851 24.2474V29.8656H137.107V24.7217C137.107 23.3232 136.384 22.3747 135.187 22.3747C133.804 22.3747 132.981 23.3232 132.981 24.7217V29.8656H131.236V24.7217C131.236 23.3232 130.513 22.3747 129.329 22.3747C127.946 22.3747 127.124 23.3232 127.124 24.7217V29.8656H125.379V21.0127H125.366Z" fill="black"/>
<path d="M148.797 26.9835C148.473 28.8076 146.841 29.9993 144.61 29.9993C141.805 29.9993 140.061 27.8469 140.061 25.3905C140.061 22.9219 141.643 20.8789 144.423 20.8789C147.227 20.8789 148.722 22.8246 148.722 25.0743C148.722 25.3054 148.71 25.5851 148.685 25.7431H141.768C141.918 27.4091 143.027 28.5522 144.61 28.5522C145.943 28.5522 146.803 27.9928 147.052 26.9957H148.797V26.9835ZM141.818 24.4906H146.953C146.841 23.1408 145.906 22.2409 144.423 22.2409C143.014 22.2409 142.092 23.0192 141.818 24.4906Z" fill="black"/>
<path d="M150.056 21.0131H151.801V22.5696C152.287 21.463 153.358 20.8672 154.717 20.8672C156.761 20.8672 158.094 22.3021 158.094 24.4059V29.8416H156.35V24.7342C156.35 23.3357 155.502 22.3872 154.231 22.3872C152.81 22.3872 151.801 23.506 151.801 25.0504V29.8416H150.056V21.0131Z" fill="black"/>
<path d="M162.319 18.2422V21.0148H164.999V22.4862H162.319V26.9005C162.319 27.849 162.843 28.3719 163.715 28.3719H164.987V29.8433H163.566C161.734 29.8433 160.562 28.761 160.562 26.9491V22.474H158.705V21.0026H160.562V18.2422H162.319Z" fill="black"/>
<path d="M73.6445 7.12416V12.5721H71.8997V7.45249C71.8997 6.04187 71.0522 5.09335 69.7685 5.09335C68.3477 5.09335 67.3381 6.22428 67.3381 7.76867V12.5721H65.5933V1.88298H61.7422V12.5721H59.8727V1.88298H55.9219V0.265625H67.3506V5.27576C67.8367 4.16915 68.921 3.57329 70.267 3.57329C72.3109 3.57329 73.6445 5.00823 73.6445 7.12416Z" fill="black"/>
<path d="M77.2089 0.94852V1.19173C77.2089 1.71463 76.7727 2.14025 76.2368 2.14025C75.7009 2.14025 75.2646 1.71463 75.2646 1.19173V0.94852C75.2646 0.425618 75.7009 0 76.2368 0C76.7727 0 77.2089 0.425618 77.2089 0.94852ZM75.3644 3.70896H77.1092V12.574H75.3644V3.70896Z" fill="black"/>
<path d="M82.9667 5.19368C81.3091 5.19368 80.7732 6.64078 80.7732 8.57431V12.5872H79.0283V3.7101H80.7732V5.41257C81.1845 4.233 81.9073 3.7101 83.191 3.7101H84.1133V5.18152H82.9667V5.19368ZM86.6558 0.9375V3.72226H89.3354V5.19368H86.6558V9.62011C86.6558 10.5686 87.1792 11.0915 88.0641 11.0915H89.3478V12.5629H87.927C86.0825 12.5629 84.9109 11.4685 84.9109 9.65659V0.9375H86.6558Z" fill="black"/>
<path d="M95.1309 12.5721L94.6573 13.8611C94.1214 15.3082 93.4733 16.1594 92.0026 16.1594H90.8809V14.7366H91.878C92.3267 14.7366 92.7379 14.5299 93.062 13.5936L93.3985 12.645L90.0459 3.70703H91.8531L94.2335 10.4197L96.6265 3.70703H98.4336L95.1309 12.5721Z" fill="black"/>
</g>
<defs>
<clipPath id="clip0_536_68">
<rect width="165" height="30" fill="white"/>
</clipPath>
</defs>
</svg>
