<svg width="94" height="59" viewBox="0 0 94 59" fill="none" xmlns="http://www.w3.org/2000/svg">
<g clip-path="url(#clip0_536_218)">
<path d="M32.7332 27.7141C31.8707 26.7233 30.8672 25.8654 29.755 25.1679L29.2164 26.1016H27.7095L26.9614 24.7956H25.476L24.728 26.1016H23.2318L22.4837 24.7956H20.9876L20.2395 23.4896H18.7433L17.9953 22.1836H16.4883L15.7402 23.4896L16.4883 24.7956H17.9845L18.7325 26.1016L17.9845 27.4076H16.4883L15.7402 26.1016H14.2441L13.496 24.7956H11.9907L11.2426 26.1016L11.9907 27.4076H13.4869L14.2349 28.7136L13.4869 30.0121L14.2349 31.3181L13.4869 32.6241L14.2349 33.9301H14.2499L13.5018 35.2361L14.2499 36.5421L14.1477 36.717L14.2499 36.5421L13.5018 35.2361H12.0057L11.2576 33.9301H9.75063L9.00255 35.2361L9.75063 36.5421H11.2468L11.9949 37.8481L11.2468 39.1541L11.9949 40.4601L11.2376 41.7586H9.75229L9.00421 43.0647H7.65186C7.6628 45.0641 7.97096 47.0507 8.56617 48.9592C9.20966 50.9521 10.2417 52.7972 11.6025 54.3872C12.884 55.8592 14.4755 57.0278 16.2622 57.8088C18.1451 58.6186 20.1764 59.0238 22.2252 58.9982C24.2527 59.0224 26.2623 58.6171 28.1226 57.8088C29.9007 57.0236 31.4842 55.8554 32.7606 54.3872C34.1188 52.7953 35.1506 50.9508 35.797 48.9592C36.4977 46.6259 36.815 44.194 36.7363 41.7586V40.3427C36.8179 37.9062 36.4957 35.473 35.7829 33.1422C35.1323 31.1495 34.0959 29.305 32.7332 27.7141V27.7141ZM14.0728 42.0577L14.2391 41.7661L13.9698 41.2922L14.2391 41.7661L14.0728 42.0577ZM14.2391 39.1466L13.89 38.5411L14.2391 39.1466ZM18.7392 28.7061L18.4898 29.1367L18.7392 28.7061ZM23.2243 28.7061L22.8386 28.0348L23.2243 28.7061ZM25.481 27.4001L25.1677 26.8529L25.481 27.4001ZM28.4235 41.7578C28.4235 45.2011 28.091 47.8381 26.9822 49.6663C25.8733 51.4945 24.2883 52.0084 22.2277 52.0084C20.0724 52.0084 18.4491 51.4904 17.3569 49.6521C16.2647 47.8139 15.9372 45.1802 15.9372 41.7511V40.2844C15.9372 36.812 16.2506 34.1783 17.3203 32.3759C17.8561 31.589 18.5756 30.945 19.4162 30.5C20.2568 30.055 21.1931 29.8224 22.1438 29.8224C23.0945 29.8224 24.0308 30.055 24.8713 30.5C25.7119 30.945 26.4314 31.589 26.9672 32.3759C28.081 34.1783 28.4235 36.812 28.4235 40.2844V41.7578Z" fill="black"/>
<path d="M45.8606 41.2216V42.8041H55.5515V40.4986H49.6035L55.4934 31.8821V30.3438H45.8315V32.6634H51.7946L45.8606 41.2216Z" fill="black"/>
<path d="M67.2364 40.4994H61.6591V37.5226H66.377V35.2904H61.6591V32.6642H67.2505V30.3438H58.6602V42.8049H67.2364V40.4994Z" fill="black"/>
<path d="M78.529 37.1066C78.7951 36.8995 79.0261 36.6505 79.2131 36.3695C79.4105 36.067 79.5582 35.7346 79.6503 35.385C79.7574 34.9681 79.8088 34.5387 79.8032 34.1082C79.8153 33.5483 79.7035 32.9928 79.4757 32.4815C79.2618 32.0177 78.9365 31.6142 78.529 31.3071C78.0836 30.9749 77.5796 30.7299 77.0436 30.585C76.407 30.4175 75.7509 30.3365 75.0928 30.3443H70.1929V42.8121H73.1927V38.4051H74.816L77.0145 42.8046H80.2254V42.6705L77.6263 37.6439C77.9489 37.5042 78.2522 37.3236 78.529 37.1066V37.1066ZM76.3886 35.6332C76.2163 35.7931 76.013 35.9158 75.7914 35.9936C75.5697 36.0714 75.3345 36.1027 75.1003 36.0855H73.2076V32.6639H75.1078C75.3415 32.6474 75.5762 32.6797 75.7968 32.7589C76.0174 32.838 76.2193 32.9623 76.3895 33.1237C76.6723 33.4805 76.8263 33.9228 76.8263 34.3785C76.8263 34.8342 76.6723 35.2764 76.3895 35.6332H76.3886Z" fill="black"/>
<path d="M92.3839 41.3341C92.8845 40.7725 93.266 40.1148 93.5052 39.401C93.7845 38.5743 93.92 37.7057 93.9059 36.8331V36.3334C93.918 35.4603 93.7802 34.5917 93.4986 33.7655C93.2557 33.0517 92.8718 32.3942 92.3698 31.8323C91.8917 31.3013 91.3025 30.8826 90.6442 30.6063C89.2368 30.0323 87.6613 30.0323 86.2538 30.6063C85.5966 30.8845 85.0078 31.3029 84.5283 31.8323C84.0303 32.3958 83.6491 33.0529 83.4071 33.7655C83.1313 34.593 82.9959 35.461 83.0064 36.3334V36.8331C82.9922 37.7057 83.1278 38.5743 83.4071 39.401C83.6491 40.1135 84.0303 40.7707 84.5283 41.3341C85.0068 41.8629 85.596 42.279 86.2538 42.5527C86.9531 42.8417 87.7036 42.9857 88.4599 42.9758C89.2092 42.9858 89.9526 42.8417 90.6442 42.5527C91.3068 42.2802 91.901 41.8641 92.3839 41.3341V41.3341ZM88.4773 40.6262C88.1155 40.6424 87.756 40.5593 87.4378 40.3858C87.1197 40.2123 86.8549 39.955 86.672 39.6417C86.2182 38.7757 86.0092 37.8019 86.0677 36.8256V36.3C86.0063 35.322 86.2127 34.3457 86.6645 33.4765C86.8482 33.1671 87.1127 32.9138 87.4296 32.7441C87.7465 32.5744 88.1035 32.4947 88.4623 32.5136C88.8171 32.5012 89.1689 32.5839 89.4811 32.7532C89.7934 32.9224 90.0549 33.1721 90.2387 33.4765C90.7058 34.3406 90.9204 35.3192 90.8579 36.3V36.8256C90.9167 37.8061 90.7023 38.7837 90.2387 39.6492C90.0619 39.9566 89.805 40.2101 89.4954 40.3825C89.1859 40.5549 88.8354 40.6397 88.4815 40.6278L88.4773 40.6262Z" fill="black"/>
<path d="M46.6835 47.2912C46.7483 47.2405 46.8227 47.2034 46.9021 47.1821C47.0015 47.1538 47.1047 47.1414 47.2079 47.1454C47.3123 47.142 47.4162 47.1593 47.5139 47.1962C47.5936 47.2213 47.6666 47.2643 47.7271 47.3221C47.7876 47.3798 47.8341 47.4508 47.863 47.5294C47.8929 47.6136 47.9078 47.7024 47.907 47.7918H49.1156C49.1208 47.5698 49.0735 47.3498 48.9776 47.1496C48.8835 46.959 48.7523 46.7891 48.5919 46.6498C48.4155 46.5069 48.2127 46.4002 47.9951 46.3358C47.7498 46.2608 47.4944 46.224 47.2379 46.2267C46.9773 46.2256 46.7178 46.26 46.4665 46.3291C46.2478 46.3882 46.0409 46.4846 45.8548 46.614C45.6883 46.7288 45.5511 46.8811 45.4541 47.0588C45.3577 47.2379 45.3077 47.4384 45.3087 47.6418C45.3049 47.848 45.3551 48.0516 45.4541 48.2324C45.5515 48.4029 45.6797 48.5538 45.8323 48.6771C46.0016 48.8066 46.1848 48.9166 46.3784 49.0053C46.5867 49.1017 46.8007 49.1851 47.0193 49.2552C47.2088 49.3207 47.3617 49.379 47.4781 49.4301C47.5746 49.4739 47.6651 49.5299 47.7474 49.5967C47.8066 49.6447 47.8519 49.7077 47.8787 49.7791C47.9027 49.847 47.9151 49.9185 47.9153 49.9906C47.9145 50.0556 47.9021 50.1199 47.8787 50.1805C47.8517 50.2417 47.812 50.2965 47.7624 50.3413C47.7012 50.3891 47.6324 50.426 47.5587 50.4504C47.462 50.4792 47.3611 50.4916 47.2603 50.487C47.1331 50.4875 47.0061 50.4752 46.8813 50.4504C46.7809 50.4261 46.6867 50.3813 46.6045 50.3188C46.5305 50.2514 46.4711 50.1695 46.43 50.0781C46.3895 49.9582 46.3698 49.8323 46.3718 49.7058H45.1549C45.1525 49.8894 45.1821 50.072 45.2422 50.2455C45.2947 50.4013 45.3734 50.5469 45.4749 50.6761C45.5733 50.8035 45.6914 50.9143 45.8248 51.0043C45.961 51.0971 46.1078 51.1731 46.262 51.2308C46.4202 51.29 46.5836 51.3341 46.75 51.3624C46.9207 51.3919 47.0937 51.4067 47.267 51.4066C47.5251 51.4111 47.7825 51.3792 48.0317 51.3116C48.2418 51.2545 48.4411 51.1634 48.6218 51.0418C48.7796 50.9238 48.9088 50.7718 49 50.597C49.0902 50.4081 49.1352 50.2008 49.1314 49.9915C49.1346 49.7964 49.0975 49.6027 49.0225 49.4226C48.9471 49.25 48.8353 49.0957 48.695 48.9703C48.5358 48.8265 48.3569 48.7062 48.1638 48.613C47.9329 48.5018 47.6946 48.4066 47.4507 48.3281C47.3052 48.2848 47.1814 48.2332 47.065 48.1899C46.9615 48.1522 46.8637 48.1007 46.7741 48.0366C46.7017 47.992 46.6396 47.9323 46.5921 47.8617C46.5489 47.8025 46.5258 47.731 46.5264 47.6577C46.527 47.5895 46.542 47.5222 46.5704 47.4603C46.5866 47.3921 46.6267 47.332 46.6835 47.2912V47.2912Z" fill="black"/>
<path d="M56.7002 49.5791C56.7226 49.8198 56.6521 50.0601 56.5032 50.2504C56.3434 50.3824 56.1426 50.4546 55.9355 50.4546C55.7283 50.4546 55.5276 50.3824 55.3678 50.2504C55.2201 50.0595 55.1497 49.8197 55.1708 49.5791V46.2891H53.9572V49.5791C53.9535 49.8463 54.003 50.1116 54.1027 50.3595C54.1933 50.5781 54.3329 50.7727 54.5108 50.9284C54.6941 51.0856 54.9069 51.2046 55.1367 51.2782C55.6644 51.4339 56.2257 51.4339 56.7534 51.2782C56.9832 51.2046 57.196 51.0856 57.3793 50.9284C57.5549 50.7723 57.692 50.5776 57.7799 50.3595C57.8773 50.1112 57.9246 49.8459 57.9188 49.5791V46.2891H56.7102V49.5791H56.7002Z" fill="black"/>
<path d="M65.6272 49.7873L64.5059 46.2891H62.9116V51.3232H64.1202V50.1488L64.0038 47.7409L65.2273 51.3224H66.0286L67.2372 47.7409L67.1208 50.1488V51.3232H68.3369V46.2891H66.7426L65.6272 49.7873Z" fill="black"/>
<path d="M76.0602 49.7873L74.9389 46.2891H73.3447V51.3232H74.5607V50.1488L74.4369 47.7409L75.6604 51.3224H76.4617L77.6777 47.7409L77.5539 50.1488V51.3232H78.7699V46.2891H77.1757L76.0602 49.7873Z" fill="black"/>
<path d="M85.0738 46.2891H83.8652V51.3232H85.0738V46.2891Z" fill="black"/>
<path d="M89.7993 46.2891V47.2303H91.2771V51.3232H92.4932V47.2303H94.0001V46.2891H89.7993Z" fill="black"/>
<path d="M0.748076 28.707L0 30.013L0.748076 31.319H2.25504L3.00311 30.013L2.25504 28.707H0.748076Z" fill="black"/>
<path d="M9.74819 39.1475L9.00011 37.8415H7.50396L6.75588 36.543H5.23978L4.4917 37.8415L5.23978 39.1475H6.73593L7.48401 40.4535H8.99097L9.74819 39.1475Z" fill="black"/>
<path d="M0.748076 36.543L0 37.8415L0.748076 39.1475H2.25504L3.00311 37.8415L2.25504 36.543H0.748076Z" fill="black"/>
<path d="M5.23978 28.707L4.4917 30.013L5.23978 31.319L4.4917 32.625L5.23978 33.931H6.74674L7.49482 32.625H8.99097L9.73905 31.319H11.2352L11.9924 30.013L11.241 28.707H9.74486L8.98764 30.013H7.49897L6.75089 28.707H5.23978Z" fill="black"/>
<path d="M4.49947 27.4011L5.25669 26.0951L4.49947 24.7891H3.00331L2.24609 26.0951L3.00331 27.4011H4.49947Z" fill="black"/>
<path d="M20.2261 20.8815L20.9742 22.1875H22.4812L23.2292 20.8815L22.4812 19.5755H20.985L20.2369 18.2695H18.7242L17.9761 19.5755L18.7242 20.8815H20.2261Z" fill="black"/>
<path d="M24.7183 18.2669L25.4663 19.5729H26.9733L27.7214 18.2669L26.9733 16.9609H25.4663L24.7183 18.2669Z" fill="black"/>
<path d="M24.7246 15.655L25.4818 14.349L24.7246 13.043H23.2284L22.4712 14.349L23.2284 15.655H24.7246Z" fill="black"/>
<path d="M26.975 19.5742H25.4663L24.7183 20.8802L25.4663 22.1862H26.9625L27.7106 23.4922H29.2175L29.9656 22.1862L29.2175 20.8802H27.7214L26.975 19.5742Z" fill="black"/>
<path d="M4.49947 14.3506L5.25669 13.0446L4.49947 11.7461H3.00331L2.24609 13.0446L3.00331 14.3506H4.49947Z" fill="black"/>
<path d="M11.2409 20.875L11.9981 19.569H13.4835L14.2315 20.875H15.7385L16.4866 19.569L15.7385 18.263H14.2423L13.4943 16.957H11.9873L11.2392 18.263H9.74307L8.98584 19.569L9.74307 20.875H11.2409Z" fill="black"/>
<path d="M15.7406 2.60451L16.4887 1.29851L15.7406 0H14.232L13.4839 1.29851L14.232 2.60451H15.7406Z" fill="black"/>
<path d="M20.2328 10.4401L20.9809 9.13413L20.2328 7.82812H18.7242L17.9761 9.13413L18.7242 10.4401H20.2328Z" fill="black"/>
<path d="M15.7406 15.655L16.4887 14.349L15.7406 13.043H14.232L13.4839 14.349L14.232 15.655H15.7406Z" fill="black"/>
</g>
<defs>
<clipPath id="clip0_536_218">
<rect width="94" height="59" fill="white"/>
</clipPath>
</defs>
</svg>
