<svg width="69" height="42" viewBox="0 0 69 42" fill="none" xmlns="http://www.w3.org/2000/svg">
<path d="M68.1175 33.9661C65.3768 38.7178 60.1481 41.9649 54.2204 41.9961H54.1375C49.8092 41.9727 45.8719 40.2069 43.0127 37.3652C43.0127 37.3652 43.0087 37.3613 43.0048 37.3574C44.0316 36.3517 44.9201 35.2096 45.6389 33.9622C46.8039 32.0287 45.0465 30.6293 44.462 30.3682C43.3839 29.7601 40.5721 28.8674 40.5721 28.8674C40.5721 28.8674 40.4734 28.8245 40.2996 28.7856C40.2838 28.7856 40.272 28.7778 40.2562 28.7778C40.2522 28.7778 40.2443 28.7778 40.2404 28.7778C40.1811 28.7661 40.114 28.7583 40.0429 28.7505C39.6835 28.7154 39.178 28.7427 38.6212 29.0038C38.6212 28.9999 38.6212 28.996 38.6212 28.9921C38.4475 28.002 38.3645 26.9807 38.3882 25.94C38.3882 25.363 38.4119 24.8134 38.4988 24.1819C38.6212 23.2971 38.8187 22.4356 39.0872 21.6014C39.2491 21.0518 39.4308 20.5489 39.6322 20.163C41.9938 14.7486 47.3844 10.8739 53.6162 10.6361C55.8948 10.5504 58.0511 10.9831 60.0375 11.7432C60.7128 12.0005 60.9971 12.0628 61.5895 12.4565C63.2442 13.5597 63.4575 14.8889 62.9757 16.1597L60.8273 19.5549C60.0217 20.6152 58.5724 21.0479 57.0006 20.2956C57.0006 20.2956 55.9067 19.7459 54.8878 19.6641C51.0887 19.3522 47.724 22.2719 47.5424 26.0296C47.3568 29.838 50.4292 32.9799 54.2441 32.9799C56.6215 32.9799 58.6197 31.6233 59.4965 30.3955C61.1591 28.0644 63.0428 28.8713 63.0428 28.8713C63.0428 28.8713 65.8546 29.764 66.9327 30.3721C67.5172 30.6332 69.2746 32.0287 68.1096 33.9661H68.1175Z" fill="black"/>
<path d="M25.2217 6.02084C25.1585 8.54678 23.0378 8.42594 23.0378 8.42594H16.0083C16.0083 8.42594 15.9886 8.42594 15.9767 8.42594H15.4752V8.42984C15.4673 8.42984 15.4594 8.42984 15.4515 8.42984C14.7999 8.42984 14.2747 8.95608 14.2786 9.59926L14.2826 9.78247C14.2826 9.98907 14.3339 10.184 14.4287 10.3516C14.4642 10.4296 14.5156 10.4997 14.5748 10.5582C14.7881 10.7999 15.0961 10.9519 15.4476 10.9558C15.4555 10.9558 15.4634 10.9558 15.4713 10.9558H15.7358C15.9254 10.9675 16.0715 10.9636 16.111 10.9636H19.3414C20.6368 10.9558 21.9479 10.9441 21.9479 10.9441C23.1761 10.948 24.0054 11.3339 24.1436 12.5774C24.1436 12.5774 24.1436 12.5774 24.1397 12.5774C23.0931 13.1504 22.1137 13.8365 21.2291 14.62C19.5073 16.2104 18.2317 18.1438 17.3471 19.7771L17.3432 19.7849H15.6253C15.1435 19.8122 14.867 20.0383 14.713 20.3034C14.713 20.3034 14.713 20.3034 14.713 20.3073C14.7051 20.3189 14.6972 20.3267 14.6933 20.3384C14.5787 20.5177 14.5156 20.7282 14.5156 20.9543C14.5156 20.9621 14.5156 20.9699 14.5156 20.9777V21.0596C14.5156 21.0596 14.5156 21.0713 14.5156 21.0752V39.9847C14.5156 40.0822 14.5156 40.2303 14.4919 40.3979C14.4484 41.2633 13.7297 41.9532 12.8411 41.9571C12.7819 41.9649 12.7266 41.9727 12.6634 41.9766H5.88665C5.81162 41.9727 5.74053 41.9649 5.66945 41.9571H5.65365C4.7335 41.9532 3.995 41.2126 3.99895 40.3043C3.99895 40.2771 3.99895 40.2537 3.99895 40.2264C3.99895 40.2147 3.99895 40.203 3.99895 40.1913V40.1445C3.99895 40.0549 3.99895 39.9691 3.99895 39.8872V20.9816C3.99895 20.9816 3.99895 20.966 3.99895 20.9582C3.99895 20.3151 3.46977 19.7927 2.81816 19.7927C2.79051 19.7927 2.76287 19.7927 2.73917 19.7927H1.98488C1.97304 19.7927 1.96119 19.7888 1.94934 19.7849H1.69659C1.6887 19.7849 1.6808 19.7849 1.6729 19.7849C1.02129 19.781 0.5 19.2548 0.5 18.6116C0.5 18.5843 0.5 18.557 0.503949 18.5336H0.5V12.2149C0.503949 12.1759 0.507898 12.1369 0.511847 12.1018C0.555288 11.4937 1.06868 11.0143 1.69659 11.0182C1.72424 11.0182 1.75188 11.0182 1.77558 11.0221H2.06387C2.07176 11.0221 2.07966 11.0221 2.08756 11.0221H2.78656C2.81421 11.0221 2.8379 11.026 2.86555 11.026C3.51716 11.026 4.05029 10.5114 4.05424 9.86823C4.05424 9.86043 4.05424 9.85264 4.05424 9.84484L4.05819 9.10031C4.07794 8.85473 4.07399 8.63644 4.08978 8.48831C4.33858 6.00914 5.12051 4.0874 6.55801 2.6685C8.39437 0.851999 10.8586 0.177634 14.4129 0.0256091C16.5612 -0.0679445 20.929 0.0957744 23.2353 0.501173C24.8466 0.785732 25.198 1.92397 25.198 2.75426L25.2217 6.02084Z" fill="black"/>
<path d="M38.6291 29.0077C39.1978 32.2392 40.7735 35.1316 43.0127 37.3613C43.0087 37.3691 43.0008 37.373 42.9929 37.3808C40.1022 40.2069 36.1135 41.9766 31.7497 42H31.6667C22.8878 41.9532 15.7122 34.7379 15.9215 25.9244C15.9215 25.9244 15.9215 25.9205 15.9215 25.9166C15.9215 25.3475 15.9452 24.8095 16.032 24.1858C16.2453 22.6383 16.6915 21.1609 17.3353 19.7888C17.3353 19.7888 17.3392 19.7888 17.3471 19.7888C17.592 19.7927 21.9163 19.7888 21.9163 19.7888C23.5117 19.7888 24.1199 19.0053 24.1555 17.7111C24.1555 17.6955 24.1555 17.68 24.1555 17.6644C24.1555 17.6137 24.1555 17.524 24.1555 17.4032C24.1555 17.3915 24.1555 17.3759 24.1555 17.3603V17.259C24.1555 17.2083 24.1555 17.1498 24.1555 17.0875C24.1555 15.996 24.1515 13.4856 24.1555 12.7684C24.1555 12.7021 24.1476 12.6398 24.1397 12.5774C26.2406 11.4314 28.6219 10.7375 31.1455 10.6439C33.4241 10.5582 35.5804 10.9909 37.5668 11.751C38.2421 12.0083 38.5264 12.0706 39.1188 12.4643C40.7735 13.5714 40.9868 14.8967 40.505 16.1675L38.3566 19.5627C37.551 20.623 36.0977 21.0557 34.5259 20.3034C34.5259 20.3034 33.432 19.7537 32.4131 19.6719C28.614 19.36 25.2494 22.2797 25.0677 26.0374C24.8821 29.8458 27.9545 32.9916 31.7694 32.9916C34.1468 32.9916 36.1451 31.635 37.0218 30.4071C37.5549 29.6626 38.1078 29.2377 38.6173 29.0038" fill="black"/>
</svg>
