<svg width="96" height="43" viewBox="0 0 96 43" fill="none" xmlns="http://www.w3.org/2000/svg">
<g clip-path="url(#clip0_536_137)">
<path d="M47.8704 0.503906L46.0079 1.01799C45.7273 1.09527 45.5312 1.35063 45.5312 1.63959V11.397H47.8704V0.503906Z" fill="black"/>
<path d="M53.0086 11.5751C55.2227 11.5751 56.9703 9.90849 56.9703 7.63713C56.9703 5.36577 55.1956 3.69922 53.0086 3.69922C50.8215 3.69922 49.0469 5.36913 49.0469 7.63713C49.0469 9.90513 50.7945 11.5751 53.0086 11.5751ZM53.0086 5.91345C53.9179 5.91345 54.6041 6.59889 54.6041 7.63713C54.6041 8.67537 53.9179 9.36081 53.0086 9.36081C52.0993 9.36081 51.4131 8.69217 51.4131 7.63713C51.4131 6.58209 52.0993 5.91345 53.0086 5.91345Z" fill="black"/>
<path d="M62.6827 3.69872C61.7194 3.69872 61.0061 4.10864 60.5227 4.72352V0.5L58.6602 1.01408C58.3797 1.09136 58.1836 1.34672 58.1836 1.63568V11.3931H60.5227V10.5867C61.0163 11.1747 61.7058 11.5712 62.6692 11.5712C64.596 11.5712 66.0799 9.9584 66.0799 7.63328C66.0799 5.30816 64.5656 3.69536 62.6827 3.69536V3.69872ZM62.1182 9.36032C61.2089 9.36032 60.5227 8.69168 60.5227 7.63664C60.5227 6.5816 61.2089 5.91296 62.1182 5.91296C63.0275 5.91296 63.7137 6.5984 63.7137 7.63664C63.7137 8.67488 63.014 9.36032 62.1182 9.36032Z" fill="black"/>
<path d="M72.6651 4.72401C72.1851 4.10913 71.4685 3.69922 70.5051 3.69922C68.6223 3.69922 67.1079 5.29857 67.1079 7.63713C67.1079 9.97569 68.5919 11.5751 70.5186 11.5751C71.482 11.5751 72.1682 11.1786 72.6516 10.5906V11.397H74.9907L75.0042 3.87729H72.6651V4.72401ZM71.0696 9.36081C70.1772 9.36081 69.4741 8.69217 69.4741 7.63713C69.4741 6.58209 70.1603 5.91345 71.0696 5.91345C71.9789 5.91345 72.6651 6.59889 72.6651 7.63713C72.6651 8.67537 71.9789 9.36081 71.0696 9.36081Z" fill="black"/>
<path d="M76.5928 1.63959V11.397H78.9319V0.503906L77.0694 1.01799C76.7888 1.09527 76.5928 1.35063 76.5928 1.63959Z" fill="black"/>
<path d="M54.8711 15.3311C54.8711 16.1106 55.4897 16.6717 56.2908 16.6717C57.0919 16.6717 57.7071 16.1106 57.7071 15.3311C57.7071 14.5516 57.1156 14.0039 56.2908 14.0039C55.466 14.0039 54.8711 14.565 54.8711 15.3311Z" fill="black"/>
<path d="M57.4568 17.5586H55.1177V25.0783H57.4568V17.5586Z" fill="black"/>
<path d="M37.4998 29.1875H35.1606V38.7601H41.7319V36.5459H37.4998V29.1875Z" fill="black"/>
<path d="M56.9634 32.0873C56.4834 31.4724 55.7668 31.0625 54.8034 31.0625C52.9206 31.0625 51.4062 32.6619 51.4062 35.0004C51.4062 37.339 52.8902 38.9383 54.817 38.9383C55.7803 38.9383 56.4665 38.5419 56.9499 37.9539V38.7603H59.2891L59.3026 31.2406H56.9634V32.0873ZM55.3679 36.7241C54.4755 36.7241 53.7724 36.0555 53.7724 35.0004C53.7724 33.9454 54.4586 33.2767 55.3679 33.2767C56.2772 33.2767 56.9634 33.9622 56.9634 35.0004C56.9634 36.0387 56.2772 36.7241 55.3679 36.7241Z" fill="black"/>
<path d="M63.0784 32.4031L62.7539 31.2406H60.7393V38.7603H63.0784V35.5044C63.0784 33.7942 64.1364 33.4683 65.2384 33.4683C65.4581 33.4683 65.5562 33.4817 65.7049 33.4951V31.1028C65.5967 31.0759 65.4581 31.0625 65.279 31.0625C64.3156 31.0625 63.5449 31.4859 63.0784 32.4031Z" fill="black"/>
<path d="M71.2552 31.0625C70.3189 31.0625 69.6191 31.4187 69.0682 32.0873L68.7437 31.2406H66.729V38.7603H69.0682V34.7686C69.0682 33.7303 69.5346 33.2767 70.4575 33.2767C71.3803 33.2767 71.6541 33.7539 71.6541 34.5771V38.7603H73.9932V34.0563C73.9932 32.2251 72.9622 31.0625 71.2552 31.0625Z" fill="black"/>
<path d="M76.495 27.6875C75.6972 27.6875 75.0786 28.2486 75.0786 29.0147C75.0786 29.7808 75.6972 30.3553 76.495 30.3553C77.2927 30.3553 77.9113 29.7942 77.9113 29.0147C77.9113 28.2352 77.3197 27.6875 76.495 27.6875Z" fill="black"/>
<path d="M77.7928 31.2422H75.4536V38.7619H77.7928V31.2422Z" fill="black"/>
<path d="M83.9788 31.0625C83.0425 31.0625 82.3428 31.4187 81.7918 32.0873L81.4673 31.2406H79.4526V38.7603H81.7918V34.7686C81.7918 33.7303 82.2617 33.2767 83.1811 33.2767C84.1005 33.2767 84.3777 33.7539 84.3777 34.5771V38.7603H86.7169V34.0563C86.7169 32.2251 85.6859 31.0625 83.9788 31.0625Z" fill="black"/>
<path d="M93.4771 31.2406V32.0739C92.9971 31.4724 92.2805 31.0625 91.3306 31.0625C89.4309 31.0625 87.9199 32.6619 87.9199 34.9332C87.9199 37.2046 89.4073 38.8039 91.3306 38.8039C92.294 38.8039 92.9802 38.4075 93.4771 37.8195V38.7367C93.4771 39.8153 92.9532 40.2958 91.9357 40.2958C91.3002 40.2958 90.6951 40.1311 90.516 39.3785H88.1092C88.356 41.4583 90.1577 42.3588 92.0033 42.3588C94.3154 42.3588 95.8129 40.8804 95.8129 38.6527V31.2406H93.4737H93.4771ZM91.8816 36.5863C90.9892 36.5863 90.2861 35.9177 90.2861 34.9299C90.2861 33.942 90.9723 33.2767 91.8816 33.2767C92.7909 33.2767 93.4771 33.9622 93.4771 34.9299C93.4771 35.8975 92.7909 36.5863 91.8816 36.5863Z" fill="black"/>
<path d="M38.6628 11.5744C40.1771 11.5744 41.3231 10.3883 41.6881 9.53155V11.3997H43.6825V6.75283C43.6825 6.39667 43.3918 6.10771 43.0335 6.10771H38.3349V8.04979H41.1946C40.8093 8.96707 39.9033 9.43075 38.8419 9.43075C37.1214 9.43075 36.2695 8.20099 36.2695 6.66883C36.2695 4.98547 37.3005 3.86659 38.896 3.86659C39.8932 3.86659 40.6605 4.30339 41.0526 5.03923L43.2701 4.24627C42.5163 2.69394 40.9174 1.65234 38.8994 1.65234C36.1783 1.65234 33.9101 3.92707 33.9033 6.63187C33.8966 9.50803 36.0059 11.5811 38.6628 11.5811V11.5744Z" fill="black"/>
<path d="M44.744 25.0783H47.1001L48.273 22.0072L49.4494 25.0783H51.8291L54.1446 17.5586H52.3226C52.0319 17.5586 51.7784 17.7501 51.6973 18.0256L50.4161 22.4138L49.4325 18.9765L49.9733 17.562H48.104C47.8336 17.562 47.5902 17.73 47.4956 17.9786L46.1333 22.4138L44.8589 18.0256C44.7778 17.7501 44.5243 17.5586 44.2336 17.5586H42.4116L44.7474 25.0783H44.744Z" fill="black"/>
<path d="M46.4409 31.0625C44.0882 31.0625 42.4521 32.7727 42.4521 35.0004C42.4521 37.2281 44.0747 38.9383 46.4983 38.9383C47.891 38.9383 49.2364 38.3671 49.9327 37.0534L47.8302 36.3007C47.651 36.8451 47.1305 37.1475 46.4983 37.1475C45.6871 37.1475 44.9434 36.6535 44.8352 35.4943H50.3519C50.5851 33.018 48.9491 31.0625 46.4443 31.0625H46.4409ZM44.8995 34.0865C45.0921 33.3607 45.5857 32.8567 46.4274 32.8567C47.2691 32.8567 47.7626 33.3641 47.9113 34.0865H44.8995Z" fill="black"/>
<path d="M38.5611 19.2137C37.2327 19.0961 36.6039 18.9113 36.6039 18.1721C36.6039 17.6143 37.2631 17.2246 38.2062 17.2246C38.8484 17.2246 39.7882 17.4228 40.3256 17.9873L40.3831 18.0478L41.8299 16.7844L41.7724 16.7206C40.8665 15.6723 39.8287 15.2422 38.1893 15.2422C36.3606 15.2422 34.3831 16.1628 34.3696 18.1822C34.3425 20.4838 36.1915 20.9743 38.1994 21.1625C39.4873 21.27 40.0315 21.6195 40.018 22.3351C40.018 22.95 39.2946 23.3633 38.2163 23.3633C37.3882 23.3633 36.151 23.0239 35.4006 22.0697L35.3397 21.9924L33.9707 23.4103L34.0045 23.4675C34.7448 24.6871 36.3301 25.4398 38.1487 25.4398H38.2062C40.0789 25.4263 42.2693 24.6065 42.2693 22.3385C42.2693 20.4771 41.022 19.4254 38.5645 19.2103L38.5611 19.2137Z" fill="black"/>
<path d="M61.9698 20.3393C61.5033 20.3292 60.9524 20.2251 60.9524 19.7782C60.9524 19.4456 61.3208 19.2507 61.936 19.2507C62.6222 19.2507 63.1191 19.4019 63.6532 19.7748L63.7208 19.8219L64.8431 18.4073L64.8938 18.3435L64.8295 18.2897C64.0521 17.6211 63.1259 17.3086 61.9225 17.3086C60.4014 17.3086 58.6233 17.9571 58.6233 19.7782C58.6233 21.9252 61.0774 22.2008 61.8312 22.2344C62.8926 22.2646 63.0143 22.5771 63.0143 22.8123C63.0177 22.9131 62.9805 23.0072 62.8994 23.0878C62.7236 23.2625 62.3754 23.3667 61.9867 23.3532C61.3073 23.3398 60.4047 23.2256 59.4447 22.4427L59.367 22.3788L58.3428 24.0555L58.4002 24.1025C59.7625 25.2315 60.9625 25.3827 61.9563 25.3827C63.1157 25.3827 64.0385 25.0702 64.6267 24.4788C65.0695 24.0353 65.3062 23.4406 65.2994 22.8056C65.2825 20.6854 63.3929 20.3796 61.9732 20.336L61.9698 20.3393Z" fill="black"/>
<path d="M69.6836 20.3393C69.2172 20.3292 68.6662 20.2251 68.6662 19.7782C68.6662 19.4456 69.0346 19.2507 69.6498 19.2507C70.3259 19.2507 70.8431 19.4086 71.367 19.7748L71.4346 19.8219L72.5569 18.4073L72.6076 18.3435L72.5434 18.2897C71.7659 17.6211 70.8431 17.3086 69.6363 17.3086C68.1152 17.3086 66.3372 17.9571 66.3372 19.7782C66.3372 21.4851 67.9935 22.1672 69.5451 22.2344C70.6065 22.2646 70.7282 22.5771 70.7282 22.8123C70.7315 22.9131 70.6944 23.0072 70.6132 23.0878C70.4375 23.2625 70.096 23.3667 69.7005 23.3532C69.0211 23.3398 68.1186 23.2256 67.1586 22.4427L67.0808 22.3788L66.0532 24.0555L66.1107 24.1025C67.4729 25.2315 68.6729 25.3827 69.6667 25.3827C70.8296 25.3827 71.7524 25.0702 72.3405 24.4788C72.7834 24.0353 73.02 23.4406 73.0098 22.8089C72.9929 20.6888 71.1034 20.383 69.6836 20.3393Z" fill="black"/>
<path d="M28.7416 29.1797H25.5337V32.3683H28.7416V29.1797Z" fill="black"/>
<path d="M28.7416 35.5625H25.5337V38.7511H28.7416V35.5625Z" fill="black"/>
<path d="M19.6958 0.503361H0.0834212V8.5136H9.13244C5.63723 9.98192 0.610749 14.5347 0.0766644 20.6062C-0.81911 30.777 6.10709 38.7469 22.3257 38.7469V35.5616H19.1178V32.373H22.3257V29.1944C17.9077 29.1944 9.06145 28.9054 8.32455 20.7474C8.01695 17.337 10.0519 12.9488 14.4293 10.5027V21.8931H22.3257V3.11408C22.3257 1.67264 21.1493 0.5 19.6958 0.5V0.503361Z" fill="black"/>
</g>
<defs>
<clipPath id="clip0_536_137">
<rect width="96" height="42" fill="white" transform="translate(0 0.5)"/>
</clipPath>
</defs>
</svg>
