<svg width="134" height="36" viewBox="0 0 134 36" fill="none" xmlns="http://www.w3.org/2000/svg">
<g clip-path="url(#clip0_536_342)">
<path d="M56.5015 25.8098C54.578 29.054 50.1445 29.9062 47.5431 29.9062H47.0702C45.8366 29.9212 44.6132 29.684 43.4766 29.2095C42.34 28.7349 41.3147 28.0332 40.465 27.1484C39.6153 26.2636 38.9596 25.2146 38.5387 24.0674C38.1179 22.9201 37.9412 21.6992 38.0196 20.4812C38.4046 15.5335 43.3145 11.5274 48.811 11.9987C49.9357 12.0936 51.0403 12.35 52.0903 12.7597C51.999 13.4303 51.8888 13.9919 52.4754 14.2825C52.6672 14.3832 52.881 14.4359 53.0981 14.4359C53.3153 14.4359 53.5291 14.3832 53.7209 14.2825L53.9225 14.4819C51.7974 15.4423 49.9653 15.7141 49.1961 16.7657V12.9591C45.642 12.6693 42.6556 16.856 42.5453 20.5715C42.2524 26.4805 46.3009 28.0936 49.3787 28.184C54.1973 28.4737 56.0294 25.8098 56.0294 25.8098H56.5015Z" fill="black"/>
<path d="M57.2711 23.5272L56.1168 24.5788C55.7001 25.0344 55.2113 25.42 54.6696 25.7207C54.4681 25.811 53.9004 25.5213 53.9004 24.7603V23.6184C53.9004 23.6184 52.0683 25.5213 50.8227 25.9022C49.5771 26.2831 48.5142 25.1412 48.5142 20.8454C48.4229 16.0784 54.6696 15.8969 56.1176 15.2271L56.4105 15.1367C56.2136 15.518 56.1131 15.9408 56.1176 16.369V23.7079L56.8869 23.0372L57.2711 23.5272ZM53.8996 16.6757C53.2853 16.8794 52.7248 17.2161 52.2588 17.6614C51.7928 18.1066 51.4331 18.6491 51.206 19.2493C50.7297 20.8625 51.206 24.3061 52.0674 24.1067C52.654 24.0164 53.6067 23.0551 53.8996 22.7654V16.6757Z" fill="black"/>
<path d="M60.9173 23.0552C60.9173 24.0156 61.2102 23.7259 62.0715 23.1456L62.2731 23.6168L58.334 26.1904C58.5483 25.7719 58.6791 25.3165 58.719 24.849V17.2374L57.5647 17.9081L57.1616 17.2374C58.1689 16.9031 59.0888 16.3522 59.8552 15.6243C59.8552 15.6243 60.9181 14.6639 60.9181 16.4765V16.946L63.8132 14.8616C63.8771 14.8346 63.9468 14.8237 64.0159 14.8298C64.0851 14.8358 64.1517 14.8588 64.2098 14.8965C64.2679 14.9342 64.3156 14.9855 64.3487 15.0459C64.3819 15.1062 64.3995 15.1738 64.3999 15.2425C64.3999 15.6234 64.6014 16.4748 65.4628 16.4748L62.2929 18.8489C62.0598 18.2715 62.0277 17.6338 62.2016 17.0363C61.7416 17.295 61.322 17.6186 60.956 17.9967L60.9173 23.0552Z" fill="black"/>
<path d="M73.6319 23.5272L72.4776 24.5788C72.0609 25.0344 71.5722 25.4201 71.0305 25.7207C70.8289 25.811 70.2613 25.5213 70.2613 24.7603V23.6184C70.2613 23.6184 68.4291 25.5213 67.1835 25.9022C65.938 26.2831 64.875 25.1412 64.875 20.8454C64.7837 16.0784 71.0305 15.8969 72.4785 15.2271L72.7713 15.1367C72.5744 15.518 72.4739 15.9408 72.4785 16.369V23.7079L73.2477 23.0372L73.6319 23.5272ZM70.2604 16.6757C69.6462 16.8794 69.0856 17.2161 68.6196 17.6614C68.1537 18.1066 67.794 18.6491 67.5668 19.2493C67.0905 20.8625 67.5668 24.3061 68.4282 24.1067C69.0148 24.0164 69.9675 23.0551 70.2604 22.7654V16.6757Z" fill="black"/>
<path d="M85.8524 23.8159C84.2218 25.6285 83.6352 26.0997 83.0676 26.0997C82.7747 26.0997 82.3897 25.81 82.3897 25.1393V23.4171C81.4189 24.4687 80.1725 25.7009 79.2198 25.9907C77.5891 26.2804 76.8199 24.0878 77.0947 19.901C77.0947 17.4178 81.0338 16.2759 82.3897 15.6052V11.7994L80.759 12.9414L80.4662 12.5604L84.6982 9.51562V24.1789L85.5596 23.418L85.8524 23.8159ZM82.3897 16.6747L82.0968 16.7651C82.0968 16.7651 79.6969 17.6172 79.4954 19.6292C79.2938 21.6412 79.2938 24.1057 80.082 24.1057C80.467 24.0153 81.145 23.5253 82.3905 22.2028L82.3897 16.6747Z" fill="black"/>
<path d="M113.499 23.8161L112.345 24.8677L110.512 26.5933L110.311 26.7927H110.018C109.725 26.7024 109.431 26.503 109.431 25.8323V16.0042C108.296 16.673 107.326 17.5851 106.594 18.6735C105.861 19.7618 105.385 20.9988 105.199 22.2933C105.199 22.2933 104.906 17.7256 101.151 16.2036V20.681L100.289 21.0619L101.151 21.8229V24.8677C101.172 25.2806 101.141 25.6945 101.06 26.0999C100.938 26.973 100.626 27.8095 100.145 28.5513C99.6645 29.2932 99.0262 29.9225 98.2747 30.3957V14.282H96.8267V13.7204H98.9517C99.043 12.5785 98.9517 10.385 98.9517 10.385C98.9414 10.2465 98.985 10.1093 99.0736 10.0014C99.1621 9.89356 99.2889 9.8232 99.4281 9.80469H99.9044C100.057 9.81324 100.201 9.87713 100.31 9.98416C100.418 10.0912 100.482 10.2339 100.491 10.385V13.7204H102.507V14.3007H101.151V15.0438C102.507 15.3336 104.815 16.657 105.199 18.7593C105.199 18.7593 105.877 16.9467 108.955 15.0438C109.477 14.7209 110.022 14.4361 110.586 14.1917L112.711 13.1401C112.427 13.4867 112.289 13.9279 112.326 14.3723V23.9976L113.296 23.1454L113.499 23.8161Z" fill="black"/>
<path d="M123.026 23.5272L121.872 24.5788C121.455 25.0344 120.966 25.42 120.425 25.7207C120.223 25.811 119.655 25.5213 119.655 24.7603V23.6184C119.655 23.6184 117.823 25.5213 116.578 25.9022C115.332 26.2831 114.269 25.1412 114.269 20.8454C114.178 16.0784 120.425 15.8969 121.872 15.2271L122.165 15.1367C121.968 15.5177 121.867 15.9407 121.872 16.369V23.7079L122.642 23.0372L123.026 23.5272ZM119.654 16.6757C119.04 16.8794 118.48 17.2161 118.014 17.6614C117.548 18.1066 117.188 18.6491 116.961 19.2493C116.485 20.8625 116.961 24.3061 117.822 24.1067C118.409 24.0164 119.362 23.0551 119.654 22.7654V16.6757Z" fill="black"/>
<path d="M134 22.9632C132.369 24.5763 131.399 25.3373 130.83 25.3373C130.537 25.3373 130.244 25.1379 130.244 24.4852V22.8728C129.084 23.9081 127.826 24.8307 126.488 25.6279C125.041 26.3889 124.363 25.247 124.363 18.7765V16.7824L123.501 17.2536L123.41 16.5821L127.166 14.6792L127.075 16.202V16.2924L126.983 18.7756V20.6785C126.983 21.9107 127.276 23.4336 127.752 23.3432C128.664 22.93 129.51 22.3865 130.263 21.7301V16.2932C130.276 16.1437 130.236 15.9943 130.149 15.8715C130.061 15.7487 129.933 15.6605 129.786 15.6226L132.296 14.571L132.773 14.3716L133.158 14.2812C132.89 14.6358 132.754 15.0711 132.773 15.5135V23.235L133.634 22.5644L134 22.9632Z" fill="black"/>
<path d="M89.0226 22.512L94.1521 18.4335L94.2254 18.379L94.7569 17.9623C93.7861 17.9623 93.8955 16.1318 93.8955 16.1318V15.5881C93.2147 15.3712 92.5037 15.2611 91.7885 15.2617C88.2895 15.2617 86.2007 17.8182 86.2007 20.9892C86.2007 23.6718 88.0329 26.6808 91.4775 26.0639C92.6758 25.7924 93.785 25.2251 94.7017 24.4149L94.5372 23.7442C92.9617 25.0131 90.1217 26.6084 89.0243 22.512M88.7125 20.8264C88.4541 18.6875 89.5188 16.3312 91.8083 16.3312L91.8634 19.2678L88.8408 21.6786C88.792 21.4127 88.7492 21.1227 88.7125 20.8085" fill="black"/>
<path d="M28.3057 26.9883H27.7561L27.6648 27.0607H27.6097L27.5726 27.1153H27.5356L27.4805 27.2243L27.334 27.5652L27.297 27.6555C27.171 27.9746 27.0668 28.3018 26.9852 28.6347V28.6892C26.9433 28.8744 26.9128 29.062 26.8939 29.2508V29.2508C26.8915 29.2871 26.8915 29.3236 26.8939 29.3599V29.4323V29.469V29.5414V29.578V29.6871L26.949 29.7774H26.9671L27.0222 29.8499H27.0403L27.0954 29.9044H27.1135L27.1867 29.959H27.2048L27.7725 30.2998H27.7906L27.8457 30.3365L27.9189 30.3731H28.67L28.7613 30.3186H28.7967L28.8518 30.2819H28.8699L28.9069 30.2274L28.9801 30.1183V30.0817L29.0172 30.0271V29.9368V29.8098L29.2756 28.3611L29.3488 27.999V27.9086V27.8183V27.7638V27.7271V27.9086V27.8405V27.8038L29.3118 27.7493V27.7126L29.2747 27.6581H29.2566L29.1834 27.5678L28.8535 27.2593L28.8165 27.2226L28.7794 27.186H28.7424L28.7054 27.1494H28.3203" fill="white"/>
<path d="M6.10081 12.832L5.73472 13.3936L5.29541 14.0643L6.17489 13.1584L6.23002 13.1039L7.69438 12.9224L6.10081 12.832Z" fill="white"/>
<path d="M33.6923 14.0643L32.868 12.832L31.2925 12.9224L32.7568 13.1039L32.9403 13.3033L33.6914 14.0643H33.6923Z" fill="white"/>
<path d="M10.5899 23.9609H10.3159L10.2427 23.9976L10.1695 24.0342L10.1144 24.0709H10.0773L10.0403 24.1075H10.0222L9.98517 24.1621H9.96708V24.2166V24.3069C9.9654 24.331 9.9654 24.3552 9.96708 24.3794V24.3794V24.4518H9.98517L10.0222 24.5421L10.4253 25.0679L10.5899 25.2673H10.608L10.5709 25.1046V24.7236V24.1433V24.0888H10.6605V24.0521" fill="white"/>
<path d="M7.41966 32.86L7.10784 31.1557V31.0466L7.07079 30.992H6.99758L6.92436 30.9375H6.35671L6.28349 30.992L5.69688 31.5357L5.62367 31.6261H5.60558L5.56854 31.7164C5.55836 31.752 5.55229 31.7886 5.55045 31.8255V31.8255C5.54634 31.8617 5.54634 31.8983 5.55045 31.9345L5.75201 32.9495L5.86227 33.4753L5.89931 33.5843H5.9174L5.97253 33.6568H5.9932L6.06642 33.7292L6.15772 33.7838H6.52381L6.63407 33.7292L6.6892 33.6926L7.25685 33.3517L7.31199 33.3151L7.34902 33.2784H7.36711L7.40415 33.2239L7.44119 33.1514V33.1148H7.45756V33.0969V33.0245" fill="white"/>
<path d="M14.4555 23.7773H14.1437L12.9378 24.8852L12.8094 24.9943L12.6811 25.1033L12.6078 25.1758L12.5708 25.2124V25.6291L12.6078 25.774V25.9367H12.6259V25.9913V26.0637H12.6811L12.8275 26.0271H12.9007L13.0291 25.9725H13.1023L13.3038 25.9001H13.3409L13.5054 25.8277H13.744L13.8172 25.791L13.8905 25.7544L14.0369 25.6819L14.1101 25.6453L14.1652 25.6087H14.2565L14.1833 25.7177L14.0731 25.8993L13.9628 26.0987V26.1532L13.9258 26.2256L13.8887 26.2802L13.8155 26.4251H13.7974L13.7423 26.552L13.651 26.7872L13.5959 26.9321V27.0045V27.077L13.6329 27.1673V27.2039L13.6699 27.2585V27.2951L13.7251 27.3675H13.7431L13.8164 27.4221H13.8534L13.9085 27.4587H13.9464L14.0197 27.4954H14.5692L14.6795 27.3863L14.863 27.2235L14.4555 23.7773Z" fill="white"/>
<path d="M13.1178 32.5712C13.4696 31.9808 13.7232 31.3383 13.8689 30.6683L13.924 30.4127V30.1408V29.9056C13.9273 29.82 13.9212 29.7343 13.906 29.65V29.3602V29.3236L13.8689 29.0884L13.8319 28.9793L13.7948 28.8702V28.8157L13.7397 28.6163L13.6484 28.3802V28.3436L13.5571 28.1263V28.0896L13.4839 27.9627L13.3926 27.7999L13.2823 27.6005L13.1178 27.3286L13.0627 27.2383V27.1838L12.8981 26.9486H12.8249L12.7879 26.894H12.7698L12.6414 26.7492H12.6233L12.5131 26.6222L12.3296 26.4049L12.2745 26.3503L12.0548 26.1143H12.0204L11.9101 25.9149H11.892L11.8188 25.8425L11.7818 25.8058H11.762L11.5785 25.643L11.432 25.5161L11.3037 25.407L11.066 25.2255L10.9927 25.1709H10.9747L10.9195 25.1343H10.9006L10.8635 25.0977H10.8265L11.1013 25.3695L11.1383 25.4061L11.3967 25.678H11.4174L11.6371 25.9336L11.6741 25.9703L11.8757 26.2259L11.9127 26.2805L12.0591 26.4799L12.1504 26.6069L12.2607 26.7696H12.2788L12.3158 26.8242L12.5906 27.3133V27.3678L12.7009 27.5852V27.6218L12.8111 27.857L12.9024 28.093V28.1297L12.9395 28.2567L13.0127 28.4927V28.5651C13.0678 28.7467 13.104 28.9273 13.141 29.0909V29.5622C13.1531 29.634 13.1592 29.7067 13.1591 29.7795V29.7795V30.1783V30.849C13.1453 30.9284 13.1269 31.0069 13.104 31.0842L13.0127 31.3739L12.9757 31.4642L12.9024 31.6636L12.8654 31.754L12.7551 32.0096L12.6638 32.1911L12.6268 32.2815L12.4804 32.5371L12.4433 32.5917L12.3331 32.7544L12.296 32.809L12.259 32.8456L12.1306 33.0271V33.0638L12.0023 33.2453L11.9652 33.2819L11.8188 33.4634L11.7637 33.518L11.6353 33.6449L11.507 33.7719L11.4519 33.8264H11.4338L11.2873 33.9534L11.2322 34.008L11.0677 34.1349H11.0496L10.9212 34.2253L10.8299 34.2798L10.7016 34.3701H10.6422L10.4957 34.4605H10.4613L10.4061 34.4971H10.3691L10.2407 34.5517L10.1675 34.5883L10.0211 34.6607L9.94788 34.6974L9.83762 34.734H9.80058L9.58093 34.8065H9.50771L9.26996 34.8789H8.99518L8.83066 34.9155L8.55587 34.9701H8.51883L8.26042 35.0067H6.85205L7.31031 35.0613H9.10544L9.41726 35.0067H9.76182L9.87207 34.9701L10.0185 34.9334L10.2382 34.861L10.3846 34.8065H10.4027L10.5129 34.7698L10.7714 34.6607L10.8265 34.6241L11.1564 34.4426L11.2115 34.4059L11.5044 34.2244H11.5776L11.7611 34.0974H11.7792L11.8343 34.0429L11.9256 33.9705H11.9437L12.054 33.8801L12.1091 33.8256L12.1642 33.7711L12.2374 33.6986L12.476 33.443V33.4063L12.5863 33.2615L12.6595 33.1711L12.6966 33.1166L12.843 32.8993V32.8584L12.88 32.786L13.0265 32.5499H13.0446" fill="white"/>
<path d="M35.5424 35.5048C35.912 35.4256 36.2385 35.2129 36.4581 34.9083C36.5686 34.7554 36.6439 34.5804 36.6787 34.3957C36.7135 34.2109 36.707 34.0208 36.6596 33.8388C36.5685 33.4918 36.3618 33.1853 36.073 32.9688C36.3064 33.2237 36.4649 33.5369 36.5313 33.8746C36.5583 34.0354 36.5528 34.2 36.5151 34.3587C36.4774 34.5174 36.4082 34.6671 36.3116 34.7992C36.1134 35.0698 35.8297 35.2674 35.5054 35.3608C35.3417 35.4109 35.1693 35.4271 34.999 35.4084C34.8287 35.3896 34.6641 35.3363 34.5156 35.2517C34.652 35.3685 34.8158 35.4496 34.992 35.4878C35.173 35.5271 35.3605 35.5271 35.5415 35.4878" fill="white"/>
<path d="M2.90946 32.9688C2.62065 33.1853 2.41401 33.4918 2.32286 33.8388C2.27546 34.0208 2.26895 34.2109 2.30377 34.3957C2.3386 34.5804 2.41391 34.7554 2.52442 34.9083C2.74403 35.2129 3.07049 35.4256 3.44008 35.5048C3.62111 35.5441 3.8086 35.5441 3.98964 35.5048C4.16584 35.4667 4.3296 35.3855 4.46599 35.2688C4.31747 35.3533 4.15292 35.4066 3.98262 35.4254C3.81232 35.4442 3.63994 35.428 3.47625 35.3778C3.1519 35.2845 2.86822 35.0869 2.67 34.8163C2.57337 34.6842 2.50421 34.5345 2.4665 34.3757C2.4288 34.217 2.4233 34.0525 2.45034 33.8917C2.51669 33.554 2.67516 33.2407 2.9086 32.9858" fill="white"/>
<path d="M34.0952 17.2372C34.3606 16.9432 34.5827 16.6135 34.755 16.2581H34.7731C34.8644 16.022 34.9565 15.7689 35.0478 15.5329C35.0696 15.4682 35.0818 15.4007 35.084 15.3326V15.1153C35.0872 14.9881 35.0811 14.8608 35.0659 14.7344V14.7344C35.0691 14.8616 35.063 14.9889 35.0478 15.1153V15.3147C35.0383 15.3775 35.0197 15.4386 34.9927 15.4962C34.9014 15.7314 34.7912 15.9675 34.6809 16.2027C34.5001 16.5409 34.2719 16.8522 34.003 17.1273C33.7371 17.3991 33.4277 17.6256 33.0873 17.7979C32.7436 17.9677 32.3708 18.0724 31.9882 18.1064L30.8159 18.1789L28.4712 18.3416L26.1265 18.541H26.1446L28.4892 18.4686L30.8339 18.3595L32.0063 18.2871C32.4092 18.2458 32.8007 18.1302 33.1606 17.9462C33.5201 17.7639 33.843 17.5181 34.1133 17.221" fill="white"/>
<path d="M11.6158 7.88342C11.8544 7.33973 12.019 6.77559 12.2024 6.23447C12.5472 5.12392 13.0397 4.06363 13.6668 3.08143C13.9843 2.59691 14.3604 2.15249 14.7866 1.75801C15.2123 1.36059 15.6929 1.0249 16.2139 0.760965C16.7363 0.502446 17.291 0.313332 17.8635 0.198532L18.7429 0.0715584H18.9626C19.0362 0.0589615 19.1118 0.0651206 19.1823 0.089454C19.2503 0.113127 19.3127 0.150239 19.3657 0.198532L19.5122 0.30761L19.6586 0.198532C19.7117 0.150239 19.7741 0.113127 19.8421 0.089454V0.089454C19.9126 0.0651206 19.9882 0.0589615 20.0617 0.0715584H20.2848L21.1643 0.198532C21.7365 0.313133 22.2908 0.501958 22.813 0.760113C23.3346 1.02392 23.8158 1.35961 24.242 1.75715C24.6682 2.15176 25.0442 2.59616 25.3618 3.08058C25.989 4.06278 26.4814 5.12307 26.8262 6.23361C27.0278 6.7773 27.1923 7.34144 27.4128 7.88257C27.6456 8.4164 27.9087 8.93678 28.201 9.44119V9.44119C27.9426 8.9154 27.7065 8.38961 27.486 7.84592C27.2655 7.30224 27.1199 6.7381 26.9365 6.17822C26.5966 5.04838 26.1041 3.96914 25.4721 2.9698C24.8236 1.96655 23.9092 1.15861 22.8285 0.633992C22.2936 0.386189 21.7279 0.209396 21.1462 0.108202L20.2452 0.0178716H20.0264C19.9513 0.0120273 19.8758 0.0246135 19.8068 0.0545149C19.7374 0.0839347 19.675 0.127156 19.6233 0.181489L19.4949 0.308462L19.3657 0.180636C19.314 0.126304 19.2516 0.0830825 19.1823 0.0536628C19.1132 0.0237614 19.0377 0.0111751 18.9626 0.0170194H18.7429L17.8445 0.108202C17.2554 0.207567 16.6824 0.384397 16.1407 0.633992C15.0687 1.16266 14.1629 1.9709 13.5212 2.9715C12.8953 3.97176 12.4085 5.05096 12.0741 6.17993C11.8906 6.74151 11.7442 7.30394 11.5245 7.84763C11.3049 8.39131 11.068 8.9171 10.8096 9.44289C11.1018 8.93848 11.365 8.41811 11.5977 7.88427" fill="white"/>
<path d="M12.8795 18.541L10.5538 18.3416L8.20909 18.1789L7.03674 18.1064C6.65412 18.0724 6.28132 17.9677 5.93761 17.7979C5.59723 17.6256 5.28787 17.3991 5.02196 17.1273C4.75327 16.8521 4.52506 16.5408 4.34405 16.2027C4.23379 15.9675 4.12439 15.7314 4.03222 15.4962C4.00548 15.4385 3.98693 15.3774 3.9771 15.3147V15.1153C3.9771 14.9883 3.95901 14.8596 3.95901 14.7344V14.7889C3.95901 14.898 3.94092 14.9883 3.94092 15.0974V15.2968C3.94352 15.3647 3.95599 15.4318 3.97796 15.4962C4.05033 15.7447 4.1422 15.9871 4.25274 16.2214H4.27083C4.44308 16.5769 4.66521 16.9065 4.93065 17.2006C5.2009 17.4977 5.52377 17.7435 5.88335 17.9258C6.2432 18.1097 6.63471 18.2253 7.0376 18.2666L8.20995 18.3391L10.5546 18.4481L12.9183 18.5206H12.8976" fill="white"/>
<path d="M31.5669 32.986V33.0227V33.113H31.6582L31.6952 33.1497L31.7323 33.1863H31.7504L32.3533 33.5672L32.4446 33.6039H32.8297L32.921 33.5493L32.9761 33.4948H33.0132L33.0683 33.4224H33.0864L33.1234 33.3133V33.2229L33.2147 32.7517L33.4163 31.7725V31.6635V31.6268V31.5902V31.5535V31.5169L33.3793 31.4803L33.3422 31.4257H33.3241L32.7565 30.8999H32.61L32.5187 30.8633H32.1156L32.0424 30.9178L31.9872 30.9724L31.9502 31.009V31.0456H31.9321V31.0823V31.1547L31.7486 32.1151L31.6022 32.8582V32.9673" fill="white"/>
<path d="M29.3687 31.5375V31.5741V31.6832L29.4789 31.8102L29.534 31.8468L29.9553 32.1366L30.4497 32.4774L30.5229 32.5141H31.0397L31.0768 32.4774H31.1138L31.1509 32.4408H31.1879V32.4041H31.206V32.3675H31.2241V32.313L31.5902 30.3189V30.2643V30.1919V30.1195H31.5721V30.0649L31.4808 29.938L31.3705 29.8289L30.5643 29.0679L30.5091 29.0312H29.9415L29.8683 29.0858H29.8502L29.8131 29.1224H29.7761V29.1949V29.304L29.391 31.5332V31.5878C29.3894 31.6119 29.3894 31.6361 29.391 31.6602" fill="white"/>
<path d="M24.7509 25.4844H24.8423L24.9525 25.5389H24.9895L25.173 25.6292H25.2643L25.3927 25.6838L25.4659 25.7204H25.5193L25.6106 25.7571L25.7019 25.7937L25.7932 25.8304H25.9767L26.1231 25.867H26.1783L26.2153 25.7946H26.2523V25.7579H26.2704L26.3075 25.6676C26.3325 25.5906 26.351 25.5116 26.3626 25.4315V25.1052L26.2523 25.0148L26.1972 24.9603L26.1602 24.9236L26.1231 24.887H26.105L26.0137 24.7967L24.9508 23.8363L24.7863 23.6914H24.4744L24.3461 24.7992L24.0532 27.337L24.1635 27.4273L24.2367 27.4998L24.347 27.6088H24.8965L24.9697 27.5722H25.0068L25.08 27.5356H25.117L25.2816 27.3907H25.2996L25.3367 27.3362V27.2995V27.0984C25.3389 27.0621 25.3389 27.0256 25.3367 26.9893V26.9893V26.9348L25.1722 26.5726H25.2824L25.2454 26.5002L25.1902 26.3911L25.1351 26.2641L24.9336 25.9232L24.8233 25.7417L24.7699 25.6497" fill="white"/>
<path d="M9.96708 12.6135L9.67421 12.9032L9.61908 12.9578L9.38048 13.1751L9.34344 13.2296L9.28831 13.2842L9.10483 13.4469L8.79301 13.683H8.77578L8.55613 13.8645L8.46482 13.919L8.37352 13.9915L8.22708 14.1005L8.17195 14.1372L8.04361 14.2275L7.9523 14.2999L7.80586 14.409L7.69561 14.4815L7.42082 14.663L7.32951 14.7175H7.31143L6.89021 14.9732L6.76186 15.0456H6.72482L6.10204 15.4078L5.91856 15.4981L5.67996 15.6072L5.58865 15.6438L5.44221 15.7163L5.021 15.8978L5.14934 15.8432H5.20447L5.40604 15.7529H5.44308L5.55333 15.6984L5.84621 15.5714L5.93751 15.5347L6.06586 15.4802H6.1029L6.26742 15.4078L6.34064 15.3711H6.37768L6.46899 15.3166L6.52412 15.2799L6.74377 15.1709H6.78081L7.03923 15.026L7.11245 14.9893L7.31401 14.8803L7.36914 14.8436H7.38723L7.58879 14.7167H7.62583L7.86444 14.5718H7.90148L7.95661 14.5351L8.19435 14.3724L8.37782 14.2454L8.5613 14.1184L8.79904 13.9557L8.85417 13.9011H8.89121L9.09277 13.7563L9.27625 13.6114L9.42269 13.4844L9.47782 13.4299L9.62425 13.3029H9.66129L9.77155 13.2126H9.82668L9.97311 13.0856L10.1015 12.9765L10.1385 12.9399L10.2849 12.795L10.4469 12.6322L10.6484 12.4328L10.7949 12.2701L10.9413 12.1073L10.9964 12.0349L11.198 11.7792L11.2712 11.6889L11.3264 11.6165L11.565 11.0549L11.6563 10.91L11.6933 10.8555L11.8578 10.5836L11.9491 10.4209L11.9862 10.3663L12.0413 10.2572L12.0964 10.1482L12.2067 9.94875L12.3531 9.65902V9.60448L12.3902 9.54994L12.5366 9.20907H12.5547L12.7192 8.79236H12.7373L12.8105 8.57505L12.9389 8.14045L13.0121 7.88479H13.0302L13.1404 7.41354V7.25078L13.1956 7.03347V6.39946L13.2507 6.23669L13.2877 6.12761V6.07052L13.3248 5.96144L13.3618 5.87111L13.3988 5.78078L13.4359 5.69045L13.4729 5.60012L13.5281 5.43736L13.5651 5.34702L13.6202 5.23795L13.6573 5.16551L13.6943 5.09308L13.7779 4.87748V4.82294L13.8511 4.69597L14.2904 4.18466L14.4006 4.00315H14.4187L14.5652 3.78585L14.6022 3.73131L14.7306 3.54979L14.7857 3.47736L14.8227 3.42282L14.914 3.31374L14.9692 3.24131L15.0794 3.11433H15.0984L15.2086 3.00526L15.3189 2.89618L15.374 2.84164L15.4843 2.75131L15.5394 2.69677L15.6307 2.62434L15.722 2.5519L15.9055 2.42493L16.1803 2.26216H16.1984L16.4731 2.11729L16.8392 1.95453H16.8763L17.0778 1.88209L17.2949 1.80966H17.3319L17.5335 1.75512H17.717L17.8453 1.71848H17.8824L18.0658 1.68183L18.5603 1.6094H20.4105L20.8688 1.68183H20.8869L21.1065 1.71848L21.2349 1.75512L21.3452 1.79176H21.4184L21.8215 1.91874L21.9679 1.97328L22.2427 2.08235L22.2978 2.119L22.4994 2.22808H22.5364L22.9947 2.49992L23.086 2.55446H23.1231L23.3427 2.71722L23.3978 2.77176L23.6175 2.95327H23.6545L23.7097 3.00781L23.9681 3.26346V3.30011L24.2067 3.57195L24.3902 3.8276L24.4272 3.88214L24.5374 4.04491L24.5745 4.09945H24.5926L24.6839 4.24431H24.702L24.739 4.31675L24.8122 4.46162L24.8674 4.5707L24.9406 4.69767L24.9957 4.82464L25.0508 4.95162L25.106 5.07859L25.1611 5.20556L25.2162 5.33254L25.2714 5.45951L25.3084 5.56859L25.3454 5.69556L25.4006 5.84043L25.4376 5.96741L25.4746 6.11228L25.5117 6.23925V6.36622L25.5487 6.4932L25.5858 6.60227L25.6228 6.74714V6.83747L25.7141 7.25419C25.7511 7.4357 25.7873 7.59505 25.8244 7.76549L25.8614 7.91036L25.9717 8.27253L26.0268 8.47194L26.1181 8.76168L26.2094 8.97898L26.2645 9.10596L26.3016 9.21503L26.4118 9.45109L26.5031 9.65049L26.6134 9.8678L26.6685 9.97687V10.0135L26.7969 10.2487L26.8339 10.3033L26.8709 10.3578L27.0544 10.6475V10.72C27.2135 10.9614 27.3783 11.1909 27.5489 11.4085H27.5859L27.8056 11.6983L27.8426 11.7528H27.8469L28.0485 11.9889L28.1217 12.0613L28.3232 12.2786H28.3413L28.3784 12.3331H28.3965L28.6161 12.5504L28.6893 12.6229L28.9279 12.8402L28.965 12.8768H28.9831L29.5697 13.3881L29.6429 13.4427L29.8625 13.6054H29.8806L29.9539 13.66H29.9909L30.1744 13.7869L30.2846 13.8773L30.4681 14.0042L30.5784 14.0767L30.7429 14.1858H30.761L30.9806 14.3306H30.9987L31.6215 14.6928L31.7128 14.7473L31.9325 14.8743L32.0608 14.9467L32.1711 15.0013L32.2624 15.0558H32.3175L32.3726 15.0925L32.6844 15.2373H32.7215L33.0333 15.3822H33.0884L33.3632 15.5092H33.4003L33.5286 15.5637H33.5467L33.6931 15.6183H33.7302L33.6199 15.5816L33.4184 15.4913H33.3813L33.1978 15.401L33.1427 15.3643L32.9592 15.274L32.886 15.2373L32.7215 15.147L32.6302 15.0925L32.5389 15.0379L32.4657 15.0013L32.3373 14.9467L32.1909 14.8743L32.0444 14.8019H32.246L32.1357 14.7473L31.9712 14.657H31.9342L31.5681 14.421H31.5509L31.1848 14.1653L31.1116 14.1108L30.91 13.9659H30.873L30.7816 14.1474L30.5801 14.0025L30.4698 13.9122L30.2863 13.7673L30.158 13.677L29.9745 13.5321L29.8462 13.4231L29.6817 13.2782L29.5533 13.1512L29.3888 13.0063L29.2423 12.8615L28.7255 12.3357L28.4869 12.0638L28.4318 12.0093L28.3947 11.9727L28.1561 11.7008C27.9729 11.4736 27.8007 11.2381 27.6393 10.9944L27.4016 10.6322L27.0717 10.0706L26.9984 9.94364L26.7788 9.49029L26.7237 9.38121L26.5772 9.01903V8.96449L26.4308 8.58357L26.3205 8.27509L26.1922 7.84048L26.1551 7.7314C26.1 7.53199 26.0638 7.35048 26.0268 7.15107L25.9897 7.0062V6.87923L25.9527 6.71647L25.8976 6.48127V6.39094L25.8244 6.13528V6.07052L25.7511 5.85322L25.7227 5.72965L25.6314 5.45781L25.5582 5.2584V5.20386L25.5031 5.05899L25.3928 4.80334L25.3558 4.7309H25.3377L25.3006 4.67637L25.2274 4.54939L25.1904 4.49485L25.1172 4.36788H25.0991L24.9156 4.05939L24.8243 3.93242L24.7511 3.82334L24.5866 3.60604L24.4014 3.38788H24.3833L24.2368 3.22512V3.18847L24.1998 3.15183L24.0895 3.02486L24.0344 2.97032L23.8328 2.7888L23.7045 2.67973L23.6313 2.62519H23.5942L23.3746 2.46242H23.3591L23.1394 2.32096L23.0843 2.28432L22.8457 2.15735L22.5873 2.03037H22.5502L22.1652 1.57702H22.1471L21.8568 1.46879H21.8172L21.5424 1.37846H21.5054L21.1755 1.30603H21.1574L20.8455 1.25149H20.7904L20.4459 1.21484H18.5224L18.1778 1.25149H18.1227L17.8109 1.30603H17.7928L17.481 1.37846H17.4439L17.1691 1.4509H17.1321L16.8392 1.55997H16.8211L16.5627 1.66905H16.5257L16.2673 1.79602L16.0287 1.923L15.9735 1.95964L15.7539 2.10451H15.7358L15.5523 2.24938L15.4429 2.32096L15.3146 2.43004H15.2965L15.2594 2.46668L15.001 2.70188L14.8546 2.84675L14.7633 2.93708L14.653 3.06406L14.5652 3.17313L14.4739 3.30011L14.3826 3.40919L14.2912 3.62649L14.218 3.75346L14.1448 3.88044L14.0716 4.00741V4.04405L14.0165 4.13438L13.9432 4.26136L13.8881 4.38833L13.8149 4.5332L13.7779 4.62353L13.7408 4.71386L13.6306 4.94906V4.9857L13.5935 5.05814L13.5203 5.2209H13.5022V5.27544L13.4471 5.43821L13.41 5.51064L13.3549 5.67341V5.78249L13.3179 5.92735V6.01768L13.2808 6.16255L13.2438 6.27163V6.30827L13.2068 6.41735L13.1516 6.63466V6.6892L12.9501 7.07012V7.19709L12.8949 7.48683L12.8398 7.68624L12.7666 7.92144L12.7115 8.10295L12.6012 8.42933V8.48387V8.5563L12.4729 8.89717V8.93382C12.3505 9.22356 12.2222 9.50136 12.0878 9.76724V9.80388L11.9043 10.1448L11.7941 10.3263L11.6657 10.5257H11.6528L11.4142 10.8878L11.1558 11.25L10.8112 11.6488L10.738 11.7213L10.5184 11.9769H10.5003L10.2617 12.3033V12.3399L10.0033 12.6118" fill="white"/>
<path d="M28.6727 34.9443L28.8372 34.9988L28.9655 35.0534L29.1301 35.09H29.1852L29.5151 35.1624H31.7142L32.0588 35.1258H30.6668L30.3369 35.0891H30.2817L29.9699 35.0346L29.8054 34.998H29.659L29.5306 34.9613H29.4746L29.3463 34.9247H29.3092L29.1447 34.8701H29.1301L29.0569 34.8335L28.9655 34.7969L28.7071 34.6699H28.652L28.4134 34.5429L28.3402 34.5063L28.0818 34.3435L27.9904 34.2711L27.8802 34.1986L27.7699 34.1262H27.7518L27.6786 34.0537L27.5684 33.9634L27.5133 33.9089L27.4762 33.8722L27.3659 33.7632L27.1489 33.5331L26.9843 33.3516L26.9473 33.3149L26.819 33.1334V33.0968L26.6906 32.8974V32.8607L26.5623 32.6434V32.6068L26.4339 32.3716H26.4158L26.1962 31.9003L26.1049 31.6447L26.0136 31.3728L25.9404 31.1555L25.9033 31.0464V30.8104V30.738V30.6476V29.9045V29.8142V28.7064L25.9404 28.5973L25.9774 28.4882L26.0144 28.3791V28.2522L26.0515 28.1252L26.0885 27.9982L26.1436 27.8713L26.1988 27.7443L26.2539 27.6173L26.2909 27.5449L26.328 27.4724L26.3831 27.3455L26.4382 27.2364V27.1997L26.5114 27.0728L26.6028 26.9279L26.676 26.8009L26.7673 26.656L26.8405 26.5291L26.9508 26.3663L27.0421 26.2393L27.1334 26.1303L27.1704 26.0757L27.2617 25.9666L27.4082 25.8039L27.4995 25.6948L27.6278 25.5499V25.5227L27.7191 25.4136L27.8104 25.3233L27.9017 25.2329L28.1214 25.0156H28.1033L28.0301 25.0702L27.993 25.1068H27.975L27.9379 25.1434H27.9241L27.869 25.1801H27.8509L27.7958 25.2167H27.7587L27.6855 25.2892L27.6485 25.3258L27.5382 25.4161H27.5201L27.4469 25.4707H27.4288L27.3918 25.5073L27.1902 25.6888L27.0989 25.7613L26.9525 25.9061L26.9154 25.9428L26.8603 25.9973L26.7501 26.1064L26.713 26.143L26.5114 26.3603L26.4744 26.397L26.3461 26.5419L26.2909 26.5964L26.1807 26.7413L26.1075 26.8504L25.9972 27.0131L25.9421 27.0856L25.7956 27.3208L25.6492 27.5764H25.6311L25.4847 27.8482L25.3934 28.0477L25.3382 28.1746L25.265 28.374L25.1918 28.6101V28.6467L25.1367 28.8819L25.0996 29.1376C25.0879 29.2277 25.0819 29.3185 25.0815 29.4094V29.4094V29.8807C25.0815 29.9531 25.0996 30.0076 25.0996 30.0801V30.1244L25.1367 30.3596L25.1737 30.5045V30.5769V30.6493V30.7397H25.1918V30.8666L25.2288 30.9391V30.9936L25.2659 31.0839V31.1564L25.3029 31.2467V31.3191L25.34 31.4282L25.377 31.5007L25.4321 31.6097L25.4692 31.6822L25.5243 31.8091L25.5613 31.8816L25.6346 32.0085V32.0452L25.7259 32.208L25.8542 32.4253H25.8912L25.9464 32.5156L26.0377 32.6605L26.129 32.7874L26.1841 32.8599L26.2212 32.9144L26.2763 32.9689L26.3133 33.0056L26.3504 33.0422L26.3874 33.0968H26.4055L26.4606 33.1513L26.589 33.2783L26.6441 33.3328L26.6811 33.3695H26.7363L26.8646 33.4785H26.9197L27.03 33.5689H27.0481L27.0851 33.6055L27.2316 33.7146L27.2867 33.7512L27.415 33.8416L27.4702 33.8782L27.5804 33.9506H27.6537L27.745 34.0052L27.8363 34.0597L27.9095 34.0964H27.9827L28.1111 34.1509L28.2024 34.1876H28.2575L28.3858 34.2421L28.5142 34.2966" fill="white"/>
<path d="M4.52878 34.7278H4.602L4.67522 34.6733H4.6933L4.76652 34.6187H4.78461L4.83974 34.5642V34.5096L4.87678 34.473V34.4364L4.93191 34.3273V34.237V34.2003C4.93319 34.1762 4.93319 34.152 4.93191 34.1279V34.1279V34.0955V34.0589H4.89487V34.0222V33.9856L4.83974 33.931H4.76652L4.72948 33.8944H4.65627L4.58305 33.8398H4.3565L4.28328 33.8765H4.17303L3.91461 34.2387L3.8233 34.3477L3.75009 34.4202L3.71305 34.4568H3.32801L3.14453 34.3665H3.16262L3.21775 34.4389H3.23584L3.30906 34.5114H3.32715L3.36418 34.548L3.49253 34.6383H3.52957L3.60279 34.675H4.50035" fill="white"/>
<path d="M34.4098 34.7259L34.5382 34.7626C34.7832 34.812 35.0376 34.7884 35.2691 34.6948C35.5006 34.6013 35.6989 34.4418 35.8389 34.2368V34.2368L35.6554 34.3271C35.3806 34.4541 35.0688 34.0186 34.8129 33.6385C34.7783 33.5828 34.7298 33.5368 34.672 33.505C34.6142 33.4733 34.5491 33.4567 34.483 33.457C34.4107 33.4636 34.3412 33.4885 34.2815 33.5295C34.1981 33.5911 34.1241 33.6643 34.0618 33.7468L34.0248 33.8013L33.9877 33.9104C33.9763 33.9579 33.9702 34.0064 33.9697 34.0553C33.9617 34.1282 33.9679 34.2019 33.9877 34.2726C34.0605 34.4781 34.2117 34.6472 34.409 34.7438" fill="white"/>
<path d="M0.788016 2.10228C0.798596 2.23616 0.817003 2.36932 0.843145 2.5011V2.5011L0.861234 2.7184C0.885927 2.86327 0.916363 3.02632 0.952541 3.20755L1.00767 3.44275V3.47939L1.09898 3.73504L1.1722 4.00688L1.28245 4.33327V4.45598L1.42889 4.71163L1.46593 4.80196L1.52106 4.92893V4.96728L1.57619 5.11215L1.6494 5.25702L1.68644 5.34735L1.75966 5.51011L1.83288 5.63709L1.9061 5.78196L1.94314 5.85439H1.95692V5.89104H1.97501L2.08527 6.09044L2.1292 6.16032H2.16624V6.19697L2.29458 6.41427L2.33162 6.46881V6.50545L2.36866 6.55999L2.7537 7.15651L2.82692 7.24684L2.86396 7.28348L2.901 7.33802L3.08448 7.57322L3.15769 7.66355L3.35926 7.9192L3.3963 7.95585L3.46952 8.04618L3.72793 8.35466L3.85628 8.48164L4.03975 8.68105L4.06732 8.71684L4.17758 8.84381H4.21375L4.48854 9.11565L4.52558 9.1523H4.54108L4.92612 9.51447H4.94421L5.75047 9.42414H5.95203V9.53322L5.82369 10.1135L5.91499 10.186L7.06925 11.4182L7.32767 11.6543H9.14175L9.21497 11.6176L9.14175 11.5452L9.08662 11.4728H9.06853L9.01341 11.4182L8.86697 11.2555L8.73862 11.1106L8.68349 11.0382L8.62836 10.9836L8.53706 10.8745L8.44575 10.7655L8.07966 10.3487L7.91513 10.1672L7.82297 10.0803L7.78593 10.0437L7.41984 9.64485L7.2734 9.48209L6.48523 8.52169L6.00889 8.03254H5.9908L5.91758 7.96011V7.92347L5.53254 7.5238L5.4955 7.46926L5.45846 7.43261L5.31202 7.28775L5.18368 7.16077L5.14405 7.12328L5.07083 7.05084L4.81242 6.79519L4.75729 6.74065L4.3912 6.39978L4.22667 6.25491L3.78737 5.87399V5.8365L3.86059 5.76406H3.87867L4.11642 5.98137L4.17155 6.01801L4.44633 6.27366C5.54546 7.23406 7.19415 8.66656 8.40354 9.60906L8.47676 9.6636L8.60511 9.77268L8.73345 9.86301L8.91693 9.98998L8.99015 10.0445L9.17362 10.1715L9.22875 10.2081L9.39328 10.3351H9.43032L9.55866 10.4075H9.5957L9.70596 10.4621H9.743L9.83431 10.4987H10.0178V10.4621H10.0359V10.4212H10.0729V10.3666H10.091V10.3121V10.2397C10.1059 10.1682 10.1119 10.0953 10.1091 10.0224L9.59226 9.42585L3.70037 4.1688L0.750977 1.55859C0.750977 1.66767 0.750976 1.86708 0.769066 2.10228" fill="white"/>
<path d="M28.8003 10.0803V10.2073V10.2797H28.8184V10.3343H28.8365L28.8735 10.3709H28.8916L28.9286 10.4075H28.9838L29.0208 10.4442H29.1492L29.2405 10.4075H29.2585L29.3499 10.353L29.3869 10.3164L29.4601 10.2618L29.5152 10.2252L29.6066 10.1527L29.6617 10.1161L29.7719 10.0258L29.8452 9.97123L29.9184 9.9167L30.0097 9.86216L30.0829 9.80762L30.3939 9.56901H30.412L30.5765 9.44204L30.7229 9.33296L31.0528 9.06111H31.0709L31.2725 8.89835H31.2906L31.5654 8.66315L31.6024 8.62651L31.6394 8.58986L32.226 8.10072H32.2441L32.2812 8.06407H32.2992L32.7386 7.68315H32.7566L33.4707 7.06703L33.91 6.68611L34.4415 6.34524L34.5147 6.27281L34.7525 6.0555L34.8627 5.94643H34.8808L35.1005 5.76491H35.1186L35.1737 5.83735L35.2107 5.87399L35.1737 5.91064L34.8989 6.16629L34.6241 6.42194L34.0014 7.01846L33.9643 7.0551H33.9462L33.7627 7.23661L33.5612 7.45392H33.5431L33.4518 7.54425L33.3605 7.63458L33.2502 7.74366L32.9384 8.05214L32.8833 8.10668L32.81 8.17912L32.5172 8.4876H32.5043L32.4491 8.54214L32.4121 8.57878L32.1003 8.91966L32.0632 8.97419H32.0451L31.9538 9.08327L31.7342 9.33892L31.6058 9.48379L31.313 9.81017L31.2759 9.84682L30.3603 10.8984L30.2138 11.0612L29.8107 11.5324L29.7737 11.587L29.8469 11.6236H31.661L31.7161 11.5691L33.0349 10.3914L33.1994 10.2465L33.1081 9.81188L33.053 9.55623L33.2907 9.59287L34.0599 9.6832L34.1151 9.62866L34.4269 9.32018L34.5552 9.1932L34.7749 8.9759L34.83 8.92136L34.9213 8.83103L35.1229 8.61372L35.2331 8.48675H35.2512L35.4709 8.2311V8.19446L35.526 8.13992L35.8008 7.79905L35.8921 7.68997L36.0756 7.45477L36.1669 7.3278L36.3314 7.0926H36.3495L36.4046 7.00227L36.5691 6.74662L36.6062 6.67418L36.8078 6.33331H36.8258L36.9904 6.02483L37.0274 5.95239L37.1557 5.69674L37.1928 5.62431L37.266 5.46154L37.303 5.37121V5.33457L37.4133 5.09937L37.4684 4.9545L37.5417 4.75509V4.68266L37.5968 4.50114L37.6338 4.39207V4.31963L37.6889 4.17476V4.08443L37.7441 3.86713V3.74015L37.8173 3.46831V3.37798L37.8724 3.12233V2.94082V2.90417V2.31958V2.17471V2.0699V1.9932V1.65233V1.55859L32.0098 6.779L29.8297 9.04492L28.8003 9.95078V10.0803Z" fill="white"/>
<path d="M15.4248 12.6164H15.3697L15.2594 12.671H15.2224L15.076 12.7434H15.0579L14.8201 12.8883H14.8021L14.5436 13.0698H14.5256L14.3421 13.2147H14.2869L14.1035 13.3774C14.0469 13.438 13.9978 13.5049 13.957 13.5768H14.3231L14.4144 13.5223H14.4325L14.5057 13.4677H14.5238L14.579 13.4311L14.6892 13.3587H14.7262L14.964 13.2317H14.9821L15.1104 13.1593H15.1285L15.4584 13.0323H15.5136L15.6238 12.9956H16.2647L15.9348 13.1405L15.8064 13.195L15.66 13.2675L15.4765 13.3578L15.4033 13.3945H15.3852L15.2939 13.449H15.2612L15.1147 13.5393H15.0415L14.9502 13.5939L14.877 13.6484L14.6754 13.7933H14.6384L14.5652 13.8478L14.5281 13.8845L14.473 13.9211L14.3817 13.9935H14.3636L14.2353 14.1205L14.1801 14.175H14.5247L14.6349 14.1384H14.7082L14.8727 14.0481L14.964 14.0114L15.0742 13.9748H15.1664L15.2948 13.9381H15.3861L15.5144 13.9015H15.716L15.8443 13.8649H16.0829L16.2294 13.8282H16.5042L16.6687 13.7916H16.9805L17.164 13.7549H21.1393L21.4322 13.7916H21.5235L21.7069 13.8282H21.7991L22.0739 13.8828L22.2574 13.9373L22.3857 13.9739L22.6786 14.0643H22.7518L23.0447 14.1733L23.3195 14.2824L23.5779 14.3915L23.7062 14.446H23.7613L24.0913 14.6088L24.1826 14.6633L24.5271 14.8627L24.7657 15.0076L25.0405 15.207L25.0956 15.2437L25.3704 15.461V15.4243H25.3523V15.3877V15.351H25.3342L25.261 15.2607H25.2447L25.2076 15.2062H25.1895L25.1525 15.1695H25.1344L25.0974 15.115H25.081C24.9108 14.9213 24.7272 14.7397 24.5314 14.5713V14.5713L24.4031 14.4622H24.3299L24.2566 14.4077L24.2196 14.371L24.1248 14.302L24.0878 14.2654L23.9595 14.175L23.8862 14.1205H23.8682L23.6847 13.9935L23.4461 13.8487H23.409L23.3539 13.812L22.9508 13.5947H22.8956L22.6941 13.4856L22.6028 13.4311L22.3831 13.322H22.3332C22.7643 13.2637 23.1988 13.2335 23.6339 13.2317L23.7441 13.2683L23.8354 13.305L24.1653 13.432H24.2024L24.5142 13.5768L24.5874 13.6135L24.8071 13.7225L24.8803 13.7592L25.1551 13.9041H25.1921L25.5367 14.1214L25.4815 14.0668L25.4445 14.0302H25.4264L25.3713 13.9935H25.3532L25.28 13.939L25.2429 13.9024L25.1697 13.8478L25.1327 13.8112L25.0595 13.7566L25.0224 13.72L24.9122 13.6297L24.8751 13.593L24.7649 13.5027L24.7278 13.466L24.6727 13.4294H24.5995L24.5624 13.3928L24.4522 13.3203H24.4151L24.36 13.23H24.3488L24.2756 13.1755L24.2024 13.1388H24.1843L24.1248 13.1056L24.0516 13.051H23.9784L23.8139 12.9607H23.7588L23.5391 12.8337L23.3014 12.7068H23.2635L23.0257 12.5798H22.9887L22.7509 12.4707H22.7328L22.6596 12.4341L22.5683 12.3974L22.4951 12.3608H22.4581L22.1996 12.2517H22.1867L21.9119 12.1426H21.8387L21.6372 12.0702H21.5459L21.3262 11.9977H21.253L20.8137 11.8887H20.7766L20.3184 11.7983H19.494C18.9404 11.7758 18.3862 11.8245 17.8453 11.9432H17.7506L17.6403 11.9799L17.512 12.0165H17.4233L17.2949 12.0531H17.2217L17.1304 12.0898H17.1123L17.002 12.1264H16.9107L16.8005 12.181L16.7273 12.2176L16.617 12.2721H16.4887L16.3784 12.3267L16.2871 12.3812L16.1768 12.4358H16.1587L16.0855 12.4724L15.9391 12.5627L15.884 12.5994L15.7556 12.6539H15.6092L15.5179 12.6906L15.4266 12.7272" fill="white"/>
<path d="M13.9053 16.7996V16.9445V17.2708V17.3978V17.6697V18.1188L14.143 17.9372L14.2162 17.8827L14.3997 17.7557L14.491 17.7012L14.6745 17.5742L14.7847 17.5018L14.9863 17.3748L15.0966 17.3024L15.3352 17.1575L15.4084 17.103H15.4265L15.771 16.9215H15.7891L16.306 16.7587H16.343L16.7461 16.5593L17.0045 16.4502H17.0226L17.2612 16.3411H17.2983L17.5369 16.2321H17.5739L17.8117 16.123H17.8668L18.1054 16.0326H18.1605L18.4189 15.9423H18.4706L18.729 15.852H18.7842L19.059 15.7616H19.1141L19.407 15.6713H19.4621L19.7739 15.581H19.8109L20.1409 15.4719H20.1589L20.3975 15.3995H20.4889L20.6904 15.3449L20.8369 15.3083L21.0014 15.2717L21.2942 15.1992L21.4407 15.1626L21.8438 15.0535L21.9903 15.0169L22.3021 14.9444L22.4856 14.9078L22.8516 14.8353H22.9429L22.7052 14.7808L22.4856 14.7263H22.3391L21.9541 14.6538H21.8076L21.5492 14.6172H19.4931C18.4053 14.6562 17.3246 14.8081 16.2689 15.0705L15.8658 15.1975H15.8107L15.6823 15.2342L15.554 15.2887H15.4807L15.3343 15.3432L15.2611 15.3799L15.1698 15.4344L15.0595 15.489L14.9682 15.5435L14.9131 15.5801L14.7847 15.6526H14.7296L14.6013 15.7429H14.5642L14.454 15.8332L14.4169 15.8699L14.2886 15.9969L14.2516 16.0335L14.1783 16.1238H14.1637L14.1086 16.1963L14.0715 16.2508C14.0337 16.3333 14.0032 16.4188 13.9802 16.5064V16.5064V16.5968V16.6513V16.7962V16.4877V16.5601V16.7774H13.9432" fill="white"/>
<path d="M9.41748 31.88L9.47261 31.8255H9.50965L9.56478 31.7531V31.7164V31.6798V31.6431V31.6065V31.5341C9.56646 31.51 9.56646 31.4857 9.56478 31.4616L9.45452 30.791L9.23486 29.1778V29.1454V29.1088V28.9997L9.19782 28.9452L9.14269 28.8906H8.44842L8.3752 28.9452L7.45954 29.7973L7.42251 29.834L7.36737 29.9064H7.32861V29.9431V29.9976V30.0342V30.1067L7.65852 31.9014L7.69556 32.1008V32.1374V32.174H7.71365V32.2107H7.73174V32.2473H8.31835L8.42861 32.1928L8.66721 32.03L9.36321 31.5588H9.3813" fill="white"/>
<path d="M10.8453 30.8106H11.0839L11.1753 30.7561L11.5413 30.5209L11.7429 30.3939H11.761L11.8161 30.3572L11.8532 30.3206H11.8902L11.9634 30.2482V30.2115H11.9815L12.0186 30.157V30.1203V30.0658H12.0918V29.9934C12.1003 29.9575 12.1064 29.921 12.1099 29.8843V29.8843C12.113 29.842 12.113 29.7996 12.1099 29.7573L12.0728 29.5213L12.0358 29.3398V28.9989L11.9987 28.854V28.779L11.9617 28.652L11.9247 28.5251L11.8695 28.3623H11.8514L11.7963 28.2174L11.7593 28.145L11.6309 27.8041V27.7317L11.5758 27.5868L11.5207 27.4778H11.4836L11.4466 27.4232L11.4095 27.3687H11.3544L11.3174 27.332H10.1976L10.1605 27.3687L10.1235 27.4053L9.79359 27.7138L9.72037 27.7862L9.66524 27.8766L9.61011 27.9669L9.57307 28.0572V28.1118V28.1484V28.185C9.57135 28.2151 9.57135 28.2453 9.57307 28.2754C9.5766 28.3121 9.58265 28.3486 9.59116 28.3845L9.70142 28.981L9.92107 30.2132V30.3223L9.95811 30.4126L9.99515 30.4851H10.0167V30.5396H10.0348L10.0718 30.5941H10.0899L10.1812 30.6666L10.2183 30.7032H10.2751L10.3854 30.7578H10.4035L10.5318 30.7944H10.8247" fill="white"/>
<path d="M15.5892 22.9085V22.8906H15.5711V22.981L15.5341 23.4156L15.497 28.0173C15.4889 28.1894 15.5336 28.36 15.6254 28.5064C15.6805 28.5431 17.1277 29.8299 18.0252 30.5184H18.0433C18.2326 30.6909 18.4491 30.8316 18.6842 30.9351H20.4431L20.4983 30.8985L20.5534 30.8618L20.6085 30.8252L20.8833 30.6258L20.9203 30.5891L21.0306 30.5167L21.0676 30.4801L21.1779 30.3897H21.196L22.8085 29.1208L23.4313 28.6095L23.4683 28.5371V28.5005V28.428H23.4864V28.2653V28.2286C23.4883 28.1985 23.4883 28.1684 23.4864 28.1383V28.1016L23.4494 24.7305V23.4258C23.4494 23.3167 23.4313 23.2264 23.4313 23.1539V23.027L23.3942 22.9H23.3417V22.9724C23.3047 23.2076 23.2504 23.8246 23.2314 24.4041V24.8387V25.7267V25.7028V25.5758L23.1944 25.413V25.3406V25.1915L23.1574 25.01V24.9009L23.1203 24.7381V24.6836C22.992 24.2123 22.8619 23.7777 22.8455 23.7232V23.9592L22.9007 24.5933C22.9029 24.6296 22.9029 24.666 22.9007 24.7023V24.8114V24.8839H22.8826V24.9563H22.8645V24.9929L22.8094 25.0654H22.7913L22.7 25.1557H22.6819L22.6448 25.2102V25.2469L22.5897 25.3193V25.4463V25.5008H22.5716C22.5716 25.5071 22.5716 25.513 22.5716 25.5187C22.5829 25.6149 22.589 25.7116 22.5897 25.8085V26.0803V26.1527V27.9832L22.4794 28.0923L22.4424 28.1289L22.4054 28.1656L22.3683 28.2022L22.3132 27.3867V27.131L22.2219 27.2035H22.1849L21.9463 27.3662V27.6926L21.9833 28.4536L21.9463 28.4902L21.7447 28.5993H21.4329L21.3416 27.4915H21.1581L21.0116 27.546H20.9936L20.8833 27.5827L20.773 27.6193L20.8101 28.7979L20.6266 28.8524L20.4983 28.8891L20.2398 28.9436H19.1821V28.5627H19.2001V27.765H18.7238L18.5403 27.7284H18.4318L18.3948 28.3991V28.9104L18.2302 28.8558L18.0838 28.8013V28.4204L18.1208 27.6227L17.9925 27.5861L17.9012 27.5494L17.6428 27.4225L17.5695 28.2746V28.5303L17.3111 28.3675V27.8059L17.3482 27.2946L16.9821 27.0228H16.9674V27.1131L16.8942 28.0556L16.6927 27.8741V26.0982C16.6927 25.9712 16.7297 25.4275 16.7297 25.4275C16.7306 25.4153 16.7306 25.4031 16.7297 25.3909V25.3909V25.5537H16.709V25.517H16.672L16.6349 25.4625V25.4258H16.6168V25.3892L16.4885 25.1915H16.4153V25.1548L16.3782 25.1182H16.3412L16.3042 25.0637V25.027V24.9904V24.9179V24.8089C16.302 24.7725 16.302 24.7361 16.3042 24.6998V24.6819L16.3412 24.2106L16.3782 23.8118C16.3602 23.8664 16.268 24.2285 16.1586 24.6452L16.1035 24.8447V24.8992V25.0083L16.0664 25.171H16.0483V25.3159H16.0302V25.7693V25.5877C15.9751 25.0262 15.8287 23.2315 15.8287 22.9051" fill="white"/>
<path d="M23.8353 21.8574H24.3848L24.4581 21.8207H24.5132L24.5864 21.7841H24.6415L24.7518 21.6937C24.9235 21.548 25.0615 21.3674 25.1563 21.1641C25.2511 20.9609 25.3006 20.7399 25.3014 20.516V20.4615C25.267 20.1413 25.1995 19.8255 25.0998 19.519C25.0735 19.4068 25.0551 19.2929 25.0447 19.1781V19.0878C25.0516 18.9239 25.0392 18.7597 25.0076 18.5986C24.9543 18.4559 24.8803 18.3216 24.788 18.1998C24.5166 17.7766 24.3403 17.3005 24.2711 16.804C24.2646 16.7559 24.2646 16.7072 24.2711 16.6591C24.2713 16.6004 24.2906 16.5433 24.3263 16.4963L24.3633 16.4597H24.4184C24.4605 16.7001 24.5542 16.9288 24.6932 17.1304C24.7187 17.1718 24.7576 17.2036 24.8035 17.2207H25.0231V17.1806C25.1046 16.8516 25.0656 16.5047 24.9129 16.2015L24.8397 16.0745L24.7483 15.9475L24.657 15.8385L24.6019 15.7839L24.5649 15.7473L24.5278 15.7106L24.4546 15.6561L24.3263 15.6016H23.9817L22.9188 15.7643L22.1676 15.9092H22.1495L20.7205 16.2714H20.7024L19.9883 16.4887C19.4996 16.646 19.0172 16.8213 18.5412 17.0145L18.5963 17.5036V18.0149C18.5992 18.3066 18.5747 18.5978 18.5231 18.885V18.9574L18.468 19.1747L18.4085 19.3537L18.3534 19.4985V19.5531L18.2983 19.6622L18.2432 19.7712V19.8079L18.188 19.8803H18.151L18.1139 19.917L18.0769 19.9536L18.0399 20.0081L17.9847 20.0806H17.9477L17.9107 20.1351L17.8374 20.2076H17.8056L17.7685 20.2442L17.7134 20.2987H17.6953L17.5851 20.3891H17.3266L17.2534 20.4257H17.2164L17.1061 20.4802H17.0148L16.9416 20.5169H16.8865L16.7762 20.5535H16.7392L16.5927 20.5902H15.8967L15.7503 20.5356C15.2288 20.3046 14.8114 19.8918 14.5779 19.3758V19.3758L14.5409 19.3034L14.4496 19.0861L14.3945 18.9412L14.3393 18.7964L14.248 18.833H14.211L14.174 18.8696L14.1007 18.9242L14.0275 18.9966C13.9532 19.0844 13.8915 19.1819 13.844 19.2864L13.7527 19.5216V19.6093C13.7292 19.6988 13.7108 19.7896 13.6976 19.8812C13.6783 20.0511 13.6783 20.2226 13.6976 20.3925V20.3925C13.7145 20.5223 13.7451 20.6499 13.7889 20.7734C13.8305 20.8928 13.8857 21.0072 13.9534 21.1143H13.9715V21.1509L14.0267 21.2412H14.0448L14.1361 21.3503H14.3195L14.3747 21.387L14.4298 21.4236H14.4668L14.5952 21.496H14.6322L14.7606 21.5506H14.7976L14.9259 21.5872H15.4204L15.5849 21.5506H15.7494L15.914 21.5139H16.5006L16.5919 21.5685C16.8667 21.7858 16.8503 22.1846 16.8847 22.5476V22.6925V22.8374C16.9034 22.9342 16.9408 23.0265 16.995 23.1092H17.032L17.0691 23.1458L17.1604 23.2183L17.0872 23.8344L17.014 24.4505L17.9666 24.6499C18.0155 24.2272 18.0703 23.8043 18.1312 23.381H18.3508V23.5438L18.3138 23.7066V24.1778C18.2915 24.3474 18.2792 24.5181 18.2767 24.6891L18.6618 24.7616L19.0468 24.834C19.0715 24.363 19.102 23.8918 19.1381 23.4202H19.3966V23.6921H19.891V23.4927L20.2209 23.4381L20.3036 24.8076L20.6154 24.753L20.9272 24.6985C20.9272 24.5894 20.9091 24.4812 20.9091 24.3721C20.9059 24.2625 20.8935 24.1533 20.8721 24.0457L20.8351 23.7194L20.7799 23.4109H21.0384L21.1116 24.0815L21.1848 24.7522L21.6241 24.6431L22.0634 24.5161C22.0634 24.4071 22.0453 24.2988 22.0453 24.1898C22.042 24.0801 22.0297 23.971 22.0083 23.8634L21.9532 23.537L21.898 23.2106L21.9712 23.1561H21.9893C22.1491 22.9146 22.2261 22.6287 22.209 22.3405C22.1995 22.0676 22.2832 21.7996 22.4467 21.5795L22.4838 21.5429L22.5389 21.5063L22.594 21.4696L22.6853 21.433H23.1436L23.2538 21.4696L23.3641 21.5063L23.4744 21.5429H23.9688M20.7627 22.6507H20.7446L20.7076 22.6874H20.6895L20.6525 22.724H19.9375L19.4792 22.5791H18.1562L18.1191 22.5067V22.4215V22.3107V22.2016V22.1113L18.1742 21.9843V21.9298L18.2294 21.8395L18.2664 21.7849L18.3215 21.7125L18.3586 21.6758L18.4318 21.5668L18.505 21.4943H18.5231C18.6115 21.3963 18.6854 21.2864 18.7428 21.1679C18.8043 21.0653 18.83 20.9456 18.816 20.8271C18.8133 20.7788 18.8133 20.7305 18.816 20.6822V20.1931L18.853 20.1564H18.8711L18.9081 20.1019H18.9254L19.0167 20.0294H19.6576L19.7127 20.084H19.7497L19.8048 20.1564H19.8229V20.4121C19.8313 20.454 19.8374 20.4964 19.841 20.539V20.539C19.8442 20.5933 19.8442 20.6476 19.841 20.7018V20.7385H19.8591V20.7751V20.8654H19.8962L19.9332 20.9021L19.9883 20.9924V21.029L20.0435 21.1015H20.0805L20.1537 21.1739C20.2591 21.297 20.3512 21.4307 20.4285 21.5727C20.5105 21.716 20.5488 21.8797 20.5387 22.044C20.5353 22.0941 20.5228 22.1432 20.5017 22.1889V22.1889L20.4647 22.2255M23.2125 19.8871H21.8205L21.5819 19.8147H21.3984L21.0539 19.6332C21.1317 19.8195 21.258 19.9821 21.4199 20.1044C21.5861 20.2299 21.7641 20.3392 21.9514 20.4308L21.8963 20.5757C21.3228 20.5012 20.7957 20.2243 20.4121 19.7959C20.258 19.6219 20.1564 19.4083 20.1193 19.1798C20.1208 19.1677 20.1208 19.1554 20.1193 19.1432C20.1167 19.1191 20.1167 19.0948 20.1193 19.0708C20.092 18.508 19.9421 17.9577 19.6799 17.4576C19.6748 17.4237 19.6795 17.3891 19.6936 17.3577C19.7076 17.3264 19.7303 17.2996 19.7591 17.2806C19.788 17.2616 19.8216 17.2511 19.8563 17.2503C19.8909 17.2494 19.9251 17.2584 19.9547 17.2761L20.046 17.3306L20.1373 17.3673H21.4561L21.5113 17.3306C21.5492 17.3034 21.5805 17.268 21.6027 17.2271C21.6249 17.1862 21.6375 17.1409 21.6396 17.0946C21.6382 17.0695 21.6321 17.0449 21.6215 17.0221V16.9855C21.5626 16.9098 21.4876 16.8479 21.4019 16.804V16.804C22.4648 16.1879 22.849 16.5483 22.849 16.5483C23.5607 17.0835 24.0751 17.8349 24.3133 18.6873V18.6873C24.3288 18.7408 24.3412 18.7951 24.3504 18.85C24.3504 18.9046 24.3685 18.9404 24.3685 18.9949V19.6477L24.3314 19.7201V19.7747L24.2944 19.8471H24.2763V19.8837L24.2393 19.9383H24.2212L24.1841 19.9928V20.0294L24.1471 20.084L24.0558 20.1931L23.9826 20.2655L23.7078 20.5212L23.6527 20.4487L23.6156 20.3942L23.6888 20.3217H23.7069L23.744 20.2851L23.8172 20.1948L23.8542 20.1581L23.8913 20.1036V20.0669L23.9464 19.9766L24.0196 19.8496C24.0712 19.7506 24.1141 19.6474 24.148 19.5412V19.5412L24.185 19.4142L24.0937 19.5045L24.0205 19.5769H23.9834L23.9102 19.6315H23.8551L23.7819 19.686L23.7267 19.7227L23.6535 19.7593H23.5071L23.4339 19.7959" fill="white"/>
<path d="M28.5253 24.6123V24.8117V24.9208V25.1381V25.3196V25.3741H28.5624L29.13 24.6489L29.1851 24.5398V24.4129C29.1851 24.3947 29.1851 24.3765 29.1851 24.3583V24.2493H29.1671V24.1768V24.1402H29.1119L29.0387 24.0677L28.9836 24.0311H28.9138L28.7493 23.9766H28.397V24.0132H28.434L28.4711 24.0498V24.1044C28.489 24.1572 28.5014 24.2118 28.5081 24.2672V24.2672V24.5569" fill="white"/>
<path d="M18.8703 4.89167V4.81923V4.76469H18.816L18.6877 4.72805H18.6326L18.5042 4.69141H17.5886L17.3689 4.72805H17.3508L17.1673 4.78259H17.0933L16.9649 4.83713L16.8917 4.87377L16.7814 4.92831L16.7082 4.96495L16.5799 5.03739L16.5247 5.07403L16.3783 5.18311H16.3413L16.231 5.27344L16.1759 5.31008L16.0846 5.40041L16.0114 5.47285L15.9562 5.54528V5.58193L15.9192 5.61857L15.8279 5.76344V5.81798L15.7728 5.94495L15.7357 6.01739L15.6806 6.18015V6.16225L15.6436 6.28923V6.34377V6.68464V6.92069V6.99312V7.1022V7.24707L15.6806 7.37404L15.7357 7.50102L15.7908 7.61009L15.846 7.70043V7.77286L15.9373 7.89983H15.9554L16.0467 8.00891L16.1018 8.06345L16.2121 8.17253L16.2672 8.22707L16.3404 8.28161L16.4317 8.35404L16.523 8.40858H16.6143L16.7246 8.46312H16.7659L16.8392 8.49976L16.9305 8.53641H17.0407L17.1691 8.57305H18.195L18.3414 8.53641H18.3595L18.543 8.48187L18.7445 8.42733H18.7626L18.9461 8.35489H18.9642L19.1477 8.26456L19.3122 8.17423H19.3303L19.4948 8.06515V9.53345H19.5319L19.5689 9.4968H19.6421L19.6792 9.46016H19.6947L19.7498 9.40562H19.7868L19.8239 9.36898H19.842L19.9152 9.2599L19.9703 9.15082L20.0246 9.03833V9.00169L20.0616 8.91136H20.0797L20.1167 8.76649V8.65741V8.53044V7.80524L19.9152 7.62373L20.1167 7.5334V6.32331L20.2632 6.39575L20.4096 6.50483L20.4466 6.54147L20.5569 6.6318H20.575L20.6853 6.75878H20.7033L20.7766 6.86785H20.7946L20.8679 7.01272L20.923 7.1397V7.24877L20.96 7.35785L20.9971 7.48483V7.68423V7.55726L21.0341 7.43029V7.39364L21.0712 7.26667V7.24877L21.2176 6.99312V6.95648L21.2727 6.88404L21.3098 6.82951L21.3468 6.77497L21.3838 6.72043L21.4209 6.68378H21.439L21.476 6.64714L21.5863 6.55681H21.6044L21.6414 6.52017H21.6758L21.731 6.48352H21.7491L21.9136 6.37445V9.09287V9.05623H22.1513L22.2065 9.00169L22.4649 8.76564L22.5932 8.65656L22.7948 8.45715L22.8499 8.40261L22.8129 8.23985L22.5932 8.43926V5.9066C22.5963 5.86982 22.6023 5.83335 22.6113 5.79753V5.70719L22.6664 5.63476L22.3546 5.79753L22.1711 5.88786L21.7861 6.08726C21.5952 6.20122 21.417 6.33491 21.2546 6.48608H21.2365L21.1814 6.54062L21.1082 6.61305V6.65225H21.0729V6.70679H21.0548V6.76133H21.0177V6.79798C20.9617 6.59703 20.8549 6.41345 20.7076 6.26441C20.5603 6.11537 20.3771 6.00575 20.1753 5.9458V5.9458L20.0651 5.90916V5.72765H20.3769V5.60067H19.9005V4.91212H19.8635L19.7903 4.87548H19.5706C19.561 4.89228 19.5548 4.91082 19.5525 4.93001C19.5525 4.93001 19.5525 5.00245 19.5525 5.09278V5.7089H19.0581V5.83587H19.4026V8.04726H19.3656L19.2924 8.0839L19.2373 8.12055L19.1821 8.15719L19.1089 8.18616H19.0357L18.9444 8.22281H19.0546L18.9082 8.25945H18.8712L18.5051 8.29609H18.0287L17.8453 8.25945L17.6988 8.22281H17.6618L17.5334 8.16827L17.2957 8.04129L17.2587 8.00465L17.039 7.82314H17.0244L16.9511 7.73281L16.9141 7.67827L16.859 7.60583L16.8219 7.5334L16.7487 7.38853H16.7306L16.6755 7.22576L16.6385 7.04425V7.00761C16.6258 6.94189 16.6198 6.8751 16.6204 6.8082V6.8082V6.5909C16.6232 6.53012 16.6293 6.46954 16.6385 6.40939V6.26452V6.11965V5.97478L16.6755 5.88445L16.7306 5.77537L16.7677 5.70293L16.9141 5.46688L17.0244 5.30838H17.0424L17.1157 5.23594L17.1527 5.1993L17.2259 5.12687H17.244L17.281 5.09022L17.3543 5.03568H17.3689L17.4973 4.96325L17.6256 4.90871H17.6437L17.9185 4.85417H18.083V5.76003L18.1562 5.6876H18.1933L18.2484 5.65095H18.4319L18.5051 5.61431H18.5602L18.6886 5.55977L18.7618 5.52313L18.872 5.48648L18.9453 5.44984L19.1839 5.35951H19.2019L19.1649 5.32286H18.872V4.88826" fill="white"/>
<path d="M33.8386 10.7105C33.9104 10.6429 33.9559 10.5524 33.9669 10.4549H34.1685C34.2704 10.4526 34.368 10.4138 34.4433 10.3458L34.5346 10.2554C36.3762 8.62798 37.7481 6.54591 38.5099 4.22207C38.8216 3.29779 38.9764 2.32883 38.9681 1.35451V1.35451L38.9311 0.77418C38.925 0.699004 38.8975 0.627077 38.8518 0.566743C38.806 0.50641 38.7439 0.460143 38.6727 0.433311L38.5262 0.396668C38.4244 0.396306 38.3263 0.434055 38.2515 0.502337L37.8302 0.883258L29.1845 8.58945L28.2688 9.40498L28.1956 9.47741H28.1732V9.44162C27.8808 8.93728 27.6177 8.4169 27.3851 7.883C27.1473 7.33931 26.9819 6.77517 26.7985 6.23405C26.4536 5.12351 25.9612 4.06322 25.3341 3.08101C25.0161 2.5968 24.6401 2.15243 24.2143 1.75759C23.7899 1.35979 23.3108 1.02326 22.7913 0.757989C22.2688 0.500149 21.7141 0.311887 21.1417 0.198112L20.2485 0.0532424H20.0245C19.9509 0.0406456 19.8753 0.0468046 19.8048 0.071138L19.6946 0.161468L19.5111 0.342981H19.4732L19.3268 0.233903C19.2734 0.185998 19.2111 0.148936 19.1433 0.124825C19.0728 0.100491 18.9972 0.0943324 18.9236 0.106929H18.704L17.8262 0.233903C17.254 0.348292 16.6996 0.537127 16.1775 0.795484C15.6561 1.05949 15.1749 1.39517 14.7485 1.79253C14.3378 2.17748 13.9749 2.60945 13.6675 3.0793C13.0477 4.06543 12.5557 5.12476 12.2031 6.23234C12.0015 6.77603 11.8585 7.34016 11.6165 7.88129C11.384 8.41526 11.1208 8.93565 10.8283 9.43992V9.43992L10.3115 9.0411L1.15409 0.886667L0.732009 0.502337C0.657054 0.434365 0.558905 0.396926 0.457226 0.39752L0.310791 0.433311C0.236488 0.457611 0.170942 0.502781 0.122148 0.56331C0.0733546 0.623838 0.043424 0.697108 0.0360081 0.77418L-0.000170176 1.35451C-0.00847931 2.33462 0.146044 3.30942 0.457226 4.23996C1.21493 6.56643 2.58774 8.6501 4.43339 10.275L4.5247 10.3654C4.59899 10.4349 4.69722 10.4739 4.79948 10.4745H5.00191C5.01134 10.5724 5.05705 10.6635 5.13025 10.7301L5.24051 10.8392L6.61873 12.0714H6.064C5.99988 12.0706 5.93651 12.085 5.87913 12.1133C5.82175 12.1416 5.77203 12.1831 5.73409 12.2342L4.01131 14.5538C3.97207 14.6074 3.9469 14.6697 3.93809 14.7353C3.93496 14.8626 3.94101 14.9898 3.95618 15.1162V15.3156C3.96526 15.3785 3.98385 15.4397 4.01131 15.4972C4.10262 15.7332 4.21288 15.9684 4.32313 16.2036C4.50455 16.5412 4.73304 16.8519 5.00191 17.1265C5.27331 17.4002 5.58923 17.6269 5.93651 17.7972C6.28006 17.9674 6.65294 18.072 7.03564 18.1057L8.20799 18.1781L10.5527 18.3409L12.8784 18.5403H12.8965C12.8343 18.7217 12.7346 18.8883 12.6036 19.0294C12.5168 19.1199 12.4532 19.2296 12.4181 19.3494C12.3831 19.4692 12.3776 19.5956 12.4021 19.718C12.5126 20.4049 12.7287 21.0711 13.043 21.6933L13.0981 21.7836C13.2969 22.14 13.5647 22.4542 13.8863 22.7082L12.0911 24.6844L11.8525 24.8838L11.5777 24.6844C11.618 24.5163 11.618 24.3412 11.5777 24.1731V24.1731C11.5396 24.0293 11.473 23.8943 11.3817 23.7761C11.2905 23.658 11.1765 23.5588 11.0463 23.4846C10.8647 23.392 10.6639 23.3424 10.4597 23.3397C10.324 23.3367 10.1892 23.3608 10.0633 23.4106C9.93731 23.4604 9.8228 23.5348 9.72662 23.6294C9.51898 23.7987 9.37782 24.0346 9.32762 24.2961C9.27743 24.5576 9.32137 24.8283 9.45183 25.0611H9.46992L10.3675 26.2209C10.0649 26.2831 9.78573 26.4274 9.56123 26.6376L9.23132 26.964C8.98433 27.1975 8.8177 27.5018 8.75497 27.834L8.71793 27.9244H8.70587C8.37069 27.9262 8.04915 28.0559 7.80831 28.2865L6.89265 29.1387C6.66515 29.3476 6.52192 29.631 6.48952 29.9364C6.36366 29.9484 6.24029 29.9789 6.12343 30.0267H6.10017C5.95188 30.0882 5.81549 30.1747 5.69705 30.2823V30.2823L5.11044 30.826C4.88408 31.0283 4.74064 31.3058 4.70731 31.6058C4.57801 31.6074 4.45092 31.6391 4.3363 31.6983C4.22167 31.7575 4.12274 31.8426 4.04749 31.9466L3.90105 32.1639C3.84341 32.241 3.79996 32.3276 3.77271 32.4196H3.59009L3.46175 32.4741C3.18371 32.498 2.91601 32.5898 2.68268 32.7413C2.44936 32.8928 2.2577 33.0992 2.1249 33.342C1.9921 33.5849 1.92233 33.8565 1.92184 34.1326C1.92135 34.4087 1.99015 34.6806 2.12208 34.9239C2.25401 35.1672 2.44494 35.3743 2.67772 35.5266C2.91051 35.6789 3.17788 35.7716 3.45583 35.7965C3.73378 35.8214 4.01362 35.7775 4.27024 35.669C4.52685 35.5605 4.75222 35.3906 4.9261 35.1747H4.98123L5.03636 35.138H5.05445L5.09149 35.1014L5.12853 35.0647H5.16557L5.20261 35.0281L5.23965 34.9914C6.18582 35.6143 7.29066 35.9599 8.42678 35.9885C9.23023 35.986 10.0236 35.8116 10.7525 35.4772C11.5972 35.0983 12.3524 34.5488 12.9697 33.864C13.5761 33.2424 14.0365 32.4963 14.3184 31.6787C14.6002 30.8611 14.6965 29.9922 14.6003 29.1336C14.5823 28.9887 14.5452 28.8251 14.509 28.6624L14.5642 28.5899V28.7348C14.5689 28.9667 14.6387 29.1927 14.7657 29.3876L14.8389 29.4779L16.4515 30.8192C18.2104 32.2509 18.3388 32.2509 18.5188 32.2509H20.4061C20.5896 32.2509 20.8273 32.2509 24.0523 29.46C24.1437 29.4054 24.272 29.2427 24.3452 28.7348V28.5899L24.4003 28.6624C24.3611 28.8176 24.3306 28.975 24.309 29.1336C24.2097 29.9923 24.3045 30.8622 24.5865 31.6803C24.8685 32.4984 25.3307 33.2442 25.9396 33.864C26.1418 34.0927 26.3625 34.3047 26.5995 34.498C27.0755 34.898 27.6051 35.2309 28.1732 35.4874C28.9021 35.8218 29.6955 35.9962 30.499 35.9987C31.5638 35.9941 32.6078 35.7063 33.5216 35.1653H33.6L33.7464 35.0749L33.7834 35.1116L33.8205 35.1482H33.8584L33.8954 35.1849L33.9506 35.2215L34.0419 35.2761H34.0599C34.2338 35.492 34.4592 35.6619 34.7158 35.7704C34.9724 35.879 35.2523 35.9228 35.5302 35.8979C35.8082 35.8731 36.0755 35.7803 36.3083 35.628C36.5411 35.4757 36.732 35.2686 36.864 35.0253C36.9959 34.782 37.0647 34.5101 37.0642 34.234C37.0637 33.9579 36.9939 33.6863 36.8612 33.4434C36.7284 33.2006 36.5367 32.9942 36.3034 32.8427C36.07 32.6912 35.8023 32.5994 35.5243 32.5755L35.2495 32.4852H35.1763C35.1505 32.4078 35.1133 32.3346 35.066 32.2679H35.048V32.2313L34.9196 32.0497C34.8444 31.9457 34.7454 31.8606 34.6308 31.8014C34.5162 31.7422 34.3891 31.7105 34.2598 31.7089C34.2248 31.4094 34.0816 31.1325 33.8567 30.9291L33.2701 30.3854C33.0548 30.1855 32.7764 30.0651 32.4819 30.0446C32.4563 29.7178 32.3056 29.413 32.0607 29.1924L31.145 28.3402C30.9052 28.108 30.583 27.978 30.2474 27.9781H30.2294C30.2198 27.9549 30.2137 27.9305 30.2113 27.9056C30.1793 27.7416 30.1239 27.5829 30.0467 27.4344C29.9673 27.279 29.8619 27.1381 29.7349 27.0177L29.405 26.7092C29.1811 26.4982 28.9017 26.3538 28.5988 26.2925L28.672 26.1834L29.4963 25.1318H29.5144C29.6371 24.9238 29.6874 24.6817 29.6577 24.4427C29.628 24.2036 29.5198 23.9808 29.3499 23.8084L29.2396 23.6993C29.1434 23.6047 29.0289 23.5303 28.903 23.4805C28.777 23.4307 28.6422 23.4066 28.5066 23.4096C28.3165 23.4139 28.1294 23.4572 27.957 23.5365H27.92L27.8648 23.5732H27.8287L27.7374 23.6456H27.6641C27.5481 23.7641 27.4599 23.9064 27.4057 24.0623V24.099V24.1535C27.3632 24.3214 27.3632 24.497 27.4057 24.6648H27.3894L27.1697 24.8463L25.1584 22.6733C25.4728 22.4172 25.734 22.1032 25.9276 21.7487L25.9827 21.6584C26.2944 21.0351 26.5104 20.3693 26.6236 19.683C26.6466 19.5607 26.6404 19.4346 26.6054 19.3151C26.5704 19.1955 26.5076 19.0857 26.422 18.9945C26.2919 18.8527 26.1923 18.6863 26.1292 18.5053H26.1059L28.4506 18.3059L30.7953 18.1431L31.9676 18.0707C32.3503 18.0371 32.7232 17.9324 33.0668 17.7622C33.4071 17.5899 33.7165 17.3634 33.9824 17.0916C34.2509 16.8162 34.4791 16.505 34.6603 16.167C34.7706 15.9309 34.88 15.6957 34.9722 15.4597C34.9994 15.4021 35.0179 15.341 35.0273 15.2781V15.1154C35.0273 14.9884 35.0454 14.8597 35.0454 14.7345C35.0359 14.6691 35.0108 14.6069 34.9722 14.5529L33.2339 12.1771C33.1959 12.126 33.1462 12.0845 33.0888 12.0562C33.0315 12.0279 32.9681 12.0135 32.904 12.0143H32.3544L33.7326 10.7821L33.8386 10.7105ZM3.99322 35.5053C3.81225 35.5452 3.62463 35.5452 3.44366 35.5053C3.07478 35.4244 2.74887 35.2121 2.528 34.9088C2.41635 34.7564 2.34035 34.5815 2.30549 34.3965C2.27062 34.2115 2.27778 34.0212 2.32644 33.8393C2.41754 33.4927 2.62385 33.1866 2.91218 32.9701C2.6795 33.2255 2.52114 33.5386 2.45392 33.8759C2.42749 34.0367 2.43352 34.201 2.47166 34.3594C2.50981 34.5178 2.57931 34.6672 2.67616 34.7988C2.87439 35.0695 3.15807 35.267 3.48242 35.3604C3.6461 35.4106 3.81849 35.4268 3.98878 35.408C4.15908 35.3892 4.32364 35.3359 4.47215 35.2513C4.33576 35.3681 4.17201 35.4493 3.99581 35.4874M5.03981 34.0915V34.1282C5.03637 34.1587 5.03032 34.189 5.02172 34.2185L4.96659 34.3276V34.3642L4.91146 34.4367L4.87442 34.4733L4.81929 34.5279H4.79948L4.72626 34.5824H4.70817L4.61687 34.6369H3.8287L3.71844 34.6003H3.62369L3.55047 34.5636H3.51687L3.38853 34.4733L3.35149 34.4367H3.31531L3.24209 34.3642H3.224L3.16887 34.2918H3.15078L3.33426 34.3821H3.67882L3.71586 34.3455H3.73394L3.77098 34.3088H3.79596L3.86918 34.2364L3.90622 34.1998L3.94326 34.1631L3.9803 34.1265L4.05352 34.0174L4.09056 33.9629L4.16378 33.8538L4.20082 33.8171H4.31107L4.38429 33.7805H4.65735L4.73057 33.835L4.91404 33.9978H4.93213L4.96917 34.0344H5.00191V34.0711C5.01202 34.1127 5.01808 34.1553 5.02 34.1981V34.1981C5.02148 34.2222 5.02148 34.2464 5.02 34.2705M36.6424 33.9987C36.691 34.1806 36.6982 34.3709 36.6633 34.5558C36.6285 34.7408 36.5525 34.9158 36.4408 35.0681C36.2199 35.3714 35.894 35.5837 35.5252 35.6647C35.3442 35.7045 35.1566 35.7045 34.9756 35.6647C34.7994 35.6265 34.6356 35.5454 34.4993 35.4286C34.6478 35.5132 34.8123 35.5665 34.9826 35.5853C35.1529 35.604 35.3253 35.5878 35.489 35.5377C35.8133 35.4443 36.097 35.2467 36.2952 34.9761C36.3919 34.844 36.461 34.6943 36.4987 34.5356C36.5364 34.3769 36.5419 34.2123 36.5149 34.0515C36.4477 33.7141 36.2893 33.4011 36.0566 33.1456C36.3454 33.3622 36.5521 33.6687 36.6432 34.0157M33.9686 34.0702L34.0057 33.9612L34.0401 33.9075C34.0849 33.7664 34.1599 33.6365 34.2598 33.5266C34.3195 33.4861 34.3891 33.4622 34.4614 33.4575C34.5275 33.4572 34.5926 33.4738 34.6503 33.5055C34.7081 33.5373 34.7567 33.5833 34.7913 33.639C35.0497 34.02 35.3589 34.4546 35.6337 34.3276L35.8172 34.2373C35.6772 34.4423 35.479 34.6017 35.2474 34.6953C35.0159 34.7889 34.7615 34.8125 34.5165 34.7631L34.3881 34.7264C34.1909 34.6298 34.0397 34.4606 33.9669 34.2552C33.9471 34.1845 33.9409 34.1108 33.9488 34.0379C33.949 33.989 33.9551 33.9404 33.9669 33.893M5.88052 10.3662L5.78921 10.2938L5.91756 9.71346V9.60439H5.73409L4.92783 9.69472H4.90974L4.5247 9.33254L4.46957 9.27971L4.30504 9.11694L4.19479 9.00787L4.03026 8.82635L3.93895 8.71727L3.84765 8.62694L3.73739 8.49997L3.47897 8.17359L3.40576 8.08326L3.14734 7.75688L3.0009 7.55747L2.89065 7.4126L2.74421 7.1953L2.60122 6.97884L2.38157 6.61667V6.57832L2.19809 6.26984L2.15933 6.21189L1.9948 5.92215L1.95949 5.87102L1.88627 5.72615L1.79496 5.56339L1.70365 5.38187L1.66661 5.30944L1.5934 5.16457L1.55636 5.09128L1.52018 5.01885L1.44696 4.81944V4.71121L1.3367 4.40273V4.36694L1.22645 4.04055C0.94611 3.24025 0.78591 2.40361 0.75096 1.55733L3.70035 4.16668L9.59999 9.42287L10.1866 9.94866C10.1949 10.0608 10.1797 10.1734 10.1419 10.2794C10.1041 10.3855 10.0445 10.4826 9.96694 10.5648L9.91181 10.6193C9.74099 10.5582 9.58041 10.472 9.43547 10.3637C9.08456 10.13 8.74802 9.8759 8.42764 9.60268C7.21826 8.64399 5.55061 7.23449 4.46957 6.26984L4.19479 6.01418L4.14052 5.96135L3.90278 5.74405H3.84679L3.77357 5.81648L3.73653 5.85312L4.17584 6.23405L4.34036 6.37891L4.7254 6.74109L4.85375 6.86806L4.98209 6.99503L5.01913 7.03168C5.49548 7.50293 5.98992 8.01082 6.46626 8.51787L7.23548 9.35129L7.3087 9.42372L7.38192 9.51406L7.74801 9.91287L7.78505 9.94951L7.87636 10.0398L7.94957 10.1302L8.04088 10.2393L8.40697 10.656L8.49828 10.765L8.58958 10.8741L8.64471 10.9287L8.69984 11.0011L8.77306 11.0914L8.82819 11.146L8.97462 11.3087L9.02975 11.3633L9.10297 11.4536L9.17619 11.5439L9.10297 11.5806H7.32765L7.06924 11.4178L5.88052 10.3662ZM5.73409 13.411L6.10017 12.8495L7.69374 12.9398L6.22938 13.1213L6.17425 13.1758L5.29392 14.0817L5.73409 13.411ZM10.0212 24.7756L9.98417 24.6853V24.5404C9.98265 24.5163 9.98265 24.4921 9.98417 24.468V24.3589V24.3044H10.0023L10.0393 24.2498H10.0574L10.0944 24.2132H10.1857L10.2409 24.1765C10.4243 24.0862 10.607 24.0862 10.607 24.1765H10.5148V24.2311V24.9597V25.4855H10.4976L10.333 25.2861L10.0212 24.7756ZM9.52677 28.1647V28.0556V27.9653V27.9107L9.56381 27.8383L9.61894 27.748L9.67407 27.6576L9.74729 27.5852L10.0772 27.2767L10.1142 27.2401L10.1513 27.2034L10.1883 27.1668H11.1781L11.2151 27.2034L11.2521 27.2401L11.3073 27.2767L11.3443 27.3134H11.3624L11.4175 27.3858H11.4356L11.4907 27.4949L11.5459 27.6398L11.7104 28.0207L11.7474 28.111L11.8026 28.2925L11.8577 28.4374L11.9128 28.6001V28.7271L11.9499 28.8362V29.2896L11.9869 29.5248C11.9902 29.567 11.9902 29.6095 11.9869 29.6517V29.6517C11.9833 29.6884 11.9772 29.7249 11.9688 29.7608V29.7608V29.9781H11.9447V30.0148H11.893L11.8198 30.0872L11.7827 30.1238L11.6914 30.1963H11.6734L11.545 30.4519L11.1789 30.688L11.1238 30.7246H10.9369L10.7353 30.7613H10.6983L10.4235 30.7067L10.2951 30.6522H10.2219L10.0936 30.5431L10.0574 30.4988H10.0393L10.0023 30.4442H9.96522L9.92818 30.3718L9.89114 30.2815L9.8541 30.1724L9.67063 29.1754L9.63359 28.9402L9.52333 28.3436C9.51476 28.3077 9.50871 28.2713 9.50524 28.2346L9.52677 28.1647ZM12.092 31.0467C11.9588 31.7813 11.5929 32.4549 11.0471 32.9701C10.4729 33.493 9.80901 33.9102 9.0866 34.2023C8.74707 34.3307 8.38713 34.3983 8.02365 34.4017H7.78591C7.5917 34.3854 7.40069 34.3426 7.21826 34.2748L7.62138 34.0191L7.78591 33.9075L7.85913 33.835L7.95043 33.726L8.06069 33.5811L8.09773 33.5266L8.13477 33.4362H8.20799C8.47711 33.4377 8.73989 33.3554 8.95912 33.201L9.87477 32.567C10.0103 32.4759 10.1272 32.3602 10.2193 32.2261L10.2925 32.0992C10.372 31.9531 10.4218 31.793 10.439 31.6279H10.7508C10.9845 31.6272 11.2155 31.5778 11.4287 31.483L11.6303 31.374L12.092 31.0467ZM7.30956 30.1042C7.31307 30.0484 7.32558 29.9934 7.3466 29.9415H7.38364L7.43877 29.869L7.47581 29.8324L8.39146 28.9802L8.46468 28.9257H9.06765L9.10469 28.9623L9.14173 28.999H9.15982L9.19686 29.0535H9.21495V29.2163L9.47337 30.7749L9.58363 31.4455C9.58525 31.4697 9.58525 31.4939 9.58363 31.518V31.518V31.7174H9.56726L9.51213 31.7898H9.47509L9.41996 31.8444H9.39498L8.80838 32.2432L8.69812 32.3156L8.45951 32.4784L8.34926 32.5329L8.239 32.5696H7.87722L7.82209 32.515L7.78505 32.4784H7.76782V32.279L7.73078 32.0796L7.40087 30.2857V30.2491L7.30956 30.1042ZM6.59547 33.7473L6.48521 33.8018H6.1553L6.02696 33.7294L5.95374 33.6569H5.93565L5.88052 33.5845H5.86329L5.82625 33.4754L5.716 32.9496L5.51443 31.9347V31.8981C5.51183 31.874 5.51183 31.8497 5.51443 31.8256C5.51628 31.7887 5.52234 31.7521 5.53252 31.7165V31.7165L5.56956 31.6262H5.58765L5.62469 31.5896L5.66173 31.5529L6.24833 31.0092C6.29755 30.9647 6.35535 30.9306 6.41827 30.9087C6.48118 30.8869 6.5479 30.8779 6.61442 30.8823H6.81082L6.90213 30.9368H6.95725L6.99429 30.9734H7.01238L7.06751 31.0638H7.0856V31.1541L7.41551 32.8585C7.4213 32.9006 7.4213 32.9433 7.41551 32.9854V32.9854V33.04V33.0945L7.3423 33.2215H7.32765L7.29061 33.2581H7.27338L7.21826 33.2948L6.63165 33.7115L6.59547 33.7473ZM13.9603 29.8682V30.1579C13.9603 30.2304 13.9422 30.2849 13.9422 30.3573V30.4136C13.9242 30.5039 13.9052 30.5763 13.8871 30.6692C13.7411 31.3391 13.4875 31.9816 13.136 32.5721H13.1179L12.9715 32.8073L12.9344 32.8798L12.8974 32.9164L12.7509 33.1337L12.7139 33.1882L12.5123 33.4243V33.4609L12.2376 33.7166V33.7532L12.1824 33.8078L12.1092 33.8623H12.0911L12.036 33.899L11.7431 34.1546L11.6518 34.227L11.5605 34.2995L11.1944 34.5355L11.1393 34.5722L10.8094 34.7537H10.7542L10.4958 34.8628H10.3856L10.2391 34.9173H10.1702L10.0238 34.9718L9.87736 35.0085L9.63962 35.063H9.41996C9.09335 35.1243 8.76247 35.1608 8.43023 35.1721H7.96938L7.32765 35.1252H7.30956L6.87026 35.0707H8.31739L8.66194 35.0161L8.82647 34.9795H8.86351L8.99185 34.9429H9.25027L9.48801 34.8704H9.56726L9.78691 34.798H9.82395L9.9299 34.7596L10.0031 34.723L10.1496 34.6506L10.2228 34.6139L10.3873 34.5236L10.4424 34.487H10.4795L10.6259 34.3966L10.681 34.36L10.8094 34.2696L10.9007 34.1972L11.029 34.1069H11.0471L11.2116 33.9799H11.2297L11.2849 33.9433L11.4313 33.8163H11.4494L11.5045 33.7618L11.6329 33.6348L11.7612 33.5078L11.8163 33.4533L11.9628 33.2718L11.9998 33.2351L12.1282 33.0553L12.1652 33.0187L12.2935 32.8371L12.3487 32.7468L12.4589 32.584L12.496 32.5295C12.5873 32.3667 12.6795 32.1886 12.7708 32.0037C12.9145 31.6921 13.0368 31.3712 13.1368 31.0433C13.2197 30.7483 13.2629 30.4437 13.2652 30.1375V30.1375V29.956C13.2652 29.829 13.2471 29.6841 13.2471 29.5213V29.0501L13.192 28.7944L13.1188 28.5226V28.4536L13.0455 28.2175L13.0085 28.0905V28.0539L12.9172 27.8179L12.8069 27.5818V27.5452L12.6967 27.3279V27.2733L12.4219 26.7842L12.3849 26.7296L12.2565 26.5302H12.0911L12.0541 26.4757L11.9076 26.2584L11.8706 26.2038L11.669 25.9141L11.632 25.8775L11.1376 25.3159L11.1005 25.2792L10.8257 25.0074L10.9171 25.0619L10.9722 25.0986H10.9903L11.0635 25.1531L11.3012 25.3346L11.4296 25.4437L11.576 25.5707L11.7595 25.7334L11.8878 25.8425L11.943 25.8792L12.0532 25.9882L12.2729 26.2234L12.328 26.278L12.5115 26.4953L12.5485 26.5319L12.6217 26.6223L13.0068 27.1838V27.2205L13.1903 27.4923L13.3548 27.7642L13.4461 27.9269L13.5193 28.0539V28.0905L13.5563 28.1809L13.6115 28.3079V28.3684L13.7028 28.6036L13.7579 28.7484V28.7851L13.813 28.9666V29.0757L13.8501 29.3117V29.6014C13.8501 29.6918 13.8682 29.7642 13.8682 29.8571L13.9603 29.8682ZM14.6934 27.6023L14.5831 27.7113H14.2713L14.0129 27.6389L13.9397 27.6023H13.9026L13.8475 27.5656H13.8139L13.7407 27.5111L13.7036 27.4744L13.6485 27.402V27.3654L13.6115 27.3108V27.1838L13.5744 27.0935C13.5725 27.0694 13.5725 27.0452 13.5744 27.0211C13.5734 27.0089 13.5734 26.9966 13.5744 26.9844V26.9299L13.6115 26.8208L13.7217 26.549L13.7949 26.4041H13.813C13.9001 26.2175 13.9979 26.036 14.1059 25.8604L14.2162 25.6789L14.2894 25.5886H14.2188L14.1636 25.6252L14.0904 25.6619L13.944 25.7343L13.8708 25.7709L13.7975 25.8076H13.7424L13.3393 25.9703H13.2841L13.1377 26.0249H13.0645L12.9 26.0615H12.8629V26.0078L12.8259 25.9533V25.8971H12.8061V25.863V25.736C12.7521 25.56 12.7334 25.3754 12.7509 25.1923V25.1923L12.788 25.1557L12.8612 25.0832L12.9896 24.9742L13.1179 24.8651L14.3238 23.7573H14.6357L15.0388 27.4216L14.6934 27.6023ZM23.5975 28.1638C23.5992 28.1939 23.5992 28.2241 23.5975 28.2542V28.595L23.4141 28.7399L22.9558 29.1021C22.1725 29.7918 21.333 30.4163 20.4457 30.9692H18.6868C18.4517 30.8657 18.2352 30.7249 18.0459 30.5525H18.0278C17.1302 29.8639 15.6642 28.5771 15.628 28.5405C15.5406 28.3987 15.4961 28.2352 15.4996 28.0692L15.5367 23.4471L15.5737 23.0125V22.9221V22.8855C15.5743 22.8914 15.5743 22.8974 15.5737 22.9034C15.5556 23.1394 15.7201 25.0057 15.7572 25.6039V25.7854C15.8201 25.3569 15.9119 24.933 16.032 24.5165C16.1422 24.0998 16.2516 23.7368 16.2516 23.6831L16.2146 24.064L16.1775 24.5353V24.7526V24.825V24.8975L16.2146 24.952L16.2697 25.0244L16.361 25.1148H16.4894L16.5807 25.2417H16.5988L16.6358 25.2963V25.3687V25.4233C16.6535 25.4694 16.6597 25.5191 16.6539 25.5681C16.6539 25.5681 16.6169 26.1118 16.6169 26.2388V28.1468L16.8184 28.3283L16.8916 27.3858V27.2946H16.9097L17.001 27.3671L17.2758 27.5665L17.2388 28.0778V28.6393L17.2939 28.676H17.312L17.4955 28.7851V28.5294L17.5687 27.6772L17.8271 27.8042L17.9184 27.8409L18.0468 27.8775L18.0097 28.6751V29.0501L18.1562 29.1046L18.3207 29.1592V28.6479L18.3577 27.9772H18.468L18.6514 28.0139H18.7979L18.9994 28.0505H19.1097V28.8481H19.0916V29.229C19.3605 29.24 19.6298 29.234 19.8979 29.2112H20.1563L20.4147 29.1387H20.4879L20.7076 29.0663L20.6705 27.8886L20.7989 27.8519L20.9091 27.8153H20.9272L21.0737 27.7608H21.2571L21.3485 28.8686H21.3665L21.4768 28.814L21.5319 28.7774L21.6051 28.7408L21.5681 27.9798V27.6534L21.8059 27.4906H21.8791L21.9523 27.4361V27.6917L22.0074 28.5073L22.0445 28.4706L22.0815 28.434L22.1185 28.3973L22.2288 28.2883V26.4936C22.2313 26.4573 22.2313 26.4208 22.2288 26.3845C22.2313 26.2935 22.2252 26.2025 22.2107 26.1127V25.8229C22.2093 25.8107 22.2093 25.7985 22.2107 25.7863V25.7863V25.6959V25.5732L22.2477 25.5366L22.2848 25.4821V25.4454L22.3218 25.4088H22.3399L22.377 25.3542L22.4019 25.3193H22.42L22.4751 25.2469V25.2102V25.0287C22.493 24.9513 22.4991 24.8718 22.4932 24.7926L22.4381 24.1586V23.9234C22.4562 23.978 22.5845 24.4126 22.7129 24.8838L22.7499 25.0287L22.787 25.2102L22.824 25.373V25.4275L22.8611 25.5545V25.609L22.9162 25.8809V25.9175V25.9542V25.7181C22.9174 25.7059 22.9174 25.6936 22.9162 25.6815V25.609V25.4096V25.1011V24.2132C22.9343 24.0504 22.9343 23.9047 22.9532 23.7598V23.5604C22.9713 23.4155 22.9903 23.2886 22.9903 23.2195V23.1829V23.1445H23.0083L23.0454 23.1812L23.0824 23.3082C23.1083 23.4395 23.1207 23.5731 23.1195 23.707V25.0108L23.1565 28.382V28.4186M18.3534 25.6636L18.8117 25.7002L18.3534 25.6636ZM19.5077 25.7002L19.984 25.6278L19.5077 25.7002ZM20.6249 25.5195L20.7713 25.4829L20.6249 25.5195ZM31.2914 32.279L31.456 31.4268V31.351H31.4741V31.2785L31.5111 31.2419H31.5326L31.5697 31.2052L31.661 31.1507H32.0641L32.1554 31.1873H32.2467L32.8144 31.7131H32.8325L32.9057 31.8222L32.9427 31.8767V31.9313V32.0037V32.0404C32.9436 32.0526 32.9436 32.0648 32.9427 32.077L32.7386 33.0553L32.6473 33.5266H32.6292L32.5921 33.599L32.5551 33.6356H32.537L32.5 33.6723L32.3716 33.7447H32.0417L31.9504 33.6902L31.3474 33.3092H31.3293L31.2923 33.2726L31.2553 33.236V33.1993H31.2372V33.1627H31.2191L31.1821 33.0553V33.0042C31.1767 32.962 31.1767 32.9194 31.1821 32.8772L31.3285 32.1341L31.2914 32.279ZM31.3285 34.5449C31.146 34.6128 30.955 34.6555 30.7608 34.6719H30.5412C29.8168 34.6368 29.1175 34.3979 28.5255 33.9833C28.1703 33.7556 27.8334 33.5012 27.5177 33.2223L27.2248 32.8959C27.0453 32.6785 26.8916 32.4415 26.7666 32.1895L26.6563 31.9338L26.565 31.6782C26.5272 31.547 26.4967 31.4139 26.4737 31.2794L26.9501 31.5879C27.2185 31.756 27.5299 31.8447 27.8476 31.8435H28.5807C28.6035 32.0297 28.666 32.2089 28.7641 32.3693C28.8376 32.4918 28.9304 32.602 29.0389 32.6957V32.6957L29.1492 32.786L30.0648 33.42L30.1561 33.4746L30.4309 33.6015C30.5558 33.6387 30.6856 33.6571 30.816 33.6561H30.8892C30.9268 33.7471 30.976 33.833 31.0356 33.9117C31.1348 34.0432 31.2592 34.1541 31.4017 34.2381L31.3285 34.5449ZM29.753 29.1762C29.7606 29.1384 29.7731 29.1018 29.79 29.0671L29.8452 28.9768H29.8633L29.9916 28.8677L30.0648 28.8311H30.468L30.5231 28.8677H30.5782L30.6333 28.9044L31.4396 29.6654L31.5499 29.7744L31.6412 29.9014L31.6782 29.9738V30.0463C31.6795 30.0644 31.6795 30.0827 31.6782 30.1008V30.1008C31.6793 30.119 31.6793 30.1372 31.6782 30.1554V30.1554L31.3121 32.1494V32.1861H31.2914V32.2227H31.2742V32.2594H31.2372V32.296H31.2191L31.164 32.3506H31.145L31.0899 32.3872H31.0718L30.9254 32.4238H30.7419L30.6506 32.3872L30.5774 32.3506L30.0829 32.0097L29.9916 31.9551L29.6471 31.7199L29.5919 31.6833L29.4817 31.5563V31.5018H29.4636V31.4651V31.5376C29.4578 31.4955 29.4578 31.4527 29.4636 31.4106L29.753 29.1762ZM28.3748 25.4429C28.4306 25.272 28.4676 25.0958 28.485 24.9171V24.9171V24.8267V24.7364V24.664C28.4857 24.6518 28.4857 24.6395 28.485 24.6273V24.3717C28.4782 24.3163 28.4658 24.2618 28.448 24.2089V24.2089V24.1544L28.411 24.1177H28.3739V24.0811H28.5385L28.703 24.1356H28.7762L28.8313 24.1723L28.8684 24.2089L28.9054 24.2456H28.9605V24.2822H28.9786V24.3188H28.9967V24.4484C28.9988 24.4665 28.9988 24.4848 28.9967 24.5029V24.6299L28.9416 24.739L28.3739 25.4642H28.3455L28.3748 25.4429ZM28.2103 26.9836H28.6901L28.7271 27.0202H28.7641L28.8012 27.0569L28.8382 27.0935L29.1681 27.402L29.2413 27.4923H29.2594L29.2965 27.5648V27.6014L29.3335 27.6559V27.765V27.8196V27.892C29.3399 27.9523 29.3399 28.0132 29.3335 28.0735L29.2603 28.4357L29.1871 28.889V28.9794L29.0226 29.8852V30.1025L28.9855 30.1571V30.1937L28.9123 30.3028H28.8942L28.8572 30.3394L28.6556 30.4843H28.6375L28.5643 30.5209H27.9045L27.8313 30.4843H27.758L27.1904 30.1434H27.1723L27.0991 30.0889H27.1172L27.0801 30.0522V30.0156L27.025 29.9432H27.0069L26.9518 29.8528V29.4907C26.949 29.4544 26.949 29.4179 26.9518 29.3816V29.3816C27.0528 28.676 27.2613 27.9895 27.5703 27.3457V27.3457L27.6254 27.2367H27.6435L27.6986 27.1463H27.7167L27.8631 27.0373H27.8812L27.9363 27.0006H28.3024M26.8553 26.2396L26.9104 26.1851L26.9656 26.1306L27.0207 26.076L27.0577 26.0394H27.0758L27.1309 25.9848L27.1861 25.9303L27.2774 25.84L27.4789 25.6585L27.516 25.6218L27.6262 25.5315L27.6995 25.459L27.8829 25.3142L28.0664 25.1693H28.1396L28.2128 25.1148H28.2309L28.0113 25.3321L27.8278 25.5136L27.7365 25.6227L27.5703 25.8118L27.4789 25.9209L27.3325 26.0837L27.2412 26.2107L27.1129 26.3734L27.0216 26.5004L26.9113 26.6632L26.8381 26.7901L26.7468 26.935L26.6735 27.062L26.5822 27.2068L26.509 27.3338L26.4358 27.4787L26.3807 27.6057L26.3255 27.7505L26.2704 27.8775L26.2153 28.0045L26.1602 28.1315L26.105 28.2584L26.068 28.3854L26.031 28.5124L25.9939 28.6215L25.9569 28.7305L25.9198 28.8396L25.8828 28.9487V30.9607V31.0101L25.9198 31.1192L25.9931 31.3365C26.1127 31.6855 26.2596 32.0248 26.4324 32.3514L26.5607 32.5866V32.6233L26.6891 32.8406V32.8772L26.8174 33.0766L26.8544 33.1133L27.0009 33.2948L27.0379 33.3314L27.2024 33.5129L27.3127 33.622L27.3497 33.6586L27.441 33.749L27.5513 33.858L27.6426 33.9305L27.7529 34.0208L27.8442 34.0932L27.9544 34.1836L28.0647 34.256L28.156 34.3284L28.3576 34.4554H28.3946L28.4859 34.51L28.7245 34.6369H28.7796L29.0381 34.7639L29.1294 34.8006L29.2207 34.8372L29.3852 34.8917H29.4222L29.5506 34.9284H29.6057L29.7341 34.965H30.0088L30.3534 35.0375H30.4128L30.7427 35.0741H32.1899L31.7687 35.1286H31.7316L31.0907 35.1653H30.6325L29.8262 35.0928H29.5678L29.2379 35.0204H29.1276L28.9631 34.9838C28.5457 34.8584 28.1457 34.6817 27.7727 34.458H27.7546C27.5501 34.3383 27.3542 34.2051 27.168 34.0592L27.1129 34.0225L27.0396 33.968L26.9862 33.9075L26.9311 33.8529L26.876 33.7984L26.8028 33.726L26.7657 33.6893H26.7476L26.6227 33.5666H26.6046L26.5676 33.53L26.4763 33.4209L26.3479 33.2581L26.2928 33.1857L26.1989 33.0553C26.0719 32.8963 25.9614 32.725 25.869 32.544C25.6066 32.092 25.3976 31.6116 25.2462 31.1124C25.1945 30.9578 25.1516 30.8005 25.1179 30.6411C25.0998 30.532 25.0808 30.4417 25.0628 30.3326C25.0297 30.1107 25.0173 29.8862 25.0257 29.662C25.0477 29.2935 25.1214 28.9298 25.2445 28.5814V28.5269L25.2815 28.4365L25.3186 28.3641L25.3737 28.2371V28.1647L25.4288 28.0377L25.5753 27.7659H25.5934L25.6666 27.6389L25.7036 27.5844L25.7588 27.494L25.8475 27.3671L25.9207 27.2767L25.9758 27.2043L26.031 27.114L26.0861 27.0415L26.1593 26.9324L26.2144 26.86L26.2696 26.7876L26.3247 26.7151L26.453 26.5703L26.7278 26.2618M26.0318 24.8983L26.1421 24.9886H26.1602L26.1972 25.0253L26.2342 25.0619L26.2894 25.1165L26.3996 25.2068V25.4241C26.4026 25.4614 26.3964 25.4988 26.3815 25.5332V25.5332V25.5877V25.6414L26.3445 25.7505V25.8408V25.9133H26.3075L26.2704 25.9857H26.2153L26.0689 25.949H25.9956L25.8854 25.9124L25.7941 25.8758L25.7028 25.8391L25.6115 25.8025H25.5563L25.428 25.7479L25.3177 25.6934H25.2626L25.0791 25.6031H25.024L24.9137 25.5485H24.8224V25.5852L24.8595 25.6397L24.9146 25.73L24.9697 25.8204L25.1343 26.1101V26.1646L25.1894 26.2737H25.2075L25.2445 26.3462L25.2815 26.4186L25.4461 26.7808V26.8353C25.4492 26.8776 25.4492 26.92 25.4461 26.9623V26.9623V27.1438V27.1804L25.409 27.235L25.372 27.2716L25.2988 27.344L25.2075 27.4165H25.1704L25.0972 27.4531H24.9861L24.7277 27.5256H24.4348L24.3245 27.4165L24.2513 27.344L24.1411 27.2537L24.4339 24.716L24.5623 23.6081H24.8741L25.0386 23.753L26.0318 24.8983ZM24.7311 21.5271L24.6209 21.6175H24.5657L24.4925 21.6541H24.4374L24.3642 21.6907H23.3038L23.1935 21.6541L23.0833 21.6175H22.5156L22.4243 21.6541L22.3692 21.6907L22.3141 21.7274L22.277 21.764C22.1132 21.9839 22.0292 22.252 22.0384 22.525C22.0556 22.8131 21.9786 23.0991 21.8188 23.3405H21.799L21.7257 23.3951L21.7809 23.7215L21.836 24.0478C21.8541 24.1569 21.8541 24.2652 21.873 24.3742C21.8882 24.4823 21.8942 24.5915 21.8911 24.7006V24.7006L21.4518 24.8097L21.0125 24.9188L20.9393 24.2481L20.8661 23.5774H20.6077C20.6444 23.7831 20.6748 23.9944 20.699 24.2115C20.7171 24.4288 20.736 24.6282 20.7541 24.8455L20.4423 24.9L20.1305 24.9546L20.0572 23.5774L19.7273 23.632V23.8314H19.2329V23.5596H19.0494C19.0247 24.0305 18.9943 24.5018 18.9581 24.9733L18.5731 24.9009L18.188 24.8284C18.188 24.6657 18.2061 24.5021 18.2251 24.3171V23.8518L18.2621 23.6891V23.5263H18.1338C18.0729 23.949 18.018 24.372 17.9692 24.7952L17.0346 24.7407L17.1078 24.1245L17.1811 23.5084L17.0898 23.436L17.0527 23.3993H17.0346C16.9804 23.3166 16.943 23.2243 16.9244 23.1275V22.9826V22.8378C16.9063 22.4568 16.9244 22.058 16.6315 21.8586L16.5445 21.8066H15.9415L15.777 21.8433H15.6831L15.4247 21.9157H14.9303L14.8019 21.8791H14.7649L14.6365 21.8245H14.5995L14.4711 21.7521H14.4341L14.379 21.7155L14.3238 21.6788H14.2687L14.2136 21.6243H14.1585L14.0671 21.5152H14.0491L13.9939 21.4249V21.3882H13.9758C13.908 21.2812 13.8528 21.1668 13.8113 21.0473C13.7673 20.9239 13.7367 20.7962 13.72 20.6664C13.7008 20.4965 13.7008 20.325 13.72 20.1551C13.7333 20.0636 13.7517 19.9728 13.7751 19.8833V19.5739C13.7999 19.4932 13.8304 19.4143 13.8664 19.3379C13.9139 19.2335 13.9756 19.136 14.0499 19.0482L14.1231 18.9757L14.1964 18.9212L14.2334 18.8845H14.2704L14.3617 18.8479L14.4169 18.9928L14.472 19.1376L14.5633 19.3549L14.6003 19.4274C14.8338 19.9433 15.2512 20.3562 15.7727 20.5872L15.9191 20.6417L16.0837 20.6784H16.6151L16.7616 20.6417H16.8029L16.9132 20.6051H16.9683L17.0415 20.5684H17.1328L17.2431 20.5139H17.2982L17.3714 20.4772H17.61L17.7203 20.3869H17.7384L17.7935 20.3324L17.8305 20.2957H17.8676L17.9408 20.2233L17.9778 20.1688H17.9598L18.0089 20.1023L18.0459 20.0478L18.0829 20.0111L18.12 19.9745H18.1381L18.1932 19.902V19.8637L18.2483 19.7546L18.3034 19.6455V19.591L18.3586 19.4461L18.4137 19.2646L18.4688 19.0473V18.9749C18.5204 18.6877 18.5449 18.3964 18.5421 18.1048C18.5421 18.0202 18.5421 17.9349 18.5421 17.8491V17.1785L18.4869 16.6893C18.963 16.4962 19.4454 16.3209 19.9341 16.1636L20.7033 15.9462H20.7946L21.2528 15.8193L22.2236 15.5832H22.2417L22.9928 15.4384L24.0558 15.2756H24.4003L24.5287 15.3301L24.6019 15.3847L24.639 15.4213L24.676 15.458L24.7311 15.5125L24.8224 15.6216L24.9137 15.7485L24.987 15.8755C25.1396 16.1787 25.1787 16.5257 25.0972 16.8547V16.8913H24.8776C24.8316 16.8742 24.7928 16.8424 24.7673 16.801C24.6282 16.5995 24.5345 16.3708 24.4925 16.1303H24.4374L24.4003 16.167C24.3647 16.2139 24.3453 16.271 24.3452 16.3297C24.3395 16.3778 24.3395 16.4265 24.3452 16.4746C24.4143 16.9712 24.5906 17.4472 24.8621 17.8705C24.9541 17.9923 25.0281 18.1266 25.0817 18.2693C25.1133 18.4303 25.1257 18.5945 25.1187 18.7584V18.8487C25.1299 18.9634 25.1483 19.0773 25.1739 19.1896C25.2736 19.4961 25.3411 19.8119 25.3754 20.1321C25.3754 20.1503 25.3754 20.1685 25.3754 20.1867C25.3747 20.4105 25.3252 20.6315 25.2304 20.8348C25.1355 21.038 24.9976 21.2186 24.8259 21.3644M13.9233 16.7464V16.6016V16.438C13.9267 16.3894 13.9327 16.341 13.9414 16.2931V16.2931L13.9784 16.1482C14.0179 15.955 14.1134 15.7773 14.2532 15.6369L14.2902 15.6003L14.4186 15.4733L14.4556 15.4367L14.5108 15.4L14.5659 15.3634L14.6029 15.3267L14.7313 15.2364L14.7864 15.1997L14.9148 15.1273L14.988 15.0907L15.0431 15.054H15.0801L15.1904 14.9995L15.2817 14.9449L15.373 14.9083L15.4281 14.8717L15.5014 14.835L15.5746 14.7984L15.6478 14.7617H15.7029L15.8494 14.7072H15.8864L16.2895 14.5802H16.3447C17.3891 14.3273 18.4571 14.1816 19.5318 14.1456H20.3346L20.9212 14.2001H21.2873L21.4889 14.2368H21.799L22.2934 14.3459H22.3304L22.88 14.4907C21.8722 14.708 20.9565 14.9441 20.1132 15.1972H20.0951L19.7652 15.3063H19.7316L19.4198 15.4153H19.3871L19.0942 15.5057H19.0391L18.7643 15.596H18.7092L18.4507 15.6863H18.3956L18.1372 15.7767H18.0821L17.8443 15.867H17.7892L17.5506 15.9761H17.5136L17.2758 16.0852H17.2388L17.0002 16.1942H16.9821L16.7237 16.3033C15.765 16.7488 14.851 17.283 13.9939 17.8986V17.8986V17.3728C13.9979 17.3058 13.9918 17.2386 13.9758 17.1734V17.1734V17.1009V16.9561V16.9194V16.8291H13.9207L13.9233 16.7464ZM22.681 13.0489L22.8645 13.1392L23.2676 13.3565L23.4321 13.4468L23.5967 13.5559L23.7802 13.6829L23.8904 13.7553H23.9274L23.9826 13.792L24.0196 13.8286L24.1109 13.901C24.4229 14.1328 24.7114 14.3939 24.9723 14.6808H24.9861L25.2247 14.9893H25.2445V15.0259V15.0625H25.2626V15.0992L24.6596 14.6646C24.3273 14.4448 23.9782 14.2508 23.6156 14.0843H23.5975L23.4692 14.0297L23.2108 13.9206L22.936 13.8116L22.6431 13.7025H22.5742L22.2813 13.6121L22.153 13.5755L21.9695 13.521L21.7111 13.4664H21.6181L21.4346 13.4298L21.1417 13.3931H17.6962L17.5127 13.4298H17.1681L16.9847 13.4664H16.6728L16.5083 13.5031H16.2499L16.1035 13.5397H15.8657L15.7193 13.5764H15.5358L15.3894 13.9573H15.261L15.1327 13.9939H15.0595L14.8398 14.0664L14.6753 14.1567H14.6021C14.4816 14.2116 14.3459 14.2245 14.217 14.1933L14.1257 14.1567L14.1808 14.1021C14.3824 13.9054 14.6034 13.7292 14.8407 13.5764H14.8777L14.9148 13.5397L15.025 13.4673H15.062L15.2085 13.377H15.2455L15.3368 13.3224H15.3739L15.6125 13.1954L15.7589 13.123L15.8873 13.0685L16.2172 12.9236H15.6306L15.5203 12.9602H15.4652L15.3187 13.0148H15.3007L15.1361 13.0872H15.1146L14.9862 13.1596H14.9682L14.8398 13.2321L14.7296 13.2866H14.6925L14.6012 13.3412H14.5831L14.4367 13.4315H14.3816L14.3083 13.4681C14.2057 13.5272 14.0944 13.5701 13.9784 13.5951H13.9233C13.9218 13.5892 13.9218 13.5831 13.9233 13.5772H13.9414C13.9776 13.5124 14.0206 13.4516 14.0697 13.3957V13.3957L14.2532 13.2329H14.2902L14.7666 12.8921H14.7847L15.0431 12.7472H15.0612L15.6642 12.512H15.7374L15.8657 12.4575L15.9209 12.4208L16.0673 12.3305L16.1586 12.2759L16.2689 12.2214L16.3602 12.1669L16.4704 12.1123L16.5617 12.0757L16.672 12.0211L16.7633 11.9845L16.8735 11.93L16.9649 11.8933L17.0751 11.8567L17.2215 11.7842H17.2586L17.753 11.6394H17.8443C19.3027 11.3431 20.8177 11.4948 22.1866 12.074V12.074L23.0109 12.4362H23.029L23.2676 12.5631H23.2857L23.5235 12.6901L23.7431 12.8171H23.7802L23.9817 12.944H24.0188L24.2022 13.0531H24.2203L24.3848 13.1622L24.4219 13.1988L24.5683 13.3079L24.6054 13.3446L24.7156 13.4349L24.7527 13.4715L24.8629 13.5619L24.9 13.5985L25.0102 13.6888L25.0472 13.7255L25.1205 13.78L25.1575 13.8167L25.2307 13.8712L25.2678 13.9079L25.341 13.9624H25.3591L25.4142 13.999H25.4323L25.4874 14.0357L25.5425 14.0902L25.198 13.8729H25.1584L24.8138 13.6914L24.5554 13.5644L24.2108 13.4017H24.1738L23.862 13.2747C23.3506 13.0756 22.8237 12.918 22.2865 12.8034L22.7077 13.0028M18.8702 4.94641H18.9254L18.9624 4.98306H19.2742L19.3113 5.0197H19.2932L19.0554 5.11003H18.9822L18.872 5.14667H18.7987L18.6704 5.20121H18.6118L18.5386 5.23786L18.4654 5.2745H18.4103L18.337 5.31114L18.2819 5.34779H18.2449L18.1717 5.42022V4.50754H18.0089L17.7341 4.56208H17.716L17.4576 4.68906H17.4395L17.3663 4.7436L17.3111 4.79814L17.2379 4.87057L17.1277 4.99754H17.1096C16.9919 5.14154 16.8935 5.29993 16.8167 5.46879L16.7616 5.57787L16.7245 5.6682V5.74064L16.6875 5.84972V6.08491C16.6875 6.13945 16.6694 6.19399 16.6694 6.26643V6.50163C16.6694 6.57406 16.6875 6.6286 16.6875 6.70104V6.73768L16.7245 6.91919L16.7797 7.08196H16.8029L16.8761 7.22683L16.9132 7.29926L16.9683 7.37169L17.0053 7.42623L17.0786 7.51656H17.0415L17.2612 7.69808L17.3163 7.73472L17.5549 7.86169L17.6833 7.91623H17.7203L17.8667 7.95288L18.0502 7.98952H18.5085L18.8745 7.95288H18.9297L19.0761 7.91623H19.1287L19.22 7.87959L19.2932 7.84295L19.3664 7.8063L19.4215 7.76966L19.4767 7.73302L19.5499 7.69637H19.5869V5.88892H19.2424V5.76194H19.7316V4.98306C19.7343 4.96396 19.7405 4.94549 19.7497 4.92852H20.0943V5.76194H20.5706V5.88892H20.2588V6.07043L20.3691 6.10707C20.5724 6.16411 20.7571 6.27277 20.9049 6.42226C21.0527 6.57174 21.1584 6.75686 21.2115 6.95924C21.2841 6.80997 21.3833 6.67487 21.5044 6.56043L21.5595 6.50589H21.5776C21.7401 6.35483 21.9182 6.22115 22.1091 6.10707L22.4941 5.90766L22.6776 5.81733L23.0075 5.65457C22.9649 5.70625 22.9394 5.7696 22.9343 5.83608C22.925 5.87185 22.919 5.90835 22.9162 5.94516V8.58945L23.1358 8.39004L23.1729 8.5528L23.1177 8.60734L22.9162 8.80675L22.7878 8.91583L22.5294 9.15103L22.4743 9.20557H22.3279L22.2546 9.15103H22.2176C22.2156 9.1329 22.2156 9.11462 22.2176 9.09649V9.09649V6.38232L22.0531 6.4914H22.0401L21.9669 6.54594H21.9299L21.8748 6.60048L21.7645 6.69081L21.7275 6.72745L21.6904 6.7641L21.6534 6.81863L21.5983 6.87317L21.5612 6.92771L21.5061 7.00015V7.03679L21.3597 7.29244V7.31971L21.3226 7.42879L21.2856 7.55576V7.75517C21.2774 7.688 21.2651 7.6214 21.2485 7.55576V7.55576C21.205 7.33369 21.1163 7.1227 20.9878 6.93562C20.8592 6.74854 20.6936 6.58928 20.5008 6.46754V6.46754L20.3544 6.39511V7.44754L20.1528 7.53787L20.3544 7.71938V8.73432L20.3174 8.87919L20.2803 8.98827V9.02406L20.2252 9.13313L20.0969 9.35044H20.0762L20.0211 9.42287H20.003L19.9478 9.47741H19.9297L19.8927 9.51406H19.8781L19.841 9.5507H19.8229L19.7859 9.58734H19.7489V8.20938L19.5843 8.31846H19.5662L19.2217 8.49997H19.2036L19.002 8.57241L18.6118 8.68319L18.4103 8.71983H17.2215L17.0932 8.68319L16.9829 8.64654L16.8916 8.6099L16.7633 8.55536H16.653L16.5617 8.50082L16.4704 8.44628L16.3791 8.37385H16.361L16.324 8.33721L16.2508 8.28267L16.1775 8.21023H16.1595L16.1043 8.15569L16.013 8.04661H15.9949L15.9415 7.97333V7.93754L15.9045 7.8651L15.8674 7.81056V7.77392L15.8123 7.66484V7.62905L15.7753 7.53872L15.7382 7.42964L15.7003 7.31971V7.1399V7.06406V6.91919C15.6988 6.91332 15.6988 6.90717 15.7003 6.9013V6.28773L15.7374 6.16076V6.10707L15.7925 5.94431L15.8295 5.88977L15.8847 5.76279V5.68951L15.9398 5.59918H15.9579L16.013 5.52674V5.4901L16.0501 5.45346L16.1224 5.35972L16.1775 5.30518L16.2146 5.26853L16.2697 5.23189L16.38 5.14156H16.4532L16.5445 5.06913H16.5626L16.6177 5.03248L16.7461 4.96005L16.8193 4.9234L16.9295 4.86887L17.0028 4.83222L17.1311 4.77768H17.2043L17.3878 4.72314H17.4059L17.6255 4.6865H18.5412L18.6695 4.72314H18.7247L18.853 4.75979H18.9081V4.79643V4.90551M33.9299 15.8414L33.7834 15.7869H33.7654L32.7946 15.3702L32.6111 15.2799L32.4095 15.1708C32.0796 15.008 31.7316 14.8086 31.3655 14.5904L31.2372 14.5001L30.9788 14.3373L30.9297 14.299L30.8194 14.2266L30.7092 14.1541L30.6178 14.0996L30.5265 14.0451L30.4163 13.9547L30.2328 13.8099L30.1225 13.7374L29.9029 13.5747L29.8297 13.5201L29.2431 13.0088L29.1879 12.9722L28.9502 12.7549L28.877 12.6824L28.6573 12.4651L28.5841 12.3927L28.3825 12.1754L28.3093 12.103L28.1078 11.8678L28.0526 11.7953L27.833 11.5056L27.7959 11.4689C27.6314 11.2516 27.466 11.0156 27.3015 10.7804L27.2645 10.7079L27.081 10.4182L27.0078 10.2912L26.8794 10.0356L26.8062 9.89072L26.7511 9.78164L26.6959 9.67256L26.6046 9.47315L26.5495 9.34618L26.4944 9.2371L26.4031 9.0019L26.3118 8.7846L26.2205 8.49486L26.1653 8.29545L26.0551 7.93328L26.018 7.78841C25.981 7.60689 25.9267 7.44754 25.8897 7.26262L25.7984 6.8459V6.75898L25.7613 6.61411L25.7243 6.50504L25.6855 6.38232L25.6485 6.25535L25.6123 6.12667L25.5753 5.9997L25.5391 5.87102L25.484 5.72615L25.4469 5.59918L25.3918 5.45431L25.3367 5.32733L25.2815 5.20036L25.2264 5.07339L25.1713 4.94641L25.1162 4.81944L25.061 4.69247L24.9861 4.56634L24.931 4.45727L24.8577 4.3124L24.8026 4.22207L24.7113 4.0772L24.6562 3.98687L24.5494 3.82581L24.5123 3.77127C24.153 3.25762 23.7069 2.80906 23.1935 2.44529L23.1022 2.39075L22.644 2.12146H22.6069L22.4019 2.01068L22.3468 1.97404L22.0763 1.86581L21.9299 1.81127L21.4355 1.6664L21.252 1.61016L21.1236 1.57352L20.904 1.53687L20.4095 1.46444L20.0762 1.43035H18.9219L18.5774 1.467L18.0829 1.53943L17.8633 1.57607L17.7349 1.61272L17.5515 1.66726L17.3499 1.72179H17.3129L17.0751 1.81213H17.02L16.8891 1.86581L16.4497 2.06522C16.1855 2.20637 15.9342 2.37004 15.6986 2.55437L15.479 2.73588L15.2774 2.93529L15.2404 2.97193L15.1301 3.08101L14.9837 3.22588L14.9285 3.29831L14.8002 3.46108L14.7451 3.53351L14.6167 3.71503L14.5797 3.76956L14.4151 3.98687H14.3996C14.2429 4.23781 14.1022 4.49823 13.9784 4.7666V4.82114L13.8871 5.03845L13.8501 5.11088L13.7398 5.32819L13.7028 5.41852L13.6296 5.60003L13.5925 5.69036L13.5374 5.87187L13.5004 5.9622L13.4435 6.12667L13.4065 6.23575L13.3513 6.39851L13.3143 6.50759L13.2773 6.67036V6.76069L13.2402 6.9422V7.03253L13.1851 7.24983V7.28648L13.13 7.52168L13.0748 7.75688V7.79352L13.0016 7.97503L12.9284 8.24688L12.8552 8.46418L12.782 8.69938V8.73602L12.7087 8.91753L12.6355 9.09905V9.18938L12.4891 9.53025L12.434 9.63932L12.3607 9.78419L12.3056 9.91117V9.94781L12.1411 10.2563L12.086 10.3466H12.0679L12.0308 10.4191L11.9757 10.5094L11.9387 10.5818L11.7371 10.8903L11.6458 11.0352L11.408 11.3616L11.371 11.4161H11.3589L11.2857 11.5064L11.2487 11.561L11.1203 11.7237H11.1023L11.0471 11.7962L10.992 11.8686L10.9007 11.9777L10.7542 12.1592L10.7172 12.1958L10.5708 12.3407H10.4424L10.2779 12.5035L10.1315 12.6483L9.96694 12.8111L9.87564 12.9014L9.8386 12.9381H9.80156L9.76452 12.9747L9.67321 13.0651L9.52677 13.192L9.47164 13.2466L9.32521 13.3735L9.14173 13.5184L9.06852 13.573L8.95826 13.6633L8.86695 13.7357H8.79201L8.71879 13.7903L8.66366 13.8448L8.57236 13.8993L8.51723 13.936L8.38888 14.0084L8.20541 14.1354L8.1141 14.2078L8.05897 14.2445L7.98575 14.299L7.93062 14.3356H7.87722L7.6188 14.4984L7.50854 14.5529L7.41724 14.6075L7.32593 14.662H7.30956L7.16313 14.7524H7.12609L7.05287 14.789L6.88834 14.8793L6.83322 14.916H6.72468L6.52312 15.025L6.46799 15.0617H6.44818L6.37496 15.0983H6.26556L6.08209 15.1887H6.064L5.93565 15.2432L5.84434 15.2799H5.8073L5.66087 15.3344L5.55061 15.3889L5.18452 15.5338H5.12939L5.03808 15.5704L5.4593 15.3889L5.93565 15.1716L6.12171 15.0745L6.72468 14.7481H6.76172L6.89007 14.6757L7.31129 14.42H7.32765L7.41896 14.3655L7.69374 14.184L7.804 14.1115L8.04174 13.9488L8.17009 13.8584H8.18904L8.22608 13.8218L8.37251 13.7127L8.55599 13.5678L8.77564 13.3863H8.79201L9.08488 13.1503L9.28645 12.9875L9.34158 13.2227L9.3967 13.1861L9.63445 12.9688L9.68958 12.9142L9.98245 12.6245L10.2409 12.3526V12.316L10.4993 12.0263H10.5148L10.7344 11.7706L10.8077 11.6982L11.0661 11.3718L11.3245 11.0096L11.5622 10.6474H11.5803C11.9009 10.1339 12.1767 9.5942 12.4047 9.03428V8.97974L12.533 8.63887L12.5701 8.54854C12.7335 8.06347 12.8613 7.56735 12.9525 7.06406L13.0076 6.79222V6.75898L13.0628 6.54168L13.0998 6.4326L13.1368 6.28773L13.1739 6.14286L13.2109 6.01589L13.248 5.87102L13.285 5.76194L13.3401 5.59918L13.3772 5.4901L13.4323 5.32733L13.4693 5.237L13.5426 5.05549L13.5796 4.98306L13.7441 4.62088L13.7812 4.53055L13.8544 4.38568L13.9095 4.25871L13.9827 4.13174L14.0559 4.00476L14.1292 3.87779L14.2024 3.75082L14.2756 3.62384L14.3669 3.49687L14.4582 3.38779L14.5495 3.26082L14.6408 3.15174L14.7511 3.02477L14.8424 2.93444L14.9888 2.78957L15.062 2.71713L15.1723 2.6268L15.2455 2.55437L15.3187 2.49983L15.392 2.42739L15.4471 2.39075L15.74 2.17345H15.7581L15.9967 2.02858L16.0518 1.99193L16.2861 1.86581L16.5445 1.73884H16.5815L16.84 1.62976H16.858L17.1475 1.52494H17.1845L17.4593 1.45251H17.492L17.8038 1.38007H17.8219L18.1338 1.32554H18.1889L18.5334 1.28889H20.4638L20.8084 1.32554H20.8635L21.1753 1.38007H21.196L21.5259 1.45251H21.5629L21.8377 1.54284H21.8748L22.1676 1.65192H22.1857L22.4441 1.76099H22.4812L22.7396 1.88797L22.9782 2.01494L23.0333 2.05159L23.253 2.19645H23.2633L23.3736 2.28679L23.4838 2.35922H23.5217L23.595 2.41376L23.7414 2.52284L23.943 2.70435L24.0343 2.81343L24.1075 2.88586L24.1445 2.92251V2.95915L24.2177 3.03158L24.291 3.12191H24.309L24.4925 3.33922L24.657 3.57527L24.7303 3.6656L24.8216 3.79257L24.968 4.02777L25.0231 4.13685L25.0963 4.26382L25.1334 4.31836L25.2798 4.59021L25.353 4.75297L25.3901 4.86205L25.4452 5.00692V5.06146L25.6287 5.5506L25.6657 5.67758L25.7389 5.89488V5.93152C25.7941 6.13093 25.8492 6.34824 25.9035 6.54764L25.9405 6.71041L25.9775 6.85528L26.0146 7.00015C26.0516 7.19956 26.1059 7.39896 26.1429 7.58048V7.68956L26.2713 8.12416L26.3626 8.43265L26.509 8.81357V8.86811L26.6735 9.23028V9.33936C26.8575 9.73216 27.0655 10.1135 27.2963 10.4813L27.5349 10.8622C27.6995 11.0974 27.8648 11.3334 28.0518 11.5686L28.2904 11.8405L28.3817 11.9308L28.6203 12.2027L29.1371 12.7284L29.2836 12.8733L29.4481 13.0182L29.5945 13.1452L29.759 13.29L29.8874 13.3991L30.0709 13.544L30.1992 13.6343L30.3827 13.7792L30.4929 13.8695L30.6945 14.0144L30.7858 14.0868L31.0055 14.2317L31.0787 14.2683L31.8479 14.7575L31.8849 14.7941L32.0495 14.8844L32.1778 14.9569L32.3243 15.0293L32.4707 15.1017L32.599 15.1563L32.7636 15.2466L32.8549 15.3012L33.0194 15.3915L33.0926 15.4281L33.2761 15.5185L33.3312 15.5551L33.5147 15.6454H33.5517L33.7533 15.7358L33.8265 15.7724M32.7946 12.7225L33.6189 13.9547L32.8678 13.1937L32.6662 12.9943L31.2019 12.8128L32.7946 12.7225ZM33.0142 9.73221L33.1055 10.1668L32.941 10.3117L31.6188 11.4894L31.5636 11.5439H29.753L29.6798 11.5073L29.7168 11.4527L30.0614 11.0539L30.1165 10.9815L30.263 10.8187L30.5214 10.5102L31.1812 9.76715L31.5662 9.35044L31.9513 8.91583H31.9694L32.3544 8.49912L32.4276 8.42668L32.7205 8.1182L32.8488 7.97333L33.1607 7.66484L33.3803 7.44754L33.4716 7.35721L33.8928 6.9405H33.9299L34.5527 6.34398L34.8274 6.08832L34.9187 5.99799L35.1022 5.83523L35.1393 5.79859L35.1022 5.76194H35.1754L35.1384 5.7074H35.1203L34.9007 5.88892L34.7723 5.99799L34.5346 6.2153L34.4614 6.28773L34.1314 6.57747L34.0212 6.6678L33.5819 7.04872L32.9789 7.57451L32.8686 7.66484L32.3923 8.08155L32.3553 8.1182L31.6774 8.67978L31.5128 8.82465L31.4026 8.91498L31.1441 9.11439L31.0339 9.20472L30.8142 9.38623L30.6678 9.49531C30.2383 9.85019 29.7857 10.1767 29.3128 10.4727H29.293L29.1828 10.5273H29.1647L29.0915 10.5639L29.0544 10.5273L29.0174 10.4906H28.9623V10.454H28.9485V10.4174H28.9304V10.3628V10.3262V10.2716V10.235C28.9279 10.2049 28.9279 10.1747 28.9304 10.1447V10.108L29.9563 9.20216L32.5026 6.93624L38.3634 1.72009V2.08226V2.19134V2.30042V2.42739V2.97364L38.2902 3.33581V3.42614C38.2353 3.66487 38.168 3.90067 38.0887 4.13259L38.0335 4.27746V4.34989L37.9965 4.47687L37.9414 4.65838L37.9069 4.72911L37.7966 5.01885L37.6683 5.32733V5.2549L37.54 5.52674L37.5029 5.59918L37.3746 5.85483L37.3375 5.92726L37.173 6.23575H36.8284L36.6269 6.57662L36.5718 6.64905L36.4072 6.9047L36.334 7.01378L36.1695 7.24898L36.0782 7.37596L35.8947 7.61116L35.8034 7.72023L35.5286 8.0611L35.4373 8.15143L35.2176 8.40708L35.0893 8.55195L34.8877 8.76926L34.7413 8.91413L34.5216 9.13143L34.3752 9.2763L34.0634 9.58479L34.0083 9.63932L33.239 9.54899L33.0004 9.51235L33.0142 9.73221Z" fill="black"/>
<path d="M20.4466 21.5905L20.3734 21.5181H20.3363L20.2812 21.4457V21.409L20.1899 21.282H20.1528V21.1917H20.1348V21.029H20.1167V20.9923C20.1199 20.9381 20.1199 20.8838 20.1167 20.8295V20.8295C20.1131 20.7869 20.107 20.7445 20.0986 20.7026V20.4307L20.0434 20.3583L20.0064 20.3217L19.9513 20.2671L19.9142 20.2305H19.2914L19.2182 20.285H19.1812L19.1442 20.3396H19.1261L19.089 20.3762V20.8875C19.0865 20.9358 19.0865 20.9841 19.089 21.0324C19.1031 21.1509 19.0774 21.2706 19.0158 21.3732C18.9585 21.4917 18.8845 21.6016 18.7962 21.6996H18.7781L18.7048 21.7721L18.6316 21.8811L18.5946 21.9178L18.5395 21.9902L18.5024 22.0447L18.4473 22.1351V22.1717L18.3922 22.2987V22.516C18.3901 22.5461 18.3901 22.5762 18.3922 22.6063V22.7154V22.7699H18.4473V22.8066H19.6748L20.133 22.9515H20.848L20.885 22.9148H20.9031L20.9401 22.8782H20.9582L20.9953 22.8415C21.0163 22.7958 21.0289 22.7468 21.0323 22.6967C21.0423 22.5323 21.0041 22.3687 20.9221 22.2254C20.8446 22.0834 20.7525 21.9498 20.6473 21.8266" fill="black"/>
<path d="M24.6056 19.1765L24.5685 19.0137C24.3303 18.1614 23.8158 17.4099 23.1042 16.8748C23.1042 16.8748 22.7191 16.4939 21.657 17.1304C21.7431 17.1738 21.8182 17.2359 21.8767 17.3119V17.3486C21.8853 17.3658 21.8914 17.3842 21.8948 17.4031C21.8927 17.4495 21.8801 17.4948 21.8579 17.5357C21.8356 17.5765 21.8044 17.6119 21.7664 17.6392L21.7113 17.6758H20.3925L20.3012 17.6392L20.2099 17.5846C20.1802 17.567 20.1461 17.558 20.1114 17.5588C20.0768 17.5596 20.0431 17.5701 20.0143 17.5892C19.9855 17.6082 19.9628 17.6349 19.9487 17.6663C19.9347 17.6976 19.93 17.7323 19.9351 17.7661C20.2002 18.2652 20.3502 18.8161 20.3744 19.3793C20.3722 19.4034 20.3722 19.4277 20.3744 19.4517C20.3757 19.4639 20.3757 19.4762 20.3744 19.4884C20.4116 19.7169 20.5131 19.9304 20.6673 20.1045C21.0509 20.5329 21.5779 20.8098 22.1515 20.8842L22.2066 20.7394C22.0192 20.6479 21.8412 20.5386 21.6751 20.413C21.5132 20.2906 21.3869 20.128 21.309 19.9417L21.6536 20.1233H21.8353L22.0731 20.1957H23.472L23.5452 20.159H23.6554L23.7106 20.1224L23.7838 20.0858H23.8389L23.9121 20.0312H23.9673L24.0405 19.9767H24.0775L24.1507 19.9042L24.2421 19.8139L24.205 19.9409C24.1552 20.0931 24.0876 20.2389 24.0034 20.3755V20.3755L23.9483 20.4658V20.5025L23.9113 20.557L23.8742 20.5937L23.801 20.684L23.7459 20.7385L23.6727 20.811L23.7097 20.8655L23.7648 20.9379C23.8923 20.8375 24.0079 20.7232 24.1094 20.5971L24.2007 20.488L24.2558 20.3977L24.2929 20.3431L24.3299 20.2707V20.234L24.385 20.1437V20.0892L24.4221 20.0167V19.364C24.4222 19.3151 24.4161 19.2665 24.404 19.2191V19.2191" fill="black"/>
</g>
<defs>
<clipPath id="clip0_536_342">
<rect width="134" height="36" fill="white"/>
</clipPath>
</defs>
</svg>
