<svg width="139" height="30" viewBox="0 0 139 30" fill="none" xmlns="http://www.w3.org/2000/svg">
<g clip-path="url(#clip0_536_294)">
<path d="M137.315 5.36536C136.981 5.36536 136.655 5.26725 136.378 5.08343C136.101 4.89961 135.885 4.63833 135.758 4.33265C135.63 4.02696 135.597 3.69059 135.662 3.36608C135.727 3.04156 135.887 2.74348 136.123 2.50952C136.359 2.27556 136.659 2.11623 136.986 2.05168C137.313 1.98713 137.652 2.02026 137.959 2.14688C138.267 2.27349 138.531 2.48792 138.716 2.76303C138.901 3.03814 139 3.36158 139 3.69245C139 4.13613 138.822 4.56165 138.506 4.87538C138.19 5.18911 137.762 5.36536 137.315 5.36536ZM137.315 2.27047C137.028 2.26881 136.748 2.35154 136.509 2.50815C136.271 2.66477 136.084 2.88823 135.974 3.15021C135.863 3.41218 135.833 3.70088 135.888 3.97969C135.943 4.25851 136.08 4.5149 136.281 4.71636C136.483 4.91782 136.741 5.05528 137.021 5.11131C137.302 5.16735 137.593 5.13943 137.857 5.03111C138.122 4.92278 138.348 4.73892 138.507 4.50284C138.666 4.26675 138.751 3.98907 138.751 3.705C138.751 3.32598 138.6 2.96236 138.331 2.69358C138.062 2.42479 137.696 2.27268 137.315 2.27047" fill="black"/>
<path d="M138.031 3.62588C138.118 3.51003 138.16 3.3663 138.147 3.22208C138.135 3.07786 138.07 2.94322 137.964 2.84379C137.901 2.78676 137.827 2.74263 137.747 2.71392C137.666 2.68522 137.581 2.6725 137.496 2.6765H136.7V4.73H137.016V3.86427H137.407L137.829 4.73H138.195L137.715 3.81827C137.836 3.79289 137.944 3.72449 138.018 3.62588M137.016 3.60079V2.95671H137.479C137.573 2.95221 137.665 2.98365 137.736 3.04454C137.769 3.0737 137.794 3.11007 137.81 3.15074C137.827 3.1914 137.833 3.23524 137.829 3.27875C137.832 3.32355 137.824 3.36844 137.807 3.40982C137.789 3.45121 137.762 3.48795 137.728 3.51714C137.658 3.57488 137.57 3.60472 137.479 3.60079H137.016Z" fill="black"/>
<path d="M46.7268 8.55001V8.46218C47.898 7.66755 48.3741 6.64289 48.3741 5.11635C48.3741 2.34768 46.4782 0.808594 43.3185 0.808594H36.6198C35.891 0.808594 35.6382 1.05535 35.6382 1.78307V16.0029C35.6382 16.7013 35.891 16.9481 36.6198 16.9481H43.4112C46.6383 16.9481 49.0397 15.3881 49.0397 12.4563C49.0397 10.4864 48.1971 9.1899 46.7268 8.5542M40.1714 4.47228H42.3874C43.3016 4.47228 43.7777 4.85705 43.7777 5.72697C43.7777 6.59688 43.3016 6.94401 42.3874 6.94401H40.1714V4.47228ZM42.8214 13.2802H40.1714V10.6161H42.8214C43.7988 10.6161 44.2833 11.0343 44.2833 11.9335C44.2833 12.8327 43.7988 13.276 42.8214 13.276" fill="black"/>
<path d="M61.1018 11.9642C60.9301 11.6198 60.724 11.2933 60.4867 10.9897C62.0413 10.1282 62.9513 8.53471 62.9513 6.31809C62.9513 2.80079 60.7185 0.847656 57.2638 0.847656H50.7463C50.0132 0.847656 49.7646 1.09859 49.7646 1.80122V16.021C49.7646 16.7194 50.0132 16.9662 50.7463 16.9662H53.3331C54.0619 16.9662 54.2936 16.7194 54.2936 16.021V11.592H54.816C55.7555 11.592 56.1431 11.9767 56.5307 12.7505L57.9926 15.8579C58.3592 16.6525 58.8858 16.9453 60.0991 16.9453H62.5638C63.3179 16.9453 63.478 16.4476 63.1578 15.837L61.1018 11.9642ZM56.7624 7.81117H54.281V4.80829H56.7498C56.9511 4.7869 57.1547 4.81025 57.3458 4.87663C57.537 4.94301 57.7108 5.05077 57.8548 5.1921C57.9988 5.33343 58.1093 5.50478 58.1783 5.69374C58.2473 5.88271 58.2731 6.08454 58.2538 6.28463C58.2736 6.48671 58.2485 6.69062 58.1802 6.88201C58.112 7.07339 58.0023 7.2476 57.8589 7.39235C57.7155 7.5371 57.5419 7.64887 57.3503 7.71979C57.1586 7.7907 56.9537 7.81904 56.7498 7.8028" fill="black"/>
<path d="M70.745 0.5C66.216 0.5 63.7051 2.92573 63.7051 6.8529V10.9348C63.7051 14.862 66.2329 17.2877 70.745 17.2877C75.2571 17.2877 77.7639 14.862 77.7639 10.9348V6.8529C77.7639 2.92573 75.2361 0.5 70.745 0.5M73.2391 11.1272C73.2391 12.5534 72.3249 13.3062 70.7492 13.3062C69.1736 13.3062 68.2214 12.5534 68.2214 11.1272V6.64378C68.2214 5.21762 69.1356 4.46899 70.7492 4.46899C72.3628 4.46899 73.2391 5.21762 73.2391 6.64378V11.1272Z" fill="black"/>
<path d="M85.8783 4.46899C87.1422 4.46899 87.8416 4.92068 88.2544 5.94534C88.5072 6.64378 88.7811 6.76089 89.4889 6.55596L91.9324 5.6944C92.6149 5.47274 92.775 5.12561 92.5517 4.46899C91.5911 1.92616 89.392 0.5 85.8783 0.5C81.3746 0.5 78.8384 2.92573 78.8384 6.8529V10.9348C78.8384 14.862 81.3662 17.2877 85.8783 17.2877C89.3962 17.2877 91.5911 15.8574 92.5517 13.3187C92.7792 12.6621 92.6149 12.3192 91.9324 12.0933L89.4889 11.2318C88.8021 10.9808 88.5241 11.1397 88.2544 11.8424C87.8879 12.821 87.1548 13.3187 85.8783 13.3187C84.0709 13.3187 83.3505 12.5492 83.3505 10.9599V6.82781C83.3505 5.24272 84.0583 4.46899 85.8783 4.46899Z" fill="black"/>
<path d="M104.289 10.1664C103.98 9.47671 103.5 8.87552 102.895 8.41815L107.053 1.83523C107.42 1.24971 107.192 0.839844 106.505 0.839844H103.876C102.688 0.839844 102.482 0.977859 102.048 1.6763L98.7576 6.8247H98.2563V1.80595C98.2563 1.10333 98.0246 0.852391 97.2957 0.852391H94.7258C93.9927 0.852391 93.7441 1.10333 93.7441 1.80595V16.0257C93.7441 16.7242 93.9927 16.9709 94.7258 16.9709H97.3083C98.0372 16.9709 98.2689 16.7242 98.2689 16.0257V10.7979H98.6902C99.5328 10.7979 99.8783 11.2161 100.245 11.9355L102.233 16.0006C102.621 16.7911 103.076 16.9458 104.264 16.9458H106.733C107.487 16.9458 107.647 16.4482 107.327 15.8375L104.289 10.1664Z" fill="black"/>
<path d="M118.959 12.9768H112.719V10.7979H117.543C118.276 10.7979 118.525 10.5511 118.525 9.8234V7.78245C118.525 7.07564 118.276 6.8247 117.543 6.8247H112.719V4.80884H118.739C119.468 4.80884 119.721 4.56208 119.721 3.83436V1.79341C119.721 1.09078 119.468 0.839844 118.739 0.839844H109.176C108.443 0.839844 108.194 1.09078 108.194 1.79341V16.0132C108.194 16.7116 108.443 16.9584 109.176 16.9584H118.959C119.671 16.9584 119.919 16.7116 119.919 16.0132V13.9304C119.919 13.2069 119.671 12.9768 118.959 12.9768Z" fill="black"/>
<path d="M134.568 15.837L132.512 11.9642C132.339 11.6197 132.131 11.2932 131.893 10.9897C133.447 10.1282 134.366 8.53471 134.366 6.31809C134.366 2.80079 132.124 0.847656 128.67 0.847656H122.161C121.428 0.847656 121.175 1.09859 121.175 1.80122V16.021C121.175 16.7194 121.428 16.9662 122.161 16.9662H124.743C125.472 16.9662 125.7 16.7194 125.7 16.021V11.592H126.226C127.161 11.592 127.553 11.9767 127.941 12.7505L129.403 15.8579C129.769 16.6525 130.296 16.9453 131.509 16.9453H133.974C134.732 16.9453 134.892 16.4476 134.568 15.837M128.168 7.8028H125.7V4.80829H128.168C128.371 4.78352 128.577 4.80434 128.771 4.86921C128.965 4.93408 129.141 5.04134 129.288 5.18307C129.434 5.32479 129.547 5.49737 129.617 5.68803C129.687 5.8787 129.713 6.08259 129.693 6.28463C129.713 6.48709 129.688 6.69139 129.62 6.8831C129.551 7.07482 129.441 7.24925 129.297 7.39408C129.153 7.5389 128.979 7.65058 128.787 7.72121C128.595 7.79183 128.389 7.81969 128.185 7.8028" fill="black"/>
<path d="M25.9945 23.972C24.9837 23.8097 23.9592 23.7466 22.9359 23.7838C18.7229 23.9385 14.1433 26.2388 11.6703 29.0744L11.6071 29.1413C11.5734 29.1873 11.6071 29.1957 11.645 29.1998L11.7419 29.2208C12.6842 29.4055 13.6422 29.4993 14.6026 29.501C16.7984 29.5017 18.966 29.0101 20.9437 28.0629C22.9214 27.1157 24.658 25.7372 26.024 24.0305V24.0305V24.0013H25.9819" fill="black"/>
<path d="M28.8004 17.894C28.3022 17.5788 27.7675 17.3246 27.2078 17.137C26.4356 16.858 25.6198 16.7164 24.798 16.7188H24.7222C24.716 16.7187 24.71 16.7198 24.7043 16.7221C24.6986 16.7243 24.6935 16.7277 24.6891 16.732C24.6848 16.7363 24.6814 16.7414 24.6791 16.747C24.6768 16.7527 24.6757 16.7587 24.6758 16.7648C24.6737 16.7828 24.6737 16.8011 24.6758 16.8192C24.6872 17.7918 24.4789 18.7546 24.0662 19.6368C23.6536 20.5191 23.0471 21.2983 22.2913 21.9174L22.089 22.0805L22.0174 22.139C21.9669 22.1767 22.0174 22.1725 22.0722 22.1725H22.2112C23.7318 22.1537 25.2475 22.3451 26.7149 22.7413L26.8413 22.7747C26.8622 22.784 26.8858 22.7853 26.9076 22.7784C26.9293 22.7714 26.9478 22.7567 26.9593 22.7371L27.014 22.6493C27.8888 21.23 28.5169 19.6748 28.872 18.0487C28.8699 18.0279 28.8699 18.0069 28.872 17.986C28.8789 17.9762 28.8826 17.9645 28.8826 17.9526C28.8826 17.9406 28.8789 17.9289 28.872 17.9191L28.813 17.8856" fill="black"/>
<path d="M5.8311 3.68701C5.83281 3.69528 5.83281 3.70382 5.8311 3.7121C5.8311 3.73301 5.8311 3.73719 5.87323 3.7121L5.92379 3.67446C10.8361 -0.0519614 17.1135 0.132059 18.6934 4.77022C18.9635 5.58874 18.9427 6.47447 18.6344 7.27959C18.6091 7.33396 18.5839 7.38833 18.5544 7.43852C18.5249 7.48871 18.5207 7.53053 18.6007 7.50126L18.7819 7.45943C21.5582 6.83627 25.9903 7.78983 27.9325 9.23691L27.9957 9.28291H28.021C28.0094 9.26284 27.9996 9.24186 27.9915 9.22018C27.1129 7.21606 25.7894 5.43498 24.1199 4.01003C22.4504 2.58509 20.478 1.55314 18.3503 0.991296C16.2225 0.429454 13.9944 0.352251 11.8324 0.765457C9.67033 1.17866 7.63033 2.07159 5.86481 3.37752C5.85355 3.38778 5.84076 3.39625 5.82689 3.40261C5.82689 3.40261 5.78897 3.4277 5.79319 3.4528V3.51553C5.78753 3.57388 5.7962 3.63272 5.81846 3.68701" fill="black"/>
<path d="M23.8585 9.75458C22.5544 9.47504 21.224 9.33483 19.8898 9.33635C18.5837 9.3269 17.2816 9.48005 16.0139 9.79222C15.9802 9.79222 15.9717 10.0473 16.0139 10.0348C16.8279 9.76907 17.6907 9.68342 18.5417 9.78385C19.1352 9.89727 19.7164 10.0667 20.2774 10.2899C21.2178 10.7172 22.0602 11.3309 22.7528 12.0933C23.4455 12.8556 23.9737 13.7506 24.3051 14.7231L24.343 14.8319C24.345 14.8448 24.3517 14.8566 24.3617 14.865C24.3718 14.8735 24.3846 14.878 24.3978 14.8779H24.4483C26.0643 14.9411 27.6465 15.3566 29.0826 16.0949L29.1332 16.1242C29.1332 16.1242 29.1837 16.1577 29.1921 16.1242C29.2006 16.0907 29.1921 16.0949 29.1921 16.0782C29.2864 15.4417 29.2864 14.795 29.1921 14.1585C28.7329 11.1473 25.312 10.0892 23.888 9.75876" fill="black"/>
<path d="M6.84663 10.0978L6.88033 10.0727C6.88626 10.0665 6.88956 10.0583 6.88956 10.0497C6.88956 10.0412 6.88626 10.0329 6.88033 10.0267C6.88231 10.0142 6.88231 10.0015 6.88033 9.98907C6.10093 6.8189 5.61643 4.18405 5.5406 3.71564C5.53896 3.70034 5.53896 3.68492 5.5406 3.66963C5.5406 3.64872 5.5406 3.64454 5.50268 3.66963L5.4774 3.69054C3.39373 5.34963 1.8073 7.5433 0.890111 10.0337C-0.0270767 12.5242 -0.240027 15.2163 0.274347 17.8183V17.8852C0.274347 17.9354 0.303838 17.9187 0.312264 17.8852V17.856C1.81689 14.7773 4.06087 12.1131 6.84663 10.0978" fill="black"/>
<path d="M12.9932 25.1338L12.9637 25.092L12.9174 25.046C12.4961 24.5943 11.3796 22.4906 10.28 20.0607V20.0272C10.2765 20.0236 10.2723 20.0206 10.2675 20.0186C10.2628 20.0167 10.2578 20.0156 10.2527 20.0156C10.2475 20.0156 10.2425 20.0167 10.2378 20.0186C10.2331 20.0206 10.2288 20.0236 10.2253 20.0272L10.1831 20.0523C8.21567 21.1648 5.8606 23.6407 4.98851 25.7653L4.96323 25.8155C4.95638 25.8238 4.95264 25.8341 4.95264 25.8448C4.95264 25.8555 4.95638 25.8658 4.96323 25.8741L5.018 25.9243C6.29161 27.0321 7.7501 27.911 9.3279 28.5215L9.41637 28.5549H9.48378L9.51327 28.5173C10.4827 27.2349 11.6434 26.1067 12.9553 25.1714L13.0059 25.1338" fill="black"/>
<path d="M9.36597 18.609L9.52185 18.517C9.54424 18.4959 9.55921 18.4683 9.56452 18.4382C9.56983 18.408 9.56521 18.377 9.55134 18.3497C9.10477 17.279 8.70874 16.2 8.36749 15.2213C8.02624 14.2427 7.77767 13.3518 7.52489 12.4025V12.3648C7.52489 12.3565 7.47012 12.3397 7.45748 12.3648L7.15415 12.5907C4.91283 14.3138 2.64623 17.1075 0.990524 20.2066C0.982325 20.2267 0.982325 20.2492 0.990524 20.2693C0.990524 20.2693 0.990524 20.307 0.990524 20.3154C1.5003 21.9172 2.67572 23.5064 3.66157 24.6064L3.68685 24.6315C3.71634 24.6691 3.74161 24.6315 3.75847 24.6315C3.7786 24.6063 3.7969 24.5798 3.81323 24.552C5.32149 22.1263 6.96035 20.1146 9.37861 18.6383" fill="black"/>
<path d="M35.7476 22.8935H37.7614V29.1712H38.8694V22.8935H40.8832V21.9023H35.7476V22.8935Z" fill="black"/>
<path d="M46.1753 26.666C46.1857 26.8752 46.1538 27.0845 46.0814 27.2813C46.0091 27.4781 45.8977 27.6585 45.754 27.8119C45.6095 27.9529 45.4372 28.0628 45.248 28.1347C45.0589 28.2067 44.8568 28.2392 44.6544 28.2301C44.4511 28.241 44.2479 28.2094 44.0577 28.1374C43.8676 28.0653 43.6948 27.9545 43.5506 27.8119C43.4074 27.6581 43.2964 27.4776 43.2241 27.2809C43.1518 27.0842 43.1195 26.8752 43.1293 26.666V21.9023H42.017V26.712C42.0054 27.0496 42.0659 27.3859 42.1944 27.6987C42.3229 28.0115 42.5166 28.2938 42.7627 28.5271C43.2842 28.9778 43.9524 29.2261 44.6438 29.2261C45.3353 29.2261 46.0034 28.9778 46.5249 28.5271C46.771 28.2939 46.9643 28.0115 47.0921 27.6986C47.22 27.3857 47.2794 27.0494 47.2664 26.712V21.9023H46.1584V26.666H46.1753Z" fill="black"/>
<path d="M53.7835 25.2722C54.0676 24.9159 54.2167 24.4719 54.2048 24.0176C54.2162 23.7325 54.1665 23.4482 54.059 23.1837C53.9515 22.9191 53.7887 22.6801 53.5813 22.4827C53.1318 22.0789 52.5395 21.8684 51.934 21.8971H49.0986V29.1701H50.2067V26.1003H51.5969L53.1347 29.1701H54.4281L52.7429 25.9498C53.1587 25.8433 53.5283 25.6055 53.7961 25.2722M50.2024 25.176V22.8925H51.8497C52.1786 22.8759 52.5013 22.9851 52.7513 23.1978C52.8654 23.3047 52.955 23.4347 53.0139 23.5791C53.0727 23.7234 53.0996 23.8787 53.0926 24.0343C53.1014 24.1905 53.0749 24.3466 53.0152 24.4913C52.9554 24.636 52.8638 24.7657 52.7471 24.8707C52.4979 25.082 52.1771 25.1912 51.8497 25.176H50.2024Z" fill="black"/>
<path d="M56.9223 21.9023H55.8101V29.1712H56.9223V21.9023Z" fill="black"/>
<path d="M62.2436 25.2608C61.9844 25.1634 61.7142 25.0974 61.439 25.0642L60.5964 24.9388C60.2975 24.9093 60.0136 24.7946 59.779 24.6084C59.6854 24.5225 59.6116 24.4174 59.5629 24.3004C59.5141 24.1834 59.4916 24.0573 59.4968 23.9308C59.4933 23.7783 59.5232 23.6268 59.5843 23.4867C59.6453 23.3467 59.7362 23.2214 59.8507 23.1195C60.1249 22.8924 60.4758 22.7773 60.8323 22.7974C61.1308 22.7942 61.428 22.838 61.7128 22.9271C61.9785 23.0123 62.2217 23.1551 62.4248 23.3453L63.1284 22.6678C62.5114 22.1038 61.6958 21.8033 60.8576 21.8313C60.2139 21.7992 59.5818 22.0098 59.0881 22.421C58.8712 22.6147 58.7 22.8533 58.5864 23.12C58.4728 23.3867 58.4197 23.675 58.4309 23.9643C58.4125 24.2181 58.4489 24.4728 58.5375 24.7115C58.6261 24.9502 58.765 25.1674 58.9449 25.3486C59.3398 25.6891 59.8315 25.8995 60.352 25.9509L61.2157 26.0722C61.3831 26.0867 61.5477 26.1247 61.7044 26.1851C61.848 26.2482 61.9792 26.336 62.092 26.4444C62.1724 26.5384 62.2326 26.6478 62.2688 26.7657C62.305 26.8837 62.3165 27.0078 62.3026 27.1303C62.3127 27.2915 62.2817 27.4527 62.2124 27.5988C62.1432 27.745 62.0381 27.8716 61.9066 27.9668C61.5775 28.1812 61.1873 28.2839 60.7944 28.2595C60.4436 28.2662 60.0944 28.2124 59.7622 28.1006C59.4426 27.9909 59.1538 27.8074 58.9196 27.5653L58.1865 28.2762C58.5067 28.6056 58.9008 28.8549 59.3367 29.004C59.8061 29.1604 60.2993 29.2354 60.7944 29.2256C61.4766 29.2573 62.149 29.055 62.6986 28.6527C62.935 28.4679 63.1238 28.2302 63.2498 27.9591C63.3757 27.6879 63.4352 27.391 63.4233 27.0927C63.4509 26.8527 63.4278 26.6097 63.3552 26.3793C63.2827 26.1488 63.1623 25.9359 63.002 25.7543C62.7828 25.5538 62.5342 25.3874 62.2647 25.2608" fill="black"/>
<path d="M68.1374 26.4192L66.0014 21.9023H64.8892V29.1712H66.0014V24.303L67.7329 27.8454H68.5503L70.2313 24.3155V29.1712H71.3393V21.9023H70.2313L68.1374 26.4192Z" fill="black"/>
<path d="M78.1263 23.675C78.0561 23.2886 77.8643 22.9343 77.5786 22.6629C77.3295 22.3902 77.024 22.1743 76.6829 22.0299C76.3418 21.8855 75.9733 21.8161 75.6027 21.8264C75.0328 21.8025 74.4718 21.9722 74.0122 22.3076C73.5526 22.6429 73.222 23.1238 73.0749 23.6708C72.9892 24.2832 72.954 24.9014 72.9696 25.5194C72.9536 26.1402 72.9888 26.7612 73.0749 27.3763C73.2222 27.9226 73.5532 28.4025 74.013 28.7364C74.4727 29.0704 75.0336 29.2383 75.6027 29.2124C75.9615 29.2211 76.3183 29.1565 76.6509 29.0227C76.9836 28.8889 77.285 28.6887 77.5364 28.4345C77.8401 28.1552 78.0504 27.7903 78.1389 27.3889C78.2176 26.769 78.25 26.1441 78.2358 25.5194C78.2494 24.9027 78.2128 24.2859 78.1263 23.675M77.0309 27.0669C76.9955 27.3172 76.8888 27.5523 76.7233 27.7444C76.579 27.9023 76.4023 28.0278 76.2051 28.1124C76.01 28.1923 75.8011 28.2335 75.59 28.2337C75.3806 28.2357 75.1728 28.1959 74.9792 28.1166C74.7801 28.0314 74.603 27.9028 74.461 27.7402C74.2966 27.5512 74.1874 27.3213 74.145 27.0752C74.0824 26.5633 74.0571 26.0475 74.0691 25.532C74.0559 25.0189 74.0841 24.5056 74.1534 23.997C74.1922 23.7477 74.2985 23.5135 74.461 23.3195C74.6047 23.1619 74.7816 23.0377 74.9792 22.9557C75.1734 22.8755 75.3818 22.8342 75.5922 22.8342C75.8025 22.8342 76.0109 22.8755 76.2051 22.9557C76.3858 23.0307 76.5481 23.1434 76.6812 23.2861C76.862 23.4852 76.9843 23.7296 77.0351 23.9929C77.0997 24.506 77.125 25.0233 77.1109 25.5403C77.1252 26.0532 77.0984 26.5665 77.0309 27.0752" fill="black"/>
</g>
<defs>
<clipPath id="clip0_536_294">
<rect width="139" height="29" fill="white" transform="translate(0 0.5)"/>
</clipPath>
</defs>
</svg>
