<svg width="109" height="39" viewBox="0 0 109 39" fill="none" xmlns="http://www.w3.org/2000/svg">
<g clip-path="url(#clip0_536_201)">
<path d="M52.4689 19.5369H56.4223L56.8921 21.3401H61.1002L56.7351 7.3125H52.1551L47.79 21.3401H51.9982L52.4689 19.5369ZM54.446 12.0221L55.5815 16.3306H53.3142L54.446 12.0221Z" fill="black"/>
<path d="M65.3094 17.6113C65.2782 17.2267 65.3426 16.8404 65.4966 16.4883C65.6506 16.1361 65.8891 15.8296 66.19 15.5972C66.7896 15.1736 67.5264 15.0049 68.2451 15.1265V11.1179C67.5842 11.1037 66.9351 11.2983 66.3859 11.675C65.8499 12.0501 65.4669 12.6134 65.3094 13.2582V11.3185H61.688V21.3385H65.3094V17.6113Z" fill="black"/>
<path d="M74.2344 21.6181C74.999 21.666 75.7647 21.5461 76.4803 21.2663C77.1959 20.9865 77.8448 20.5534 78.3836 19.9959L76.0156 17.9531C75.5532 18.363 74.963 18.5905 74.3514 18.5947C73.9591 18.6504 73.5596 18.5847 73.2041 18.4062C72.8485 18.2277 72.5532 17.9444 72.3561 17.5928H78.8543C78.958 17.1676 79.0104 16.731 79.0103 16.2928C79.0311 15.5994 78.9143 14.9089 78.667 14.2631C78.4198 13.6172 78.0473 13.0293 77.5719 12.535C77.0934 12.0408 76.5205 11.6532 75.8889 11.3962C75.2573 11.1393 74.5808 11.0187 73.9015 11.0419C73.2126 11.0223 72.527 11.1468 71.8866 11.4077C71.2462 11.6687 70.6646 12.0606 70.1772 12.5596C69.6899 13.0586 69.3071 13.6541 69.0522 14.3097C68.7973 14.9653 68.6757 15.6673 68.6948 16.3727C68.676 17.073 68.8014 17.7695 69.0628 18.4169C69.3242 19.0644 69.7158 19.6482 70.2121 20.1305C70.753 20.6391 71.3869 21.0329 72.0773 21.2892C72.7677 21.5455 73.5008 21.6592 74.2344 21.6236M73.9995 14.0095C74.3621 13.9782 74.7233 14.0836 75.0153 14.3059C75.3072 14.5282 75.5098 14.8521 75.5848 15.2166H72.2962C72.4047 14.8477 72.6322 14.5273 72.9416 14.3081C73.251 14.0888 73.624 13.9835 73.9995 14.0095" fill="black"/>
<path d="M84.1779 21.6202C84.6749 21.6461 85.1708 21.5527 85.6262 21.3475C86.0816 21.1423 86.4839 20.8308 86.8008 20.4381V21.3397H90.4185V11.3198H86.7972V12.2214C86.4801 11.8288 86.0779 11.5175 85.6225 11.3122C85.1671 11.107 84.6712 11.0136 84.1743 11.0394C83.5599 11.0225 82.9497 11.1492 82.3901 11.4096C81.8306 11.6701 81.3363 12.0576 80.9447 12.5427C80.1322 13.6301 79.6919 14.9611 79.6919 16.3302C79.6919 17.6993 80.1322 19.0304 80.9447 20.1178C81.3363 20.6029 81.8306 20.9903 82.3901 21.2508C82.9497 21.5113 83.5599 21.6379 84.1743 21.6211M83.7979 14.9838C83.9628 14.8125 84.1594 14.6764 84.3761 14.5835C84.5928 14.4906 84.8254 14.4428 85.0604 14.4428C85.2953 14.4428 85.5279 14.4906 85.7447 14.5835C85.9614 14.6764 86.1579 14.8125 86.3228 14.9838C86.6324 15.3594 86.8023 15.835 86.8023 16.3265C86.8023 16.818 86.6324 17.2936 86.3228 17.6692C86.1579 17.8406 85.9614 17.9766 85.7447 18.0695C85.5279 18.1624 85.2953 18.2103 85.0604 18.2103C84.8254 18.2103 84.5928 18.1624 84.3761 18.0695C84.1594 17.9766 83.9628 17.8406 83.7979 17.6692C83.4883 17.2936 83.3185 16.818 83.3185 16.3265C83.3185 15.835 83.4883 15.3594 83.7979 14.9838" fill="black"/>
<path d="M57.1495 31.4781C57.5916 31.1584 57.9486 30.7305 58.188 30.2334C58.4273 29.7363 58.5414 29.1859 58.5198 28.6321C58.5518 28.0816 58.4589 27.531 58.2484 27.0234C58.0379 26.5158 57.7155 26.065 57.3064 25.7062C56.283 24.958 55.0375 24.5969 53.7829 24.6848H48.3413V38.7124H54.1348C55.4109 38.8031 56.675 38.4109 57.6873 37.6102C58.0975 37.2302 58.4201 36.7615 58.6317 36.2382C58.8432 35.7148 58.9386 35.1498 58.9107 34.5841C58.9363 33.9485 58.7841 33.3185 58.4721 32.7684C58.1601 32.2182 57.7013 31.7706 57.1495 31.4781M52.252 28.1353H53.5444C53.8115 28.129 54.073 28.2136 54.2881 28.3758C54.3921 28.4577 54.475 28.5644 54.5296 28.6866C54.5841 28.8088 54.6086 28.9428 54.601 29.0769C54.6088 29.195 54.5928 29.3134 54.5541 29.4249C54.5153 29.5364 54.4546 29.6385 54.3757 29.725C54.2968 29.8115 54.2013 29.8804 54.0953 29.9275C53.9893 29.9746 53.8749 29.9989 53.7593 29.9989L52.252 30.0194V28.1353ZM54.679 34.989C54.4612 35.1786 54.182 35.2779 53.8963 35.2675H52.252V33.2637L54.1112 33.2841C54.2974 33.2996 54.4751 33.3705 54.6225 33.488C54.7698 33.6055 54.8805 33.7645 54.9408 33.9455C55.0011 34.1265 55.0084 34.3216 54.9619 34.5068C54.9154 34.692 54.8171 34.8593 54.679 34.988" fill="black"/>
<path d="M61.8086 23.8439C61.5438 23.841 61.2812 23.8938 61.0371 23.9988C60.793 24.1039 60.5725 24.2591 60.3892 24.4548C60.2004 24.6401 60.0502 24.8625 59.9475 25.1087C59.8449 25.3549 59.792 25.6199 59.792 25.8876C59.792 26.1553 59.8449 26.4203 59.9475 26.6665C60.0502 26.9127 60.2004 27.1351 60.3892 27.3203C60.5724 27.5161 60.7929 27.6713 61.0371 27.7764C61.2812 27.8815 61.5438 27.9342 61.8086 27.9313C62.3377 27.9313 62.8452 27.7161 63.2194 27.333C63.5936 26.9499 63.8038 26.4303 63.8038 25.8885C63.8038 25.3467 63.5936 24.8271 63.2194 24.444C62.8452 24.0609 62.3377 23.8457 61.8086 23.8457" fill="black"/>
<path d="M63.6097 28.6914H59.9883V38.7114H63.6097V28.6914Z" fill="black"/>
<path d="M69.5792 25.8867L65.9578 26.9889V28.6919H64.5874V32.2203H65.9578V34.5854C65.9578 36.3224 66.3916 37.518 67.2592 38.1724C68.1269 38.8267 69.5852 39.0071 71.6343 38.7137V35.3848C71.2597 35.4115 70.8838 35.4149 70.5088 35.3951C70.2526 35.3956 70.0053 35.2994 69.8141 35.1249C69.7287 35.0232 69.664 34.9051 69.6237 34.7776C69.5834 34.6501 69.5682 34.5156 69.5792 34.382V32.2176H71.6343V28.6891H69.5792V25.8867Z" fill="black"/>
<path d="M77.6036 31.9799C77.898 31.9681 78.1897 32.0405 78.4461 32.1892C78.7024 32.3378 78.9132 32.5567 79.0547 32.8212L82.1083 31.0374C81.6776 30.236 81.0373 29.5733 80.2591 29.1237C79.4529 28.6487 78.5373 28.4031 77.6072 28.4124C76.9163 28.3915 76.2285 28.5149 75.5858 28.7751C74.943 29.0353 74.3588 29.4269 73.8688 29.926C72.9145 30.9407 72.3813 32.2946 72.3813 33.7033C72.3813 35.112 72.9145 36.4659 73.8688 37.4806C74.3589 37.9796 74.9432 38.371 75.5859 38.631C76.2286 38.8911 76.9164 39.0144 77.6072 38.9933C78.5361 39.0029 79.4509 38.7611 80.2591 38.2922C81.0421 37.8445 81.6837 37.177 82.1083 36.3682L79.0547 34.565C78.9243 34.8404 78.7164 35.0696 78.4579 35.2231C78.1993 35.3766 77.9018 35.4476 77.6036 35.4267C77.3897 35.4319 77.177 35.3909 76.9797 35.3063C76.7823 35.2216 76.6046 35.0953 76.4581 34.9355C76.1619 34.5965 75.9982 34.1577 75.9982 33.7028C75.9982 33.248 76.1619 32.8092 76.4581 32.4702C76.6046 32.3105 76.7823 32.1842 76.9797 32.0995C77.1771 32.0149 77.3897 31.9738 77.6036 31.979" fill="black"/>
<path d="M87.6262 28.4115C86.9352 28.3957 86.2481 28.5224 85.6059 28.784C84.9637 29.0456 84.3794 29.4368 83.8879 29.9343C83.4032 30.4285 83.0188 31.0161 82.7568 31.663C82.4948 32.31 82.3604 33.0036 82.3613 33.704C82.3623 34.4044 82.4985 35.0976 82.7622 35.7439C83.0259 36.3901 83.4118 36.9766 83.8978 37.4695C84.9063 38.4474 86.2426 38.9925 87.6317 38.9925C89.0208 38.9925 90.357 38.4474 91.3655 37.4695C91.8494 36.9751 92.2334 36.3878 92.4953 35.7413C92.7573 35.0949 92.8921 34.4018 92.8921 33.7019C92.8921 33.002 92.7573 32.3089 92.4953 31.6624C92.2334 31.0159 91.8494 30.4287 91.3655 29.9343C90.8739 29.4368 90.2897 29.0457 89.6474 28.7841C89.0052 28.5225 88.3182 28.3957 87.6271 28.4115M88.8116 34.9745C88.494 35.2894 88.0693 35.4655 87.6271 35.4655C87.185 35.4655 86.7602 35.2894 86.4427 34.9745C86.1458 34.6201 85.9826 34.1687 85.9826 33.7019C85.9826 33.2351 86.1458 32.7836 86.4427 32.4293C86.7602 32.1144 87.185 31.9382 87.6271 31.9382C88.0693 31.9382 88.494 32.1144 88.8116 32.4293C89.1085 32.7836 89.2716 33.2351 89.2716 33.7019C89.2716 34.1687 89.1085 34.6201 88.8116 34.9745" fill="black"/>
<path d="M95.8467 23.8439C95.5819 23.841 95.3193 23.8938 95.0752 23.9988C94.8311 24.1039 94.6106 24.2591 94.4273 24.4548C94.2385 24.6401 94.0883 24.8625 93.9856 25.1087C93.883 25.3549 93.8301 25.6199 93.8301 25.8876C93.8301 26.1553 93.883 26.4203 93.9856 26.6665C94.0883 26.9127 94.2385 27.1351 94.4273 27.3203C94.6105 27.5161 94.831 27.6713 95.0751 27.7764C95.3193 27.8815 95.5818 27.9342 95.8467 27.9313C96.3758 27.9313 96.8833 27.7161 97.2575 27.333C97.6317 26.9499 97.8419 26.4303 97.8419 25.8885C97.8419 25.3467 97.6317 24.8271 97.2575 24.444C96.8833 24.0609 96.3758 23.8457 95.8467 23.8457" fill="black"/>
<path d="M97.6478 28.6914H94.0264V38.7114H97.6478V28.6914Z" fill="black"/>
<path d="M108.032 29.5431C107.712 29.1701 107.315 28.8749 106.87 28.6791C106.424 28.4833 105.942 28.3918 105.458 28.4112C104.952 28.382 104.448 28.4821 103.99 28.7026C103.532 28.9231 103.135 29.257 102.835 29.6741V28.6926H99.2134V38.7116H102.835V33.561C102.811 33.1441 102.933 32.7322 103.178 32.3984C103.3 32.2556 103.453 32.1434 103.624 32.0705C103.795 31.9975 103.981 31.9658 104.166 31.9778C104.975 31.9778 105.38 32.4253 105.38 33.3205V38.7107H109.001V32.9175C109.089 31.7088 108.745 30.5085 108.032 29.5403" fill="black"/>
<path d="M42.5352 7.46368C42.5352 7.45625 42.5352 7.44882 42.5352 7.44232C42.5352 7.43582 42.5307 7.42654 42.528 7.41818C42.5252 7.40982 42.528 7.4024 42.5207 7.39497C42.5172 7.38734 42.5132 7.3799 42.5089 7.37268C42.5089 7.36618 42.5017 7.35875 42.498 7.35225C42.4932 7.34549 42.4881 7.33898 42.4826 7.33275L42.4672 7.31511L42.4445 7.30118L42.4237 7.28447L30.8992 0.037142C30.8604 0.0129396 30.8159 9.32347e-05 30.7705 0L20.5874 0H20.5566H20.5384L20.5121 0.00835694L20.4967 0.0213566C20.4885 0.0250432 20.4806 0.0293901 20.4731 0.0343563L20.455 0.0445704L20.435 0.0612843L20.4178 0.076141C20.4136 0.0815255 20.4097 0.0871026 20.406 0.0928549C20.4006 0.100283 20.3942 0.106783 20.3897 0.11514C20.3897 0.119783 20.3897 0.125354 20.3824 0.129997C20.3752 0.13464 20.3734 0.146711 20.3706 0.155068C20.3679 0.163425 20.3616 0.176424 20.3588 0.18571C20.3563 0.193637 20.3542 0.201695 20.3525 0.209852C20.352 0.21913 20.352 0.22843 20.3525 0.237709C20.3525 0.24328 20.3525 0.248851 20.3525 0.254423V10.4174H10.417H10.3862H10.368L10.3427 10.4258L10.3227 10.4323L10.3 10.4453L10.2819 10.4564L10.2619 10.4731L10.2483 10.4926L10.2338 10.5103C10.228 10.5174 10.2225 10.5248 10.2175 10.5325C10.2175 10.5372 10.2175 10.5427 10.2102 10.5474C10.2058 10.5555 10.2019 10.5639 10.1984 10.5725C10.1956 10.5801 10.1932 10.5878 10.1912 10.5957C10.1887 10.6036 10.1865 10.6117 10.1848 10.6198C10.1848 10.6291 10.1848 10.6384 10.1848 10.6477C10.1848 10.657 10.1848 10.6588 10.1848 10.6644V20.8339H0.242113H0.213998H0.194046L0.169559 20.8413L0.148699 20.8487L0.126026 20.8608L0.10698 20.8719C0.101174 20.8784 0.0957246 20.8852 0.0906552 20.8924L0.0734234 20.9081L0.0598194 20.9258C0.0543778 20.9332 0.0480292 20.9397 0.0434946 20.9481C0.0434946 20.9481 0.0434946 20.9583 0.0362391 20.9629C0.0318305 20.971 0.0278936 20.9794 0.0244489 20.988C0.02156 20.9956 0.0191368 21.0033 0.0171934 21.0112C0.0107088 21.021 0.00494865 21.0312 -3.83173e-05 21.0419C-0.000638269 21.0511 -0.000638269 21.0604 -3.83173e-05 21.0697C-3.83173e-05 21.0753 -3.83173e-05 21.0809 -3.83173e-05 21.0864V31.5038C-3.96557e-05 31.5471 0.0108006 31.5896 0.0314444 31.6273C0.0520881 31.665 0.0818442 31.6967 0.117863 31.7192L11.6359 38.9619H11.6441C11.6585 38.9702 11.6737 38.9771 11.6894 38.9824L11.7049 38.987C11.7238 38.9921 11.7433 38.9949 11.7629 38.9954H42.2885C42.354 38.9954 42.4167 38.9687 42.463 38.9214C42.5092 38.874 42.5352 38.8098 42.5352 38.7428V7.49154C42.5357 7.48226 42.5357 7.47296 42.5352 7.46368M41.4152 7.24269H32.1835L21.4689 0.505131H30.7006L41.4152 7.24269ZM20.8422 10.5279V0.704769L31.8669 7.63825V17.4623L20.8422 10.5279ZM20.5257 10.9216L31.2402 17.661H22.0095L11.2949 10.9225L20.5257 10.9216ZM10.6682 20.9453V11.1212L21.6929 18.0547V27.8788L10.6682 20.9453ZM10.3517 21.339L21.0663 28.0775H11.8346L1.12003 21.339H10.3517ZM0.493334 21.5423L11.518 28.4721V38.2962L0.493334 31.3627V21.5423ZM42.0418 38.4949H12.0114V28.5835H21.9396C21.9586 28.5833 21.9775 28.5808 21.9959 28.5761H22.0104C22.0238 28.572 22.0369 28.5668 22.0494 28.5603L22.0648 28.552C22.0772 28.5443 22.0891 28.5356 22.1002 28.526L22.111 28.5167C22.1248 28.503 22.137 28.4878 22.1473 28.4712C22.1473 28.4665 22.1473 28.461 22.1546 28.4563C22.1618 28.4517 22.1636 28.4396 22.1664 28.4313C22.1692 28.4237 22.1716 28.4159 22.1736 28.408C22.1761 28.4001 22.1783 28.3921 22.18 28.3839C22.1806 28.3746 22.1806 28.3653 22.18 28.356C22.18 28.3505 22.18 28.3449 22.18 28.3393V18.1661H32.1136C32.1326 18.1659 32.1515 18.1634 32.1699 18.1587H32.1844C32.1978 18.1546 32.2108 18.1493 32.2234 18.1429L32.2388 18.1336C32.2513 18.126 32.2631 18.1173 32.2742 18.1076L32.285 18.0984C32.2988 18.0846 32.3109 18.0694 32.3213 18.0529V18.0529C32.3213 18.0482 32.3213 18.0426 32.3286 18.038C32.3358 18.0334 32.3376 18.0213 32.3404 18.0129C32.3431 18.0046 32.3449 17.9971 32.3476 17.9897C32.3503 17.9823 32.3476 17.9739 32.354 17.9656C32.3545 17.9563 32.3545 17.947 32.354 17.9377C32.354 17.9321 32.354 17.9266 32.354 17.921V7.74967H42.0418V38.4949Z" fill="black"/>
</g>
<defs>
<clipPath id="clip0_536_201">
<rect width="109" height="39" fill="white"/>
</clipPath>
</defs>
</svg>
