<?xml version="1.0" encoding="UTF-8"?>
<svg id="Layer_2" data-name="Layer 2" xmlns="http://www.w3.org/2000/svg" viewBox="0 0 710.66 216.87">
  <defs>
    <style>
      .cls-1 {
        fill-rule: evenodd;
      }

      .cls-1, .cls-2 {
        fill: #1b1918;
        stroke-width: 0px;
      }
    </style>
  </defs>
  <g id="Layer_1-2" data-name="Layer 1">
    <path class="cls-2" d="m684.71,0H25.95C8.73,0,0,8.73,0,25.95v118.33c0,17.22,8.73,25.95,25.95,25.95h658.76c17.22,0,25.95-8.73,25.95-25.95V25.95c0-17.22-8.73-25.95-25.95-25.95Zm23.95,144.28c0,16.12-7.83,23.95-23.95,23.95H25.95c-16.12,0-23.95-7.83-23.95-23.95V25.95C2,9.83,9.83,2,25.95,2h658.76c16.12,0,23.95,7.83,23.95,23.95v118.33Z"/>
    <path class="cls-1" d="m118.45,24.3v23.63l-25.9-17.58-28.61,39.1c-5.35-3.62-11.8-5.74-18.74-5.74-7.67,0-14.92,2.62-20.7,7.17V24.3h93.95Z"/>
    <path class="cls-1" d="m90.94,127.23c0,2.78-8.68,5.3-21.99,6.37-13.32,1.07-28.64.48-38.84-1.5-10.19-1.97-13.23-4.94-7.72-7.51.69-.32,1.49-.63,2.4-.92,9.39,7.25,22.05,9.03,33.21,4.41,4.13-1.71,7.79-4.19,10.84-7.25,12.97,1.04,22.1,3.51,22.1,6.4Z"/>
    <path class="cls-1" d="m160.86,50.63c-10.66,0-19.06,3.41-24.97,9.14-6.6,6.41-10.08,15.71-10.08,26.4,0,18.75,10.6,30.44,23.79,34.15,9,2.53,19.21,1.35,28.08-3.85v29.61h18.52v-61.29c0-19.98-12.49-34.16-35.34-34.16Zm16.82,47.79c-12.61,12.13-33.36,7.44-33.36-12.25,0-10.88,5.33-19.01,16.54-19.01s16.82,6.47,16.82,16.93v14.33Z"/>
    <path class="cls-1" d="m626.55,45.66c-5.2,0-10.52-3.42-10.52-10.27s5.32-10.39,10.52-10.39,10.54,3.42,10.54,10.39-5.21,10.27-10.54,10.27Z"/>
    <rect class="cls-2" x="617.53" y="52.12" width="18.05" height="67.43"/>
    <path class="cls-1" d="m683.83,52.64v15.32h-20.66v27.09c0,11.77,12.46,11.35,22.44,9.3v15.46c-21.34,5.48-40.5-.27-40.5-22.71v-63.2h18.32v18.74h20.39Z"/>
    <rect class="cls-2" x="589.23" y="25.86" width="18.07" height="93.7"/>
    <path class="cls-1" d="m582.87,85.91c0,20.12-12.89,35.29-35.49,35.29s-35.35-15.18-35.35-35.29,13.31-35.43,35.35-35.43,35.49,15.32,35.49,35.43Zm-52.54,0c0,10.68,5.68,18.74,17.06,18.74s17.19-8.07,17.19-18.74-5.82-19.02-17.19-19.02-17.06,8.34-17.06,19.02Z"/>
    <polygon class="cls-1" points="475.83 103.69 509.48 103.69 509.48 119.56 452.03 119.56 452.03 104.92 484.03 67.99 452.98 67.99 452.98 52.12 508.66 52.12 508.66 67.71 475.83 103.69"/>
    <path class="cls-1" d="m444.56,52.11v15.32h-20.66v27.09c0,11.77,12.46,11.35,22.44,9.3v15.46c-21.34,5.48-40.5-.27-40.5-22.71v-63.2h18.34v18.74h20.39Z"/>
    <path class="cls-1" d="m397.87,68.36c-8.89,0-19.29,1.64-26.68,6.02v45.01h-17.92v-56.77c11.89-7.12,26.54-12.31,44.6-12.31v18.05Z"/>
    <path class="cls-1" d="m324.7,119.54v-6.57c-4.33,3.96-10.34,8.2-21.81,8.2-15.94,0-28.94-10.95-28.94-32.01,0-38.99,41.66-45.14,69.34-32.84v63.21h-18.59Zm0-50.62c-21.67-6.98-32.3,6.29-32.3,19.42,0,9.86,4.89,17.1,14.68,17.1,8.25,0,14.68-6.56,17.62-11.36v-25.16Z"/>
    <path class="cls-1" d="m269.11,89.62c0,22.4-13.61,31.89-32.77,31.89s-32.77-9.49-32.77-31.89v-37.52h18.47v37.93c0,9.07,4.02,14.7,14.3,14.7s14.44-5.63,14.44-14.7v-37.93h18.33v37.52Z"/>
    <g>
      <path class="cls-2" d="m446.89,216.19c-1.51-.45-2.73-1.06-3.68-1.83-.51-.37-.76-.9-.76-1.58,0-.46.14-.86.41-1.2s.6-.51.97-.51c.4,0,.85.15,1.35.46.95.68,1.94,1.18,2.97,1.49,1.03.31,2.18.46,3.43.46,1.61,0,2.84-.28,3.7-.84.86-.56,1.29-1.38,1.29-2.46,0-.84-.4-1.48-1.21-1.93s-2.14-.89-4.01-1.3c-1.94-.42-3.51-.9-4.72-1.45-1.21-.55-2.12-1.25-2.74-2.11-.62-.86-.92-1.95-.92-3.27s.38-2.58,1.16-3.66c.77-1.08,1.84-1.92,3.22-2.52,1.37-.6,2.92-.91,4.64-.91,3.15,0,5.71.84,7.69,2.51.29.24.49.48.61.71.12.23.18.52.18.88,0,.46-.14.86-.41,1.2-.28.34-.6.51-.97.51-.22,0-.42-.03-.61-.1-.19-.07-.43-.19-.74-.36-.9-.66-1.78-1.15-2.62-1.47-.85-.32-1.89-.48-3.12-.48-1.5,0-2.68.3-3.55.91-.87.6-1.3,1.45-1.3,2.52,0,.9.38,1.59,1.16,2.08.77.48,2.08.93,3.93,1.35,1.96.44,3.55.93,4.77,1.47s2.16,1.23,2.8,2.06c.65.84.97,1.88.97,3.13,0,1.36-.38,2.57-1.14,3.61-.76,1.05-1.83,1.86-3.2,2.44-1.38.58-2.95.87-4.74.87s-3.29-.23-4.8-.68Z"/>
      <path class="cls-2" d="m486.57,214.89c0,.51-.2.94-.61,1.29-.41.35-.88.53-1.4.53-.35,0-.68-.09-.99-.28-.31-.19-.55-.48-.73-.87l-1.98-4.42h-11.62l-1.98,4.42c-.18.4-.42.69-.73.87-.31.19-.65.28-1.02.28-.51,0-.97-.18-1.39-.53s-.63-.78-.63-1.29c0-.29.07-.57.2-.86l9.11-19.57c.2-.44.5-.78.91-1.01.41-.23.84-.35,1.3-.35s.9.12,1.3.35c.41.23.71.57.91,1.01l9.14,19.57c.13.29.2.57.2.86Zm-15.87-7.06h8.71l-4.36-9.8-4.36,9.8Z"/>
      <path class="cls-2" d="m490.35,216.17c-.39-.4-.58-.91-.58-1.55v-19.37c0-.64.19-1.15.58-1.54.38-.38.9-.58,1.53-.58s1.18.19,1.57.58c.38.39.58.9.58,1.54v19.37c0,.64-.19,1.15-.58,1.55-.38.4-.91.59-1.57.59s-1.15-.2-1.53-.59Z"/>
      <path class="cls-2" d="m518.14,193.72c.36.39.54.9.54,1.54v19.37c0,.64-.19,1.15-.56,1.55-.37.4-.86.59-1.45.59-.7,0-1.24-.25-1.62-.76l-12.04-15.67v14.29c0,.64-.18,1.15-.53,1.55-.35.4-.84.59-1.45.59s-1.1-.2-1.45-.59c-.35-.4-.53-.91-.53-1.55v-19.37c0-.64.19-1.15.56-1.54.37-.38.87-.58,1.48-.58.68,0,1.21.25,1.58.76l12.01,15.61v-14.26c0-.64.18-1.15.54-1.54.36-.38.84-.58,1.44-.58s1.11.19,1.47.58Z"/>
      <path class="cls-2" d="m529.75,216.16c-.38-.38-.58-.9-.58-1.53v-17.82h-6.01c-1.32,0-1.98-.58-1.98-1.75s.66-1.75,1.98-1.75h16.27c1.32,0,1.98.58,1.98,1.75s-.66,1.75-1.98,1.75h-6.01v17.82c0,.64-.19,1.15-.58,1.53s-.9.58-1.53.58-1.18-.19-1.57-.58Z"/>
      <path class="cls-2" d="m540.71,208.95c-.32-.29-.48-.68-.48-1.19s.16-.91.48-1.21c.32-.3.8-.45,1.44-.45h6.8c.64,0,1.12.15,1.44.45.32.3.48.7.48,1.21s-.16.9-.48,1.19c-.32.29-.8.43-1.44.43h-6.8c-.64,0-1.12-.14-1.44-.43Z"/>
      <path class="cls-2" d="m575.31,204.44c.31.3.46.69.46,1.17v7.1c0,1.01-.13,1.73-.4,2.14-.26.42-.8.76-1.62,1.02-.88.31-1.9.55-3.07.73s-2.29.26-3.37.26c-2.4,0-4.48-.47-6.24-1.42-1.76-.95-3.11-2.31-4.04-4.11-.94-1.79-1.4-3.93-1.4-6.42s.47-4.56,1.4-6.35c.93-1.79,2.26-3.17,3.98-4.12s3.74-1.44,6.07-1.44c3.1,0,5.64.84,7.62,2.51.26.24.46.48.58.73.12.24.18.53.18.86,0,.48-.13.89-.4,1.22-.26.33-.58.5-.96.5-.24,0-.46-.04-.66-.12-.2-.08-.43-.2-.69-.38-.97-.68-1.87-1.16-2.71-1.44-.84-.27-1.78-.41-2.84-.41-2.4,0-4.21.71-5.43,2.13-1.22,1.42-1.83,3.53-1.83,6.32,0,5.72,2.51,8.58,7.52,8.58,1.5,0,2.99-.21,4.49-.63v-5.84h-3.73c-.53,0-.94-.13-1.24-.4s-.45-.64-.45-1.12.15-.86.45-1.12.71-.4,1.24-.4h5.84c.51,0,.91.15,1.22.45Z"/>
      <path class="cls-2" d="m585.03,215.41c-1.66-.97-2.94-2.35-3.84-4.16s-1.35-3.92-1.35-6.34.45-4.53,1.34-6.32c.89-1.79,2.17-3.17,3.84-4.14s3.64-1.45,5.91-1.45,4.23.48,5.89,1.45c1.66.97,2.94,2.35,3.83,4.14.89,1.79,1.34,3.9,1.34,6.32s-.45,4.53-1.35,6.34c-.9,1.8-2.18,3.19-3.84,4.16-1.66.97-3.61,1.45-5.86,1.45s-4.23-.48-5.89-1.45Zm10.89-4.16c1.2-1.47,1.8-3.59,1.8-6.34s-.6-4.86-1.8-6.32-2.87-2.2-5-2.2-3.83.73-5.03,2.2c-1.2,1.46-1.8,3.57-1.8,6.32s.6,4.86,1.8,6.34c1.2,1.47,2.88,2.21,5.03,2.21s3.8-.74,5-2.21Z"/>
      <path class="cls-2" d="m623.7,206.6c.74.99,1.11,2.2,1.11,3.63,0,1.98-.71,3.53-2.13,4.65s-3.37,1.68-5.86,1.68h-8.51c-.64,0-1.14-.18-1.5-.53-.36-.35-.54-.85-.54-1.49v-19.24c0-.64.18-1.13.54-1.48.36-.35.86-.53,1.5-.53h8.18c2.42,0,4.32.53,5.69,1.6,1.37,1.07,2.06,2.56,2.06,4.47,0,1.23-.33,2.3-.97,3.2-.65.9-1.55,1.56-2.69,1.98,1.34.37,2.38,1.06,3.12,2.05Zm-13.28-3.5h5.38c2.93,0,4.39-1.09,4.39-3.27,0-1.1-.36-1.91-1.09-2.44-.73-.53-1.83-.79-3.3-.79h-5.38v6.5Zm9.31,9.34c.7-.55,1.06-1.41,1.06-2.57s-.36-2.03-1.07-2.61-1.83-.86-3.35-.86h-5.94v6.86h5.94c1.54,0,2.66-.27,3.37-.83Z"/>
      <path class="cls-2" d="m650.08,214.89c0,.51-.2.94-.61,1.29-.41.35-.88.53-1.4.53-.35,0-.68-.09-.99-.28-.31-.19-.55-.48-.73-.87l-1.98-4.42h-11.62l-1.98,4.42c-.18.4-.42.69-.73.87-.31.19-.65.28-1.02.28-.51,0-.97-.18-1.39-.53s-.63-.78-.63-1.29c0-.29.07-.57.2-.86l9.11-19.57c.2-.44.5-.78.91-1.01.41-.23.84-.35,1.3-.35s.9.12,1.3.35c.41.23.71.57.91,1.01l9.14,19.57c.13.29.2.57.2.86Zm-15.87-7.06h8.71l-4.36-9.8-4.36,9.8Z"/>
      <path class="cls-2" d="m653.86,216.17c-.39-.4-.58-.91-.58-1.55v-19.37c0-.64.19-1.15.58-1.54.38-.38.9-.58,1.53-.58s1.18.19,1.57.58c.38.39.58.9.58,1.54v19.37c0,.64-.19,1.15-.58,1.55-.38.4-.91.59-1.57.59s-1.15-.2-1.53-.59Z"/>
      <path class="cls-2" d="m681.65,193.72c.36.39.54.9.54,1.54v19.37c0,.64-.19,1.15-.56,1.55-.37.4-.86.59-1.45.59-.7,0-1.24-.25-1.62-.76l-12.04-15.67v14.29c0,.64-.18,1.15-.53,1.55-.35.4-.84.59-1.45.59s-1.1-.2-1.45-.59c-.35-.4-.53-.91-.53-1.55v-19.37c0-.64.19-1.15.56-1.54.37-.38.87-.58,1.48-.58.68,0,1.21.25,1.58.76l12.01,15.61v-14.26c0-.64.18-1.15.54-1.54.36-.38.84-.58,1.44-.58s1.11.19,1.47.58Z"/>
    </g>
  </g>
</svg>