<svg width="470" height="160" viewBox="0 0 470 160" fill="none" xmlns="http://www.w3.org/2000/svg">
<g clip-path="url(#clip0_1127_8647)">
<path d="M446.955 54.2574H414.328C413.122 54.2594 411.934 53.9704 410.864 53.4159C409.794 52.8609 408.874 52.0564 408.181 51.0704C407.488 50.0844 407.042 48.9461 406.882 47.7515C406.723 46.5569 406.853 45.3414 407.263 44.2079L421.216 6.32294C421.895 4.47889 423.121 2.88597 424.73 1.75675C426.338 0.627519 428.253 0.0156849 430.218 0.00289039C432.183 -0.00990408 434.106 0.576949 435.729 1.68514C437.352 2.79333 438.598 4.37014 439.302 6.20519L453.914 44.0901C454.353 45.2214 454.51 46.4427 454.371 47.6483C454.232 48.8538 453.801 50.0074 453.115 51.0089C452.43 52.0104 451.511 52.8294 450.437 53.3954C449.364 53.9614 448.169 54.2574 446.955 54.2574Z" fill="#565656"/>
<path d="M446.849 13.9471C445.422 13.9564 444.015 14.28 442.728 14.895L453.914 44.0314C454.354 45.1636 454.51 46.3859 454.371 47.5924C454.231 48.7989 453.799 49.9531 453.112 50.955C452.425 51.9565 451.505 52.7755 450.43 53.341C449.355 53.9065 448.158 54.2005 446.943 54.199H425.26L423.841 58.102C423.427 59.235 423.293 60.452 423.451 61.648C423.609 62.844 424.054 63.984 424.748 64.971C425.442 65.9575 426.365 66.7615 427.437 67.3145C428.51 67.8675 429.7 68.1525 430.906 68.146H463.534C464.748 68.1475 465.943 67.853 467.018 67.288C468.092 66.723 469.013 65.9045 469.699 64.9035C470.386 63.9025 470.818 62.7495 470.958 61.5435C471.099 60.338 470.943 59.1165 470.504 57.9845L455.88 20.0935C455.15 18.2917 453.903 16.7464 452.296 15.6525C450.688 14.5587 448.793 13.9653 446.849 13.9471Z" fill="#6D6D6D"/>
<path d="M442.728 14.895C440.443 15.9835 438.665 17.9108 437.765 20.2761L425.289 54.199H446.984C448.195 54.194 449.387 53.8945 450.456 53.3265C451.526 52.7585 452.441 51.9385 453.123 50.938C453.805 49.9372 454.234 48.7855 454.371 47.5823C454.509 46.379 454.352 45.1604 453.913 44.0314L442.728 14.895Z" fill="black"/>
<path d="M61.1755 120.514H23.2903L17.2617 137.893H0L31.1498 50.89H53.669L84.819 137.893H67.0275L61.1755 120.514ZM56.265 106.273L52.839 96.2225C49.0591 85.172 45.0969 74.298 42.2004 64.131C39.2567 74.298 35.3475 85.4665 31.562 96.458L28.2592 106.273H56.265Z" fill="black"/>
<path d="M91.5555 58.5145C91.531 56.638 92.065 54.7965 93.09 53.224C94.1145 51.652 95.584 50.42 97.3105 49.6854C99.0375 48.9505 100.944 48.7457 102.787 49.0972C104.63 49.4486 106.328 50.3405 107.663 51.659C108.998 52.9775 109.911 54.6635 110.286 56.5025C110.66 58.3415 110.48 60.2505 109.766 61.986C109.053 63.722 107.84 65.2065 106.281 66.251C104.721 67.2955 102.887 67.8525 101.01 67.8515C99.775 67.8655 98.5485 67.6345 97.403 67.1715C96.257 66.709 95.2145 66.0235 94.335 65.155C93.456 64.287 92.7575 63.253 92.2805 62.113C91.8035 60.973 91.557 59.75 91.5555 58.5145ZM108.993 137.893H93.0215V75.24H108.982L108.993 137.893Z" fill="black"/>
<path d="M160.941 76.3646L158.103 90.1941C155.508 89.4396 152.827 89.0221 150.126 88.9521C141.671 88.9521 136.414 95.6931 136.414 106.979V137.893H120.453V75.2401H135.29V84.4596C138.233 78.4311 143.267 74.5336 150.956 74.5336C154.441 74.5336 157.102 75.2991 160.941 76.3646Z" fill="black"/>
<path d="M241.564 137.893H224.426V99.4135H185.535V137.893H168.379V50.89H185.523V84.9955H224.426V50.89H241.564V137.893Z" fill="black"/>
<path d="M302.203 117.8L311.128 127.608C301.968 136.945 293.337 139.842 283.175 139.842C262.958 139.842 250.312 126.843 250.312 106.873C250.312 87.486 262.087 73.1855 281.815 73.1855C300.908 73.1855 311.128 85.184 311.128 104.453C311.128 106.402 311.011 109.357 310.893 110.717H265.914C267.274 119.76 272.655 126.378 283.576 126.378C290.976 126.366 294.874 123.946 302.203 117.8ZM266.326 99.2955H295.645C295.056 90.965 290.146 85.702 281.403 85.702C272.949 85.702 268.045 91.2005 266.326 99.2955Z" fill="black"/>
<path d="M337.255 137.893H321.359V50.89H337.255V137.893Z" fill="black"/>
<path d="M410.938 106.56C410.938 126.895 399.057 139.659 383.096 139.659C374.648 139.659 368.502 136.715 364.363 131.446V159.994H348.426V75.299H363.25V83.541C367.448 77.271 373.889 73.4915 383.226 73.4915C399.163 73.468 410.938 86.2905 410.938 106.56ZM394.741 106.56C394.741 94.786 388.948 87.1735 379.552 87.1735C370.333 87.1735 363.709 94.5035 363.709 106.56C363.709 118.794 370.568 125.83 379.376 125.83C388.501 125.777 394.765 118.447 394.765 106.56H394.741Z" fill="black"/>
</g>
<defs>
<clipPath id="clip0_1127_8647">
<rect width="470" height="160" fill="white"/>
</clipPath>
</defs>
</svg>
