<svg width="1234" height="228" viewBox="0 0 1234 228" fill="none" xmlns="http://www.w3.org/2000/svg">
<g clip-path="url(#clip0_1127_8606)">
<path d="M318.113 51.0395H336.665V111.131H385.924V126.962H318.113V51.0395ZM458.819 51.0395H480.25L519.048 126.962H499.184L491.603 111.514H446.791L439.337 126.962H419.747L458.819 51.0395ZM484.295 96.5966L468.878 65.1723L453.862 96.5966H484.295ZM551.067 89.0007C551.067 66.3591 571.969 49.4692 599.141 49.4692C615.87 49.4692 628.153 55.0931 635.206 61.2465L624.235 72.896C618.877 67.7833 610.385 64.2593 599.141 64.2593C581.245 64.2593 569.619 74.4663 569.619 89.0007C569.619 103.535 580.717 113.742 598.357 113.742C607.378 113.742 615.087 112.3 620.827 109.816V98.1669H598.886V84.162H637.046V117.814C626.203 125.282 612.098 128.55 598.248 128.55C569.108 128.55 551.085 113.103 551.085 89.0189L551.067 89.0007ZM688.911 51.0395H707.463V80.8935H750.708V51.0395H769.259V126.962H750.708V96.5966H707.463V126.962H688.911V51.0395ZM822.181 51.0395H890.903V65.9574H840.332V81.277H874.173V96.1949H840.332V112.026H891.941V126.944H822.163V51.0395H822.181ZM957.018 65.574H926.84V51.0395H1005.75V65.574H975.57V127.108H957.018V65.574ZM1064.81 65.574H1034.63V51.0395H1113.54V65.574H1083.36V127.108H1064.81V65.574ZM1140.2 89.0007C1140.2 66.0852 1160.58 49.4692 1187.11 49.4692C1213.64 49.4692 1234.02 65.8296 1234.02 89.0007C1234.02 112.172 1213.63 128.532 1187.11 128.532C1160.6 128.532 1140.2 112.172 1140.2 89.0007ZM1215.19 89.0007C1215.19 74.7402 1203.57 64.2593 1187.11 64.2593C1170.65 64.2593 1159.03 74.4663 1159.03 89.0007C1159.03 103.535 1170.65 113.742 1187.11 113.742C1203.57 113.742 1215.19 103.535 1215.19 89.0007Z" fill="black"/>
<path d="M318.387 205.112V179.476H323.088V189.171H337.977V179.476H342.679V205.112H337.977V193.097H323.088V205.112H318.387Z" fill="black"/>
<path d="M368.795 178.691C377.433 178.691 384.303 184.734 384.303 192.239C384.303 199.744 377.433 205.897 368.795 205.897C360.157 205.897 353.414 199.853 353.414 192.239C353.414 184.625 360.157 178.691 368.795 178.691ZM368.795 201.971C374.699 201.971 379.365 197.571 379.365 192.239C379.365 186.907 374.718 182.616 368.795 182.616C362.872 182.616 358.353 186.944 358.353 192.239C358.353 197.534 362.927 201.971 368.795 201.971Z" fill="black"/>
<path d="M390.789 179.476H416.995V183.401H406.261V205.112H401.559V183.401H390.789V179.476Z" fill="black"/>
<path d="M441.489 193.681H430.956V201.186H449.489V205.112H426.254V179.476H448.487V183.401H430.956V189.756H441.489V193.681ZM438.136 171.35H443.84L438.099 176.445H433.944L438.136 171.35Z" fill="black"/>
<path d="M459.676 205.112V179.476H464.378V205.112H459.676Z" fill="black"/>
<path d="M496.725 185.483C495.213 184.187 491.823 182.507 486.793 182.507C483.531 182.507 480.634 183.493 480.634 186.195C480.634 188.898 484.697 189.098 488.852 189.372C493.755 189.683 501.481 190.157 501.481 197.297C501.481 203.505 495.941 205.897 489.399 205.897C482.183 205.897 477.499 203.103 474.438 200.51L477.28 197.443C479.504 199.324 483.367 202.081 489.49 202.081C493.554 202.081 496.78 200.784 496.78 197.881C496.78 194.667 493.627 193.992 488.852 193.645C482.82 193.262 475.932 192.787 475.932 186.579C475.932 180.37 481.927 178.691 486.957 178.691C492.752 178.691 497.399 180.809 499.586 182.415L496.743 185.483H496.725Z" fill="black"/>
<path d="M509.535 210.024C511.631 209.512 515.148 207.741 515.148 205.55V205.24C514.82 205.313 514.401 205.44 513.982 205.44C512.086 205.44 510.665 204.272 510.665 202.738C510.665 201.204 512.086 200.036 513.982 200.036C516.333 200.036 518.556 201.88 518.556 204.473C518.556 209.384 514.073 211.612 510.847 212.635L509.553 210.042L509.535 210.024Z" fill="black"/>
<path d="M543.539 205.112V179.476H558.628C562.273 179.476 564.788 180.425 566.556 182.178C567.941 183.548 568.742 185.355 568.742 187.327C568.742 190.778 566.319 193.408 562.71 194.667L569.253 205.112H563.84L557.972 195.252H548.241V205.112H543.539ZM548.241 183.401V191.326H559.485C561.963 191.326 564.059 189.518 564.059 187.327C564.059 186.341 563.64 185.483 562.929 184.771C561.635 183.511 560.123 183.401 558.646 183.401H548.241Z" fill="black"/>
<path d="M595.079 193.681H584.545V201.186H603.079V205.112H579.844V179.476H602.077V183.401H584.545V189.756H595.079V193.681Z" fill="black"/>
<path d="M633.604 185.483C632.091 184.187 628.702 182.507 623.672 182.507C620.41 182.507 617.512 183.493 617.512 186.195C617.512 188.898 621.576 189.098 625.731 189.372C630.633 189.683 638.36 190.157 638.36 197.297C638.36 203.505 632.82 205.897 626.278 205.897C619.061 205.897 614.378 203.103 611.316 200.51L614.159 197.443C616.383 199.324 620.246 202.081 626.369 202.081C630.433 202.081 633.659 200.784 633.659 197.881C633.659 194.667 630.506 193.992 625.731 193.645C619.699 193.262 612.811 192.787 612.811 186.579C612.811 180.37 618.806 178.691 623.836 178.691C629.631 178.691 634.278 180.809 636.465 182.415L633.622 185.483H633.604Z" fill="black"/>
<path d="M661.959 178.691C670.597 178.691 677.467 184.734 677.467 192.239C677.467 199.744 670.597 205.897 661.959 205.897C653.321 205.897 646.578 199.853 646.578 192.239C646.578 184.625 653.321 178.691 661.959 178.691ZM661.959 201.971C667.863 201.971 672.529 197.571 672.529 192.239C672.529 186.907 667.882 182.616 661.959 182.616C656.036 182.616 651.517 186.944 651.517 192.239C651.517 197.534 656.091 201.971 661.959 201.971Z" fill="black"/>
<path d="M688.219 205.112V179.476H703.308C706.953 179.476 709.468 180.425 711.235 182.178C712.62 183.548 713.422 185.355 713.422 187.327C713.422 190.778 710.998 193.408 707.39 194.667L713.932 205.112H708.52L702.652 195.252H692.92V205.112H688.219ZM692.92 183.401V191.326H704.164C706.643 191.326 708.739 189.518 708.739 187.327C708.739 186.341 708.32 185.483 707.609 184.771C706.315 183.511 704.802 183.401 703.326 183.401H692.92Z" fill="black"/>
<path d="M721.387 179.476H747.592V183.401H736.859V205.112H732.157V183.401H721.387V179.476Z" fill="black"/>
<path d="M776.768 185.483C775.255 184.187 771.866 182.507 766.836 182.507C763.574 182.507 760.677 183.493 760.677 186.195C760.677 188.898 764.74 189.098 768.895 189.372C773.798 189.683 781.524 190.157 781.524 197.297C781.524 203.505 775.984 205.897 769.442 205.897C762.226 205.897 757.542 203.103 754.48 200.51L757.323 197.443C759.547 199.324 763.41 202.081 769.533 202.081C773.597 202.081 776.823 200.784 776.823 197.881C776.823 194.667 773.67 193.992 768.895 193.645C762.863 193.262 755.975 192.787 755.975 186.579C755.975 180.37 761.97 178.691 767 178.691C772.795 178.691 777.442 180.809 779.629 182.415L776.786 185.483H776.768Z" fill="black"/>
<path d="M821.997 184.534C820.776 183.712 818.553 182.616 816.257 182.616C814.197 182.616 813.031 183.876 813.031 185.355C813.031 187.601 816.548 190.377 817.678 191.563L822.926 196.822C824.348 195.288 825.824 193.371 827.245 190.979L831.018 192.787C829.177 195.526 827.373 197.772 825.605 199.543L831.218 205.112H825.059L822.289 202.373C818.771 204.929 815.528 205.751 812.976 205.751C809.295 205.751 803.336 203.943 803.336 197.625C803.336 192.915 806.489 190.906 809.878 189.701C808.876 188.368 808.329 187.035 808.329 185.465C808.329 181.302 812.065 178.709 816.348 178.709C819.701 178.709 822.507 180.078 824.348 181.101L821.997 184.552V184.534ZM812.302 192.458C810.498 193.207 808.019 194.467 808.019 197.37C808.019 200.437 810.917 201.807 813.432 201.807C815.2 201.807 817.332 201.186 819.555 199.689L813.723 193.882L812.302 192.476V192.458Z" fill="black"/>
<path d="M870.618 193.681H860.085V201.186H878.618V205.112H855.383V179.476H877.616V183.401H860.085V189.756H870.618V193.681Z" fill="black"/>
<path d="M914.613 179.476L903.842 191.728L915.159 205.112H909.164L900.781 194.832L892.052 205.112H886.348L897.956 191.929L887.478 179.476H893.473L901.018 188.824L908.909 179.476H914.613Z" fill="black"/>
<path d="M924.379 205.112V179.476H939.468C943.332 179.476 945.719 180.498 947.395 182.178C948.872 183.675 949.582 185.428 949.582 187.327C949.582 189.518 948.616 191.454 947.067 192.86C945.427 194.321 943.131 195.252 939.486 195.252H929.081V205.112H924.379ZM929.081 183.401V191.326H939.486C940.653 191.326 942.293 191.253 943.641 190.066C944.443 189.354 944.899 188.386 944.899 187.364C944.899 186.341 944.48 185.483 943.769 184.771C942.512 183.511 940.835 183.401 939.486 183.401H929.081Z" fill="black"/>
<path d="M974.348 193.681H963.815V201.186H982.349V205.112H959.113V179.476H981.346V183.401H963.815V189.756H974.348V193.681Z" fill="black"/>
<path d="M992.445 205.112V179.476H1007.53C1011.18 179.476 1013.69 180.425 1015.46 182.178C1016.85 183.548 1017.65 185.355 1017.65 187.327C1017.65 190.778 1015.22 193.408 1011.62 194.667L1018.16 205.112H1012.75L1006.88 195.252H997.147V205.112H992.445ZM997.147 183.401V191.326H1008.39C1010.87 191.326 1012.97 189.518 1012.97 187.327C1012.97 186.341 1012.55 185.483 1011.84 184.771C1010.54 183.511 1009.03 183.401 1007.55 183.401H997.147Z" fill="black"/>
<path d="M1028.75 205.112V179.476H1033.45V205.112H1028.75Z" fill="black"/>
<path d="M1061.37 193.681H1050.83V201.186H1069.37V205.112H1046.13V179.476H1068.37V183.401H1050.83V189.756H1061.37V193.681ZM1054.86 171.222H1059.73L1064.01 176.445H1060.53L1057.3 173.541L1054.04 176.445H1050.56L1054.88 171.222H1054.86Z" fill="black"/>
<path d="M1104.18 179.476V205.112H1100.02L1084.2 187.327H1084.17V205.112H1079.46V179.476H1083.62L1099.42 197.26H1099.46V179.476H1104.16H1104.18Z" fill="black"/>
<path d="M1143.47 200.547C1140.53 203.286 1135.92 205.879 1129.96 205.879C1120.94 205.879 1115 199.798 1115 192.257C1115 184.716 1121 178.672 1129.76 178.672C1134.75 178.672 1139.53 180.516 1142.59 183.182L1139.4 186.122C1136.98 183.968 1133.19 182.598 1129.83 182.598C1123.84 182.598 1119.94 186.999 1119.94 192.294C1119.94 197.589 1123.93 201.953 1130.05 201.953C1134.34 201.953 1137.98 199.981 1140.33 197.625L1143.48 200.529L1143.47 200.547Z" fill="black"/>
<path d="M1153.02 205.112V179.476H1157.72V205.112H1153.02Z" fill="black"/>
<path d="M1179.51 179.476H1183.79L1196.49 205.112H1191.34L1188.02 198.21H1174.97L1171.71 205.112H1166.81L1179.51 179.476ZM1176.67 194.667H1186.34L1181.64 184.734H1181.39L1176.65 194.667H1176.67Z" fill="black"/>
<path d="M1225.53 185.483C1224.01 184.187 1220.62 182.507 1215.59 182.507C1212.33 182.507 1209.43 183.493 1209.43 186.195C1209.43 188.898 1213.5 189.098 1217.65 189.372C1222.56 189.683 1230.28 190.157 1230.28 197.297C1230.28 203.505 1224.74 205.897 1218.2 205.897C1210.98 205.897 1206.28 203.103 1203.24 200.51L1206.08 197.443C1208.3 199.324 1212.17 202.081 1218.29 202.081C1222.35 202.081 1225.58 200.784 1225.58 197.881C1225.58 194.667 1222.43 193.992 1217.65 193.645C1211.62 193.262 1204.73 192.787 1204.73 186.579C1204.73 180.37 1210.73 178.691 1215.76 178.691C1221.55 178.691 1226.2 180.809 1228.39 182.415L1225.54 185.483H1225.53Z" fill="black"/>
<path d="M157.852 14.4479C148.157 5.86598 135.382 0.954224 122.717 0.954224C112.293 0.954224 102.343 4.29568 93.8867 10.6317L94.5974 11.782C100.265 9.40829 106.133 8.20318 112.038 8.20318C125.669 8.20318 137.168 13.0784 147.209 23.1393L234.428 110.382H253.617L157.852 14.4479Z" fill="black"/>
<path d="M74.9527 49.5788C90.1877 49.5788 98.8622 54.8375 108.685 63.9306L155.009 110.382H173.67L118.307 54.8923C107.209 44.5757 95.509 39.3718 83.5178 39.3718C59.0251 39.3718 40.765 62.0682 38.6328 64.8436L39.5258 65.9757C42.9336 62.5977 58.9705 49.5788 74.9344 49.5788H74.9527Z" fill="black"/>
<path d="M103.217 19.8162C94.142 19.8162 85.267 22.6829 76.8477 28.3798L77.6131 29.7127C86.9618 26.3347 96.347 26.0974 105.422 28.8911C112.949 31.21 120.603 36.0122 128.785 43.5898L195.411 110.382H213.562L138.699 35.3731C127.728 25.2027 115.445 19.8162 103.217 19.8162Z" fill="black"/>
<path d="M141.398 220.705C127.766 220.705 116.267 215.812 106.226 205.769L19.1713 118.727H0L95.6016 214.479C105.297 223.042 118.09 227.954 130.737 227.954C141.143 227.954 151.111 224.613 159.567 218.295L158.838 217.145C153.188 219.518 147.32 220.724 141.416 220.724L141.398 220.705Z" fill="black"/>
<path d="M178.485 179.33C163.25 179.33 154.575 174.071 144.753 164.978L98.6103 118.709H79.9492L135.131 174.016C146.229 184.333 157.928 189.518 169.92 189.518C194.412 189.518 212.672 166.822 214.805 164.047L213.912 162.914C210.504 166.292 194.467 179.311 178.503 179.311L178.485 179.33Z" fill="black"/>
<path d="M148.012 200.036C140.486 197.717 132.832 192.915 124.649 185.337L58.2055 118.709H40.0547L114.735 193.535C125.706 203.706 137.989 209.092 150.217 209.092C159.292 209.092 168.167 206.207 176.587 200.529L175.821 199.196C166.473 202.574 157.069 202.811 148.012 200.017V200.036Z" fill="black"/>
</g>
<defs>
<clipPath id="clip0_1127_8606">
<rect width="1234" height="227" fill="white" transform="translate(0 0.954224)"/>
</clipPath>
</defs>
</svg>
