<svg width="130" height="21" viewBox="0 0 130 21" fill="none" xmlns="http://www.w3.org/2000/svg">
<g style="mix-blend-mode:difference">
<path d="M0 0H4.70129L9.02966 15.496H9.97546L14.2185 0H18.776L12.7844 20.1542H6.04773L0 0ZM23.7356 0H30.4431L36.4916 20.1542H31.8764L30.6438 15.8309H23.3911L22.187 20.1542H17.7441L23.7356 0ZM29.4973 11.7214L27.4619 4.50629H26.5161L24.5092 11.7214H29.4973ZM38.8707 0H43.1706V15.9836H51.1968V20.1542H38.8707V0ZM58.5071 0V8.28089L65.2145 0H70.3741L63.1215 8.70718L71.1477 20.1542H65.9589L60.1972 11.995L58.5056 13.9436V20.1542H54.2057V0H58.5071ZM73.3276 0H77.6275V20.1542H73.3276V0ZM81.8982 0H90.6411C94.6834 0 97.2347 2.37483 97.2347 6.15022C97.2347 8.92033 95.8299 10.9905 93.4508 11.9958L97.8937 20.155H92.9633L88.9786 12.6353H86.1405V20.155H81.8982V0ZM90.3835 8.64594C91.9313 8.64594 92.9064 7.70189 92.9064 6.21067C92.9064 4.84033 91.9313 3.98774 90.3835 3.98774H86.1412V8.64594H90.3835ZM100.674 0H104.974V20.1542H100.674V0ZM113.373 0H120.081L126.13 20.1542H121.515L120.282 15.8309H113.03L111.825 20.1542H107.382L113.373 0ZM119.136 11.7214L117.1 4.50629H116.154L114.148 11.7214H119.136ZM126.847 0C128.624 0 130 1.4618 130 3.3491C130 5.2364 128.624 6.72842 126.847 6.72842C125.07 6.72842 123.665 5.2364 123.665 3.3491C123.665 1.4618 125.069 0 126.847 0ZM126.847 6.02854C128.308 6.02854 129.341 4.90157 129.341 3.3491C129.341 1.79663 128.309 0.700678 126.847 0.700678C125.384 0.700678 124.324 1.79663 124.324 3.3491C124.324 4.90157 125.385 6.02854 126.847 6.02854ZM125.642 1.55247H126.932C127.706 1.55247 128.222 1.97876 128.222 2.58718C128.222 3.07392 127.907 3.50021 127.391 3.59167L128.251 5.0837H127.534L126.731 3.62189H126.273V5.0837H125.642V1.55247ZM126.961 3.07471C127.363 3.07471 127.592 2.89179 127.592 2.58798C127.592 2.28416 127.362 2.10044 126.961 2.10044H126.273V3.07471H126.961Z" fill="black"/>
</g>
</svg>
