<svg width="208" height="26" viewBox="0 0 208 26" fill="none" xmlns="http://www.w3.org/2000/svg">
<path d="M51.966 12.4115C51.966 17.6738 48.1652 21.9504 43.4914 21.9504C38.8176 21.9504 35.0168 17.6689 35.0168 12.4115V1.00903H31.3533V12.4115C31.3533 19.6895 36.797 25.6139 43.4865 25.6139C50.1759 25.6139 55.6197 19.6895 55.6197 12.4115V1.00903H51.9562V12.4115H51.966Z" fill="black"/>
<path d="M156.883 24.736H177.668V21.1461H160.547V14.8342H174.632V11.1707H160.547V4.66763H177.668V1.00903H156.883V24.736Z" fill="black"/>
<path d="M204.087 3.90747H204.205C204.337 3.90747 204.436 3.91727 204.494 3.94177C204.553 3.96137 204.612 4.00067 204.666 4.05947C204.72 4.11837 204.823 4.25567 204.97 4.47637L205.387 5.09427H206.074L205.725 4.54007C205.588 4.31937 205.48 4.16247 205.397 4.07907C205.318 3.99077 205.215 3.91237 205.088 3.83877C205.338 3.80447 205.524 3.71617 205.652 3.57397C205.779 3.43667 205.838 3.26007 205.838 3.04427C205.838 2.87757 205.799 2.72547 205.716 2.59797C205.632 2.46557 205.524 2.37727 205.387 2.32337C205.25 2.27427 205.029 2.24487 204.725 2.24487H203.514V5.08937H204.087V3.90257V3.90747ZM204.534 2.73037C204.769 2.73037 204.906 2.73037 204.95 2.74017C205.044 2.75497 205.117 2.79417 205.166 2.85297C205.215 2.91187 205.245 2.99037 205.245 3.08347C205.245 3.16687 205.225 3.24047 205.186 3.29437C205.147 3.35327 205.093 3.39247 205.024 3.41697C204.955 3.44157 204.784 3.45137 204.509 3.45137H204.082V2.73037H204.534Z" fill="black"/>
<path d="M204.637 6.45284C206.108 6.45284 207.305 5.25624 207.305 3.78494C207.305 2.31364 206.108 1.11694 204.637 1.11694C203.165 1.11694 201.969 2.31364 201.969 3.78494C201.969 5.25624 203.165 6.45284 204.637 6.45284ZM204.637 1.43084C205.936 1.43084 206.991 2.48524 206.991 3.78494C206.991 5.08454 205.936 6.13894 204.637 6.13894C203.337 6.13894 202.283 5.08454 202.283 3.78494C202.283 2.48524 203.337 1.43084 204.637 1.43084Z" fill="black"/>
<path d="M20.2351 1.73983C20.2351 7.07073 16.2136 11.4061 11.275 11.4061H3.6635V1.00903H0V24.7409H3.6635V15.0745H11.2799C16.2234 15.0745 20.24 19.4099 20.24 24.7409H23.9035C23.9035 19.8464 21.3876 15.5601 17.6555 13.2403C21.3925 10.9206 23.9035 6.63923 23.9035 1.73983V1.00903H20.24V1.73983H20.2351Z" fill="black"/>
<path d="M83.373 14.4126C85.9723 13.5151 87.5466 11.1904 87.5466 7.99275C87.5466 3.81435 84.8345 1.00415 80.7934 1.00415H63.9814V24.736H67.6449V14.8245H75.2613C80.1166 14.8245 84.2214 19.3266 84.2214 24.736H87.885C87.885 21.1902 86.5951 17.8799 84.2509 15.2904C83.9713 14.9815 83.682 14.6921 83.3779 14.4126H83.373ZM80.7934 11.161H67.64V4.66275H80.7934C83.3485 4.66275 83.883 6.47245 83.883 7.99275C83.883 10.0968 82.8433 11.161 80.7934 11.161Z" fill="black"/>
<path d="M125.167 4.66763H135.329V24.736H138.988V4.66763H149.149V1.00903H125.167V4.66763Z" fill="black"/>
<path d="M190.115 21.1461V1.00903H186.456V24.736H207.344V21.1461H190.115Z" fill="black"/>
<path d="M121.376 12.9803C121.352 5.9917 115.261 0.3125 107.777 0.3125C100.293 0.3125 94.202 5.9917 94.177 12.9803C94.177 12.9803 94.177 12.995 94.177 12.9999C94.177 13.0048 94.177 13.0146 94.177 13.0195C94.202 20.0082 100.293 25.6873 107.777 25.6873C115.261 25.6873 121.352 20.0082 121.376 13.0195C121.376 13.0195 121.376 13.0048 121.376 12.9999C121.376 12.995 121.376 12.9852 121.376 12.9803ZM107.777 22.0287C102.304 22.0287 97.85 17.9827 97.836 12.9999C97.85 8.0221 102.304 3.9711 107.777 3.9711C113.25 3.9711 117.703 8.0172 117.718 12.9999C117.703 17.9778 113.25 22.0287 107.777 22.0287Z" fill="black"/>
</svg>
