<svg width="20" height="20" viewBox="0 0 20 20" fill="none" xmlns="http://www.w3.org/2000/svg">
<path d="M14.0809 10.9346C14.0438 10.9168 12.6565 10.2337 12.41 10.145C12.3093 10.1088 12.2015 10.0736 12.0869 10.0736C11.8995 10.0736 11.7422 10.1669 11.6196 10.3503C11.481 10.5563 11.0615 11.0467 10.9319 11.1931C10.9149 11.2125 10.8918 11.2356 10.878 11.2356C10.8656 11.2356 10.6509 11.1472 10.5859 11.1189C9.09767 10.4725 7.96807 8.91794 7.81318 8.65579C7.79106 8.6181 7.79013 8.60099 7.78995 8.60099C7.79538 8.58103 7.84543 8.53086 7.87125 8.50498C7.94682 8.43022 8.02868 8.33167 8.10789 8.23634C8.14539 8.19117 8.18295 8.14595 8.21984 8.10332C8.33476 7.96961 8.38592 7.86582 8.44523 7.74558L8.47631 7.68312C8.62113 7.39539 8.49744 7.15258 8.45746 7.07418C8.42465 7.00856 7.83888 5.59481 7.7766 5.44628C7.62683 5.08787 7.42894 4.92099 7.15394 4.92099C7.12842 4.92099 7.15394 4.92099 7.04693 4.9255C6.91662 4.931 6.20703 5.02442 5.89329 5.22219C5.56058 5.43195 4.99773 6.10058 4.99773 7.27646C4.99773 8.33476 5.66932 9.334 5.95767 9.71403C5.96484 9.72361 5.978 9.74307 5.99709 9.771C7.10136 11.3837 8.47797 12.5788 9.8735 13.1363C11.217 13.673 11.8532 13.735 12.2149 13.735H12.2149C12.3669 13.735 12.4886 13.7231 12.5959 13.7125L12.664 13.706C13.1281 13.6649 14.148 13.1364 14.38 12.4917C14.5628 11.9839 14.611 11.429 14.4894 11.2277C14.4061 11.0908 14.2626 11.0219 14.0809 10.9346Z" fill="#EBEBED"/>
<path d="M9.68368 0C4.52988 0 0.336957 4.16142 0.336957 9.27648C0.336957 10.9309 0.779703 12.5503 1.61842 13.9676L0.0130839 18.7031C-0.0168197 18.7914 0.00542267 18.889 0.0707286 18.9555C0.11787 19.0036 0.181817 19.0296 0.247123 19.0296C0.272145 19.0296 0.297353 19.0258 0.321943 19.0179L5.25974 17.4489C6.61096 18.1708 8.13815 18.5519 9.68374 18.5519C14.837 18.552 19.0295 14.391 19.0295 9.27648C19.0295 4.16142 14.837 0 9.68368 0ZM9.68368 16.6196C8.22934 16.6196 6.82072 16.1997 5.60987 15.4051C5.56916 15.3784 5.52189 15.3646 5.47432 15.3646C5.44917 15.3646 5.42396 15.3685 5.39944 15.3763L2.9259 16.1625L3.7244 13.8067C3.75023 13.7305 3.73732 13.6464 3.68974 13.5814C2.76767 12.3215 2.28026 10.8329 2.28026 9.27648C2.28026 5.22695 5.60141 1.93236 9.68362 1.93236C13.7653 1.93236 17.0861 5.22695 17.0861 9.27648C17.0862 13.3255 13.7655 16.6196 9.68368 16.6196Z" fill="#EBEBED"/>
</svg>
