<svg width="83" height="12" viewBox="0 0 83 12" fill="none" xmlns="http://www.w3.org/2000/svg">
<path d="M0 7.80501H4V11.805H0V7.80501Z" fill="white"/>
<path d="M5.245 11.805V1.30501H9.79C10.73 1.30501 11.54 1.46001 12.22 1.77001C12.9 2.07001 13.425 2.50501 13.795 3.07501C14.165 3.64501 14.35 4.32501 14.35 5.11501C14.35 5.89501 14.165 6.57001 13.795 7.14001C13.425 7.70001 12.9 8.13001 12.22 8.43001C11.54 8.73001 10.73 8.88001 9.79 8.88001H6.595L7.675 7.81501V11.805H5.245ZM11.92 11.805L9.295 7.99501H11.89L14.545 11.805H11.92ZM7.675 8.08501L6.595 6.94501H9.655C10.405 6.94501 10.965 6.78501 11.335 6.46501C11.705 6.13501 11.89 5.68501 11.89 5.11501C11.89 4.53501 11.705 4.08501 11.335 3.76501C10.965 3.44501 10.405 3.28501 9.655 3.28501H6.595L7.675 2.13001V8.08501ZM20.987 11.805V10.23L20.837 9.88501V7.06501C20.837 6.56501 20.682 6.17501 20.372 5.89501C20.072 5.61501 19.607 5.47501 18.977 5.47501C18.547 5.47501 18.122 5.54501 17.702 5.68501C17.292 5.81501 16.942 5.99501 16.652 6.22501L15.812 4.59001C16.252 4.28001 16.782 4.04001 17.402 3.87001C18.022 3.70001 18.652 3.61501 19.292 3.61501C20.522 3.61501 21.477 3.90501 22.157 4.48501C22.837 5.06501 23.177 5.97001 23.177 7.20001V11.805H20.987ZM18.527 11.925C17.897 11.925 17.357 11.82 16.907 11.61C16.457 11.39 16.112 11.095 15.872 10.725C15.632 10.355 15.512 9.94001 15.512 9.48001C15.512 9.00001 15.627 8.58001 15.857 8.22001C16.097 7.86001 16.472 7.58001 16.982 7.38001C17.492 7.17001 18.157 7.06501 18.977 7.06501H21.122V8.43001H19.232C18.682 8.43001 18.302 8.52001 18.092 8.70001C17.892 8.88001 17.792 9.10501 17.792 9.37501C17.792 9.67501 17.907 9.91501 18.137 10.095C18.377 10.265 18.702 10.35 19.112 10.35C19.502 10.35 19.852 10.26 20.162 10.08C20.472 9.89001 20.697 9.61501 20.837 9.25501L21.197 10.335C21.027 10.855 20.717 11.25 20.267 11.52C19.817 11.79 19.237 11.925 18.527 11.925ZM26.9934 11.805L24.0834 3.73501H26.2884L28.7034 10.68H27.6534L30.1734 3.73501H32.1534L34.5984 10.68H33.5484L36.0384 3.73501H38.1084L35.1834 11.805H32.9184L30.7734 5.85001H31.4634L29.2434 11.805H26.9934ZM39.3612 11.805V1.30501H43.9062C44.8462 1.30501 45.6562 1.46001 46.3362 1.77001C47.0162 2.07001 47.5412 2.50501 47.9112 3.07501C48.2812 3.64501 48.4662 4.32501 48.4662 5.11501C48.4662 5.89501 48.2812 6.57001 47.9112 7.14001C47.5412 7.71001 47.0162 8.15001 46.3362 8.46001C45.6562 8.76001 44.8462 8.91001 43.9062 8.91001H40.7112L41.7912 7.81501V11.805H39.3612ZM41.7912 8.08501L40.7112 6.93001H43.7712C44.5212 6.93001 45.0812 6.77001 45.4512 6.45001C45.8212 6.13001 46.0062 5.68501 46.0062 5.11501C46.0062 4.53501 45.8212 4.08501 45.4512 3.76501C45.0812 3.44501 44.5212 3.28501 43.7712 3.28501H40.7112L41.7912 2.13001V8.08501ZM50.1825 11.805V3.73501H52.5225V11.805H50.1825ZM51.3525 2.61001C50.9225 2.61001 50.5725 2.48501 50.3025 2.23501C50.0325 1.98501 49.8975 1.67501 49.8975 1.30501C49.8975 0.935007 50.0325 0.625007 50.3025 0.375008C50.5725 0.125007 50.9225 7.03335e-06 51.3525 7.03335e-06C51.7825 7.03335e-06 52.1325 0.120007 52.4025 0.360008C52.6725 0.590008 52.8075 0.890008 52.8075 1.26001C52.8075 1.65001 52.6725 1.97501 52.4025 2.23501C52.1425 2.48501 51.7925 2.61001 51.3525 2.61001ZM53.6743 11.805L57.2893 7.06501L57.2443 8.35501L53.7793 3.73501H56.4043L58.5943 6.75001L57.6043 6.78001L59.8693 3.73501H62.3593L58.8793 8.31001V7.05001L62.4793 11.805H59.8243L57.5293 8.59501L58.5043 8.73001L56.2243 11.805H53.6743ZM67.3711 11.925C66.4511 11.925 65.6411 11.745 64.9411 11.385C64.2511 11.025 63.7161 10.535 63.3361 9.91501C62.9561 9.28501 62.7661 8.57001 62.7661 7.77001C62.7661 6.96001 62.9511 6.24501 63.3211 5.62501C63.7011 4.99501 64.2161 4.50501 64.8661 4.15501C65.5161 3.79501 66.2511 3.61501 67.0711 3.61501C67.8611 3.61501 68.5711 3.78501 69.2011 4.12501C69.8411 4.45501 70.3461 4.93501 70.7161 5.56501C71.0861 6.18501 71.2711 6.93001 71.2711 7.80001C71.2711 7.89001 71.2661 7.99501 71.2561 8.11501C71.2461 8.22501 71.2361 8.33001 71.2261 8.43001H64.6711V7.06501H69.9961L69.0961 7.47001C69.0961 7.05001 69.0111 6.68501 68.8411 6.37501C68.6711 6.06501 68.4361 5.82501 68.1361 5.65501C67.8361 5.47501 67.4861 5.38501 67.0861 5.38501C66.6861 5.38501 66.3311 5.47501 66.0211 5.65501C65.7211 5.82501 65.4861 6.07001 65.3161 6.39001C65.1461 6.70001 65.0611 7.07001 65.0611 7.50001V7.86001C65.0611 8.30001 65.1561 8.69001 65.3461 9.03001C65.5461 9.36001 65.8211 9.61501 66.1711 9.79501C66.5311 9.96501 66.9511 10.05 67.4311 10.05C67.8611 10.05 68.2361 9.98501 68.5561 9.85501C68.8861 9.72501 69.1861 9.53001 69.4561 9.27001L70.7011 10.62C70.3311 11.04 69.8661 11.365 69.3061 11.595C68.7461 11.815 68.1011 11.925 67.3711 11.925ZM72.829 11.805V0.675007H75.169V11.805H72.829ZM79.3887 11.829C78.9887 11.829 78.6181 11.757 78.2767 11.613C77.9354 11.469 77.6367 11.269 77.3807 11.013C77.1247 10.7517 76.9247 10.4503 76.7807 10.109C76.6421 9.76767 76.5727 9.39967 76.5727 9.00501C76.5727 8.61034 76.6447 8.24234 76.7887 7.90101C76.9327 7.55967 77.1327 7.26101 77.3887 7.00501C77.6447 6.74367 77.9434 6.54101 78.2847 6.39701C78.6314 6.25301 79.0047 6.18101 79.4047 6.18101C79.8047 6.18101 80.1754 6.25301 80.5167 6.39701C80.8634 6.53567 81.1621 6.73301 81.4127 6.98901C81.6687 7.24501 81.8661 7.54367 82.0047 7.88501C82.1487 8.22101 82.2207 8.58901 82.2207 8.98901C82.2207 9.38901 82.1487 9.76234 82.0047 10.109C81.8607 10.4503 81.6581 10.7517 81.3967 11.013C81.1407 11.269 80.8421 11.469 80.5007 11.613C80.1594 11.757 79.7887 11.829 79.3887 11.829ZM79.3887 11.309C79.7141 11.309 80.0154 11.2503 80.2927 11.133C80.5701 11.0103 80.8127 10.845 81.0207 10.637C81.2287 10.429 81.3887 10.1837 81.5007 9.90101C81.6181 9.61834 81.6767 9.31434 81.6767 8.98901C81.6767 8.66367 81.6181 8.36234 81.5007 8.08501C81.3887 7.80234 81.2314 7.55967 81.0287 7.35701C80.8314 7.14901 80.5941 6.98901 80.3167 6.87701C80.0394 6.75967 79.7354 6.70101 79.4047 6.70101C79.0794 6.70101 78.7754 6.75967 78.4927 6.87701C78.2154 6.99434 77.9727 7.15967 77.7647 7.37301C77.5621 7.58101 77.4047 7.82367 77.2927 8.10101C77.1807 8.37834 77.1247 8.67967 77.1247 9.00501C77.1247 9.33034 77.1807 9.63434 77.2927 9.91701C77.4047 10.1943 77.5621 10.437 77.7647 10.645C77.9674 10.853 78.2074 11.0157 78.4847 11.133C78.7621 11.2503 79.0634 11.309 79.3887 11.309ZM79.4927 10.621C79.1621 10.621 78.8687 10.5543 78.6127 10.421C78.3567 10.2823 78.1541 10.0903 78.0047 9.84501C77.8607 9.59967 77.7887 9.31967 77.7887 9.00501C77.7887 8.69034 77.8607 8.41034 78.0047 8.16501C78.1541 7.91967 78.3567 7.73034 78.6127 7.59701C78.8687 7.45834 79.1621 7.38901 79.4927 7.38901C79.8127 7.38901 80.0927 7.45834 80.3327 7.59701C80.5727 7.73034 80.7487 7.91434 80.8607 8.14901L80.1407 8.57301C80.0607 8.43967 79.9647 8.34367 79.8527 8.28501C79.7461 8.22634 79.6234 8.19701 79.4847 8.19701C79.3461 8.19701 79.2181 8.22901 79.1007 8.29301C78.9887 8.35701 78.8981 8.45034 78.8287 8.57301C78.7594 8.69567 78.7247 8.83967 78.7247 9.00501C78.7247 9.17034 78.7594 9.31434 78.8287 9.43701C78.8981 9.55967 78.9887 9.65301 79.1007 9.71701C79.2181 9.78101 79.3461 9.81301 79.4847 9.81301C79.6234 9.81301 79.7461 9.78367 79.8527 9.72501C79.9647 9.66634 80.0607 9.57034 80.1407 9.43701L80.8607 9.85301C80.7487 10.0877 80.5727 10.2743 80.3327 10.413C80.0927 10.5517 79.8127 10.621 79.4927 10.621Z" fill="white"/>
</svg>
